<svg width="368" height="212" viewBox="0 0 368 212" fill="none" xmlns="http://www.w3.org/2000/svg">
<g filter="url(#filter0_d_1042_15477)">
<rect x="18" y="14" width="332" height="176" rx="20" fill="white"/>
<g clip-path="url(#clip0_1042_15477)">
<rect x="28" y="24" width="312" height="96" rx="15" fill="#FFF5D7"/>
<rect x="129" y="42" width="109.071" height="145" rx="10" fill="white"/>
<circle cx="184.035" cy="56" r="9" fill="#F5F5F5"/>
<rect x="163.035" y="70" width="12" height="7" rx="2" fill="#F5F5F5"/>
<rect x="178.035" y="70" width="12" height="7" rx="2" fill="#F5F5F5"/>
<rect x="193.035" y="70" width="12" height="7" rx="2" fill="#F5F5F5"/>
<rect x="137.035" y="83" width="93" height="39" rx="2" fill="#F5F5F5"/>
</g>
<path d="M34.396 144.848V146H28.936V137.384H34.312V138.536H30.256V140.984H33.952V142.136H30.256V144.848H34.396ZM37.0598 142.748V146H35.8478V139.64H36.9758V140.984C37.4198 140.108 38.3798 139.556 39.4238 139.556V140.816C38.0558 140.744 37.0598 141.344 37.0598 142.748ZM41.595 142.748V146H40.383V139.64H41.511V140.984C41.955 140.108 42.915 139.556 43.959 139.556V140.816C42.591 140.744 41.595 141.344 41.595 142.748ZM47.5587 146.12C45.7587 146.12 44.4387 144.704 44.4387 142.82C44.4387 140.936 45.7587 139.52 47.5587 139.52C49.3587 139.52 50.6787 140.936 50.6787 142.82C50.6787 144.704 49.3587 146.12 47.5587 146.12ZM47.5587 145.052C48.6027 145.052 49.4307 144.212 49.4307 142.82C49.4307 141.428 48.6027 140.6 47.5587 140.6C46.5147 140.6 45.6987 141.428 45.6987 142.82C45.6987 144.212 46.5147 145.052 47.5587 145.052ZM53.1262 142.748V146H51.9142V139.64H53.0422V140.984C53.4862 140.108 54.4462 139.556 55.4902 139.556V140.816C54.1222 140.744 53.1262 141.344 53.1262 142.748ZM61.4894 144.104C61.4894 145.352 60.5174 146.12 58.8254 146.12C57.1454 146.12 56.1494 145.292 56.0294 143.924H57.1934C57.2414 144.716 57.8774 145.208 58.8494 145.208C59.7014 145.208 60.2654 144.908 60.2654 144.308C60.2654 143.78 59.9414 143.552 59.1494 143.396L58.1174 143.204C56.9414 142.976 56.2814 142.376 56.2814 141.416C56.2814 140.3 57.2534 139.52 58.7294 139.52C60.2534 139.52 61.2854 140.336 61.3934 141.644H60.2294C60.1574 140.876 59.5934 140.432 58.7414 140.432C57.9734 140.432 57.4574 140.756 57.4574 141.308C57.4574 141.824 57.7814 142.064 58.5494 142.208L59.6294 142.412C60.8894 142.64 61.4894 143.192 61.4894 144.104Z" fill="#1A1A1A"/>
<path d="M32.7484 160.286C32.7484 161.213 31.9922 161.985 30.6344 161.985C29.2765 161.985 28.4797 161.229 28.4228 160.123H29.0407C29.0977 160.953 29.618 161.489 30.6262 161.489C31.4556 161.489 32.106 161.066 32.106 160.367C32.106 159.765 31.7645 159.489 30.9352 159.318L30.1953 159.172C29.4229 159.017 28.6098 158.66 28.6098 157.643C28.6098 156.708 29.431 155.985 30.5937 155.985C31.732 155.985 32.6101 156.7 32.6752 157.814H32.0491C32.0085 157.042 31.4393 156.481 30.6018 156.481C29.7075 156.481 29.2277 157.025 29.2277 157.611C29.2277 158.302 29.8132 158.513 30.4636 158.643L31.2035 158.798C32.1873 159.001 32.7484 159.408 32.7484 160.286ZM35.5257 161.985C34.3223 161.985 33.5255 161.083 33.5255 159.725C33.5255 158.473 34.3548 157.538 35.4931 157.538C36.7128 157.538 37.5096 158.521 37.412 159.896H34.0946C34.1434 160.912 34.6801 161.538 35.5175 161.538C36.233 161.538 36.729 161.14 36.8672 160.457H37.4283C37.2331 161.408 36.5095 161.985 35.5257 161.985ZM35.485 157.977C34.7126 157.977 34.1678 158.57 34.0946 159.505H36.8185C36.7697 158.546 36.2737 157.977 35.485 157.977ZM38.9218 159.408V161.904H38.3526V157.619H38.8811V158.424C39.1576 157.895 39.6779 157.538 40.2959 157.538C41.1903 157.538 41.7676 158.107 41.7676 159.123V161.904H41.1984V159.318C41.1984 158.497 40.8244 158.034 40.1251 158.034C39.4584 158.034 38.9218 158.611 38.9218 159.408ZM42.6488 159.757C42.6488 158.44 43.3806 157.538 44.5351 157.538C45.1775 157.538 45.7222 157.903 46.0068 158.513V156.066H46.5759V161.904H46.0474V161.001C45.7466 161.627 45.1937 161.985 44.5351 161.985C43.3806 161.985 42.6488 161.074 42.6488 159.757ZM43.2261 159.757C43.2261 160.847 43.779 161.489 44.6164 161.489C45.4458 161.489 46.0149 160.814 46.0149 159.741C46.0149 158.66 45.4295 158.034 44.6164 158.034C43.779 158.034 43.2261 158.668 43.2261 159.757ZM52.143 161.904V161.123C51.8909 161.66 51.3706 161.985 50.7038 161.985C49.8176 161.985 49.2403 161.489 49.2403 160.717C49.2403 159.879 49.907 159.44 51.2079 159.44C51.4681 159.44 51.6633 159.456 52.0861 159.489V159.131C52.0861 158.416 51.7039 157.993 51.0535 157.993C50.3542 157.993 49.9152 158.424 49.907 159.123H49.3867C49.411 158.172 50.0696 157.538 51.0453 157.538C52.0454 157.538 52.6308 158.123 52.6308 159.115V161.904H52.143ZM49.7851 160.7C49.7851 161.221 50.1835 161.57 50.7851 161.57C51.582 161.57 52.0861 161.05 52.0861 160.245V159.863C51.7202 159.83 51.4681 159.822 51.2323 159.822C50.2566 159.822 49.7851 160.107 49.7851 160.7ZM55.2102 159.757C55.2102 158.448 55.942 157.538 57.0965 157.538C57.7633 157.538 58.3161 157.92 58.6089 158.562V157.619H59.1374V163.473H58.5682V161.026C58.2755 161.635 57.7389 161.985 57.0965 161.985C55.942 161.985 55.2102 161.083 55.2102 159.757ZM55.7875 159.757C55.7875 160.855 56.3404 161.489 57.1778 161.489C58.0072 161.489 58.5763 160.822 58.5763 159.757C58.5763 158.668 57.9909 158.034 57.1778 158.034C56.3404 158.034 55.7875 158.676 55.7875 159.757ZM63.1109 160.172V157.619H63.6719V161.904H63.1434V161.131C62.9239 161.627 62.4035 161.985 61.7774 161.985C60.9074 161.985 60.3302 161.489 60.3302 160.408V157.619H60.8993V160.286C60.8993 161.156 61.3302 161.489 61.9319 161.489C62.6149 161.489 63.1109 160.936 63.1109 160.172ZM65.6446 156.627C65.6446 156.879 65.4576 157.058 65.1811 157.058C64.9128 157.058 64.7258 156.879 64.7258 156.627C64.7258 156.383 64.9128 156.204 65.1811 156.204C65.4576 156.204 65.6446 156.383 65.6446 156.627ZM65.4738 161.904H64.9047V157.619H65.4738V161.904ZM68.3089 161.993C67.1787 161.993 66.39 161.074 66.39 159.757C66.39 158.456 67.1868 157.538 68.3089 157.538C69.3089 157.538 70.0244 158.204 70.1952 159.278H69.6179C69.4878 158.497 69 158.034 68.3089 158.034C67.512 158.034 66.9673 158.733 66.9673 159.757C66.9673 160.798 67.512 161.497 68.3089 161.497C69.0081 161.497 69.4878 161.042 69.6179 160.245H70.1952C70.0407 161.335 69.3171 161.993 68.3089 161.993ZM71.6831 161.904H71.1139V156.066H71.6831V159.611L73.7483 157.619H74.4231L72.2603 159.717L74.602 161.904H73.8621L71.6831 159.847V161.904ZM76.1701 161.635C76.1701 162.237 75.7148 162.798 74.9342 162.823V162.481C75.3977 162.449 75.7148 162.164 75.7473 161.79C75.6823 161.823 75.6253 161.831 75.5603 161.831C75.3001 161.831 75.1131 161.627 75.1131 161.383C75.1131 161.099 75.3245 160.912 75.601 160.912C75.9831 160.912 76.1701 161.205 76.1701 161.635ZM78.7053 159.757C78.7053 158.44 79.437 157.538 80.5916 157.538C81.2339 157.538 81.7787 157.903 82.0633 158.513V156.066H82.6324V161.904H82.1039V161.001C81.8031 161.627 81.2502 161.985 80.5916 161.985C79.437 161.985 78.7053 161.074 78.7053 159.757ZM79.2825 159.757C79.2825 160.847 79.8354 161.489 80.6729 161.489C81.5022 161.489 82.0714 160.814 82.0714 159.741C82.0714 158.66 81.486 158.034 80.6729 158.034C79.8354 158.034 79.2825 158.668 79.2825 159.757ZM84.6058 156.627C84.6058 156.879 84.4188 157.058 84.1423 157.058C83.874 157.058 83.687 156.879 83.687 156.627C83.687 156.383 83.874 156.204 84.1423 156.204C84.4188 156.204 84.6058 156.383 84.6058 156.627ZM84.435 161.904H83.8659V157.619H84.435V161.904ZM86.2375 159.611V161.904H85.6683V157.619H86.1968V158.595C86.4895 157.96 87.1237 157.554 87.8311 157.554V158.147C86.9286 158.115 86.2375 158.676 86.2375 159.611ZM90.2019 161.985C88.9986 161.985 88.2017 161.083 88.2017 159.725C88.2017 158.473 89.0311 157.538 90.1694 157.538C91.389 157.538 92.1858 158.521 92.0882 159.896H88.7709C88.8197 160.912 89.3563 161.538 90.1938 161.538C90.9093 161.538 91.4053 161.14 91.5435 160.457H92.1045C91.9094 161.408 91.1857 161.985 90.2019 161.985ZM90.1613 157.977C89.3888 157.977 88.8441 158.57 88.7709 159.505H91.4947C91.4459 158.546 90.9499 157.977 90.1613 157.977ZM94.5512 161.993C93.4211 161.993 92.6324 161.074 92.6324 159.757C92.6324 158.456 93.4292 157.538 94.5512 157.538C95.5513 157.538 96.2668 158.204 96.4376 159.278H95.8603C95.7302 158.497 95.2424 158.034 94.5512 158.034C93.7544 158.034 93.2097 158.733 93.2097 159.757C93.2097 160.798 93.7544 161.497 94.5512 161.497C95.2505 161.497 95.7302 161.042 95.8603 160.245H96.4376C96.2831 161.335 95.5595 161.993 94.5512 161.993ZM99.5597 161.359V161.863C99.3402 161.953 99.1532 161.985 98.9418 161.985C98.2344 161.985 97.6896 161.619 97.6896 160.692V158.099H96.6814V157.619H97.6896V156.35H98.2588V157.619H99.6004V158.099H98.2588V160.57C98.2588 161.237 98.584 161.465 99.0556 161.465C99.2345 161.465 99.3808 161.432 99.5597 161.359ZM102.729 161.904H102.16V157.619H102.689V158.424C102.973 157.871 103.477 157.538 104.087 157.538C104.754 157.538 105.25 157.903 105.429 158.53C105.697 157.928 106.234 157.538 106.908 157.538C107.795 157.538 108.348 158.123 108.348 159.123V161.904H107.787V159.31C107.787 158.497 107.413 158.034 106.721 158.034C106.071 158.034 105.543 158.603 105.543 159.391V161.904H104.973V159.31C104.973 158.497 104.599 158.034 103.908 158.034C103.25 158.034 102.729 158.603 102.729 159.391V161.904ZM111.228 161.985C110.024 161.985 109.227 161.083 109.227 159.725C109.227 158.473 110.057 157.538 111.195 157.538C112.415 157.538 113.211 158.521 113.114 159.896H109.797C109.845 160.912 110.382 161.538 111.219 161.538C111.935 161.538 112.431 161.14 112.569 160.457H113.13C112.935 161.408 112.211 161.985 111.228 161.985ZM111.187 157.977C110.414 157.977 109.87 158.57 109.797 159.505H112.52C112.472 158.546 111.976 157.977 111.187 157.977ZM117.258 160.709C117.258 161.497 116.624 161.985 115.567 161.985C114.502 161.985 113.851 161.448 113.77 160.562H114.315C114.355 161.172 114.835 161.554 115.567 161.554C116.266 161.554 116.689 161.286 116.689 160.798C116.689 160.375 116.445 160.18 115.795 160.05L115.177 159.928C114.363 159.774 113.933 159.375 113.933 158.757C113.933 158.042 114.567 157.538 115.502 157.538C116.486 157.538 117.136 158.066 117.201 158.92H116.665C116.608 158.326 116.177 157.977 115.502 157.977C114.9 157.977 114.485 158.261 114.485 158.708C114.485 159.131 114.746 159.334 115.38 159.456L116.022 159.578C116.876 159.741 117.258 160.099 117.258 160.709ZM121.45 160.709C121.45 161.497 120.816 161.985 119.759 161.985C118.694 161.985 118.044 161.448 117.962 160.562H118.507C118.548 161.172 119.028 161.554 119.759 161.554C120.459 161.554 120.881 161.286 120.881 160.798C120.881 160.375 120.637 160.18 119.987 160.05L119.369 159.928C118.556 159.774 118.125 159.375 118.125 158.757C118.125 158.042 118.759 157.538 119.694 157.538C120.678 157.538 121.329 158.066 121.394 158.92H120.857C120.8 158.326 120.369 157.977 119.694 157.977C119.093 157.977 118.678 158.261 118.678 158.708C118.678 159.131 118.938 159.334 119.572 159.456L120.215 159.578C121.068 159.741 121.45 160.099 121.45 160.709ZM125.074 161.904V161.123C124.822 161.66 124.301 161.985 123.635 161.985C122.748 161.985 122.171 161.489 122.171 160.717C122.171 159.879 122.838 159.44 124.139 159.44C124.399 159.44 124.594 159.456 125.017 159.489V159.131C125.017 158.416 124.635 157.993 123.984 157.993C123.285 157.993 122.846 158.424 122.838 159.123H122.317C122.342 158.172 123 157.538 123.976 157.538C124.976 157.538 125.562 158.123 125.562 159.115V161.904H125.074ZM122.716 160.7C122.716 161.221 123.114 161.57 123.716 161.57C124.513 161.57 125.017 161.05 125.017 160.245V159.863C124.651 159.83 124.399 159.822 124.163 159.822C123.187 159.822 122.716 160.107 122.716 160.7ZM128.377 163.562C127.287 163.562 126.604 162.993 126.556 162.034H127.1C127.149 162.733 127.604 163.107 128.369 163.107C129.214 163.107 129.662 162.66 129.662 161.814V160.92C129.401 161.522 128.881 161.871 128.247 161.871C127.165 161.871 126.442 161.001 126.442 159.7C126.442 158.399 127.157 157.538 128.239 157.538C128.881 157.538 129.418 157.903 129.694 158.53V157.619H130.223V161.806C130.223 162.912 129.548 163.562 128.377 163.562ZM127.011 159.7C127.011 160.749 127.507 161.383 128.328 161.383C129.133 161.383 129.67 160.733 129.67 159.741C129.67 158.692 129.141 158.025 128.328 158.025C127.515 158.025 127.011 158.66 127.011 159.7ZM133.143 161.985C131.939 161.985 131.142 161.083 131.142 159.725C131.142 158.473 131.972 157.538 133.11 157.538C134.33 157.538 135.126 158.521 135.029 159.896H131.712C131.76 160.912 132.297 161.538 133.134 161.538C133.85 161.538 134.346 161.14 134.484 160.457H135.045C134.85 161.408 134.126 161.985 133.143 161.985ZM133.102 157.977C132.329 157.977 131.785 158.57 131.712 159.505H134.435C134.387 158.546 133.891 157.977 133.102 157.977ZM141.238 161.904L140.116 158.375L139.002 161.904H138.425L137.173 157.619H137.734L138.726 161.099L139.84 157.619H140.401L141.506 161.107L142.498 157.619H143.068L141.807 161.904H141.238ZM144.546 156.627C144.546 156.879 144.359 157.058 144.083 157.058C143.815 157.058 143.628 156.879 143.628 156.627C143.628 156.383 143.815 156.204 144.083 156.204C144.359 156.204 144.546 156.383 144.546 156.627ZM144.376 161.904H143.806V157.619H144.376V161.904ZM147.812 161.359V161.863C147.593 161.953 147.406 161.985 147.194 161.985C146.487 161.985 145.942 161.619 145.942 160.692V158.099H144.934V157.619H145.942V156.35H146.511V157.619H147.853V158.099H146.511V160.57C146.511 161.237 146.837 161.465 147.308 161.465C147.487 161.465 147.633 161.432 147.812 161.359ZM149.283 159.408V161.904H148.714V156.066H149.283V158.408C149.551 157.895 150.039 157.538 150.657 157.538C151.551 157.538 152.128 158.107 152.128 159.123V161.904H151.559V159.318C151.559 158.497 151.185 158.034 150.486 158.034C149.819 158.034 149.283 158.611 149.283 159.408ZM159.156 160.286C159.156 161.213 158.4 161.985 157.042 161.985C155.685 161.985 154.888 161.229 154.831 160.123H155.449C155.506 160.953 156.026 161.489 157.034 161.489C157.864 161.489 158.514 161.066 158.514 160.367C158.514 159.765 158.173 159.489 157.343 159.318L156.603 159.172C155.831 159.017 155.018 158.66 155.018 157.643C155.018 156.708 155.839 155.985 157.002 155.985C158.14 155.985 159.018 156.7 159.083 157.814H158.457C158.417 157.042 157.847 156.481 157.01 156.481C156.116 156.481 155.636 157.025 155.636 157.611C155.636 158.302 156.221 158.513 156.872 158.643L157.612 158.798C158.595 159.001 159.156 159.408 159.156 160.286ZM162.974 161.904L160.86 156.952V161.904H160.291V156.066H161.08L163.243 161.156L165.422 156.066H166.202V161.904H165.641V156.952L163.511 161.904H162.974ZM171.607 160.286C171.607 161.213 170.85 161.985 169.493 161.985C168.135 161.985 167.338 161.229 167.281 160.123H167.899C167.956 160.953 168.476 161.489 169.485 161.489C170.314 161.489 170.964 161.066 170.964 160.367C170.964 159.765 170.623 159.489 169.793 159.318L169.054 159.172C168.281 159.017 167.468 158.66 167.468 157.643C167.468 156.708 168.289 155.985 169.452 155.985C170.59 155.985 171.468 156.7 171.533 157.814H170.907C170.867 157.042 170.298 156.481 169.46 156.481C168.566 156.481 168.086 157.025 168.086 157.611C168.086 158.302 168.671 158.513 169.322 158.643L170.062 158.798C171.046 159.001 171.607 159.408 171.607 160.286ZM173.525 161.432C173.525 161.725 173.314 161.944 173.013 161.944C172.72 161.944 172.5 161.725 172.5 161.432C172.5 161.123 172.72 160.912 173.013 160.912C173.314 160.912 173.525 161.123 173.525 161.432ZM30.5775 171.757H29.2684V173.904H28.6586V168.066H30.5775C31.7808 168.066 32.602 168.725 32.602 169.903C32.602 171.082 31.7808 171.757 30.5775 171.757ZM30.5693 168.586H29.2684V171.237H30.5693C31.4393 171.237 31.9922 170.757 31.9922 169.903C31.9922 169.058 31.4393 168.586 30.5693 168.586ZM35.1048 173.985C33.9015 173.985 33.1047 173.083 33.1047 171.725C33.1047 170.473 33.934 169.538 35.0723 169.538C36.2919 169.538 37.0887 170.521 36.9912 171.896H33.6738C33.7226 172.912 34.2592 173.538 35.0967 173.538C35.8122 173.538 36.3082 173.14 36.4464 172.457H37.0074C36.8123 173.408 36.0887 173.985 35.1048 173.985ZM35.0642 169.977C34.2918 169.977 33.747 170.57 33.6738 171.505H36.3976C36.3488 170.546 35.8529 169.977 35.0642 169.977ZM38.501 171.611V173.904H37.9318V169.619H38.4603V170.595C38.753 169.96 39.3872 169.554 40.0946 169.554V170.147C39.1921 170.115 38.501 170.676 38.501 171.611ZM41.9796 173.904H41.4104V170.099H40.4022V169.619H41.4104V169.229C41.4104 168.44 41.8414 168.001 42.5894 168.001C42.7845 168.001 42.9553 168.033 43.1016 168.09V168.562C42.9634 168.505 42.8333 168.497 42.687 168.497C42.2316 168.497 41.9796 168.725 41.9796 169.229V169.619H43.2399V170.099H41.9796V173.904ZM45.4589 173.985C44.2555 173.985 43.4587 173.083 43.4587 171.725C43.4587 170.473 44.288 169.538 45.4263 169.538C46.6459 169.538 47.4428 170.521 47.3452 171.896H44.0278C44.0766 172.912 44.6133 173.538 45.4507 173.538C46.1662 173.538 46.6622 173.14 46.8004 172.457H47.3615C47.1663 173.408 46.4427 173.985 45.4589 173.985ZM45.4182 169.977C44.6458 169.977 44.101 170.57 44.0278 171.505H46.7516C46.7029 170.546 46.2069 169.977 45.4182 169.977ZM49.8082 173.993C48.678 173.993 47.8893 173.074 47.8893 171.757C47.8893 170.456 48.6861 169.538 49.8082 169.538C50.8083 169.538 51.5238 170.204 51.6945 171.278H51.1172C50.9871 170.497 50.4993 170.034 49.8082 170.034C49.0114 170.034 48.4666 170.733 48.4666 171.757C48.4666 172.798 49.0114 173.497 49.8082 173.497C50.5074 173.497 50.9871 173.042 51.1172 172.245H51.6945C51.54 173.335 50.8164 173.993 49.8082 173.993ZM54.8167 173.359V173.863C54.5971 173.953 54.4101 173.985 54.1987 173.985C53.4914 173.985 52.9466 173.619 52.9466 172.692V170.099H51.9384V169.619H52.9466V168.35H53.5158V169.619H54.8573V170.099H53.5158V172.57C53.5158 173.237 53.841 173.465 54.3126 173.465C54.4914 173.465 54.6378 173.432 54.8167 173.359ZM58.3602 173.904H57.7911V170.099H56.7829V169.619H57.7911V169.229C57.7911 168.44 58.222 168.001 58.97 168.001C59.1652 168.001 59.3359 168.033 59.4823 168.09V168.562C59.3441 168.505 59.214 168.497 59.0676 168.497C58.6123 168.497 58.3602 168.725 58.3602 169.229V169.619H59.6205V170.099H58.3602V173.904ZM61.872 173.985C60.6931 173.985 59.8393 173.05 59.8393 171.757C59.8393 170.473 60.6931 169.546 61.872 169.546C63.0591 169.546 63.9128 170.473 63.9128 171.757C63.9128 173.05 63.0591 173.985 61.872 173.985ZM61.872 173.489C62.7095 173.489 63.3356 172.822 63.3356 171.757C63.3356 170.708 62.7095 170.042 61.872 170.042C61.0427 170.042 60.4166 170.708 60.4166 171.757C60.4166 172.822 61.0427 173.489 61.872 173.489ZM65.4024 171.611V173.904H64.8332V169.619H65.3617V170.595C65.6544 169.96 66.2886 169.554 66.996 169.554V170.147C66.0935 170.115 65.4024 170.676 65.4024 171.611ZM70.9926 173.993C69.8625 173.993 69.0738 173.074 69.0738 171.757C69.0738 170.456 69.8706 169.538 70.9926 169.538C71.9927 169.538 72.7082 170.204 72.879 171.278H72.3017C72.1716 170.497 71.6838 170.034 70.9926 170.034C70.1958 170.034 69.6511 170.733 69.6511 171.757C69.6511 172.798 70.1958 173.497 70.9926 173.497C71.6919 173.497 72.1716 173.042 72.3017 172.245H72.879C72.7245 173.335 72.0009 173.993 70.9926 173.993ZM75.4577 173.985C74.2787 173.985 73.425 173.05 73.425 171.757C73.425 170.473 74.2787 169.546 75.4577 169.546C76.6448 169.546 77.4985 170.473 77.4985 171.757C77.4985 173.05 76.6448 173.985 75.4577 173.985ZM75.4577 173.489C76.2952 173.489 76.9212 172.822 76.9212 171.757C76.9212 170.708 76.2952 170.042 75.4577 170.042C74.6284 170.042 74.0023 170.708 74.0023 171.757C74.0023 172.822 74.6284 173.489 75.4577 173.489ZM78.9881 171.408V173.904H78.4189V169.619H78.9474V170.424C79.2238 169.895 79.7442 169.538 80.3622 169.538C81.2565 169.538 81.8338 170.107 81.8338 171.123V173.904H81.2647V171.318C81.2647 170.497 80.8907 170.034 80.1914 170.034C79.5247 170.034 78.9881 170.611 78.9881 171.408ZM84.6339 173.993C83.5037 173.993 82.7151 173.074 82.7151 171.757C82.7151 170.456 83.5119 169.538 84.6339 169.538C85.634 169.538 86.3495 170.204 86.5203 171.278H85.943C85.8129 170.497 85.325 170.034 84.6339 170.034C83.8371 170.034 83.2923 170.733 83.2923 171.757C83.2923 172.798 83.8371 173.497 84.6339 173.497C85.3332 173.497 85.8129 173.042 85.943 172.245H86.5203C86.3658 173.335 85.6421 173.993 84.6339 173.993ZM88.1789 168.627C88.1789 168.879 87.9919 169.058 87.7154 169.058C87.4471 169.058 87.2601 168.879 87.2601 168.627C87.2601 168.383 87.4471 168.204 87.7154 168.204C87.9919 168.204 88.1789 168.383 88.1789 168.627ZM88.0081 173.904H87.439V169.619H88.0081V173.904ZM92.4449 172.709C92.4449 173.497 91.8107 173.985 90.7537 173.985C89.6886 173.985 89.0381 173.448 88.9568 172.562H89.5016C89.5422 173.172 90.0219 173.554 90.7537 173.554C91.453 173.554 91.8758 173.286 91.8758 172.798C91.8758 172.375 91.6318 172.18 90.9814 172.05L90.3634 171.928C89.5504 171.774 89.1194 171.375 89.1194 170.757C89.1194 170.042 89.7536 169.538 90.6887 169.538C91.6725 169.538 92.323 170.066 92.388 170.92H91.8514C91.7945 170.326 91.3635 169.977 90.6887 169.977C90.087 169.977 89.6723 170.261 89.6723 170.708C89.6723 171.131 89.9325 171.334 90.5667 171.456L91.209 171.578C92.0628 171.741 92.4449 172.099 92.4449 172.709ZM95.1169 173.985C93.9135 173.985 93.1167 173.083 93.1167 171.725C93.1167 170.473 93.9461 169.538 95.0844 169.538C96.304 169.538 97.1008 170.521 97.0032 171.896H93.6859C93.7347 172.912 94.2713 173.538 95.1088 173.538C95.8243 173.538 96.3202 173.14 96.4585 172.457H97.0195C96.8244 173.408 96.1007 173.985 95.1169 173.985ZM95.0762 169.977C94.3038 169.977 93.7591 170.57 93.6859 171.505H96.4097C96.3609 170.546 95.8649 169.977 95.0762 169.977ZM102.383 172.172V169.619H102.944V173.904H102.416V173.131C102.196 173.627 101.676 173.985 101.05 173.985C100.18 173.985 99.6024 173.489 99.6024 172.408V169.619H100.172V172.286C100.172 173.156 100.602 173.489 101.204 173.489C101.887 173.489 102.383 172.936 102.383 172.172ZM108.104 171.757C108.104 173.083 107.364 173.985 106.226 173.985C105.584 173.985 105.039 173.635 104.746 173.026V175.473H104.177V169.619H104.705V170.546C104.998 169.912 105.567 169.538 106.226 169.538C107.364 169.538 108.104 170.448 108.104 171.757ZM107.527 171.757C107.527 170.676 106.966 170.034 106.128 170.034C105.331 170.034 104.738 170.668 104.738 171.757C104.738 172.822 105.315 173.489 106.128 173.489C106.966 173.489 107.527 172.855 107.527 171.757ZM108.703 171.757C108.703 170.44 109.435 169.538 110.59 169.538C111.232 169.538 111.777 169.903 112.061 170.513V168.066H112.631V173.904H112.102V173.001C111.801 173.627 111.248 173.985 110.59 173.985C109.435 173.985 108.703 173.074 108.703 171.757ZM109.281 171.757C109.281 172.847 109.834 173.489 110.671 173.489C111.5 173.489 112.069 172.814 112.069 171.741C112.069 170.66 111.484 170.034 110.671 170.034C109.834 170.034 109.281 170.668 109.281 171.757ZM116.498 173.904V173.123C116.246 173.66 115.726 173.985 115.059 173.985C114.173 173.985 113.596 173.489 113.596 172.717C113.596 171.879 114.262 171.44 115.563 171.44C115.823 171.44 116.019 171.456 116.441 171.489V171.131C116.441 170.416 116.059 169.993 115.409 169.993C114.71 169.993 114.271 170.424 114.262 171.123H113.742C113.766 170.172 114.425 169.538 115.401 169.538C116.401 169.538 116.986 170.123 116.986 171.115V173.904H116.498ZM114.14 172.7C114.14 173.221 114.539 173.57 115.141 173.57C115.937 173.57 116.441 173.05 116.441 172.245V171.863C116.076 171.83 115.823 171.822 115.588 171.822C114.612 171.822 114.14 172.107 114.14 172.7ZM120.363 173.359V173.863C120.144 173.953 119.957 173.985 119.745 173.985C119.038 173.985 118.493 173.619 118.493 172.692V170.099H117.485V169.619H118.493V168.35H119.062V169.619H120.404V170.099H119.062V172.57C119.062 173.237 119.387 173.465 119.859 173.465C120.038 173.465 120.184 173.432 120.363 173.359ZM122.812 173.985C121.609 173.985 120.812 173.083 120.812 171.725C120.812 170.473 121.641 169.538 122.78 169.538C123.999 169.538 124.796 170.521 124.699 171.896H121.381C121.43 172.912 121.967 173.538 122.804 173.538C123.52 173.538 124.016 173.14 124.154 172.457H124.715C124.52 173.408 123.796 173.985 122.812 173.985ZM122.772 169.977C121.999 169.977 121.454 170.57 121.381 171.505H124.105C124.056 170.546 123.56 169.977 122.772 169.977ZM128.843 172.709C128.843 173.497 128.209 173.985 127.152 173.985C126.086 173.985 125.436 173.448 125.355 172.562H125.899C125.94 173.172 126.42 173.554 127.152 173.554C127.851 173.554 128.274 173.286 128.274 172.798C128.274 172.375 128.03 172.18 127.379 172.05L126.761 171.928C125.948 171.774 125.517 171.375 125.517 170.757C125.517 170.042 126.152 169.538 127.087 169.538C128.07 169.538 128.721 170.066 128.786 170.92H128.249C128.192 170.326 127.761 169.977 127.087 169.977C126.485 169.977 126.07 170.261 126.07 170.708C126.07 171.131 126.33 171.334 126.965 171.456L127.607 171.578C128.461 171.741 128.843 172.099 128.843 172.709ZM134.165 173.904V173.123C133.913 173.66 133.393 173.985 132.726 173.985C131.84 173.985 131.263 173.489 131.263 172.717C131.263 171.879 131.929 171.44 133.23 171.44C133.49 171.44 133.686 171.456 134.108 171.489V171.131C134.108 170.416 133.726 169.993 133.076 169.993C132.377 169.993 131.937 170.424 131.929 171.123H131.409C131.433 170.172 132.092 169.538 133.068 169.538C134.068 169.538 134.653 170.123 134.653 171.115V173.904H134.165ZM131.807 172.7C131.807 173.221 132.206 173.57 132.807 173.57C133.604 173.57 134.108 173.05 134.108 172.245V171.863C133.742 171.83 133.49 171.822 133.255 171.822C132.279 171.822 131.807 172.107 131.807 172.7ZM136.42 171.408V173.904H135.85V169.619H136.379V170.424C136.655 169.895 137.176 169.538 137.794 169.538C138.688 169.538 139.265 170.107 139.265 171.123V173.904H138.696V171.318C138.696 170.497 138.322 170.034 137.623 170.034C136.956 170.034 136.42 170.611 136.42 171.408ZM140.147 171.757C140.147 170.44 140.878 169.538 142.033 169.538C142.675 169.538 143.22 169.903 143.505 170.513V168.066H144.074V173.904H143.545V173.001C143.244 173.627 142.691 173.985 142.033 173.985C140.878 173.985 140.147 173.074 140.147 171.757ZM140.724 171.757C140.724 172.847 141.277 173.489 142.114 173.489C142.944 173.489 143.513 172.814 143.513 171.741C143.513 170.66 142.927 170.034 142.114 170.034C141.277 170.034 140.724 170.668 140.724 171.757ZM149.641 173.904V173.123C149.389 173.66 148.868 173.985 148.202 173.985C147.315 173.985 146.738 173.489 146.738 172.717C146.738 171.879 147.405 171.44 148.706 171.44C148.966 171.44 149.161 171.456 149.584 171.489V171.131C149.584 170.416 149.202 169.993 148.551 169.993C147.852 169.993 147.413 170.424 147.405 171.123H146.884C146.909 170.172 147.567 169.538 148.543 169.538C149.543 169.538 150.129 170.123 150.129 171.115V173.904H149.641ZM147.283 172.7C147.283 173.221 147.681 173.57 148.283 173.57C149.08 173.57 149.584 173.05 149.584 172.245V171.863C149.218 171.83 148.966 171.822 148.73 171.822C147.754 171.822 147.283 172.107 147.283 172.7ZM151.895 173.904H151.326V168.066H151.895V173.904ZM154.811 173.985C153.608 173.985 152.811 173.083 152.811 171.725C152.811 170.473 153.641 169.538 154.779 169.538C155.998 169.538 156.795 170.521 156.698 171.896H153.38C153.429 172.912 153.966 173.538 154.803 173.538C155.519 173.538 156.015 173.14 156.153 172.457H156.714C156.519 173.408 155.795 173.985 154.811 173.985ZM154.771 169.977C153.998 169.977 153.454 170.57 153.38 171.505H156.104C156.055 170.546 155.559 169.977 154.771 169.977ZM158.207 171.611V173.904H157.638V169.619H158.167V170.595C158.46 169.96 159.094 169.554 159.801 169.554V170.147C158.899 170.115 158.207 170.676 158.207 171.611ZM162.954 173.359V173.863C162.735 173.953 162.548 173.985 162.336 173.985C161.629 173.985 161.084 173.619 161.084 172.692V170.099H160.076V169.619H161.084V168.35H161.653V169.619H162.995V170.099H161.653V172.57C161.653 173.237 161.979 173.465 162.45 173.465C162.629 173.465 162.775 173.432 162.954 173.359ZM167.051 172.709C167.051 173.497 166.417 173.985 165.36 173.985C164.295 173.985 163.644 173.448 163.563 172.562H164.108C164.148 173.172 164.628 173.554 165.36 173.554C166.059 173.554 166.482 173.286 166.482 172.798C166.482 172.375 166.238 172.18 165.588 172.05L164.97 171.928C164.157 171.774 163.726 171.375 163.726 170.757C163.726 170.042 164.36 169.538 165.295 169.538C166.279 169.538 166.929 170.066 166.994 170.92H166.458C166.401 170.326 165.97 169.977 165.295 169.977C164.693 169.977 164.278 170.261 164.278 170.708C164.278 171.131 164.539 171.334 165.173 171.456L165.815 171.578C166.669 171.741 167.051 172.099 167.051 172.709ZM168.983 173.432C168.983 173.725 168.772 173.944 168.471 173.944C168.178 173.944 167.959 173.725 167.959 173.432C167.959 173.123 168.178 172.912 168.471 172.912C168.772 172.912 168.983 173.123 168.983 173.432Z" fill="#767676"/>
<rect x="312.123" y="141.013" width="27.8769" height="27.8769" rx="3.48462" fill="#FAFAFA"/>
<path d="M327.475 151.427L331 154.952L327.475 158.477" stroke="#484848" stroke-width="0.871154" stroke-miterlimit="10" stroke-linecap="round" stroke-linejoin="round"/>
<path d="M321.127 154.952H330.901" stroke="#484848" stroke-width="0.871154" stroke-miterlimit="10" stroke-linecap="round" stroke-linejoin="round"/>
</g>
<defs>
<filter id="filter0_d_1042_15477" x="0.4" y="0.4" width="367.2" height="211.2" filterUnits="userSpaceOnUse" color-interpolation-filters="sRGB">
<feFlood flood-opacity="0" result="BackgroundImageFix"/>
<feColorMatrix in="SourceAlpha" type="matrix" values="0 0 0 0 0 0 0 0 0 0 0 0 0 0 0 0 0 0 127 0" result="hardAlpha"/>
<feOffset dy="4"/>
<feGaussianBlur stdDeviation="8.8"/>
<feComposite in2="hardAlpha" operator="out"/>
<feColorMatrix type="matrix" values="0 0 0 0 0 0 0 0 0 0 0 0 0 0 0 0 0 0 0.06 0"/>
<feBlend mode="normal" in2="BackgroundImageFix" result="effect1_dropShadow_1042_15477"/>
<feBlend mode="normal" in="SourceGraphic" in2="effect1_dropShadow_1042_15477" result="shape"/>
</filter>
<clipPath id="clip0_1042_15477">
<rect x="28" y="24" width="312" height="96" rx="15" fill="white"/>
</clipPath>
</defs>
</svg>
