<svg width="141" height="40" viewBox="0 0 141 40" fill="none" xmlns="http://www.w3.org/2000/svg">
<rect y="16" width="7.99999" height="7.99999" fill="#039855"/>
<rect x="24" y="24" width="8" height="7.99999" transform="rotate(180 24 24)" fill="#027A48"/>
<path d="M8.00006 16L16 8V16L8.00006 24V16Z" fill="#A6F4C5"/>
<path d="M16 24L8.00001 32L8.00001 24L16 16L16 24Z" fill="#6CE9A6"/>
<path d="M0 16L16 0V7.99999L7.99999 16H0Z" fill="#32D583"/>
<path d="M23.9999 24L7.99996 40L7.99996 32L15.9999 24L23.9999 24Z" fill="#12B76A"/>
<path d="M41.4233 28.5665C40.1633 28.5665 38.9422 28.3876 37.76 28.0298C36.5933 27.672 35.6678 27.1976 34.9833 26.6065L36.0333 24.2498C36.7022 24.7787 37.5189 25.2143 38.4833 25.5565C39.4633 25.8832 40.4433 26.0465 41.4233 26.0465C42.6367 26.0465 43.5389 25.852 44.13 25.4632C44.7367 25.0743 45.04 24.5609 45.04 23.9232C45.04 23.4565 44.8689 23.0754 44.5267 22.7798C44.2 22.4687 43.78 22.2276 43.2667 22.0565C42.7533 21.8854 42.0533 21.6909 41.1667 21.4732C39.9222 21.1776 38.9111 20.882 38.1333 20.5865C37.3711 20.2909 36.71 19.832 36.15 19.2098C35.6056 18.572 35.3333 17.7165 35.3333 16.6432C35.3333 15.7409 35.5744 14.9243 36.0567 14.1932C36.5544 13.4465 37.2933 12.8554 38.2733 12.4198C39.2689 11.9843 40.4822 11.7665 41.9133 11.7665C42.9089 11.7665 43.8889 11.8909 44.8533 12.1398C45.8178 12.3887 46.65 12.7465 47.35 13.2132L46.3933 15.5698C45.6778 15.1498 44.9311 14.8309 44.1533 14.6132C43.3756 14.3954 42.6211 14.2865 41.89 14.2865C40.6922 14.2865 39.7978 14.4887 39.2067 14.8932C38.6311 15.2976 38.3433 15.8343 38.3433 16.5032C38.3433 16.9698 38.5067 17.3509 38.8333 17.6465C39.1756 17.942 39.6033 18.1754 40.1167 18.3465C40.63 18.5176 41.33 18.712 42.2167 18.9298C43.43 19.2098 44.4256 19.5054 45.2033 19.8165C45.9811 20.112 46.6422 20.5709 47.1867 21.1932C47.7467 21.8154 48.0267 22.6554 48.0267 23.7132C48.0267 24.6154 47.7778 25.432 47.28 26.1632C46.7978 26.8943 46.0589 27.4776 45.0633 27.9132C44.0678 28.3487 42.8544 28.5665 41.4233 28.5665Z" fill="white"/>
<path d="M50.7545 15.8732H53.6711V28.3332H50.7545V15.8732ZM52.2245 13.8198C51.6956 13.8198 51.2523 13.6565 50.8945 13.3298C50.5367 12.9876 50.3578 12.5676 50.3578 12.0698C50.3578 11.572 50.5367 11.1598 50.8945 10.8332C51.2523 10.4909 51.6956 10.3198 52.2245 10.3198C52.7534 10.3198 53.1967 10.4832 53.5545 10.8098C53.9123 11.1209 54.0911 11.5176 54.0911 11.9998C54.0911 12.5132 53.9123 12.9487 53.5545 13.3065C53.2123 13.6487 52.7689 13.8198 52.2245 13.8198Z" fill="white"/>
<path d="M61.3493 28.4965C60.3382 28.4965 59.3504 28.3643 58.3859 28.0998C57.4215 27.8354 56.6515 27.5009 56.0759 27.0965L57.1959 24.8798C57.7559 25.2532 58.4248 25.5565 59.2026 25.7898C59.9959 26.0076 60.7737 26.1165 61.5359 26.1165C63.2782 26.1165 64.1493 25.6576 64.1493 24.7398C64.1493 24.3043 63.9237 24.0009 63.4726 23.8298C63.037 23.6587 62.3293 23.4954 61.3493 23.3398C60.3226 23.1843 59.4826 23.0054 58.8293 22.8032C58.1915 22.6009 57.6315 22.2509 57.1493 21.7532C56.6826 21.2398 56.4493 20.532 56.4493 19.6298C56.4493 18.4476 56.9393 17.5065 57.9193 16.8065C58.9148 16.0909 60.2526 15.7332 61.9326 15.7332C62.7882 15.7332 63.6437 15.8343 64.4993 16.0365C65.3548 16.2232 66.0548 16.4798 66.5993 16.8065L65.4793 19.0232C64.4215 18.4009 63.2315 18.0898 61.9093 18.0898C61.0537 18.0898 60.4004 18.222 59.9493 18.4865C59.5137 18.7354 59.2959 19.0698 59.2959 19.4898C59.2959 19.9565 59.5293 20.2909 59.9959 20.4932C60.4782 20.6798 61.217 20.8587 62.2126 21.0298C63.2082 21.1854 64.0248 21.3643 64.6626 21.5665C65.3004 21.7687 65.8448 22.1109 66.2959 22.5932C66.7626 23.0754 66.9959 23.7598 66.9959 24.6465C66.9959 25.8132 66.4904 26.7465 65.4793 27.4465C64.4682 28.1465 63.0915 28.4965 61.3493 28.4965Z" fill="white"/>
<path d="M80.9465 15.8732L75.1132 29.3365C74.5687 30.6898 73.9076 31.6387 73.1299 32.1832C72.3521 32.7432 71.411 33.0232 70.3065 33.0232C69.6843 33.0232 69.0699 32.922 68.4632 32.7198C67.8565 32.5176 67.3587 32.2376 66.9699 31.8798L68.1365 29.7332C68.4165 29.9976 68.7432 30.2076 69.1165 30.3632C69.5054 30.5187 69.8943 30.5965 70.2832 30.5965C70.7965 30.5965 71.2165 30.4643 71.5432 30.1998C71.8854 29.9354 72.1965 29.492 72.4765 28.8698L72.6865 28.3798L67.2499 15.8732H70.2832L74.2032 25.0898L78.1465 15.8732H80.9465Z" fill="white"/>
<path d="M89.6761 15.7332C90.8894 15.7332 91.9705 15.9976 92.9194 16.5265C93.8839 17.0554 94.6383 17.802 95.1828 18.7665C95.7272 19.7309 95.9994 20.8432 95.9994 22.1032C95.9994 23.3632 95.7272 24.4832 95.1828 25.4632C94.6383 26.4276 93.8839 27.1743 92.9194 27.7032C91.9705 28.232 90.8894 28.4965 89.6761 28.4965C87.9961 28.4965 86.6661 27.9365 85.6861 26.8165V32.8598H82.7694V15.8732H85.5461V17.5065C86.0283 16.9154 86.6194 16.472 87.3194 16.1765C88.035 15.8809 88.8205 15.7332 89.6761 15.7332ZM89.3494 25.9998C90.4228 25.9998 91.3017 25.642 91.9861 24.9265C92.6861 24.2109 93.0361 23.2698 93.0361 22.1032C93.0361 20.9365 92.6861 19.9954 91.9861 19.2798C91.3017 18.5643 90.4228 18.2065 89.3494 18.2065C88.6494 18.2065 88.0194 18.3698 87.4594 18.6965C86.8994 19.0076 86.4561 19.4587 86.1294 20.0498C85.8028 20.6409 85.6394 21.3254 85.6394 22.1032C85.6394 22.8809 85.8028 23.5654 86.1294 24.1565C86.4561 24.7476 86.8994 25.2065 87.4594 25.5332C88.0194 25.8443 88.6494 25.9998 89.3494 25.9998Z" fill="white"/>
<path d="M105.836 15.7332C107.407 15.7332 108.667 16.192 109.616 17.1098C110.564 18.0276 111.039 19.3887 111.039 21.1932V28.3332H108.122V21.5665C108.122 20.4776 107.866 19.6609 107.352 19.1165C106.839 18.5565 106.108 18.2765 105.159 18.2765C104.086 18.2765 103.238 18.6032 102.616 19.2565C101.993 19.8943 101.682 20.8198 101.682 22.0332V28.3332H98.7655V11.0198H101.682V17.3198C102.164 16.8065 102.756 16.4176 103.456 16.1532C104.171 15.8732 104.964 15.7332 105.836 15.7332Z" fill="white"/>
<path d="M126.802 15.8732V28.3332H124.025V26.7465C123.559 27.3065 122.975 27.742 122.275 28.0532C121.575 28.3487 120.821 28.4965 120.012 28.4965C118.348 28.4965 117.033 28.0376 116.069 27.1198C115.12 26.1865 114.645 24.8098 114.645 22.9898V15.8732H117.562V22.5932C117.562 23.7132 117.811 24.5532 118.309 25.1132C118.822 25.6576 119.545 25.9298 120.479 25.9298C121.521 25.9298 122.345 25.6109 122.952 24.9732C123.574 24.3198 123.885 23.3865 123.885 22.1732V15.8732H126.802Z" fill="white"/>
<path d="M134.471 28.4965C133.46 28.4965 132.472 28.3643 131.508 28.0998C130.543 27.8354 129.773 27.5009 129.198 27.0965L130.318 24.8798C130.878 25.2532 131.547 25.5565 132.324 25.7898C133.118 26.0076 133.895 26.1165 134.658 26.1165C136.4 26.1165 137.271 25.6576 137.271 24.7398C137.271 24.3043 137.045 24.0009 136.594 23.8298C136.159 23.6587 135.451 23.4954 134.471 23.3398C133.444 23.1843 132.604 23.0054 131.951 22.8032C131.313 22.6009 130.753 22.2509 130.271 21.7532C129.804 21.2398 129.571 20.532 129.571 19.6298C129.571 18.4476 130.061 17.5065 131.041 16.8065C132.037 16.0909 133.374 15.7332 135.054 15.7332C135.91 15.7332 136.765 15.8343 137.621 16.0365C138.477 16.2232 139.177 16.4798 139.721 16.8065L138.601 19.0232C137.543 18.4009 136.353 18.0898 135.031 18.0898C134.175 18.0898 133.522 18.222 133.071 18.4865C132.635 18.7354 132.418 19.0698 132.418 19.4898C132.418 19.9565 132.651 20.2909 133.118 20.4932C133.6 20.6798 134.339 20.8587 135.334 21.0298C136.33 21.1854 137.147 21.3643 137.784 21.5665C138.422 21.7687 138.967 22.1109 139.418 22.5932C139.884 23.0754 140.118 23.7598 140.118 24.6465C140.118 25.8132 139.612 26.7465 138.601 27.4465C137.59 28.1465 136.213 28.4965 134.471 28.4965Z" fill="white"/>
</svg>
