<svg width="256" height="191" viewBox="0 0 256 191" fill="none" xmlns="http://www.w3.org/2000/svg">
<g clip-path="url(#clip0_1052_57151)">
<rect x="0.5" width="558.297" height="249.24" rx="10.4943" fill="#383268"/>
<rect x="3.91037" y="3.41055" width="551.476" height="244.243" rx="9.18252" fill="white"/>
<rect x="3.91037" y="3.41055" width="551.476" height="244.243" rx="9.18252" stroke="#F1F1F1" stroke-width="0.524715"/>
<path d="M15.9179 22.019H14.879V15.2376H17.4102C18.9686 15.2376 19.9037 16.0027 19.9037 17.3533C19.9037 18.3261 19.2898 19.0722 18.2603 19.3178L20.102 22.019H18.8553L17.1647 19.4689H15.9179V22.019ZM15.9179 16.1066V18.6H17.3441C18.3075 18.6 18.8553 18.175 18.8553 17.3533C18.8553 16.541 18.3075 16.1066 17.3441 16.1066H15.9179ZM22.8485 22.1135C21.4034 22.1135 20.4306 21.0651 20.4306 19.4878C20.4306 18.005 21.4412 16.9188 22.8202 16.9188C24.3124 16.9188 25.3042 18.1278 25.1341 19.7523H21.4034C21.479 20.7723 21.989 21.3673 22.8296 21.3673C23.538 21.3673 24.0291 20.9801 24.1897 20.3284H25.1341C24.8886 21.4429 24.0291 22.1135 22.8485 22.1135ZM22.8013 17.6366C22.0362 17.6366 21.5168 18.1844 21.4129 19.1195H24.1235C24.0763 18.1939 23.5757 17.6366 22.8013 17.6366ZM28.0301 22.1229C26.6606 22.1229 25.6972 21.0462 25.6972 19.5162C25.6972 18.005 26.6795 16.9188 28.0301 16.9188C29.2674 16.9188 30.1646 17.7405 30.3441 19.0439H29.3429C29.2391 18.2411 28.7385 17.7594 28.0396 17.7594C27.2178 17.7594 26.6795 18.4583 26.6795 19.5162C26.6795 20.5834 27.2178 21.2729 28.0396 21.2729C28.7479 21.2729 29.2391 20.8007 29.3524 19.9884H30.3441C30.1741 21.3107 29.2863 22.1229 28.0301 22.1229ZM33.3172 22.1135C31.8721 22.1135 30.8993 21.0651 30.8993 19.4878C30.8993 18.005 31.9099 16.9188 33.2888 16.9188C34.7811 16.9188 35.7728 18.1278 35.6028 19.7523H31.8721C31.9477 20.7723 32.4577 21.3673 33.2983 21.3673C34.0066 21.3673 34.4978 20.9801 34.6583 20.3284H35.6028C35.3573 21.4429 34.4978 22.1135 33.3172 22.1135ZM33.2699 17.6366C32.5049 17.6366 31.9854 18.1844 31.8815 19.1195H34.5922C34.545 18.1939 34.0444 17.6366 33.2699 17.6366ZM37.571 19.195V22.019H36.617V17.0133H37.5049V17.8444C37.8449 17.2872 38.4116 16.9188 39.101 16.9188C40.1305 16.9188 40.8106 17.58 40.8106 18.7795V22.019H39.8566V19.1006C39.8566 18.2411 39.4788 17.7594 38.7705 17.7594C38.1188 17.7594 37.571 18.3072 37.571 19.195ZM44.8829 21.0934V21.934C44.5901 22.0663 44.3351 22.1135 44.0329 22.1135C43.1073 22.1135 42.465 21.6129 42.465 20.5079V17.8255H41.36V17.0133H42.465V15.5304H43.419V17.0133H44.9302V17.8255H43.419V20.2906C43.419 20.9801 43.7496 21.2257 44.2596 21.2257C44.4863 21.2257 44.6846 21.1879 44.8829 21.0934ZM50.9879 22.019L48.8439 16.8338V22.019H47.8899V15.2376H49.165L51.4412 20.744L53.708 15.2376H54.9925V22.019H54.0291V16.8244L51.8757 22.019H50.9879ZM58.442 22.1135C56.9969 22.1135 56.0241 21.0651 56.0241 19.4878C56.0241 18.005 57.0347 16.9188 58.4137 16.9188C59.906 16.9188 60.8977 18.1278 60.7277 19.7523H56.9969C57.0725 20.7723 57.5825 21.3673 58.4231 21.3673C59.1315 21.3673 59.6226 20.9801 59.7832 20.3284H60.7277C60.4821 21.4429 59.6226 22.1135 58.442 22.1135ZM58.3948 17.6366C57.6298 17.6366 57.1103 18.1844 57.0064 19.1195H59.7171C59.6698 18.1939 59.1693 17.6366 58.3948 17.6366ZM65.7087 20.5268C65.7087 21.509 64.9437 22.1135 63.612 22.1135C62.2897 22.1135 61.5058 21.4618 61.4113 20.3851H62.3275C62.3653 21.0084 62.8658 21.3957 63.6309 21.3957C64.3015 21.3957 64.7454 21.1596 64.7454 20.6873C64.7454 20.2717 64.4903 20.0923 63.867 19.9695L63.0547 19.8184C62.1291 19.6389 61.6097 19.1667 61.6097 18.4111C61.6097 17.5327 62.3747 16.9188 63.5364 16.9188C64.7359 16.9188 65.5482 17.5611 65.6332 18.5906H64.717C64.6604 17.9861 64.2164 17.6366 63.5459 17.6366C62.9414 17.6366 62.5353 17.8916 62.5353 18.3261C62.5353 18.7322 62.7903 18.9211 63.3947 19.0345L64.2448 19.195C65.2365 19.3745 65.7087 19.8089 65.7087 20.5268ZM70.7171 20.5268C70.7171 21.509 69.9521 22.1135 68.6203 22.1135C67.2981 22.1135 66.5141 21.4618 66.4197 20.3851H67.3358C67.3736 21.0084 67.8742 21.3957 68.6392 21.3957C69.3098 21.3957 69.7537 21.1596 69.7537 20.6873C69.7537 20.2717 69.4987 20.0923 68.8754 19.9695L68.0631 19.8184C67.1375 19.6389 66.618 19.1667 66.618 18.4111C66.618 17.5327 67.3831 16.9188 68.5448 16.9188C69.7443 16.9188 70.5565 17.5611 70.6415 18.5906H69.7254C69.6687 17.9861 69.2248 17.6366 68.5542 17.6366C67.9498 17.6366 67.5436 17.8916 67.5436 18.3261C67.5436 18.7322 67.7986 18.9211 68.4031 19.0345L69.2531 19.195C70.2449 19.3745 70.7171 19.8089 70.7171 20.5268ZM74.7904 22.019V21.2446C74.4787 21.8018 73.9215 22.1135 73.1848 22.1135C72.1459 22.1135 71.4658 21.5185 71.4658 20.6023C71.4658 19.62 72.2498 19.11 73.742 19.11C74.0348 19.11 74.271 19.1195 74.6771 19.1667V18.7983C74.6771 18.0805 74.2898 17.6744 73.6287 17.6744C72.9298 17.6744 72.5048 18.09 72.4764 18.7889H71.6075C71.6547 17.665 72.4575 16.9188 73.6287 16.9188C74.866 16.9188 75.5838 17.6177 75.5838 18.8078V22.019H74.7904ZM72.3725 20.574C72.3725 21.0934 72.7598 21.4335 73.3737 21.4335C74.1765 21.4335 74.6771 20.9329 74.6771 20.1678V19.7617C74.3087 19.7145 74.0443 19.705 73.7987 19.705C72.8448 19.705 72.3725 19.9884 72.3725 20.574ZM78.8615 23.9458C77.5487 23.9458 76.6987 23.2469 76.642 22.1135H77.5676C77.6243 22.8124 78.0776 23.1902 78.8521 23.1902C79.7116 23.1902 80.1649 22.7274 80.1649 21.8679V20.9612C79.8816 21.5657 79.3149 21.9151 78.6349 21.9151C77.3881 21.9151 76.5003 20.8857 76.5003 19.4123C76.5003 17.92 77.3504 16.9188 78.6065 16.9188C79.3243 16.9188 79.891 17.2683 80.231 17.9011V17.0133H81.1189V21.849C81.1189 23.1619 80.2783 23.9458 78.8615 23.9458ZM77.4637 19.4123C77.4637 20.4512 77.9737 21.084 78.8049 21.084C79.6171 21.084 80.1649 20.4323 80.1649 19.4406C80.1649 18.4017 79.6266 17.7405 78.8049 17.7405C77.9832 17.7405 77.4637 18.3828 77.4637 19.4123ZM84.4984 22.1135C83.0534 22.1135 82.0805 21.0651 82.0805 19.4878C82.0805 18.005 83.0911 16.9188 84.4701 16.9188C85.9624 16.9188 86.9541 18.1278 86.7841 19.7523H83.0534C83.1289 20.7723 83.6389 21.3673 84.4795 21.3673C85.1879 21.3673 85.679 20.9801 85.8396 20.3284H86.7841C86.5385 21.4429 85.679 22.1135 84.4984 22.1135ZM84.4512 17.6366C83.6862 17.6366 83.1667 18.1844 83.0628 19.1195H85.7735C85.7263 18.1939 85.2257 17.6366 84.4512 17.6366ZM91.9917 22.019H89.8477V15.2376H91.9917C94.1546 15.2376 95.4013 16.6166 95.4013 18.6C95.4013 20.5551 94.1073 22.019 91.9917 22.019ZM90.8866 16.1349V21.1218H91.9445C93.5029 21.1218 94.3435 20.1584 94.3435 18.6C94.3435 17.0699 93.5123 16.1349 91.9445 16.1349H90.8866ZM98.472 22.1135C97.027 22.1135 96.0542 21.0651 96.0542 19.4878C96.0542 18.005 97.0648 16.9188 98.4437 16.9188C99.936 16.9188 100.928 18.1278 100.758 19.7523H97.027C97.1025 20.7723 97.6126 21.3673 98.4532 21.3673C99.1615 21.3673 99.6527 20.9801 99.8132 20.3284H100.758C100.512 21.4429 99.6527 22.1135 98.472 22.1135ZM98.4248 17.6366C97.6598 17.6366 97.1403 18.1844 97.0364 19.1195H99.7471C99.6999 18.1939 99.1993 17.6366 98.4248 17.6366ZM102.735 22.019H101.772V15.2376H102.735V22.019ZM105.221 15.8515C105.221 16.2104 104.938 16.4843 104.532 16.4843C104.125 16.4843 103.833 16.2104 103.833 15.8515C103.833 15.4832 104.125 15.2187 104.532 15.2187C104.938 15.2187 105.221 15.4832 105.221 15.8515ZM105.013 22.019H104.059V17.0133H105.013V22.019ZM110.493 17.0133L108.614 22.019H107.575L105.695 17.0133H106.725L108.113 20.9234L109.52 17.0133H110.493ZM113.073 22.1135C111.628 22.1135 110.655 21.0651 110.655 19.4878C110.655 18.005 111.666 16.9188 113.045 16.9188C114.537 16.9188 115.529 18.1278 115.359 19.7523H111.628C111.703 20.7723 112.213 21.3673 113.054 21.3673C113.762 21.3673 114.253 20.9801 114.414 20.3284H115.359C115.113 21.4429 114.253 22.1135 113.073 22.1135ZM113.026 17.6366C112.261 17.6366 111.741 18.1844 111.637 19.1195H114.348C114.301 18.1939 113.8 17.6366 113.026 17.6366ZM117.327 19.4595V22.019H116.373V17.0133H117.261V18.0711C117.61 17.3816 118.366 16.9471 119.187 16.9471V17.9389C118.111 17.8822 117.327 18.3544 117.327 19.4595ZM124.19 17.0133L121.687 23.8419H120.648L121.366 21.9529L119.392 17.0133H120.422L121.876 20.829L123.227 17.0133H124.19ZM129.269 19.6578H127.956V22.019H126.917V15.2376H129.269C130.789 15.2376 131.772 16.0121 131.772 17.4288C131.772 18.855 130.789 19.6578 129.269 19.6578ZM129.259 16.116H127.956V18.7795H129.259C130.175 18.7795 130.733 18.2789 130.733 17.4383C130.733 16.5977 130.175 16.116 129.259 16.116ZM134.702 22.1135C133.257 22.1135 132.284 21.0651 132.284 19.4878C132.284 18.005 133.295 16.9188 134.674 16.9188C136.166 16.9188 137.158 18.1278 136.988 19.7523H133.257C133.332 20.7723 133.843 21.3673 134.683 21.3673C135.391 21.3673 135.883 20.9801 136.043 20.3284H136.988C136.742 21.4429 135.883 22.1135 134.702 22.1135ZM134.655 17.6366C133.89 17.6366 133.37 18.1844 133.266 19.1195H135.977C135.93 18.1939 135.429 17.6366 134.655 17.6366ZM138.956 19.4595V22.019H138.002V17.0133H138.89V18.0711C139.239 17.3816 139.995 16.9471 140.816 16.9471V17.9389C139.74 17.8822 138.956 18.3544 138.956 19.4595ZM143.265 22.019H142.311V17.8255H141.206V17.0133H142.311V16.6449C142.311 15.6815 142.83 15.1526 143.775 15.1526C144.058 15.1526 144.285 15.1998 144.474 15.2754V16.0499C144.322 15.9838 144.152 15.9649 143.982 15.9649C143.529 15.9649 143.265 16.1727 143.265 16.6544V17.0133H144.662V17.8255H143.265V22.019ZM147.348 22.1135C145.932 22.1135 144.893 20.999 144.893 19.5162C144.893 18.0333 145.932 16.9188 147.348 16.9188C148.765 16.9188 149.804 18.0333 149.804 19.5162C149.804 20.999 148.765 22.1135 147.348 22.1135ZM147.348 21.2729C148.17 21.2729 148.822 20.6118 148.822 19.5162C148.822 18.4205 148.17 17.7688 147.348 17.7688C146.527 17.7688 145.884 18.4205 145.884 19.5162C145.884 20.6118 146.527 21.2729 147.348 21.2729ZM151.73 19.4595V22.019H150.776V17.0133H151.664V18.0711C152.014 17.3816 152.769 16.9471 153.591 16.9471V17.9389C152.514 17.8822 151.73 18.3544 151.73 19.4595ZM155.3 22.019H154.346V17.0133H155.234V17.8444C155.574 17.2683 156.112 16.9188 156.802 16.9188C157.538 16.9188 158.096 17.2966 158.322 17.9577C158.672 17.3155 159.248 16.9188 160.013 16.9188C161.042 16.9188 161.703 17.5894 161.703 18.7795V22.019H160.75V19.0817C160.75 18.2505 160.381 17.7594 159.682 17.7594C159.031 17.7594 158.502 18.3072 158.502 19.1478V22.019H157.548V19.0817C157.548 18.2505 157.179 17.7594 156.48 17.7594C155.819 17.7594 155.3 18.3072 155.3 19.1478V22.019ZM166.011 22.019V21.2446C165.699 21.8018 165.142 22.1135 164.405 22.1135C163.366 22.1135 162.686 21.5185 162.686 20.6023C162.686 19.62 163.47 19.11 164.963 19.11C165.255 19.11 165.491 19.1195 165.898 19.1667V18.7983C165.898 18.0805 165.51 17.6744 164.849 17.6744C164.15 17.6744 163.725 18.09 163.697 18.7889H162.828C162.875 17.665 163.678 16.9188 164.849 16.9188C166.086 16.9188 166.804 17.6177 166.804 18.8078V22.019H166.011ZM163.593 20.574C163.593 21.0934 163.98 21.4335 164.594 21.4335C165.397 21.4335 165.898 20.9329 165.898 20.1678V19.7617C165.529 19.7145 165.265 19.705 165.019 19.705C164.065 19.705 163.593 19.9884 163.593 20.574ZM169.034 19.195V22.019H168.08V17.0133H168.968V17.8444C169.308 17.2872 169.874 16.9188 170.564 16.9188C171.593 16.9188 172.273 17.58 172.273 18.7795V22.019H171.319V19.1006C171.319 18.2411 170.942 17.7594 170.233 17.7594C169.581 17.7594 169.034 18.3072 169.034 19.195ZM175.514 22.1229C174.145 22.1229 173.181 21.0462 173.181 19.5162C173.181 18.005 174.163 16.9188 175.514 16.9188C176.751 16.9188 177.649 17.7405 177.828 19.0439H176.827C176.723 18.2411 176.222 17.7594 175.523 17.7594C174.702 17.7594 174.163 18.4583 174.163 19.5162C174.163 20.5834 174.702 21.2729 175.523 21.2729C176.232 21.2729 176.723 20.8007 176.836 19.9884H177.828C177.658 21.3107 176.77 22.1229 175.514 22.1229ZM180.801 22.1135C179.356 22.1135 178.383 21.0651 178.383 19.4878C178.383 18.005 179.394 16.9188 180.773 16.9188C182.265 16.9188 183.257 18.1278 183.087 19.7523H179.356C179.432 20.7723 179.942 21.3673 180.782 21.3673C181.491 21.3673 181.982 20.9801 182.142 20.3284H183.087C182.841 21.4429 181.982 22.1135 180.801 22.1135ZM180.754 17.6366C179.989 17.6366 179.469 18.1844 179.365 19.1195H182.076C182.029 18.1939 181.528 17.6366 180.754 17.6366Z" fill="#484848"/>
<path d="M17.1615 37.1672L15.2516 32.6935V37.1672H14.7373V31.8928H15.4499L17.4039 36.4914L19.3727 31.8928H20.0779V37.1672H19.571V32.6935L17.6464 37.1672H17.1615ZM22.7788 37.2407C21.7136 37.2407 20.9423 36.3959 20.9423 35.2279C20.9423 34.0672 21.7136 33.2298 22.7788 33.2298C23.8513 33.2298 24.6227 34.0672 24.6227 35.2279C24.6227 36.3959 23.8513 37.2407 22.7788 37.2407ZM22.7788 36.7926C23.5354 36.7926 24.1011 36.1902 24.1011 35.2279C24.1011 34.2803 23.5354 33.6779 22.7788 33.6779C22.0295 33.6779 21.4639 34.2803 21.4639 35.2279C21.4639 36.1902 22.0295 36.7926 22.7788 36.7926ZM25.9684 34.912V37.1672H25.4542V33.2959H25.9317V34.0231C26.1814 33.5457 26.6516 33.2224 27.2099 33.2224C28.0179 33.2224 28.5395 33.7366 28.5395 34.6549V37.1672H28.0253V34.8312C28.0253 34.0893 27.6874 33.6705 27.0556 33.6705C26.4532 33.6705 25.9684 34.1921 25.9684 34.912ZM30.2907 32.3997C30.2907 32.6274 30.1217 32.789 29.872 32.789C29.6295 32.789 29.4606 32.6274 29.4606 32.3997C29.4606 32.1793 29.6295 32.0177 29.872 32.0177C30.1217 32.0177 30.2907 32.1793 30.2907 32.3997ZM30.1364 37.1672H29.6222V33.2959H30.1364V37.1672ZM33.2414 36.6751V37.1305C33.0431 37.2113 32.8741 37.2407 32.6831 37.2407C32.044 37.2407 31.5518 36.9101 31.5518 36.0727V33.7293H30.6409V33.2959H31.5518V32.1499H32.0661V33.2959H33.2782V33.7293H32.0661V35.9625C32.0661 36.5649 32.3599 36.7706 32.786 36.7706C32.9476 36.7706 33.0798 36.7412 33.2414 36.6751ZM35.4837 37.2407C34.4185 37.2407 33.6472 36.3959 33.6472 35.2279C33.6472 34.0672 34.4185 33.2298 35.4837 33.2298C36.5562 33.2298 37.3275 34.0672 37.3275 35.2279C37.3275 36.3959 36.5562 37.2407 35.4837 37.2407ZM35.4837 36.7926C36.2403 36.7926 36.806 36.1902 36.806 35.2279C36.806 34.2803 36.2403 33.6779 35.4837 33.6779C34.7344 33.6779 34.1687 34.2803 34.1687 35.2279C34.1687 36.1902 34.7344 36.7926 35.4837 36.7926ZM38.6733 35.0957V37.1672H38.1591V33.2959H38.6366V34.1774C38.901 33.6044 39.474 33.2371 40.1131 33.2371V33.7734C39.2977 33.744 38.6733 34.2509 38.6733 35.0957ZM42.7911 35.0957V37.1672H42.2769V33.2959H42.7543V34.1774C43.0188 33.6044 43.5918 33.2371 44.2309 33.2371V33.7734C43.4155 33.744 42.7911 34.2509 42.7911 35.0957ZM46.3729 37.2407C45.2857 37.2407 44.5658 36.4253 44.5658 35.1985C44.5658 34.0672 45.3151 33.2224 46.3435 33.2224C47.4454 33.2224 48.1653 34.1113 48.0772 35.3528H45.08C45.1241 36.271 45.6089 36.8367 46.3655 36.8367C47.012 36.8367 47.4601 36.4767 47.585 35.8596H48.0919C47.9155 36.7191 47.2618 37.2407 46.3729 37.2407ZM46.3362 33.6191C45.6383 33.6191 45.1461 34.1554 45.08 35.0002H47.5409C47.4968 34.1333 47.0487 33.6191 46.3362 33.6191ZM50.3024 37.248C49.2813 37.248 48.5688 36.4179 48.5688 35.2279C48.5688 34.0525 49.2887 33.2224 50.3024 33.2224C51.206 33.2224 51.8524 33.8248 52.0067 34.7945H51.4851C51.3676 34.0893 50.9268 33.6705 50.3024 33.6705C49.5825 33.6705 49.0903 34.3023 49.0903 35.2279C49.0903 36.1682 49.5825 36.7999 50.3024 36.7999C50.9342 36.7999 51.3676 36.3886 51.4851 35.6686H52.0067C51.8671 36.653 51.2133 37.248 50.3024 37.248ZM54.3072 37.2407C53.2199 37.2407 52.5 36.4253 52.5 35.1985C52.5 34.0672 53.2493 33.2224 54.2778 33.2224C55.3797 33.2224 56.0996 34.1113 56.0114 35.3528H53.0143C53.0583 36.271 53.5432 36.8367 54.2998 36.8367C54.9463 36.8367 55.3944 36.4767 55.5192 35.8596H56.0261C55.8498 36.7191 55.196 37.2407 54.3072 37.2407ZM54.2704 33.6191C53.5726 33.6191 53.0804 34.1554 53.0143 35.0002H55.4752C55.4311 34.1333 54.983 33.6191 54.2704 33.6191ZM57.3755 34.912V37.1672H56.8613V33.2959H57.3388V34.0231C57.5885 33.5457 58.0587 33.2224 58.617 33.2224C59.425 33.2224 59.9466 33.7366 59.9466 34.6549V37.1672H59.4324V34.8312C59.4324 34.0893 59.0945 33.6705 58.4627 33.6705C57.8603 33.6705 57.3755 34.1921 57.3755 34.912ZM63.0129 36.6751V37.1305C62.8145 37.2113 62.6456 37.2407 62.4546 37.2407C61.8155 37.2407 61.3233 36.9101 61.3233 36.0727V33.7293H60.4124V33.2959H61.3233V32.1499H61.8375V33.2959H63.0496V33.7293H61.8375V35.9625C61.8375 36.5649 62.1313 36.7706 62.5574 36.7706C62.719 36.7706 62.8513 36.7412 63.0129 36.6751ZM65.0758 35.2279C65.0758 34.0378 65.7369 33.2224 66.7801 33.2224C67.3604 33.2224 67.8526 33.553 68.1097 34.1039V31.8928H68.6239V37.1672H68.1464V36.3518C67.8746 36.9175 67.3751 37.2407 66.7801 37.2407C65.7369 37.2407 65.0758 36.4179 65.0758 35.2279ZM65.5973 35.2279C65.5973 36.2123 66.0969 36.7926 66.8535 36.7926C67.6028 36.7926 68.117 36.1829 68.117 35.2132C68.117 34.2362 67.5881 33.6705 66.8535 33.6705C66.0969 33.6705 65.5973 34.2435 65.5973 35.2279ZM71.2589 37.2407C70.1717 37.2407 69.4518 36.4253 69.4518 35.1985C69.4518 34.0672 70.2011 33.2224 71.2296 33.2224C72.3315 33.2224 73.0514 34.1113 72.9632 35.3528H69.966C70.0101 36.271 70.495 36.8367 71.2516 36.8367C71.898 36.8367 72.3462 36.4767 72.471 35.8596H72.9779C72.8016 36.7191 72.1478 37.2407 71.2589 37.2407ZM71.2222 33.6191C70.5243 33.6191 70.0322 34.1554 69.966 35.0002H72.427C72.3829 34.1333 71.9348 33.6191 71.2222 33.6191ZM74.3273 37.1672H73.8131V31.8928H74.3273V37.1672ZM76.11 32.3997C76.11 32.6274 75.9411 32.789 75.6913 32.789C75.4489 32.789 75.2799 32.6274 75.2799 32.3997C75.2799 32.1793 75.4489 32.0177 75.6913 32.0177C75.9411 32.0177 76.11 32.1793 76.11 32.3997ZM75.9557 37.1672H75.4415V33.2959H75.9557V37.1672ZM80.0525 33.2959L78.5612 37.1672H78.025L76.5484 33.2959H77.0994L78.3115 36.5649L79.5236 33.2959H80.0525ZM82.0556 37.2407C80.9684 37.2407 80.2485 36.4253 80.2485 35.1985C80.2485 34.0672 80.9978 33.2224 82.0262 33.2224C83.1281 33.2224 83.848 34.1113 83.7599 35.3528H80.7627C80.8068 36.271 81.2916 36.8367 82.0482 36.8367C82.6947 36.8367 83.1428 36.4767 83.2677 35.8596H83.7745C83.5982 36.7191 82.9444 37.2407 82.0556 37.2407ZM82.0188 33.6191C81.321 33.6191 80.8288 34.1554 80.7627 35.0002H83.2236C83.1795 34.1333 82.7314 33.6191 82.0188 33.6191ZM85.1239 35.0957V37.1672H84.6097V33.2959H85.0872V34.1774C85.3516 33.6044 85.9246 33.2371 86.5637 33.2371V33.7734C85.7483 33.744 85.1239 34.2509 85.1239 35.0957ZM90.2465 33.2959L88.2631 38.585H87.7121L88.2778 37.1158L86.7424 33.2959H87.2934L88.5422 36.4987L89.7249 33.2959H90.2465ZM92.8932 35.0957V37.1672H92.379V33.2959H92.8565V34.1774C93.1209 33.6044 93.6939 33.2371 94.333 33.2371V33.7734C93.5176 33.744 92.8932 34.2509 92.8932 35.0957ZM97.3417 37.1672V36.462C97.1139 36.9469 96.6438 37.2407 96.0414 37.2407C95.2407 37.2407 94.7191 36.7926 94.7191 36.0947C94.7191 35.3381 95.3215 34.9414 96.4969 34.9414C96.7319 34.9414 96.9082 34.9561 97.2902 34.9855V34.6622C97.2902 34.0158 96.945 33.6338 96.3573 33.6338C95.7255 33.6338 95.3288 34.0231 95.3215 34.6549H94.8514C94.8734 33.7954 95.4684 33.2224 96.3499 33.2224C97.2535 33.2224 97.7824 33.7513 97.7824 34.6476V37.1672H97.3417ZM95.2113 36.08C95.2113 36.5502 95.5713 36.866 96.1149 36.866C96.8348 36.866 97.2902 36.3959 97.2902 35.6686V35.3234C96.9597 35.294 96.7319 35.2867 96.5189 35.2867C95.6374 35.2867 95.2113 35.5438 95.2113 36.08ZM100.833 36.6751V37.1305C100.635 37.2113 100.466 37.2407 100.275 37.2407C99.636 37.2407 99.1438 36.9101 99.1438 36.0727V33.7293H98.2329V33.2959H99.1438V32.1499H99.658V33.2959H100.87V33.7293H99.658V35.9625C99.658 36.5649 99.9518 36.7706 100.378 36.7706C100.54 36.7706 100.672 36.7412 100.833 36.6751ZM103.046 37.2407C101.959 37.2407 101.239 36.4253 101.239 35.1985C101.239 34.0672 101.988 33.2224 103.017 33.2224C104.119 33.2224 104.839 34.1113 104.751 35.3528H101.753C101.797 36.271 102.282 36.8367 103.039 36.8367C103.685 36.8367 104.133 36.4767 104.258 35.8596H104.765C104.589 36.7191 103.935 37.2407 103.046 37.2407ZM103.01 33.6191C102.312 33.6191 101.819 34.1554 101.753 35.0002H104.214C104.17 34.1333 103.722 33.6191 103.01 33.6191ZM109.516 37.1672V36.462C109.288 36.9469 108.818 37.2407 108.215 37.2407C107.415 37.2407 106.893 36.7926 106.893 36.0947C106.893 35.3381 107.496 34.9414 108.671 34.9414C108.906 34.9414 109.082 34.9561 109.464 34.9855V34.6622C109.464 34.0158 109.119 33.6338 108.531 33.6338C107.9 33.6338 107.503 34.0231 107.496 34.6549H107.025C107.047 33.7954 107.642 33.2224 108.524 33.2224C109.428 33.2224 109.956 33.7513 109.956 34.6476V37.1672H109.516ZM107.385 36.08C107.385 36.5502 107.745 36.866 108.289 36.866C109.009 36.866 109.464 36.3959 109.464 35.6686V35.3234C109.134 35.294 108.906 35.2867 108.693 35.2867C107.811 35.2867 107.385 35.5438 107.385 36.08ZM112.485 37.248C111.464 37.248 110.752 36.4179 110.752 35.2279C110.752 34.0525 111.472 33.2224 112.485 33.2224C113.389 33.2224 114.035 33.8248 114.19 34.7945H113.668C113.55 34.0893 113.11 33.6705 112.485 33.6705C111.765 33.6705 111.273 34.3023 111.273 35.2279C111.273 36.1682 111.765 36.7999 112.485 36.7999C113.117 36.7999 113.55 36.3886 113.668 35.6686H114.19C114.05 36.653 113.396 37.248 112.485 37.248ZM115.534 35.0957V37.1672H115.02V33.2959H115.497V34.1774C115.762 33.6044 116.335 33.2371 116.974 33.2371V33.7734C116.158 33.744 115.534 34.2509 115.534 35.0957ZM119.145 37.2407C118.08 37.2407 117.309 36.3959 117.309 35.2279C117.309 34.0672 118.08 33.2298 119.145 33.2298C120.218 33.2298 120.989 34.0672 120.989 35.2279C120.989 36.3959 120.218 37.2407 119.145 37.2407ZM119.145 36.7926C119.902 36.7926 120.467 36.1902 120.467 35.2279C120.467 34.2803 119.902 33.6779 119.145 33.6779C118.396 33.6779 117.83 34.2803 117.83 35.2279C117.83 36.1902 118.396 36.7926 119.145 36.7926ZM124.715 36.0874C124.715 36.7999 124.142 37.2407 123.187 37.2407C122.224 37.2407 121.637 36.7559 121.563 35.9551H122.055C122.092 36.5061 122.526 36.8514 123.187 36.8514C123.819 36.8514 124.201 36.6089 124.201 36.1682C124.201 35.7862 123.98 35.6099 123.392 35.4923L122.834 35.3822C122.1 35.2426 121.71 34.8826 121.71 34.3243C121.71 33.6779 122.283 33.2224 123.128 33.2224C124.017 33.2224 124.605 33.6999 124.663 34.4712H124.178C124.127 33.935 123.738 33.6191 123.128 33.6191C122.584 33.6191 122.21 33.8762 122.21 34.2803C122.21 34.6622 122.445 34.8459 123.018 34.9561L123.598 35.0663C124.369 35.2132 124.715 35.5364 124.715 36.0874ZM128.503 36.0874C128.503 36.7999 127.93 37.2407 126.975 37.2407C126.012 37.2407 125.425 36.7559 125.351 35.9551H125.843C125.88 36.5061 126.313 36.8514 126.975 36.8514C127.606 36.8514 127.988 36.6089 127.988 36.1682C127.988 35.7862 127.768 35.6099 127.18 35.4923L126.622 35.3822C125.887 35.2426 125.498 34.8826 125.498 34.3243C125.498 33.6779 126.071 33.2224 126.916 33.2224C127.805 33.2224 128.392 33.6999 128.451 34.4712H127.966C127.915 33.935 127.526 33.6191 126.916 33.6191C126.372 33.6191 125.998 33.8762 125.998 34.2803C125.998 34.6622 126.233 34.8459 126.806 34.9561L127.386 35.0663C128.157 35.2132 128.503 35.5364 128.503 36.0874ZM132.378 37.248C131.357 37.248 130.645 36.4179 130.645 35.2279C130.645 34.0525 131.365 33.2224 132.378 33.2224C133.282 33.2224 133.928 33.8248 134.083 34.7945H133.561C133.444 34.0893 133.003 33.6705 132.378 33.6705C131.658 33.6705 131.166 34.3023 131.166 35.2279C131.166 36.1682 131.658 36.7999 132.378 36.7999C133.01 36.7999 133.444 36.3886 133.561 35.6686H134.083C133.943 36.653 133.289 37.248 132.378 37.248ZM135.427 34.912V37.1672H134.913V31.8928H135.427V34.0085C135.669 33.5457 136.11 33.2224 136.668 33.2224C137.476 33.2224 137.998 33.7366 137.998 34.6549V37.1672H137.484V34.8312C137.484 34.0893 137.146 33.6705 136.514 33.6705C135.912 33.6705 135.427 34.1921 135.427 34.912ZM141.461 37.1672V36.462C141.233 36.9469 140.763 37.2407 140.161 37.2407C139.36 37.2407 138.838 36.7926 138.838 36.0947C138.838 35.3381 139.441 34.9414 140.616 34.9414C140.851 34.9414 141.027 34.9561 141.409 34.9855V34.6622C141.409 34.0158 141.064 33.6338 140.476 33.6338C139.845 33.6338 139.448 34.0231 139.441 34.6549H138.97C138.993 33.7954 139.588 33.2224 140.469 33.2224C141.373 33.2224 141.902 33.7513 141.902 34.6476V37.1672H141.461ZM139.33 36.08C139.33 36.5502 139.69 36.866 140.234 36.866C140.954 36.866 141.409 36.3959 141.409 35.6686V35.3234C141.079 35.294 140.851 35.2867 140.638 35.2867C139.757 35.2867 139.33 35.5438 139.33 36.08ZM143.497 34.912V37.1672H142.983V33.2959H143.461V34.0231C143.711 33.5457 144.181 33.2224 144.739 33.2224C145.547 33.2224 146.069 33.7366 146.069 34.6549V37.1672H145.554V34.8312C145.554 34.0893 145.216 33.6705 144.585 33.6705C143.982 33.6705 143.497 34.1921 143.497 34.912ZM147.665 34.912V37.1672H147.151V33.2959H147.629V34.0231C147.879 33.5457 148.349 33.2224 148.907 33.2224C149.715 33.2224 150.237 33.7366 150.237 34.6549V37.1672H149.722V34.8312C149.722 34.0893 149.384 33.6705 148.753 33.6705C148.15 33.6705 147.665 34.1921 147.665 34.912ZM152.84 37.2407C151.753 37.2407 151.033 36.4253 151.033 35.1985C151.033 34.0672 151.782 33.2224 152.81 33.2224C153.912 33.2224 154.632 34.1113 154.544 35.3528H151.547C151.591 36.271 152.076 36.8367 152.833 36.8367C153.479 36.8367 153.927 36.4767 154.052 35.8596H154.559C154.383 36.7191 153.729 37.2407 152.84 37.2407ZM152.803 33.6191C152.105 33.6191 151.613 34.1554 151.547 35.0002H154.008C153.964 34.1333 153.516 33.6191 152.803 33.6191ZM155.908 37.1672H155.394V31.8928H155.908V37.1672ZM159.917 36.0874C159.917 36.7999 159.344 37.2407 158.389 37.2407C157.426 37.2407 156.839 36.7559 156.765 35.9551H157.258C157.294 36.5061 157.728 36.8514 158.389 36.8514C159.021 36.8514 159.403 36.6089 159.403 36.1682C159.403 35.7862 159.182 35.6099 158.595 35.4923L158.036 35.3822C157.302 35.2426 156.912 34.8826 156.912 34.3243C156.912 33.6779 157.485 33.2224 158.33 33.2224C159.219 33.2224 159.807 33.6999 159.865 34.4712H159.381C159.329 33.935 158.94 33.6191 158.33 33.6191C157.786 33.6191 157.412 33.8762 157.412 34.2803C157.412 34.6622 157.647 34.8459 158.22 34.9561L158.8 35.0663C159.572 35.2132 159.917 35.5364 159.917 36.0874ZM163.198 37.1672H162.683V33.7293H161.772V33.2959H162.683V32.9433C162.683 32.2307 163.073 31.834 163.749 31.834C163.925 31.834 164.079 31.8634 164.211 31.9148V32.3409C164.086 32.2895 163.969 32.2821 163.837 32.2821C163.425 32.2821 163.198 32.4878 163.198 32.9433V33.2959H164.336V33.7293H163.198V37.1672ZM166.37 37.2407C165.305 37.2407 164.534 36.3959 164.534 35.2279C164.534 34.0672 165.305 33.2298 166.37 33.2298C167.443 33.2298 168.214 34.0672 168.214 35.2279C168.214 36.3959 167.443 37.2407 166.37 37.2407ZM166.37 36.7926C167.127 36.7926 167.693 36.1902 167.693 35.2279C167.693 34.2803 167.127 33.6779 166.37 33.6779C165.621 33.6779 165.056 34.2803 165.056 35.2279C165.056 36.1902 165.621 36.7926 166.37 36.7926ZM169.56 35.0957V37.1672H169.046V33.2959H169.523V34.1774C169.788 33.6044 170.361 33.2371 171 33.2371V33.7734C170.184 33.744 169.56 34.2509 169.56 35.0957ZM174.714 37.2407C173.648 37.2407 172.877 36.3959 172.877 35.2279C172.877 34.0672 173.648 33.2298 174.714 33.2298C175.786 33.2298 176.557 34.0672 176.557 35.2279C176.557 36.3959 175.786 37.2407 174.714 37.2407ZM174.714 36.7926C175.47 36.7926 176.036 36.1902 176.036 35.2279C176.036 34.2803 175.47 33.6779 174.714 33.6779C173.964 33.6779 173.399 34.2803 173.399 35.2279C173.399 36.1902 173.964 36.7926 174.714 36.7926ZM180.937 35.2279C180.937 36.4253 180.269 37.2407 179.24 37.2407C178.66 37.2407 178.168 36.9248 177.903 36.3739V38.585H177.389V33.2959H177.866V34.1333C178.131 33.5603 178.645 33.2224 179.24 33.2224C180.269 33.2224 180.937 34.0452 180.937 35.2279ZM180.416 35.2279C180.416 34.2509 179.909 33.6705 179.152 33.6705C178.432 33.6705 177.896 34.2435 177.896 35.2279C177.896 36.1902 178.417 36.7926 179.152 36.7926C179.909 36.7926 180.416 36.2196 180.416 35.2279ZM183.691 36.6751V37.1305C183.493 37.2113 183.324 37.2407 183.133 37.2407C182.494 37.2407 182.002 36.9101 182.002 36.0727V33.7293H181.091V33.2959H182.002V32.1499H182.516V33.2959H183.728V33.7293H182.516V35.9625C182.516 36.5649 182.81 36.7706 183.236 36.7706C183.397 36.7706 183.53 36.7412 183.691 36.6751ZM185.174 32.3997C185.174 32.6274 185.005 32.789 184.755 32.789C184.513 32.789 184.344 32.6274 184.344 32.3997C184.344 32.1793 184.513 32.0177 184.755 32.0177C185.005 32.0177 185.174 32.1793 185.174 32.3997ZM185.02 37.1672H184.505V33.2959H185.02V37.1672ZM186.648 37.1672H186.134V33.2959H186.611V34.0231C186.869 33.5236 187.324 33.2224 187.875 33.2224C188.477 33.2224 188.925 33.553 189.087 34.1186C189.329 33.575 189.814 33.2224 190.424 33.2224C191.225 33.2224 191.724 33.7513 191.724 34.6549V37.1672H191.217V34.8239C191.217 34.0893 190.879 33.6705 190.255 33.6705C189.667 33.6705 189.19 34.1848 189.19 34.8973V37.1672H188.676V34.8239C188.676 34.0893 188.338 33.6705 187.713 33.6705C187.118 33.6705 186.648 34.1848 186.648 34.8973V37.1672ZM195.186 37.1672V36.462C194.958 36.9469 194.488 37.2407 193.885 37.2407C193.085 37.2407 192.563 36.7926 192.563 36.0947C192.563 35.3381 193.166 34.9414 194.341 34.9414C194.576 34.9414 194.752 34.9561 195.134 34.9855V34.6622C195.134 34.0158 194.789 33.6338 194.201 33.6338C193.57 33.6338 193.173 34.0231 193.166 34.6549H192.695C192.717 33.7954 193.312 33.2224 194.194 33.2224C195.098 33.2224 195.626 33.7513 195.626 34.6476V37.1672H195.186ZM193.055 36.08C193.055 36.5502 193.415 36.866 193.959 36.866C194.679 36.866 195.134 36.3959 195.134 35.6686V35.3234C194.804 35.294 194.576 35.2867 194.363 35.2867C193.481 35.2867 193.055 35.5438 193.055 36.08ZM197.222 37.1672H196.708V31.8928H197.222V37.1672ZM203.42 35.2279C203.42 36.4253 202.751 37.2407 201.723 37.2407C201.143 37.2407 200.65 36.9248 200.386 36.3739V38.585H199.872V33.2959H200.349V34.1333C200.614 33.5603 201.128 33.2224 201.723 33.2224C202.751 33.2224 203.42 34.0452 203.42 35.2279ZM202.898 35.2279C202.898 34.2509 202.392 33.6705 201.635 33.6705C200.915 33.6705 200.379 34.2435 200.379 35.2279C200.379 36.1902 200.9 36.7926 201.635 36.7926C202.392 36.7926 202.898 36.2196 202.898 35.2279ZM205.768 37.2407C204.681 37.2407 203.961 36.4253 203.961 35.1985C203.961 34.0672 204.711 33.2224 205.739 33.2224C206.841 33.2224 207.561 34.1113 207.473 35.3528H204.476C204.52 36.271 205.004 36.8367 205.761 36.8367C206.408 36.8367 206.856 36.4767 206.981 35.8596H207.487C207.311 36.7191 206.657 37.2407 205.768 37.2407ZM205.732 33.6191C205.034 33.6191 204.542 34.1554 204.476 35.0002H206.936C206.892 34.1333 206.444 33.6191 205.732 33.6191ZM208.837 35.0957V37.1672H208.323V33.2959H208.8V34.1774C209.065 33.6044 209.638 33.2371 210.277 33.2371V33.7734C209.461 33.744 208.837 34.2509 208.837 35.0957ZM211.98 37.1672H211.465V33.7293H210.555V33.2959H211.465V32.9433C211.465 32.2307 211.855 31.834 212.531 31.834C212.707 31.834 212.861 31.8634 212.993 31.9148V32.3409C212.869 32.2895 212.751 32.2821 212.619 32.2821C212.207 32.2821 211.98 32.4878 211.98 32.9433V33.2959H213.118V33.7293H211.98V37.1672ZM215.153 37.2407C214.087 37.2407 213.316 36.3959 213.316 35.2279C213.316 34.0672 214.087 33.2298 215.153 33.2298C216.225 33.2298 216.996 34.0672 216.996 35.2279C216.996 36.3959 216.225 37.2407 215.153 37.2407ZM215.153 36.7926C215.909 36.7926 216.475 36.1902 216.475 35.2279C216.475 34.2803 215.909 33.6779 215.153 33.6779C214.403 33.6779 213.838 34.2803 213.838 35.2279C213.838 36.1902 214.403 36.7926 215.153 36.7926ZM218.342 35.0957V37.1672H217.828V33.2959H218.305V34.1774C218.57 33.6044 219.143 33.2371 219.782 33.2371V33.7734C218.967 33.744 218.342 34.2509 218.342 35.0957ZM220.925 37.1672H220.411V33.2959H220.888V34.0231C221.145 33.5236 221.601 33.2224 222.152 33.2224C222.754 33.2224 223.202 33.553 223.364 34.1186C223.606 33.575 224.091 33.2224 224.701 33.2224C225.501 33.2224 226.001 33.7513 226.001 34.6549V37.1672H225.494V34.8239C225.494 34.0893 225.156 33.6705 224.532 33.6705C223.944 33.6705 223.466 34.1848 223.466 34.8973V37.1672H222.952V34.8239C222.952 34.0893 222.614 33.6705 221.99 33.6705C221.395 33.6705 220.925 34.1848 220.925 34.8973V37.1672ZM229.462 37.1672V36.462C229.235 36.9469 228.764 37.2407 228.162 37.2407C227.361 37.2407 226.84 36.7926 226.84 36.0947C226.84 35.3381 227.442 34.9414 228.618 34.9414C228.853 34.9414 229.029 34.9561 229.411 34.9855V34.6622C229.411 34.0158 229.066 33.6338 228.478 33.6338C227.846 33.6338 227.45 34.0231 227.442 34.6549H226.972C226.994 33.7954 227.589 33.2224 228.471 33.2224C229.374 33.2224 229.903 33.7513 229.903 34.6476V37.1672H229.462ZM227.332 36.08C227.332 36.5502 227.692 36.866 228.236 36.866C228.955 36.866 229.411 36.3959 229.411 35.6686V35.3234C229.08 35.294 228.853 35.2867 228.64 35.2867C227.758 35.2867 227.332 35.5438 227.332 36.08ZM231.499 34.912V37.1672H230.985V33.2959H231.462V34.0231C231.712 33.5457 232.182 33.2224 232.74 33.2224C233.549 33.2224 234.07 33.7366 234.07 34.6549V37.1672H233.556V34.8312C233.556 34.0893 233.218 33.6705 232.586 33.6705C231.984 33.6705 231.499 34.1921 231.499 34.912ZM236.6 37.248C235.579 37.248 234.866 36.4179 234.866 35.2279C234.866 34.0525 235.586 33.2224 236.6 33.2224C237.504 33.2224 238.15 33.8248 238.304 34.7945H237.783C237.665 34.0893 237.224 33.6705 236.6 33.6705C235.88 33.6705 235.388 34.3023 235.388 35.2279C235.388 36.1682 235.88 36.7999 236.6 36.7999C237.232 36.7999 237.665 36.3886 237.783 35.6686H238.304C238.165 36.653 237.511 37.248 236.6 37.248ZM240.605 37.2407C239.517 37.2407 238.798 36.4253 238.798 35.1985C238.798 34.0672 239.547 33.2224 240.575 33.2224C241.677 33.2224 242.397 34.1113 242.309 35.3528H239.312C239.356 36.271 239.841 36.8367 240.597 36.8367C241.244 36.8367 241.692 36.4767 241.817 35.8596H242.324C242.147 36.7191 241.494 37.2407 240.605 37.2407ZM240.568 33.6191C239.87 33.6191 239.378 34.1554 239.312 35.0002H241.773C241.729 34.1333 241.28 33.6191 240.568 33.6191Z" fill="#767676"/>
<path fill-rule="evenodd" clip-rule="evenodd" d="M545.154 51.1863H14.1423V50.6616H545.154V51.1863Z" fill="#EAECF0"/>
<path d="M22.1423 150.94L22.1423 152.608L16.8679 152.608L16.8679 150.94C16.8679 149.258 17.9404 148.288 19.483 148.288C21.0037 148.288 22.1423 149.295 22.1423 150.94ZM17.5657 151.8L21.4444 151.8L21.4444 150.977C21.4444 149.765 20.6951 149.111 19.483 149.111C18.293 149.111 17.5657 149.758 17.5657 150.977L17.5657 151.8ZM22.2158 145.9C22.2158 147.024 21.4004 147.781 20.1736 147.781C19.0202 147.781 18.1755 146.995 18.1755 145.922C18.1755 144.761 19.1157 143.99 20.3793 144.122L20.3793 147.024C21.1726 146.965 21.6354 146.569 21.6354 145.915C21.6354 145.364 21.3342 144.982 20.8274 144.857L20.8274 144.122C21.6942 144.313 22.2158 144.982 22.2158 145.9ZM18.7338 145.937C18.7338 146.532 19.1598 146.936 19.8871 147.017L19.8871 144.908C19.1672 144.945 18.7338 145.334 18.7338 145.937ZM22.1423 142.584L22.1423 143.334L16.8679 143.334L16.8679 142.584L22.1423 142.584ZM17.3454 140.651C17.6245 140.651 17.8375 140.871 17.8375 141.187C17.8375 141.503 17.6245 141.731 17.3454 141.731C17.0589 141.731 16.8532 141.503 16.8532 141.187C16.8532 140.871 17.0589 140.651 17.3454 140.651ZM22.1423 140.812L22.1423 141.554L18.2489 141.554L18.2489 140.812L22.1423 140.812ZM18.2489 136.55L22.1423 138.012L22.1423 138.82L18.2489 140.282L18.2489 139.481L21.2902 138.401L18.2489 137.307L18.2489 136.55ZM22.2158 134.544C22.2158 135.668 21.4004 136.424 20.1736 136.424C19.0202 136.424 18.1755 135.638 18.1755 134.566C18.1755 133.405 19.1157 132.634 20.3793 132.766L20.3793 135.668C21.1726 135.609 21.6354 135.212 21.6354 134.559C21.6354 134.008 21.3342 133.626 20.8274 133.501L20.8274 132.766C21.6942 132.957 22.2158 133.626 22.2158 134.544ZM18.7338 134.581C18.7338 135.176 19.1598 135.58 19.8871 135.66L19.8871 133.552C19.1672 133.589 18.7338 133.978 18.7338 134.581ZM20.1515 131.235L22.1423 131.235L22.1423 131.977L18.2489 131.977L18.2489 131.287L19.0717 131.287C18.5354 131.015 18.1975 130.427 18.1975 129.788L18.9688 129.788C18.9247 130.626 19.292 131.235 20.1515 131.235ZM18.2489 125.897L23.5601 127.844L23.5601 128.652L22.0909 128.094L18.2489 129.629L18.2489 128.828L21.2167 127.697L18.2489 126.646L18.2489 125.897ZM22.1423 122.968L22.1423 123.776L16.8679 123.776L16.8679 121.808C16.8679 120.595 17.4629 119.868 18.5134 119.868C19.27 119.868 19.8503 120.346 20.0413 121.146L22.1423 119.714L22.1423 120.684L20.1589 121.999L20.1589 122.968L22.1423 122.968ZM17.5437 122.968L19.483 122.968L19.483 121.859C19.483 121.11 19.1525 120.684 18.5134 120.684C17.8816 120.684 17.5437 121.11 17.5437 121.859L17.5437 122.968ZM22.1423 116.728L21.5399 116.728C21.9733 116.97 22.2158 117.404 22.2158 117.977C22.2158 118.785 21.753 119.314 21.0404 119.314C20.2764 119.314 19.8797 118.704 19.8797 117.543C19.8797 117.316 19.8871 117.132 19.9238 116.816L19.6373 116.816C19.079 116.816 18.7631 117.117 18.7631 117.631C18.7631 118.175 19.0864 118.506 19.63 118.528L19.63 119.203C18.7558 119.167 18.1755 118.542 18.1755 117.631C18.1755 116.669 18.7191 116.111 19.6447 116.111L22.1423 116.111L22.1423 116.728ZM21.0184 118.608C21.4224 118.608 21.6868 118.307 21.6868 117.83C21.6868 117.205 21.2975 116.816 20.7025 116.816L20.3866 116.816C20.3499 117.103 20.3425 117.308 20.3425 117.499C20.3425 118.241 20.5629 118.608 21.0184 118.608ZM21.4224 112.958L22.0762 112.958C22.179 113.186 22.2158 113.384 22.2158 113.619C22.2158 114.339 21.8264 114.839 20.9669 114.839L18.8807 114.839L18.8807 115.698L18.2489 115.698L18.2489 114.839L17.0956 114.839L17.0956 114.097L18.2489 114.097L18.2489 112.921L18.8807 112.921L18.8807 114.097L20.798 114.097C21.3342 114.097 21.5252 113.84 21.5252 113.443C21.5252 113.267 21.4959 113.112 21.4224 112.958ZM22.2158 110.72C22.2158 111.844 21.4004 112.6 20.1736 112.6C19.0202 112.6 18.1755 111.814 18.1755 110.742C18.1755 109.581 19.1157 108.81 20.3793 108.942L20.3793 111.844C21.1726 111.785 21.6354 111.388 21.6354 110.734C21.6354 110.183 21.3342 109.801 20.8274 109.676L20.8274 108.942C21.6942 109.133 22.2158 109.801 22.2158 110.72ZM18.7338 110.756C18.7338 111.351 19.1598 111.755 19.8871 111.836L19.8871 109.728C19.1672 109.765 18.7338 110.154 18.7338 110.756Z" fill="#919191"/>
<path d="M29.5344 85.175H29.1V81.2964H28.2625V80.9186H29.5344V85.175ZM30.3949 83.0531C30.3949 81.6427 30.9365 80.8556 31.9061 80.8556C32.8695 80.8556 33.4173 81.6427 33.4173 83.0531C33.4173 84.4635 32.8821 85.238 31.9061 85.238C30.9239 85.238 30.3949 84.4635 30.3949 83.0531ZM30.8483 83.0531C30.8483 84.2243 31.2072 84.8476 31.9061 84.8476C32.5925 84.8476 32.964 84.2306 32.964 83.0531C32.964 81.8693 32.5925 81.246 31.9061 81.246C31.2198 81.246 30.8483 81.863 30.8483 83.0531ZM34.0598 83.0531C34.0598 81.6427 34.6013 80.8556 35.5709 80.8556C36.5343 80.8556 37.0821 81.6427 37.0821 83.0531C37.0821 84.4635 36.5469 85.238 35.5709 85.238C34.5887 85.238 34.0598 84.4635 34.0598 83.0531ZM34.5131 83.0531C34.5131 84.2243 34.872 84.8476 35.5709 84.8476C36.2573 84.8476 36.6288 84.2306 36.6288 83.0531C36.6288 81.8693 36.2573 81.246 35.5709 81.246C34.8846 81.246 34.5131 81.863 34.5131 83.0531ZM38.902 83.5253C38.1464 83.5253 37.6301 82.9335 37.6301 82.2031C37.6301 81.4727 38.1464 80.8808 38.902 80.8808C39.6639 80.8808 40.1802 81.4727 40.1802 82.2031C40.1802 82.9335 39.6639 83.5253 38.902 83.5253ZM39.6828 85.175H39.3113L41.704 80.9186H42.0818L39.6828 85.175ZM38.902 83.2042C39.3932 83.2042 39.7961 82.839 39.7961 82.2031C39.7961 81.5608 39.3932 81.2019 38.902 81.2019C38.4172 81.2019 38.0079 81.5608 38.0079 82.2031C38.0079 82.839 38.4172 83.2042 38.902 83.2042ZM42.5352 85.2254C41.7733 85.2254 41.2569 84.6398 41.2569 83.9031C41.2569 83.1727 41.7733 82.5809 42.5352 82.5809C43.297 82.5809 43.8134 83.1727 43.8134 83.9031C43.8134 84.6398 43.297 85.2254 42.5352 85.2254ZM42.5352 84.9043C43.02 84.9043 43.4293 84.5391 43.4293 83.9031C43.4293 83.2609 43.02 82.9083 42.5352 82.9083C42.0503 82.9083 41.641 83.2609 41.641 83.9031C41.641 84.5391 42.0503 84.9043 42.5352 84.9043Z" fill="#919191"/>
<line x1="48.492" y1="83.1749" x2="545.032" y2="83.1749" stroke="#F2F4F7" stroke-width="0.524715" stroke-linecap="round"/>
<path d="M33.3686 105.261C33.3686 105.998 32.7515 106.482 31.8763 106.482C30.9947 106.482 30.384 105.998 30.384 105.261C30.384 104.707 30.7618 104.354 31.2466 104.209C30.8625 104.065 30.5603 103.706 30.5603 103.246C30.5603 102.566 31.1333 102.106 31.8763 102.106C32.6193 102.106 33.186 102.566 33.186 103.246C33.186 103.706 32.8837 104.065 32.5059 104.209C32.9845 104.354 33.3686 104.707 33.3686 105.261ZM31.0136 103.259C31.0136 103.75 31.3662 104.046 31.8763 104.046C32.38 104.046 32.7389 103.75 32.7389 103.259C32.7389 102.767 32.38 102.465 31.8763 102.465C31.3662 102.465 31.0136 102.767 31.0136 103.259ZM30.8373 105.248C30.8373 105.796 31.2718 106.124 31.8763 106.124C32.4744 106.124 32.9152 105.796 32.9152 105.248C32.9152 104.707 32.4744 104.405 31.8763 104.405C31.2718 104.405 30.8373 104.707 30.8373 105.248ZM34.0598 104.304C34.0598 102.893 34.6013 102.106 35.5709 102.106C36.5343 102.106 37.0821 102.893 37.0821 104.304C37.0821 105.714 36.5469 106.489 35.5709 106.489C34.5887 106.489 34.0598 105.714 34.0598 104.304ZM34.5131 104.304C34.5131 105.475 34.872 106.098 35.5709 106.098C36.2573 106.098 36.6288 105.481 36.6288 104.304C36.6288 103.12 36.2573 102.497 35.5709 102.497C34.8846 102.497 34.5131 103.114 34.5131 104.304ZM38.902 104.776C38.1464 104.776 37.6301 104.184 37.6301 103.454C37.6301 102.723 38.1464 102.132 38.902 102.132C39.6639 102.132 40.1802 102.723 40.1802 103.454C40.1802 104.184 39.6639 104.776 38.902 104.776ZM39.6828 106.426H39.3113L41.704 102.169H42.0818L39.6828 106.426ZM38.902 104.455C39.3932 104.455 39.7961 104.09 39.7961 103.454C39.7961 102.812 39.3932 102.453 38.902 102.453C38.4172 102.453 38.0079 102.812 38.0079 103.454C38.0079 104.09 38.4172 104.455 38.902 104.455ZM42.5352 106.476C41.7733 106.476 41.2569 105.891 41.2569 105.154C41.2569 104.423 41.7733 103.832 42.5352 103.832C43.297 103.832 43.8134 104.423 43.8134 105.154C43.8134 105.891 43.297 106.476 42.5352 106.476ZM42.5352 106.155C43.02 106.155 43.4293 105.79 43.4293 105.154C43.4293 104.512 43.02 104.159 42.5352 104.159C42.0503 104.159 41.641 104.512 41.641 105.154C41.641 105.79 42.0503 106.155 42.5352 106.155Z" fill="#919191"/>
<line x1="48.492" y1="104.426" x2="545.032" y2="104.426" stroke="#F2F4F7" stroke-width="0.524715" stroke-linecap="round"/>
<path d="M32.0202 126.422C31.1701 126.422 30.5405 125.811 30.5405 125.03C30.5405 124.476 30.7671 124.142 31.1009 123.727L32.3854 122.108H32.8828L31.6046 123.727C31.7809 123.664 31.9509 123.632 32.1083 123.632C32.9017 123.632 33.5062 124.18 33.5062 125.018C33.5062 125.811 32.8765 126.422 32.0202 126.422ZM32.0265 126.056C32.612 126.056 33.0528 125.622 33.0528 125.03C33.0528 124.394 32.612 123.972 32.0265 123.972C31.4346 123.972 30.9938 124.337 30.9938 125.018C30.9938 125.622 31.4346 126.056 32.0265 126.056ZM34.0598 124.243C34.0598 122.833 34.6013 122.046 35.5709 122.046C36.5343 122.046 37.0821 122.833 37.0821 124.243C37.0821 125.653 36.5469 126.428 35.5709 126.428C34.5887 126.428 34.0598 125.653 34.0598 124.243ZM34.5131 124.243C34.5131 125.414 34.872 126.038 35.5709 126.038C36.2573 126.038 36.6288 125.421 36.6288 124.243C36.6288 123.059 36.2573 122.436 35.5709 122.436C34.8846 122.436 34.5131 123.053 34.5131 124.243ZM38.902 124.715C38.1464 124.715 37.6301 124.123 37.6301 123.393C37.6301 122.663 38.1464 122.071 38.902 122.071C39.6639 122.071 40.1802 122.663 40.1802 123.393C40.1802 124.123 39.6639 124.715 38.902 124.715ZM39.6828 126.365H39.3113L41.704 122.108H42.0818L39.6828 126.365ZM38.902 124.394C39.3932 124.394 39.7961 124.029 39.7961 123.393C39.7961 122.751 39.3932 122.392 38.902 122.392C38.4172 122.392 38.0079 122.751 38.0079 123.393C38.0079 124.029 38.4172 124.394 38.902 124.394ZM42.5352 126.415C41.7733 126.415 41.2569 125.83 41.2569 125.093C41.2569 124.363 41.7733 123.771 42.5352 123.771C43.297 123.771 43.8134 124.363 43.8134 125.093C43.8134 125.83 43.297 126.415 42.5352 126.415ZM42.5352 126.094C43.02 126.094 43.4293 125.729 43.4293 125.093C43.4293 124.451 43.02 124.098 42.5352 124.098C42.0503 124.098 41.641 124.451 41.641 125.093C41.641 125.729 42.0503 126.094 42.5352 126.094Z" fill="#919191"/>
<line x1="48.492" y1="124.365" x2="545.032" y2="124.365" stroke="#F2F4F7" stroke-width="0.524715" stroke-linecap="round"/>
<path d="M33.4707 145.29H32.8977V146.304H32.4633V145.29H30.3917V144.995L32.5892 142.048H32.8977V144.906H33.4707V145.29ZM30.9017 144.906H32.4633V142.766L30.9017 144.906ZM34.0598 144.182C34.0598 142.772 34.6013 141.985 35.5709 141.985C36.5343 141.985 37.0821 142.772 37.0821 144.182C37.0821 145.593 36.5469 146.367 35.5709 146.367C34.5887 146.367 34.0598 145.593 34.0598 144.182ZM34.5131 144.182C34.5131 145.353 34.872 145.977 35.5709 145.977C36.2573 145.977 36.6288 145.36 36.6288 144.182C36.6288 142.998 36.2573 142.375 35.5709 142.375C34.8846 142.375 34.5131 142.992 34.5131 144.182ZM38.902 144.654C38.1464 144.654 37.6301 144.063 37.6301 143.332C37.6301 142.602 38.1464 142.01 38.902 142.01C39.6639 142.01 40.1802 142.602 40.1802 143.332C40.1802 144.063 39.6639 144.654 38.902 144.654ZM39.6828 146.304H39.3113L41.704 142.048H42.0818L39.6828 146.304ZM38.902 144.333C39.3932 144.333 39.7961 143.968 39.7961 143.332C39.7961 142.69 39.3932 142.331 38.902 142.331C38.4172 142.331 38.0079 142.69 38.0079 143.332C38.0079 143.968 38.4172 144.333 38.902 144.333ZM42.5352 146.355C41.7733 146.355 41.2569 145.769 41.2569 145.032C41.2569 144.302 41.7733 143.71 42.5352 143.71C43.297 143.71 43.8134 144.302 43.8134 145.032C43.8134 145.769 43.297 146.355 42.5352 146.355ZM42.5352 146.033C43.02 146.033 43.4293 145.668 43.4293 145.032C43.4293 144.39 43.02 144.037 42.5352 144.037C42.0503 144.037 41.641 144.39 41.641 145.032C41.641 145.668 42.0503 146.033 42.5352 146.033Z" fill="#919191"/>
<line x1="48.492" y1="144.305" x2="545.032" y2="144.305" stroke="#F2F4F7" stroke-width="0.524715" stroke-linecap="round"/>
<path d="M33.438 165.853V166.243H30.869V165.992L32.2291 164.455C32.7454 163.87 32.9343 163.555 32.9343 163.145C32.9343 162.667 32.5817 162.314 32.0843 162.314C31.5679 162.314 31.2027 162.673 31.2027 163.202H30.7746C30.7746 162.459 31.3224 161.924 32.1031 161.924C32.8461 161.924 33.3939 162.421 33.3939 163.108C33.3939 163.567 33.2113 163.914 32.5565 164.644L31.5176 165.853H33.438ZM34.0598 164.121C34.0598 162.711 34.6013 161.924 35.5709 161.924C36.5343 161.924 37.0821 162.711 37.0821 164.121C37.0821 165.532 36.5469 166.306 35.5709 166.306C34.5887 166.306 34.0598 165.532 34.0598 164.121ZM34.5131 164.121C34.5131 165.293 34.872 165.916 35.5709 165.916C36.2573 165.916 36.6288 165.299 36.6288 164.121C36.6288 162.938 36.2573 162.314 35.5709 162.314C34.8846 162.314 34.5131 162.931 34.5131 164.121ZM38.902 164.594C38.1464 164.594 37.6301 164.002 37.6301 163.271C37.6301 162.541 38.1464 161.949 38.902 161.949C39.6639 161.949 40.1802 162.541 40.1802 163.271C40.1802 164.002 39.6639 164.594 38.902 164.594ZM39.6828 166.243H39.3113L41.704 161.987H42.0818L39.6828 166.243ZM38.902 164.273C39.3932 164.273 39.7961 163.907 39.7961 163.271C39.7961 162.629 39.3932 162.27 38.902 162.27C38.4172 162.27 38.0079 162.629 38.0079 163.271C38.0079 163.907 38.4172 164.273 38.902 164.273ZM42.5352 166.294C41.7733 166.294 41.2569 165.708 41.2569 164.971C41.2569 164.241 41.7733 163.649 42.5352 163.649C43.297 163.649 43.8134 164.241 43.8134 164.971C43.8134 165.708 43.297 166.294 42.5352 166.294ZM42.5352 165.973C43.02 165.973 43.4293 165.607 43.4293 164.971C43.4293 164.329 43.02 163.977 42.5352 163.977C42.0503 163.977 41.641 164.329 41.641 164.971C41.641 165.607 42.0503 165.973 42.5352 165.973Z" fill="#919191"/>
<line x1="48.492" y1="164.244" x2="545.032" y2="164.243" stroke="#F2F4F7" stroke-width="0.524715" stroke-linecap="round"/>
<path d="M33.1992 186.183H32.7648V182.304H31.9273V181.926H33.1992V186.183ZM34.0598 184.061C34.0598 182.65 34.6013 181.863 35.5709 181.863C36.5343 181.863 37.0821 182.65 37.0821 184.061C37.0821 185.471 36.5469 186.246 35.5709 186.246C34.5887 186.246 34.0598 185.471 34.0598 184.061ZM34.5131 184.061C34.5131 185.232 34.872 185.855 35.5709 185.855C36.2573 185.855 36.6288 185.238 36.6288 184.061C36.6288 182.877 36.2573 182.254 35.5709 182.254C34.8846 182.254 34.5131 182.871 34.5131 184.061ZM38.902 184.533C38.1464 184.533 37.6301 183.941 37.6301 183.211C37.6301 182.48 38.1464 181.888 38.902 181.888C39.6639 181.888 40.1802 182.48 40.1802 183.211C40.1802 183.941 39.6639 184.533 38.902 184.533ZM39.6828 186.183H39.3113L41.704 181.926H42.0818L39.6828 186.183ZM38.902 184.212C39.3932 184.212 39.7961 183.847 39.7961 183.211C39.7961 182.568 39.3932 182.209 38.902 182.209C38.4172 182.209 38.0079 182.568 38.0079 183.211C38.0079 183.847 38.4172 184.212 38.902 184.212ZM42.5352 186.233C41.7733 186.233 41.2569 185.647 41.2569 184.911C41.2569 184.18 41.7733 183.588 42.5352 183.588C43.297 183.588 43.8134 184.18 43.8134 184.911C43.8134 185.647 43.297 186.233 42.5352 186.233ZM42.5352 185.912C43.02 185.912 43.4293 185.547 43.4293 184.911C43.4293 184.268 43.02 183.916 42.5352 183.916C42.0503 183.916 41.641 184.268 41.641 184.911C41.641 185.547 42.0503 185.912 42.5352 185.912Z" fill="#919191"/>
<line x1="48.492" y1="184.183" x2="545.032" y2="184.183" stroke="#F2F4F7" stroke-width="0.524715" stroke-linecap="round"/>
<g style="mix-blend-mode:multiply" opacity="0.1">
<path d="M542.05 141.784L545.154 142.564V192.316H45.6247V94.413L48.7227 101.282L51.8262 103.631L54.9297 99.7043L58.0332 91.6002L61.1367 89.428L64.2402 94.2737L67.3437 104.968L70.4472 117.324L73.5507 113.945L76.6542 123.497L79.7577 133.457L82.8612 116.275L85.9647 100.28L89.0682 104.782L92.1717 110.073L95.2752 108.978L98.3787 106.899L101.482 112.134L104.586 124.583L107.689 123.831L110.793 121.882L113.896 131.378L117 115.848L120.103 109.099L123.207 112.598L126.31 126.839L129.414 123.014L132.517 117.481L135.621 110.25L138.724 107.047L141.828 117.593L144.931 104.448L148.035 105.562L151.138 114.223L154.242 111.187L157.345 111.067L160.449 115.003L163.552 106.657L166.656 108.857L169.759 119.663L172.863 125.539L175.966 118.038L179.07 111.141L182.173 125.196L185.277 131.081L188.38 130.673L191.484 112.561L194.587 118.308L197.691 121L200.794 139.213L203.898 149.712L207.001 119.282L210.105 113.434L213.208 126.43L216.312 117.082L219.415 125.056L222.519 129.197L225.622 133.29L228.726 132.028L231.829 112.283L234.933 119.124L238.036 116.822L241.14 115.968L244.243 119.821L247.347 110.417L250.45 113.685L253.554 115.792L256.657 113.666L259.761 118.4L262.735 116.637L265.838 114.13L268.942 114.39L272.045 120.238L275.149 113.304L278.253 121.148L281.356 117.138L284.46 119.486L287.563 112.004L290.667 109.6L293.77 123.58L296.874 122.253L299.977 123.023L303.081 116.544L306.184 121.334L309.288 117.741L312.391 124.648L315.495 123.868L318.598 130.942L321.702 129.429L324.805 130.858L327.909 116.126L331.012 115.151L334.116 127.962L337.219 118.447L340.323 132.399L343.426 120.693L346.53 117.407L349.633 121.677L352.737 121.928L355.84 123.766L358.944 132.854L362.047 153.035L365.151 148.282L368.254 115.708L371.358 130.886L374.461 119.709L377.565 126.495L380.668 119.013L383.772 123.812L386.875 134.163L389.979 137.356L393.082 137.096L396.186 136.688L399.289 130.775L402.393 140.782L405.496 127.349L408.6 138.888L411.703 129.791L414.807 123.747L417.91 151.262L421.014 159.691L424.117 162.188L427.221 154.307L430.324 146.333L433.428 136.53L436.531 145.73L439.635 143.14L442.738 146.593L445.842 140.076L448.945 144.792L452.049 130.691L455.152 127.433L458.256 142.592L461.359 159.459L464.463 136.558L467.566 143.353L470.67 136.716L473.773 129.113L476.877 152.423L479.98 147.271L483.084 138.053L486.187 152.163L489.291 153.704L492.394 157.296L495.498 159.691L498.601 137.885L501.705 140.735L504.808 157.993L507.912 144.133L511.015 140.373L514.119 151.856L517.222 155.811L520.326 135.091L523.429 142.963L526.533 144.885L529.636 140.708L532.74 142.156L535.843 152.274L538.947 151.299L542.05 141.784Z" fill="url(#paint0_linear_1052_57151)"/>
</g>
<path d="M545.154 142.564L542.05 141.784L538.947 151.299L535.843 152.274L532.74 142.156L529.636 140.708L526.533 144.885L523.429 142.963L520.326 135.091L517.222 155.811L514.119 151.856L511.015 140.373L507.912 144.133L504.808 157.993L501.705 140.735L498.601 137.885L495.498 159.691L492.394 157.296L489.291 153.704L486.187 152.163L483.084 138.053L479.98 147.271L476.877 152.423L473.773 129.113L470.67 136.716L467.566 143.353L464.463 136.558L461.359 159.459L458.256 142.592L455.152 127.433L452.049 130.691L448.945 144.792L445.842 140.076L442.738 146.593L439.635 143.14L436.531 145.73L433.428 136.53L430.324 146.333L427.221 154.307L424.117 162.189L421.014 159.691L417.91 151.262L414.807 123.747L411.703 129.791L408.6 138.888L405.496 127.349L402.393 140.782L399.289 130.775L396.186 136.688L393.082 137.096L389.979 137.356L386.875 134.163L383.772 123.812L380.668 119.013L377.565 126.495L374.461 119.709L371.358 130.886L368.254 115.708L365.151 148.282L362.047 153.035L358.944 132.854L355.84 123.766L352.737 121.928L349.633 121.677L346.53 117.407L343.426 120.693L340.323 132.399L337.219 118.447L334.116 127.962L331.012 115.151L327.909 116.126L324.805 130.858L321.702 129.429L318.598 130.942L315.495 123.868L312.391 124.648L309.288 117.741L306.184 121.334L303.081 116.544L299.977 123.023L296.874 122.253L293.77 123.58L290.667 109.6L287.563 112.004L284.46 119.486L281.356 117.138L278.253 121.148L275.149 113.304L272.046 120.238L268.942 114.39L265.839 114.13L262.735 116.637L259.761 118.4L256.657 113.666L253.554 115.792L250.45 113.685L247.347 110.417L244.243 119.821L241.14 115.968L238.036 116.822L234.933 119.124L231.829 112.283L228.726 132.028L225.622 133.29L222.519 129.197L219.415 125.056L216.312 117.082L213.208 126.43L210.105 113.434L207.001 119.282L203.898 149.712L200.794 139.213L197.691 121L194.587 118.308L191.484 112.561L188.38 130.673L185.277 131.081L182.173 125.196L179.07 111.141L175.966 118.038L172.863 125.539L169.759 119.663L166.656 108.857L163.552 106.657L160.449 115.003L157.345 111.067L154.242 111.187L151.138 114.223L148.035 105.562L144.931 104.448L141.828 117.593L138.724 107.047L135.621 110.25L132.517 117.481L129.414 123.014L126.31 126.839L123.207 112.598L120.103 109.099L117 115.848L113.896 131.378L110.793 121.882L107.689 123.831L104.586 124.583L101.482 112.134L98.3787 106.899L95.2752 108.978L92.1717 110.073L89.0682 104.782L85.9647 100.28L82.8612 116.275L79.7577 133.457L76.6542 123.497L73.5507 113.945L70.4472 117.324L67.3437 104.968L64.2402 94.2737L61.1367 89.428L58.0332 91.6002L54.9297 99.7043L51.8262 103.631L48.7227 101.282L45.6247 94.413" stroke="#9A2444" stroke-width="1.04943" stroke-linecap="round" stroke-linejoin="round"/>
<path d="M545.154 163.981L542.05 163.487L538.947 155.866L535.843 156.483L532.74 163.722L529.636 162.806L526.533 165.45L523.429 164.234L520.326 154.74L517.222 172.364L514.119 161.655L511.015 162.595L507.912 164.974L504.808 146.62L501.705 162.824L498.601 161.02L495.498 174.819L492.394 173.304L489.291 171.03L486.187 157.836L483.084 161.126L479.98 166.959L476.877 170.22L473.773 155.469L470.67 160.28L467.566 164.48L464.463 160.18L461.359 149.377L458.256 163.999L455.152 154.406L452.049 177.252L448.945 165.391L445.842 162.407L442.738 166.53L439.635 164.345L436.531 165.984L433.428 149.853L430.324 166.366L427.221 171.412L424.117 169.485L421.014 174.819L417.91 169.485L414.807 152.073L411.703 149.853L408.6 161.655L405.496 169.485L402.393 162.853L399.289 156.52L396.186 146.62L393.082 146.878L389.979 147.043L386.875 158.665L383.772 170.305L380.668 167.268L377.565 153.812L374.461 149.518L371.358 133.853L368.254 146.986L365.151 144.862L362.047 147.87L358.944 157.836L355.84 152.085L352.737 137.279L349.633 137.121L346.53 148.061L343.426 150.141L340.323 157.548L337.219 148.719L334.116 154.74L331.012 160.276L327.909 160.893L324.805 156.573L321.702 155.669L318.598 156.626L315.495 152.15L312.391 148.096L309.288 143.725L306.184 136.903L303.081 142.967L299.977 147.068L296.873 151.128L293.77 151.968L290.666 161.311L287.563 162.832L284.46 149.377L281.356 147.891L278.253 150.429L275.149 145.465L272.045 149.853L268.942 155.247L265.838 155.083L262.735 156.669L259.761 148.69L256.657 154.789L253.554 156.134L250.45 154.801L247.347 152.733L244.243 158.684L241.14 147.151L238.036 147.691L234.933 149.148L231.829 144.819L228.726 161.861L225.622 162.66L222.519 160.069L219.415 152.902L216.312 147.856L213.208 135.581L210.105 145.547L207.001 149.248L203.898 154.862L200.794 161.86L197.691 150.335L194.587 153.179L191.484 154.09L188.38 156.456L185.277 156.714L182.173 152.99L179.07 144.096L175.966 134.818L172.863 135.017L169.759 135.846L166.656 142.651L163.552 141.259L160.449 146.54L157.345 148.597L154.242 148.673L151.138 146.046L148.035 140.565L144.931 158.051L141.828 148.179L138.724 141.505L135.621 134.437L132.517 148.108L129.414 151.609L126.31 154.03L123.207 158.661L120.103 156.446L117 147.074L113.896 156.902L110.793 150.893L107.689 152.126L104.586 152.602L101.482 144.725L98.3787 141.411L95.2752 142.727L92.1717 143.42L89.0682 140.072L85.9647 137.223L82.8612 147.345L79.4565 137.223L76.6542 151.915L73.5507 145.87L70.4472 148.008L67.3437 140.189L62.8812 156.714L59.7777 153.648L56.6742 155.022L54.9297 136.859L51.8262 139.344L48.7227 137.857L45.6247 133.51" stroke="#CB1E33" stroke-width="1.04943" stroke-linecap="round" stroke-linejoin="round"/>
<path d="M545.154 176.086L542.05 175.915L538.947 177.997L535.843 178.21L532.74 175.996L529.636 175.68L526.533 176.593L523.429 176.173L520.326 174.451L517.222 178.983L514.119 178.118L511.015 175.606L507.912 176.429L504.808 179.461L501.705 175.686L498.601 175.062L495.498 179.832L492.394 179.308L489.291 178.522L486.187 178.185L483.084 175.099L479.98 177.115L476.877 178.242L473.773 173.143L470.67 174.806L467.566 176.258L464.463 174.772L461.359 179.782L458.256 176.092L455.152 172.776L452.049 173.488L448.945 176.573L445.842 175.541L442.738 176.967L439.635 176.212L436.531 176.778L433.428 174.766L430.324 176.91L427.221 178.654L424.117 180.379L421.014 179.832L417.91 177.988L414.807 171.97L411.703 173.291L408.6 175.282L405.496 172.757L402.393 175.696L399.289 173.507L396.186 174.8L393.082 174.89L389.979 174.946L386.875 174.248L383.772 171.984L380.668 170.934L377.565 172.571L374.461 171.086L371.358 173.531L368.254 170.211L365.151 177.337L362.047 178.376L358.944 173.962L355.84 171.974L352.737 171.572L349.633 171.517L346.53 170.583L343.426 171.301L340.323 173.862L337.219 170.81L334.116 172.891L331.012 170.089L327.909 170.302L324.805 173.525L321.702 173.212L318.598 173.543L315.495 171.996L312.391 172.167L309.288 170.656L306.184 171.442L303.081 170.394L299.977 171.811L296.874 171.643L293.77 171.933L290.667 168.875L287.563 169.401L284.46 171.037L281.356 170.524L278.253 171.401L275.149 169.685L272.046 171.202L268.942 169.923L265.839 169.866L262.735 170.414L259.761 170.8L256.657 169.764L253.554 170.229L250.45 169.768L247.347 169.053L244.243 171.111L241.14 170.268L238.036 170.455L234.933 170.958L231.829 169.462L228.726 173.781L225.622 174.057L222.519 173.162L219.415 172.256L216.312 170.512L213.208 172.556L210.105 169.713L207.001 170.993L203.898 177.649L200.794 175.353L197.691 171.368L194.587 170.78L191.484 169.523L188.38 173.484L185.277 173.574L182.173 172.286L179.07 169.212L175.966 170.721L172.863 172.361L169.759 171.076L166.656 168.712L163.552 168.231L160.449 170.057L157.345 169.196L154.242 169.222L151.138 169.886L148.035 167.991L144.931 167.748L141.828 170.623L138.724 168.316L135.621 169.017L132.517 170.599L129.414 171.809L126.31 172.646L123.207 169.531L120.103 168.765L117 170.241L113.896 173.639L110.793 171.561L107.689 171.988L104.586 172.152L101.482 169.429L98.3787 168.284L95.2752 168.739L92.1717 168.978L89.0682 167.821L85.9647 166.836L82.8612 170.335L79.7577 174.094L76.6542 171.915L73.5507 169.825L70.4472 170.564L67.3437 167.861L64.2402 165.522L61.1367 164.462L58.0332 164.937L54.9297 166.71L51.8262 167.569L48.7227 167.055L45.6247 165.553" stroke="#383268" stroke-width="1.04943" stroke-linecap="round" stroke-linejoin="round"/>
</g>
<rect x="0.762358" y="0.262358" width="557.772" height="248.715" rx="10.2319" stroke="#F1F1F1" stroke-width="0.524715"/>
<defs>
<linearGradient id="paint0_linear_1052_57151" x1="295.389" y1="89.428" x2="295.389" y2="187.735" gradientUnits="userSpaceOnUse">
<stop stop-color="#9A2444"/>
<stop offset="1" stop-color="#7F56D9" stop-opacity="0"/>
</linearGradient>
<clipPath id="clip0_1052_57151">
<rect x="0.5" width="558.297" height="249.24" rx="10.4943" fill="white"/>
</clipPath>
</defs>
</svg>
