<svg width="229" height="197" viewBox="0 0 229 197" fill="none" xmlns="http://www.w3.org/2000/svg">
<g filter="url(#filter0_d_1052_57187)">
<rect x="13.5618" y="62.7212" width="171.52" height="121.179" rx="7.97765" transform="rotate(-17 13.5618 62.7212)" fill="white" shape-rendering="crispEdges"/>
<rect x="13.9769" y="62.9419" width="170.855" height="120.514" rx="7.64525" transform="rotate(-17 13.9769 62.9419)" stroke="#F1F1F1" stroke-width="0.664804" shape-rendering="crispEdges"/>
<path d="M28.4996 72.6559L29.6849 72.2935L33.2841 76.6954L33.36 76.6722L33.8824 71.0103L35.0676 70.6479L37.0467 77.121L36.1174 77.4051L34.6853 72.721L34.6253 72.7393L34.1454 77.9977L33.3742 78.2335L30.0349 74.1393L29.9749 74.1576L31.4079 78.845L30.4787 79.1291L28.4996 72.6559ZM40.5131 76.1684C40.0348 76.3146 39.5916 76.3384 39.1835 76.2396C38.7769 76.1381 38.4229 75.9296 38.1213 75.6139C37.8212 75.2956 37.5942 74.8846 37.4402 74.381C37.2882 73.8837 37.2469 73.417 37.3163 72.9811C37.3879 72.5444 37.5587 72.1685 37.8287 71.8533C38.1007 71.5374 38.4622 71.3105 38.9132 71.1726C39.1871 71.0889 39.4664 71.053 39.7512 71.065C40.036 71.077 40.3102 71.1487 40.5739 71.2801C40.8375 71.4115 41.0757 71.614 41.2884 71.8876C41.5005 72.1592 41.6738 72.5152 41.8085 72.9556L41.9109 73.2906L38.0517 74.4705L37.8352 73.7625L40.7683 72.8658C40.6923 72.6171 40.5744 72.4124 40.4147 72.2516C40.2543 72.0886 40.0653 71.9793 39.8479 71.9237C39.6325 71.8674 39.4026 71.8767 39.1582 71.9514C38.8927 72.0326 38.6809 72.1687 38.5227 72.3599C38.3661 72.5484 38.2659 72.7633 38.2222 73.0048C38.18 73.2435 38.1959 73.484 38.27 73.7264L38.4391 74.2795C38.5383 74.604 38.6796 74.8626 38.863 75.0554C39.0484 75.2475 39.2628 75.3721 39.506 75.4291C39.7486 75.4839 40.0079 75.4692 40.2839 75.3848C40.463 75.33 40.6186 75.2548 40.7506 75.1591C40.882 75.0614 40.9857 74.9444 41.0616 74.8083C41.1375 74.6722 41.1807 74.5196 41.1912 74.3505L42.1349 74.2382C42.1438 74.5235 42.0858 74.7936 41.961 75.0483C41.8375 75.3003 41.6535 75.5236 41.4089 75.7183C41.1657 75.9101 40.8671 76.0602 40.5131 76.1684ZM46.1307 70.3312L45.3205 70.7448C45.2512 70.6461 45.1624 70.5592 45.0542 70.484C44.9481 70.4082 44.82 70.3586 44.67 70.3354C44.5201 70.3121 44.3471 70.3304 44.1511 70.3903C43.8835 70.4721 43.6785 70.6005 43.5361 70.7753C43.3931 70.9481 43.3503 71.1282 43.4076 71.3158C43.4572 71.478 43.5572 71.5903 43.7076 71.6526C43.858 71.7149 44.0766 71.7368 44.3636 71.7182L45.1889 71.6594C45.6672 71.6261 46.0487 71.6834 46.3336 71.8313C46.6184 71.9793 46.8134 72.225 46.9184 72.5684C47.0073 72.8592 47.0022 73.1442 46.9032 73.4233C46.8057 73.6996 46.627 73.9478 46.3671 74.1678C46.1093 74.3872 45.7844 74.5568 45.3925 74.6766C44.8488 74.8428 44.3698 74.8625 43.9555 74.7358C43.5405 74.6069 43.2284 74.3394 43.019 73.9334L43.8899 73.5151C44.0196 73.7358 44.1916 73.8802 44.406 73.9483C44.6197 74.0143 44.8688 74.0038 45.1533 73.9168C45.463 73.8221 45.6909 73.6821 45.8371 73.4969C45.9826 73.3096 46.0266 73.1222 45.9693 72.9346C45.9229 72.7829 45.8271 72.6728 45.6817 72.6044C45.5385 72.5352 45.3429 72.5098 45.095 72.528L44.2181 72.5991C43.7335 72.6343 43.3482 72.5724 43.0623 72.4133C42.7784 72.2535 42.5837 72.0009 42.478 71.6553C42.3904 71.3687 42.3938 71.0935 42.4882 70.8296C42.5827 70.5657 42.7527 70.3305 42.9983 70.1241C43.2433 69.9156 43.5481 69.7556 43.9126 69.6441C44.4373 69.4837 44.8851 69.4712 45.256 69.6067C45.6262 69.74 45.9178 69.9815 46.1307 70.3312ZM50.9026 68.8723L50.0924 69.2858C50.0231 69.1872 49.9343 69.1003 49.8261 69.0251C49.7199 68.9493 49.5919 68.8997 49.4419 68.8764C49.292 68.8532 49.119 68.8715 48.923 68.9314C48.6554 69.0132 48.4504 69.1416 48.308 69.3164C48.165 69.4892 48.1222 69.6693 48.1795 69.8569C48.2291 70.0191 48.3291 70.1314 48.4795 70.1937C48.6299 70.256 48.8485 70.2779 49.1355 70.2593L49.9608 70.2005C50.4391 70.1672 50.8206 70.2245 51.1055 70.3724C51.3903 70.5203 51.5853 70.766 51.6903 71.1095C51.7792 71.4003 51.7741 71.6852 51.6751 71.9643C51.5776 72.2407 51.3989 72.4889 51.139 72.7089C50.8812 72.9283 50.5563 73.0979 50.1644 73.2177C49.6207 73.3839 49.1417 73.4036 48.7274 73.2768C48.3124 73.148 48.0002 72.8805 47.7909 72.4745L48.6618 72.0561C48.7915 72.2769 48.9635 72.4213 49.1779 72.4894C49.3916 72.5554 49.6407 72.5449 49.9251 72.4579C50.2349 72.3632 50.4628 72.2232 50.609 72.038C50.7545 71.8507 50.7985 71.6632 50.7412 71.4757C50.6948 71.324 50.5989 71.2139 50.4536 71.1454C50.3103 71.0763 50.1148 71.0509 49.8669 71.0691L48.99 71.1401C48.5054 71.1754 48.1201 71.1135 47.8342 70.9544C47.5503 70.7946 47.3556 70.5419 47.2499 70.1964C47.1623 69.9098 47.1657 69.6346 47.2601 69.3707C47.3546 69.1068 47.5246 68.8716 47.7702 68.6652C48.0152 68.4567 48.32 68.2967 48.6845 68.1852C49.2092 68.0248 49.657 68.0123 50.0279 68.1478C50.3981 68.2811 50.6897 68.5226 50.9026 68.8723ZM54.6041 71.8707C54.2965 71.9648 54.0009 71.9929 53.7175 71.9551C53.4334 71.9153 53.1852 71.808 52.9728 71.6333C52.7625 71.4579 52.6087 71.2112 52.5115 70.893C52.4277 70.6191 52.4115 70.3775 52.4627 70.1683C52.5139 69.9591 52.6133 69.7755 52.7609 69.6175C52.9084 69.4595 53.0848 69.3203 53.2899 69.2C53.495 69.0797 53.7083 68.9707 53.9296 68.8731C54.2101 68.7505 54.4377 68.6509 54.6124 68.5744C54.7866 68.4959 54.907 68.4187 54.9737 68.343C55.0404 68.2673 55.0564 68.1726 55.0216 68.0588L55.0148 68.0367C54.9305 67.7606 54.7871 67.5706 54.5848 67.4666C54.3846 67.3619 54.1317 67.3562 53.8262 67.4496C53.508 67.5469 53.2788 67.6942 53.1387 67.8914C53 68.0859 52.9219 68.2791 52.9046 68.471L51.9546 68.5403C51.9698 68.2131 52.0508 67.9279 52.1977 67.6849C52.346 67.4391 52.5404 67.2345 52.7807 67.0711C53.0205 66.9057 53.2868 66.7782 53.5797 66.6886C53.7735 66.6293 53.9861 66.5897 54.2173 66.5697C54.45 66.547 54.6795 66.5667 54.9058 66.6288C55.1343 66.6903 55.3438 66.814 55.5343 67C55.7242 67.1839 55.8732 67.4528 55.9814 67.8068L56.9671 71.0308L56.0441 71.3129L55.8412 70.6492L55.8033 70.6608C55.7795 70.8017 55.7246 70.9498 55.6385 71.1052C55.5523 71.2605 55.4253 71.4065 55.2574 71.5431C55.0895 71.6797 54.8717 71.7889 54.6041 71.8707ZM54.5776 71.0493C54.8389 70.9694 55.0465 70.8495 55.2004 70.6896C55.3563 70.529 55.4573 70.3507 55.5034 70.1546C55.5509 69.9557 55.5453 69.7604 55.4867 69.5687L55.2953 68.9428C55.2719 68.9869 55.2163 69.0384 55.1284 69.0976C55.0419 69.1539 54.9408 69.2114 54.825 69.2698C54.7086 69.3261 54.595 69.3804 54.4843 69.4327C54.3729 69.4829 54.2799 69.5252 54.2051 69.5596C54.0289 69.6388 53.8733 69.729 53.7383 69.8301C53.6055 69.9307 53.5095 70.0464 53.4505 70.1774C53.3929 70.3056 53.3899 70.4539 53.4414 70.6225C53.5129 70.8564 53.6534 71.007 53.8629 71.0743C54.0718 71.1395 54.31 71.1311 54.5776 71.0493ZM60.8489 71.9453C60.4633 72.0632 60.1159 72.1141 59.8069 72.098C59.4999 72.0812 59.2335 72.0164 59.0077 71.9034C58.7819 71.7904 58.5956 71.6481 58.4486 71.4764L59.1585 70.893C59.2437 70.9683 59.3496 71.0431 59.4759 71.1174C59.6051 71.1931 59.7631 71.2427 59.95 71.2662C60.139 71.2891 60.3642 71.2606 60.6255 71.1807C60.9837 71.0712 61.253 70.8932 61.4334 70.6468C61.6145 70.4025 61.647 70.0907 61.5311 69.7114L61.2392 68.7569L61.1792 68.7753C61.1539 68.8959 61.1068 69.0359 61.038 69.1952C60.9713 69.3538 60.8594 69.5078 60.7023 69.6572C60.5452 69.8066 60.3181 69.9267 60.021 70.0176C59.6375 70.1348 59.2646 70.1509 58.9022 70.0659C58.5412 69.9781 58.2174 69.7856 57.9307 69.4885C57.6455 69.1886 57.424 68.7805 57.2661 68.2643C57.1083 67.748 57.0605 67.2788 57.1226 66.8566C57.1869 66.4337 57.3429 66.0773 57.5906 65.7872C57.8377 65.4951 58.1561 65.2895 58.546 65.1703C58.8473 65.0781 59.1061 65.0543 59.3225 65.0988C59.5382 65.1411 59.7179 65.2129 59.8618 65.3141C60.0077 65.4146 60.1246 65.5067 60.2124 65.5905L60.282 65.5692L60.0413 64.7822L60.9674 64.4991L62.4846 69.4614C62.6121 69.8786 62.6199 70.2507 62.5078 70.5775C62.3958 70.9044 62.194 71.1827 61.9025 71.4124C61.6131 71.6414 61.2619 71.8191 60.8489 71.9453ZM59.99 69.1699C60.2618 69.0868 60.4722 68.9534 60.621 68.7696C60.7714 68.5831 60.8586 68.356 60.8828 68.0883C60.9083 67.8178 60.8699 67.515 60.7675 67.18C60.6676 66.8534 60.5312 66.5806 60.3583 66.3615C60.1854 66.1425 59.9838 65.9922 59.7538 65.9104C59.5231 65.8266 59.2697 65.8269 58.9937 65.9112C58.7092 65.9982 58.4947 66.1444 58.3502 66.3499C58.205 66.5533 58.1223 66.7952 58.102 67.0756C58.0838 67.3553 58.1221 67.65 58.2168 67.9598C58.3141 68.278 58.4479 68.5424 58.6183 68.7529C58.7886 68.9635 58.9893 69.1072 59.2201 69.1841C59.4531 69.2604 59.7097 69.2556 59.99 69.1699ZM65.8415 68.4247C65.3632 68.571 64.92 68.5947 64.5119 68.496C64.1053 68.3945 63.7513 68.1859 63.4497 67.8703C63.1496 67.5519 62.9226 67.1409 62.7686 66.6373C62.6166 66.14 62.5753 65.6734 62.6447 65.2374C62.7163 64.8008 62.8871 64.4248 63.1571 64.1096C63.4291 63.7937 63.7906 63.5668 64.2416 63.4289C64.5155 63.3452 64.7949 63.3093 65.0796 63.3213C65.3644 63.3334 65.6386 63.405 65.9023 63.5364C66.1659 63.6678 66.4041 63.8703 66.6168 64.144C66.8289 64.4155 67.0022 64.7715 67.1369 65.2119L67.2393 65.547L63.3801 66.7268L63.1636 66.0188L66.0967 65.1221C66.0207 64.8734 65.9028 64.6687 65.7431 64.5079C65.5827 64.3449 65.3937 64.2357 65.1763 64.18C64.9609 64.1238 64.731 64.133 64.4866 64.2077C64.2211 64.2889 64.0093 64.4251 63.8511 64.6163C63.6945 64.8047 63.5943 65.0197 63.5506 65.2611C63.5084 65.4998 63.5243 65.7404 63.5984 65.9827L63.7675 66.5358C63.8667 66.8603 64.008 67.119 64.1914 67.3117C64.3768 67.5039 64.5912 67.6284 64.8344 67.6854C65.077 67.7403 65.3363 67.7255 65.6123 67.6411C65.7914 67.5864 65.947 67.5111 66.079 67.4155C66.2104 67.3177 66.3141 67.2008 66.39 67.0647C66.4659 66.9286 66.5091 66.7759 66.5196 66.6068L67.4633 66.4946C67.4722 66.7799 67.4142 67.0499 67.2894 67.3047C67.166 67.5567 66.9819 67.78 66.7373 67.9746C66.4941 68.1664 66.1955 68.3165 65.8415 68.4247ZM71.4591 62.5875L70.6489 63.0011C70.5796 62.9025 70.4908 62.8156 70.3826 62.7404C70.2765 62.6645 70.1484 62.615 69.9984 62.5917C69.8485 62.5684 69.6755 62.5867 69.4795 62.6466C69.2119 62.7285 69.0069 62.8568 68.8645 63.0317C68.7215 63.2044 68.6787 63.3846 68.736 63.5721C68.7856 63.7344 68.8856 63.8466 69.036 63.909C69.1864 63.9713 69.405 63.9931 69.692 63.9745L70.5173 63.9157C70.9956 63.8824 71.3771 63.9397 71.662 64.0877C71.9469 64.2356 72.1418 64.4813 72.2468 64.8247C72.3357 65.1155 72.3306 65.4005 72.2317 65.6796C72.1341 65.9559 71.9554 66.2041 71.6955 66.4241C71.4377 66.6435 71.1128 66.8131 70.7209 66.9329C70.1772 67.0992 69.6982 67.1189 69.2839 66.9921C68.8689 66.8632 68.5568 66.5957 68.3474 66.1897L69.2183 65.7714C69.348 65.9921 69.52 66.1365 69.7344 66.2046C69.9481 66.2706 70.1972 66.2601 70.4817 66.1731C70.7914 66.0784 71.0194 65.9385 71.1655 65.7533C71.311 65.5659 71.355 65.3785 71.2977 65.1909C71.2513 65.0392 71.1555 64.9291 71.0101 64.8607C70.8669 64.7916 70.6713 64.7661 70.4234 64.7843L69.5465 64.8554C69.0619 64.8906 68.6766 64.8287 68.3907 64.6696C68.1068 64.5099 67.9121 64.2572 67.8064 63.9116C67.7188 63.625 67.7222 63.3498 67.8166 63.0859C67.9111 62.822 68.0811 62.5869 68.3267 62.3804C68.5717 62.1719 68.8765 62.0119 69.241 61.9005C69.7657 61.74 70.2135 61.7276 70.5844 61.863C70.9547 61.9964 71.2462 62.2379 71.4591 62.5875ZM78.2177 59.315C78.0925 59.0261 77.8825 58.8368 77.5879 58.7472C77.2925 58.6555 76.9595 58.6663 76.5886 58.7797C76.3231 58.8608 76.1063 58.9732 75.9382 59.1168C75.7695 59.2582 75.6536 59.4181 75.5906 59.5963C75.529 59.7718 75.5263 59.9512 75.5823 60.1345C75.6294 60.2884 75.7058 60.4102 75.8116 60.4999C75.9195 60.5891 76.044 60.6535 76.1852 60.6933C76.3278 60.7303 76.4754 60.7532 76.6278 60.7619C76.7796 60.7685 76.9235 60.7683 77.0596 60.7612L77.742 60.7323C77.964 60.7197 78.1967 60.7235 78.4401 60.7435C78.6836 60.7635 78.9196 60.8158 79.1482 60.9003C79.3768 60.9848 79.5799 61.1139 79.7574 61.2878C79.9371 61.4609 80.0714 61.6929 80.1603 61.9837C80.2724 62.3503 80.2771 62.7049 80.1744 63.0473C80.0738 63.3891 79.8696 63.697 79.5616 63.9708C79.2558 64.2441 78.85 64.458 78.3443 64.6126C77.8596 64.7608 77.4168 64.8121 77.0157 64.7665C76.6147 64.7209 76.271 64.5875 75.9844 64.3664C75.6973 64.1431 75.4836 63.8398 75.3433 63.4564L76.3232 63.1568C76.4136 63.3849 76.5491 63.5566 76.7295 63.672C76.9114 63.7846 77.1182 63.8469 77.35 63.859C77.5833 63.8683 77.8253 63.8346 78.0761 63.758C78.3521 63.6736 78.5844 63.5553 78.7729 63.4032C78.9629 63.2484 79.0962 63.074 79.1728 62.8801C79.2488 62.684 79.2546 62.4806 79.1902 62.2699C79.1316 62.0782 79.0288 61.9379 78.8819 61.8492C78.737 61.7599 78.5597 61.7035 78.3498 61.6801C78.142 61.6561 77.9128 61.649 77.6623 61.6587L76.8337 61.684C76.2722 61.7013 75.7978 61.6193 75.4106 61.4382C75.0256 61.2564 74.7641 60.94 74.6262 60.4891C74.5122 60.1161 74.5138 59.7596 74.6311 59.4196C74.7483 59.0796 74.9562 58.7799 75.2548 58.5204C75.5527 58.2589 75.9186 58.0617 76.3527 57.929C76.791 57.795 77.2012 57.7537 77.5832 57.8051C77.9674 57.8558 78.2977 57.9864 78.574 58.1969C78.8496 58.4052 79.0448 58.6819 79.1596 59.027L78.2177 59.315ZM83.9208 62.8973C83.4425 63.0436 82.9993 63.0673 82.5912 62.9686C82.1846 62.8671 81.8306 62.6585 81.529 62.3429C81.2289 62.0245 81.0019 61.6135 80.8479 61.1099C80.6959 60.6126 80.6546 60.146 80.724 59.71C80.7956 59.2734 80.9664 58.8974 81.2364 58.5822C81.5084 58.2663 81.8699 58.0394 82.3209 57.9016C82.5948 57.8178 82.8742 57.7819 83.1589 57.7939C83.4437 57.806 83.7179 57.8776 83.9816 58.009C84.2452 58.1404 84.4834 58.3429 84.6961 58.6166C84.9082 58.8881 85.0815 59.2441 85.2162 59.6845L85.3186 60.0196L81.4594 61.1994L81.2429 60.4914L84.1761 59.5947C84.1 59.346 83.9821 59.1413 83.8224 58.9805C83.662 58.8175 83.473 58.7083 83.2556 58.6526C83.0402 58.5964 82.8103 58.6056 82.5659 58.6803C82.3004 58.7615 82.0886 58.8977 81.9304 59.0889C81.7738 59.2773 81.6736 59.4923 81.6299 59.7337C81.5877 59.9724 81.6036 60.213 81.6777 60.4553L81.8468 61.0084C81.946 61.3329 82.0873 61.5916 82.2707 61.7843C82.4561 61.9765 82.6705 62.101 82.9137 62.158C83.1563 62.2129 83.4156 62.1981 83.6916 62.1137C83.8707 62.059 84.0263 61.9837 84.1583 61.8881C84.2897 61.7903 84.3934 61.6734 84.4693 61.5373C84.5452 61.4012 84.5884 61.2485 84.5989 61.0794L85.5426 60.9672C85.5515 61.2525 85.4935 61.5225 85.3687 61.7773C85.2453 62.0293 85.0612 62.2526 84.8166 62.4472C84.5734 62.639 84.2748 62.7891 83.9208 62.8973ZM87.0861 58.6704L87.9674 61.553L87.0223 61.8419L85.5381 56.9871L86.4452 56.7097L86.6868 57.4999L86.7468 57.4816C86.7799 57.1903 86.8917 56.9304 87.0821 56.7017C87.2746 56.4723 87.5532 56.3019 87.9177 56.1904C88.2485 56.0893 88.5595 56.0702 88.8507 56.1333C89.1412 56.1942 89.3965 56.3397 89.6166 56.5696C89.8366 56.7996 90.0079 57.1147 90.1303 57.5151L91.0744 60.6031L90.1293 60.892L89.22 57.9178C89.1124 57.5659 88.9367 57.319 88.6928 57.1769C88.4483 57.0328 88.1659 57.0097 87.8456 57.1076C87.6265 57.1746 87.446 57.2816 87.3044 57.4286C87.1648 57.575 87.0735 57.755 87.0305 57.9686C86.989 58.1794 87.0075 58.4134 87.0861 58.6704ZM93.1238 54.6679L93.3557 55.4265L90.7038 56.2372L90.4719 55.4786L93.1238 54.6679ZM90.8275 54.0981L91.7725 53.8091L93.1766 58.4017C93.2327 58.585 93.3022 58.7146 93.3854 58.7906C93.4679 58.8645 93.5575 58.905 93.6542 58.9123C93.7523 58.9169 93.853 58.9034 93.9563 58.8718C94.0321 58.8486 94.0969 58.8231 94.1506 58.7951C94.2042 58.7672 94.2459 58.7452 94.2756 58.7293L94.685 59.4578C94.6366 59.4956 94.5651 59.5405 94.4704 59.5925C94.3763 59.6466 94.2538 59.6979 94.1027 59.7464C93.8553 59.8266 93.61 59.8532 93.3668 59.8262C93.1235 59.7992 92.9058 59.7091 92.7138 59.5558C92.5218 59.4025 92.381 59.1795 92.2915 58.8866L90.8275 54.0981Z" fill="#A3A3A3"/>
<path d="M45.1105 101.154L45.6889 103.046L38.4871 105.247L38.1186 104.042L40.2669 99.8815C41.0838 98.297 41.3914 97.5022 41.1162 96.602C40.8596 95.7628 40.1224 95.3708 39.2222 95.646C38.2304 95.9493 37.8114 96.7614 38.1193 97.7685L36.0594 98.3982C35.4296 96.3384 36.5381 94.3978 38.7506 93.7214C40.8104 93.0916 42.7175 93.9267 43.2493 95.6662C43.6318 96.9173 43.4166 97.8507 42.1713 100.217L41.1281 102.371L45.1105 101.154ZM45.3927 97.5135C44.3478 94.0957 45.1989 91.7499 47.747 90.9709C50.2951 90.1918 52.3278 91.6559 53.3727 95.0738C54.413 98.4763 53.5724 100.802 50.9938 101.591C48.4152 102.379 46.433 100.916 45.3927 97.5135ZM47.5746 96.8464C48.251 99.0589 49.2252 100.062 50.4153 99.6985C51.5902 99.3393 51.8672 97.9533 51.1908 95.7408C50.5097 93.5132 49.5004 92.5037 48.3255 92.8629C47.1659 93.2174 46.8935 94.6187 47.5746 96.8464Z" fill="#101828"/>
<path d="M52.1567 129.84L49.8891 122.423M49.8891 122.423L47.3143 127.265M49.8891 122.423L54.7315 124.998" stroke="#12B76A" stroke-width="1.32961" stroke-linecap="round" stroke-linejoin="round"/>
<path d="M63.4108 125.481L62.503 125.759L60.9029 120.525L59.737 120.882L59.4975 120.099L61.5713 119.465L63.4108 125.481ZM63.6338 122.133C63.0242 120.14 63.4762 118.785 64.9003 118.349C66.3244 117.914 67.4656 118.782 68.0752 120.775C68.6847 122.769 68.2362 124.103 66.7943 124.544C65.3524 124.985 64.2433 124.127 63.6338 122.133ZM64.5594 121.85C65.0139 123.337 65.7011 123.993 66.5466 123.734C67.3922 123.476 67.6067 122.554 67.1495 121.058C66.6896 119.554 65.9935 118.901 65.148 119.159C64.3202 119.412 64.0996 120.346 64.5594 121.85ZM68.9446 120.51C68.335 118.516 68.787 117.161 70.2111 116.726C71.6352 116.29 72.7764 117.158 73.386 119.152C73.9955 121.146 73.547 122.48 72.1051 122.921C70.6632 123.361 69.5541 122.503 68.9446 120.51ZM69.8702 120.227C70.3247 121.713 71.0119 122.369 71.8574 122.111C72.703 121.852 72.9175 120.93 72.4603 119.435C72.0004 117.931 71.3043 117.277 70.4588 117.536C69.631 117.789 69.4104 118.722 69.8702 120.227ZM76.1595 119.034C75.0736 119.366 74.0346 118.769 73.7189 117.736C73.4032 116.704 73.9307 115.628 75.0166 115.296C76.1113 114.961 77.1504 115.558 77.466 116.59C77.7817 117.623 77.2542 118.699 76.1595 119.034ZM78.1541 120.974L77.4154 121.2L78.9759 114.143L79.7146 113.918L78.1541 120.974ZM75.9608 118.384C76.5661 118.199 76.9517 117.614 76.7095 116.822C76.4646 116.021 75.8205 115.76 75.2152 115.945C74.6189 116.128 74.2305 116.704 74.4754 117.505C74.7176 118.297 75.3645 118.566 75.9608 118.384ZM82.2167 119.81C81.122 120.144 80.0945 119.553 79.7762 118.512C79.4605 117.48 79.9791 116.406 81.0738 116.071C82.1686 115.737 83.1988 116.337 83.5144 117.369C83.8328 118.41 83.3115 119.475 82.2167 119.81ZM82.0181 119.16C82.6233 118.975 83 118.393 82.7579 117.6C82.5157 116.808 81.8804 116.545 81.2752 116.73C80.6789 116.912 80.2816 117.491 80.5238 118.283C80.766 119.076 81.4217 119.342 82.0181 119.16Z" fill="#027A48"/>
<path d="M92.8914 111.31L92.5624 116.569L91.5834 116.868L88.3699 112.692L89.3401 112.396L91.775 115.681L91.9747 111.59L92.8914 111.31ZM98.176 113.315C98.459 114.24 97.9122 115.031 96.6572 115.414C95.4111 115.795 94.4846 115.407 94.0854 114.419L94.9488 114.156C95.164 114.732 95.7473 114.953 96.4682 114.732C97.1001 114.539 97.4504 114.189 97.3144 113.744C97.1946 113.352 96.9026 113.256 96.2798 113.32L95.4708 113.412C94.5469 113.51 93.9213 113.214 93.7036 112.502C93.4505 111.674 93.9946 110.875 95.0894 110.541C96.2197 110.195 97.1702 110.566 97.5469 111.512L96.6836 111.776C96.456 111.223 95.937 111.021 95.3051 111.214C94.7354 111.389 94.4262 111.746 94.5514 112.155C94.6684 112.538 94.9631 112.643 95.5654 112.575L96.4127 112.482C97.399 112.365 97.9692 112.638 98.176 113.315ZM102.355 113.575L101.448 113.852L99.4937 107.462L100.402 107.184L102.355 113.575ZM106.46 112.32L106.237 111.59C106.104 112.205 105.669 112.659 104.974 112.871C103.995 113.171 103.183 112.806 102.919 111.943C102.636 111.017 103.228 110.31 104.634 109.881C104.91 109.796 105.135 109.737 105.532 109.665L105.425 109.317C105.219 108.641 104.737 108.37 104.114 108.56C103.455 108.762 103.174 109.276 103.349 109.943L102.53 110.193C102.251 109.12 102.792 108.186 103.896 107.848C105.062 107.492 105.94 107.944 106.283 109.065L107.208 112.091L106.46 112.32ZM103.765 111.655C103.915 112.144 104.378 112.353 104.956 112.176C105.713 111.945 106.04 111.329 105.82 110.608L105.703 110.225C105.342 110.287 105.09 110.354 104.859 110.425C103.96 110.7 103.597 111.103 103.765 111.655ZM111.718 109.175C112.001 110.1 111.454 110.89 110.199 111.274C108.953 111.655 108.027 111.267 107.627 110.279L108.491 110.015C108.706 110.592 109.289 110.813 110.01 110.592C110.642 110.399 110.993 110.049 110.856 109.603C110.737 109.212 110.445 109.116 109.822 109.18L109.013 109.272C108.089 109.369 107.463 109.074 107.246 108.362C106.993 107.534 107.537 106.735 108.631 106.4C109.762 106.055 110.712 106.426 111.089 107.372L110.226 107.636C109.998 107.082 109.479 106.881 108.847 107.074C108.278 107.248 107.968 107.606 108.093 108.015C108.21 108.398 108.505 108.502 109.107 108.435L109.955 108.341C110.941 108.225 111.511 108.498 111.718 109.175ZM115.463 108.614L115.705 109.406C115.468 109.615 115.241 109.733 114.956 109.82C114.084 110.086 113.334 109.8 113.016 108.758L112.243 106.231L111.202 106.549L110.968 105.783L112.009 105.465L111.582 104.068L112.481 103.793L112.908 105.19L114.332 104.755L114.566 105.52L113.142 105.956L113.852 108.279C114.051 108.929 114.433 109.065 114.914 108.918C115.128 108.852 115.304 108.76 115.463 108.614ZM119.391 108.366L118.492 108.641L117.05 103.924L117.887 103.668L118.126 104.451C118.281 103.81 118.687 103.326 119.337 103.127C120.031 102.915 120.665 103.111 121.069 103.668C121.214 102.962 121.642 102.423 122.363 102.202C123.334 101.906 124.15 102.347 124.493 103.469L125.426 106.521L124.527 106.796L123.681 104.028C123.441 103.245 122.953 102.888 122.294 103.09C121.68 103.277 121.339 103.946 121.581 104.738L122.409 107.444L121.51 107.719L120.663 104.951C120.424 104.167 119.935 103.811 119.277 104.012C118.654 104.203 118.322 104.868 118.564 105.661L119.391 108.366ZM128.631 105.639C127.296 106.047 125.996 105.296 125.569 103.899C125.142 102.501 125.8 101.152 127.135 100.743C128.47 100.335 129.77 101.086 130.197 102.484C130.624 103.881 129.966 105.231 128.631 105.639ZM128.389 104.847C129.163 104.61 129.587 103.799 129.271 102.767C128.956 101.734 128.154 101.308 127.38 101.545C126.605 101.781 126.188 102.58 126.503 103.613C126.819 104.645 127.615 105.083 128.389 104.847ZM131.92 101.626L132.734 104.287L131.835 104.562L130.392 99.8448L131.229 99.589L131.469 100.372C131.628 99.7491 132.056 99.2388 132.706 99.0401C133.676 98.7435 134.508 99.1706 134.853 100.301L135.786 103.354L134.888 103.629L134.047 100.878C133.799 100.068 133.304 99.7234 132.637 99.9275C132.023 100.115 131.664 100.789 131.92 101.626ZM139.358 101.308L139.6 102.1C139.362 102.309 139.135 102.427 138.85 102.515C137.978 102.781 137.229 102.494 136.91 101.453L136.137 98.9254L135.096 99.2437L134.862 98.4783L135.903 98.1599L135.476 96.7625L136.375 96.4877L136.802 97.8851L138.226 97.4497L138.46 98.2151L137.036 98.6505L137.747 100.974C137.945 101.623 138.328 101.759 138.808 101.613C139.022 101.547 139.198 101.454 139.358 101.308ZM140.612 98.9686L141.426 101.63L140.527 101.905L138.573 95.5141L139.472 95.2392L140.215 97.6691C140.371 97.0665 140.748 96.5814 141.398 96.3827C142.368 96.0861 143.2 96.5132 143.545 97.6436L144.478 100.696L143.58 100.971L142.739 98.221C142.491 97.4111 141.996 97.066 141.329 97.2701C140.715 97.4579 140.356 98.1319 140.612 98.9686Z" fill="#667085"/>
<mask id="path-8-inside-1_1052_57187" fill="white">
<path d="M48.8501 141.763L192.531 97.8351L199.734 121.395L56.0533 165.323L48.8501 141.763Z"/>
</mask>
<path d="M49.0445 142.398L192.725 98.4708L192.337 97.1993L48.6558 141.127L49.0445 142.398Z" fill="#EAECF0" mask="url(#path-8-inside-1_1052_57187)"/>
<g clip-path="url(#clip0_1052_57187)">
<path d="M143.577 127.394L143.181 134.503L142.104 134.832L137.801 129.16L138.851 128.839L142.317 133.521L142.598 127.693L143.577 127.394ZM145.611 127.404C145.715 127.743 145.527 128.082 145.144 128.199C144.761 128.316 144.406 128.143 144.303 127.804C144.197 127.457 144.397 127.124 144.779 127.007C145.162 126.89 145.505 127.057 145.611 127.404ZM147.193 133.276L146.294 133.551L144.851 128.834L145.75 128.559L147.193 133.276ZM150.408 132.39C149.046 132.807 147.827 132.099 147.373 130.613C146.946 129.215 147.585 127.901 148.885 127.503C150.291 127.073 151.574 127.927 151.882 129.507L148.366 130.582C148.731 131.521 149.383 131.935 150.175 131.693C150.843 131.489 151.194 130.982 151.158 130.322L152.048 130.05C152.137 131.171 151.521 132.05 150.408 132.39ZM149.074 128.185C148.353 128.406 148.021 129.072 148.193 129.983L150.747 129.202C150.436 128.343 149.804 127.962 149.074 128.185ZM157.285 130.191L155.144 127.01L155.14 130.847L154.232 131.124L151.428 126.823L152.309 126.554L154.312 129.698L154.329 125.936L155.219 125.664L157.323 128.787L157.222 125.052L158.112 124.78L158.184 129.916L157.285 130.191ZM162.309 126.017L163.047 128.429L162.148 128.704L160.706 123.987L161.542 123.731L161.847 124.728C161.978 123.977 162.564 123.35 163.339 123.113L163.625 124.048C162.594 124.305 161.991 124.976 162.309 126.017ZM167.462 127.177C166.1 127.593 164.881 126.885 164.427 125.399C163.999 124.002 164.639 122.687 165.938 122.29C167.345 121.86 168.627 122.713 168.935 124.293L165.42 125.368C165.785 126.307 166.437 126.721 167.229 126.479C167.896 126.275 168.248 125.768 168.211 125.108L169.101 124.836C169.191 125.957 168.574 126.837 167.462 127.177ZM166.127 122.971C165.406 123.192 165.075 123.858 165.246 124.769L167.801 123.988C167.489 123.129 166.857 122.748 166.127 122.971ZM174.327 122.401C174.762 123.825 174.256 125.099 172.992 125.486C172.352 125.682 171.711 125.527 171.198 125.061L171.968 127.58L171.069 127.855L169.102 121.42L169.939 121.164L170.203 122.027C170.356 121.319 170.828 120.795 171.496 120.59C172.751 120.207 173.891 120.977 174.327 122.401ZM173.392 122.687C173.068 121.628 172.325 121.203 171.551 121.44C170.803 121.668 170.398 122.444 170.722 123.503C171.04 124.545 171.804 124.973 172.561 124.742C173.335 124.505 173.716 123.746 173.392 122.687ZM177.962 123.966C176.627 124.374 175.327 123.624 174.9 122.226C174.473 120.829 175.131 119.479 176.466 119.071C177.801 118.663 179.101 119.414 179.528 120.811C179.955 122.209 179.298 123.558 177.962 123.966ZM177.72 123.174C178.495 122.937 178.918 122.127 178.603 121.094C178.287 120.062 177.485 119.635 176.711 119.872C175.936 120.109 175.519 120.908 175.835 121.94C176.15 122.973 176.946 123.411 177.72 123.174ZM181.327 120.203L182.065 122.615L181.166 122.89L179.724 118.172L180.56 117.916L180.865 118.913C180.996 118.163 181.583 117.536 182.357 117.299L182.643 118.234C181.612 118.49 181.009 119.161 181.327 120.203ZM187.211 120.088L187.453 120.88C187.215 121.089 186.989 121.207 186.704 121.294C185.832 121.56 185.082 121.274 184.764 120.232L183.991 117.705L182.95 118.023L182.716 117.258L183.757 116.939L183.33 115.542L184.229 115.267L184.656 116.664L186.08 116.229L186.314 116.994L184.89 117.43L185.6 119.753C185.799 120.403 186.181 120.539 186.662 120.392C186.875 120.326 187.051 120.234 187.211 120.088Z" fill="#1A1A1A"/>
</g>
</g>
<defs>
<filter id="filter0_d_1052_57187" x="-4.03817" y="-1.02627" width="234.654" height="201.231" filterUnits="userSpaceOnUse" color-interpolation-filters="sRGB">
<feFlood flood-opacity="0" result="BackgroundImageFix"/>
<feColorMatrix in="SourceAlpha" type="matrix" values="0 0 0 0 0 0 0 0 0 0 0 0 0 0 0 0 0 0 127 0" result="hardAlpha"/>
<feOffset dy="4"/>
<feGaussianBlur stdDeviation="8.8"/>
<feComposite in2="hardAlpha" operator="out"/>
<feColorMatrix type="matrix" values="0 0 0 0 0 0 0 0 0 0 0 0 0 0 0 0 0 0 0.06 0"/>
<feBlend mode="normal" in2="BackgroundImageFix" result="effect1_dropShadow_1052_57187"/>
<feBlend mode="normal" in="SourceGraphic" in2="effect1_dropShadow_1052_57187" result="shape"/>
</filter>
<clipPath id="clip0_1052_57187">
<rect width="51" height="14" fill="white" transform="translate(136.697 126.028) rotate(-17)"/>
</clipPath>
</defs>
</svg>
