<svg width="329" height="188" viewBox="0 0 329 188" fill="none" xmlns="http://www.w3.org/2000/svg">
<rect x="1.245" y="2.0243" width="358.731" height="1340.05" rx="9.90814" fill="white"/>
<rect x="1.245" y="2.0243" width="358.731" height="1340.05" rx="9.90814" stroke="#383268" stroke-width="2.51"/>
<path d="M16.6981 25.6392C14.6567 25.6392 13.0746 23.9755 13.0746 21.8116C13.0746 19.6579 14.6567 18.0044 16.6981 18.0044C18.5353 18.0044 20.0051 19.2293 20.2807 21.0359H19.0865C18.8823 19.8519 17.9229 19.0149 16.7083 19.0149C15.2589 19.0149 14.2382 20.1887 14.2382 21.8116C14.2382 23.4549 15.2589 24.6287 16.7083 24.6287C17.9229 24.6287 18.8823 23.7815 19.0865 22.5975H20.2807C20.0051 24.4144 18.5353 25.6392 16.6981 25.6392ZM23.6318 25.5882C22.1008 25.5882 20.978 24.3837 20.978 22.7813C20.978 21.1788 22.1008 19.9744 23.6318 19.9744C25.1628 19.9744 26.2856 21.1788 26.2856 22.7813C26.2856 24.3837 25.1628 25.5882 23.6318 25.5882ZM23.6318 24.6797C24.5198 24.6797 25.2241 23.9653 25.2241 22.7813C25.2241 21.5973 24.5198 20.893 23.6318 20.893C22.7438 20.893 22.0497 21.5973 22.0497 22.7813C22.0497 23.9653 22.7438 24.6797 23.6318 24.6797ZM28.3674 22.4342V25.4861H27.3365V20.0764H28.296V20.9746C28.6634 20.3724 29.2758 19.9744 30.0209 19.9744C31.1335 19.9744 31.8684 20.6888 31.8684 21.9851V25.4861H30.8375V22.3322C30.8375 21.4033 30.4292 20.8828 29.6637 20.8828C28.9594 20.8828 28.3674 21.4748 28.3674 22.4342ZM34.7383 25.4861H33.7074V20.9542H32.5132V20.0764H33.7074V19.6784C33.7074 18.6373 34.2687 18.0657 35.2894 18.0657C35.5956 18.0657 35.8406 18.1167 36.0447 18.1984V19.0353C35.8814 18.9639 35.6977 18.9435 35.514 18.9435C35.0241 18.9435 34.7383 19.168 34.7383 19.6886V20.0764H36.2489V20.9542H34.7383V25.4861ZM38.2801 18.821C38.2801 19.2088 37.9738 19.5048 37.535 19.5048C37.0961 19.5048 36.7898 19.2088 36.7898 18.821C36.7898 18.4229 37.0961 18.1371 37.535 18.1371C37.9738 18.1371 38.2801 18.4229 38.2801 18.821ZM38.0555 25.4861H37.0246V20.0764H38.0555V25.4861ZM41.651 27.5683C40.2322 27.5683 39.3136 26.813 39.2523 25.5882H40.2526C40.3139 26.3435 40.8038 26.7517 41.6408 26.7517C42.5696 26.7517 43.0595 26.2516 43.0595 25.3228V24.3429C42.7533 24.9962 42.1409 25.3738 41.406 25.3738C40.0587 25.3738 39.0992 24.2613 39.0992 22.669C39.0992 21.0563 40.0179 19.9744 41.3754 19.9744C42.1511 19.9744 42.7635 20.352 43.131 21.0359V20.0764H44.0904V25.3024C44.0904 26.7211 43.182 27.5683 41.651 27.5683ZM40.1403 22.669C40.1403 23.7917 40.6915 24.4756 41.5897 24.4756C42.4675 24.4756 43.0595 23.7713 43.0595 22.6996C43.0595 21.5768 42.4777 20.8624 41.5897 20.8624C40.7017 20.8624 40.1403 21.5564 40.1403 22.669ZM48.896 23.261V20.0764H49.9269V25.4861H48.9675V24.6287C48.6817 25.1901 48.0489 25.5882 47.314 25.5882C46.2218 25.5882 45.4665 24.9451 45.4665 23.557V20.0764H46.4974V23.3528C46.4974 24.2919 46.9669 24.6797 47.6406 24.6797C48.3346 24.6797 48.896 24.1082 48.896 23.261ZM52.3895 22.72V25.4861H51.3586V20.0764H52.3181V21.2196C52.6957 20.4745 53.5123 20.005 54.4003 20.005V21.0767C53.2367 21.0155 52.3895 21.5258 52.3895 22.72ZM57.4213 25.5882C55.8596 25.5882 54.8083 24.4552 54.8083 22.7506C54.8083 21.1482 55.9004 19.9744 57.3906 19.9744C59.0033 19.9744 60.0751 21.2808 59.8913 23.0364H55.8596C55.9413 24.1388 56.4924 24.7818 57.4008 24.7818C58.1664 24.7818 58.6971 24.3633 58.8706 23.659H59.8913C59.626 24.8635 58.6971 25.5882 57.4213 25.5882ZM57.3702 20.7501C56.5435 20.7501 55.9821 21.3421 55.8698 22.3526H58.7992C58.7482 21.3523 58.2072 20.7501 57.3702 20.7501ZM66.254 22.7404V25.4861H65.121V22.7404L62.4876 18.1575H63.7125L65.7232 21.6891L67.7544 18.1575H68.8976L66.254 22.7404ZM70.9882 25.5882C69.4572 25.5882 68.3344 24.3837 68.3344 22.7813C68.3344 21.1788 69.4572 19.9744 70.9882 19.9744C72.5193 19.9744 73.642 21.1788 73.642 22.7813C73.642 24.3837 72.5193 25.5882 70.9882 25.5882ZM70.9882 24.6797C71.8762 24.6797 72.5805 23.9653 72.5805 22.7813C72.5805 21.5973 71.8762 20.893 70.9882 20.893C70.1002 20.893 69.4061 21.5973 69.4061 22.7813C69.4061 23.9653 70.1002 24.6797 70.9882 24.6797ZM78.0714 23.261V20.0764H79.1023V25.4861H78.1429V24.6287C77.8571 25.1901 77.2242 25.5882 76.4893 25.5882C75.3972 25.5882 74.6419 24.9451 74.6419 23.557V20.0764H75.6728V23.3528C75.6728 24.2919 76.1423 24.6797 76.816 24.6797C77.51 24.6797 78.0714 24.1082 78.0714 23.261ZM81.5649 22.72V25.4861H80.534V20.0764H81.4934V21.2196C81.8711 20.4745 82.6876 20.005 83.5756 20.005V21.0767C82.412 21.0155 81.5649 21.5258 81.5649 22.72ZM89.903 25.6392C87.78 25.6392 86.1775 23.9755 86.1775 21.8116C86.1775 19.6477 87.78 18.0044 89.903 18.0044C92.0261 18.0044 93.6286 19.6477 93.6286 21.8116C93.6286 23.9755 92.0261 25.6392 89.903 25.6392ZM89.903 24.6287C91.4545 24.6287 92.465 23.3835 92.465 21.8116C92.465 20.2397 91.4545 19.0149 89.903 19.0149C88.3516 19.0149 87.3411 20.2397 87.3411 21.8116C87.3411 23.3835 88.3516 24.6287 89.903 24.6287ZM97.4395 25.4861H96.3167V19.168H93.9283V18.1575H99.8279V19.168H97.4395V25.4861ZM103.362 22.9344H101.943V25.4861H100.82V18.1575H103.362C105.005 18.1575 106.066 18.9945 106.066 20.5255C106.066 22.0668 105.005 22.9344 103.362 22.9344ZM103.351 19.1068H101.943V21.9851H103.351C104.341 21.9851 104.944 21.4442 104.944 20.5357C104.944 19.6273 104.341 19.1068 103.351 19.1068ZM112.67 25.4861L110.353 19.8825V25.4861H109.323V18.1575H110.7L113.16 24.1082L115.61 18.1575H116.998V25.4861H115.957V19.8723L113.63 25.4861H112.67ZM120.726 25.5882C119.164 25.5882 118.113 24.4552 118.113 22.7506C118.113 21.1482 119.205 19.9744 120.695 19.9744C122.308 19.9744 123.38 21.2808 123.196 23.0364H119.164C119.246 24.1388 119.797 24.7818 120.706 24.7818C121.471 24.7818 122.002 24.3633 122.175 23.659H123.196C122.931 24.8635 122.002 25.5882 120.726 25.5882ZM120.675 20.7501C119.848 20.7501 119.287 21.3421 119.175 22.3526H122.104C122.053 21.3523 121.512 20.7501 120.675 20.7501ZM128.579 23.8734C128.579 24.9349 127.752 25.5882 126.313 25.5882C124.884 25.5882 124.037 24.8839 123.935 23.7203H124.925C124.966 24.3939 125.507 24.8124 126.333 24.8124C127.058 24.8124 127.538 24.5573 127.538 24.0469C127.538 23.5978 127.262 23.4039 126.589 23.2712L125.711 23.1079C124.711 22.9139 124.149 22.4036 124.149 21.587C124.149 20.6378 124.976 19.9744 126.231 19.9744C127.528 19.9744 128.405 20.6684 128.497 21.781H127.507C127.446 21.1277 126.966 20.7501 126.242 20.7501C125.588 20.7501 125.149 21.0257 125.149 21.4952C125.149 21.9341 125.425 22.1382 126.078 22.2607L126.997 22.4342C128.069 22.6282 128.579 23.0977 128.579 23.8734ZM133.991 23.8734C133.991 24.9349 133.165 25.5882 131.725 25.5882C130.297 25.5882 129.449 24.8839 129.347 23.7203H130.337C130.378 24.3939 130.919 24.8124 131.746 24.8124C132.471 24.8124 132.95 24.5573 132.95 24.0469C132.95 23.5978 132.675 23.4039 132.001 23.2712L131.123 23.1079C130.123 22.9139 129.562 22.4036 129.562 21.587C129.562 20.6378 130.388 19.9744 131.644 19.9744C132.94 19.9744 133.818 20.6684 133.91 21.781H132.92C132.858 21.1277 132.379 20.7501 131.654 20.7501C131.001 20.7501 130.562 21.0257 130.562 21.4952C130.562 21.9341 130.837 22.1382 131.491 22.2607L132.409 22.4342C133.481 22.6282 133.991 23.0977 133.991 23.8734ZM138.393 25.4861V24.6491C138.057 25.2513 137.454 25.5882 136.658 25.5882C135.535 25.5882 134.801 24.9451 134.801 23.955C134.801 22.8935 135.648 22.3424 137.26 22.3424C137.577 22.3424 137.832 22.3526 138.271 22.4036V22.0055C138.271 21.2298 137.852 20.7909 137.138 20.7909C136.383 20.7909 135.923 21.24 135.893 21.9953H134.954C135.005 20.7807 135.872 19.9744 137.138 19.9744C138.475 19.9744 139.251 20.7297 139.251 22.0157V25.4861H138.393ZM135.78 23.9244C135.78 24.4858 136.199 24.8533 136.862 24.8533C137.73 24.8533 138.271 24.3123 138.271 23.4855V23.0466C137.873 22.9956 137.587 22.9854 137.322 22.9854C136.291 22.9854 135.78 23.2916 135.78 23.9244ZM142.793 27.5683C141.374 27.5683 140.456 26.813 140.394 25.5882H141.395C141.456 26.3435 141.946 26.7517 142.783 26.7517C143.712 26.7517 144.202 26.2516 144.202 25.3228V24.3429C143.895 24.9962 143.283 25.3738 142.548 25.3738C141.201 25.3738 140.241 24.2613 140.241 22.669C140.241 21.0563 141.16 19.9744 142.517 19.9744C143.293 19.9744 143.906 20.352 144.273 21.0359V20.0764H145.232V25.3024C145.232 26.7211 144.324 27.5683 142.793 27.5683ZM141.282 22.669C141.282 23.7917 141.834 24.4756 142.732 24.4756C143.61 24.4756 144.202 23.7713 144.202 22.6996C144.202 21.5768 143.62 20.8624 142.732 20.8624C141.844 20.8624 141.282 21.5564 141.282 22.669ZM148.885 25.5882C147.323 25.5882 146.272 24.4552 146.272 22.7506C146.272 21.1482 147.364 19.9744 148.854 19.9744C150.467 19.9744 151.538 21.2808 151.355 23.0364H147.323C147.405 24.1388 147.956 24.7818 148.864 24.7818C149.63 24.7818 150.161 24.3633 150.334 23.659H151.355C151.089 24.8635 150.161 25.5882 148.885 25.5882ZM148.834 20.7501C148.007 20.7501 147.445 21.3421 147.333 22.3526H150.263C150.212 21.3523 149.671 20.7501 148.834 20.7501Z" fill="#1A1A1A"/>
<path d="M15.5865 40.145C14.1147 40.145 12.9929 39.0161 12.9929 37.4728C12.9929 35.9581 14.0647 34.8007 15.5508 34.8007C16.8869 34.8007 17.7585 35.6366 18.0515 36.6655H17.4442C17.2227 35.8867 16.5725 35.2794 15.5365 35.2794C14.3576 35.2794 13.5431 36.1868 13.5431 37.48C13.5431 38.7446 14.3648 39.6806 15.6008 39.6806C16.7154 39.6806 17.4227 38.9876 17.5585 37.9087H15.5437V37.4728H18.1158C18.1015 39.0947 17.1012 40.145 15.5865 40.145ZM20.4227 40.1093C19.3652 40.1093 18.665 39.3162 18.665 38.123C18.665 37.0227 19.3938 36.2011 20.3941 36.2011C21.4658 36.2011 22.166 37.0656 22.0803 38.2731H19.1652C19.2081 39.1662 19.6796 39.7163 20.4155 39.7163C21.0443 39.7163 21.4801 39.3662 21.6016 38.7661H22.0946C21.9231 39.602 21.2872 40.1093 20.4227 40.1093ZM20.387 36.5869C19.7082 36.5869 19.2295 37.1085 19.1652 37.9301H21.5587C21.5158 37.087 21.08 36.5869 20.387 36.5869ZM23.407 37.8444V40.0378H22.9068V36.2725H23.3713V36.9799C23.6142 36.5154 24.0714 36.2011 24.6145 36.2011C25.4004 36.2011 25.9077 36.7012 25.9077 37.5943V40.0378H25.4075V37.7658C25.4075 37.0442 25.0789 36.6369 24.4644 36.6369C23.8785 36.6369 23.407 37.1442 23.407 37.8444ZM28.4397 40.1093C27.3822 40.1093 26.682 39.3162 26.682 38.123C26.682 37.0227 27.4108 36.2011 28.4111 36.2011C29.4828 36.2011 30.183 37.0656 30.0973 38.2731H27.1822C27.2251 39.1662 27.6966 39.7163 28.4325 39.7163C29.0613 39.7163 29.4971 39.3662 29.6186 38.7661H30.1116C29.9401 39.602 29.3042 40.1093 28.4397 40.1093ZM28.4039 36.5869C27.7252 36.5869 27.2465 37.1085 27.1822 37.9301H29.5757C29.5328 37.087 29.097 36.5869 28.4039 36.5869ZM31.424 38.023V40.0378H30.9238V36.2725H31.3883V37.1299C31.6455 36.5726 32.2028 36.2154 32.8244 36.2154V36.7369C32.0313 36.7084 31.424 37.2013 31.424 38.023ZM35.7506 40.0378V39.3519C35.5291 39.8235 35.0719 40.1093 34.486 40.1093C33.7072 40.1093 33.1999 39.6735 33.1999 38.9947C33.1999 38.2588 33.7858 37.873 34.929 37.873C35.1576 37.873 35.3291 37.8872 35.7006 37.9158V37.6015C35.7006 36.9727 35.3648 36.6012 34.7932 36.6012C34.1788 36.6012 33.7929 36.9799 33.7858 37.5943H33.3285C33.35 36.7584 33.9287 36.2011 34.7861 36.2011C35.6649 36.2011 36.1793 36.7155 36.1793 37.5872V40.0378H35.7506ZM33.6786 38.9804C33.6786 39.4377 34.0287 39.7449 34.5574 39.7449C35.2576 39.7449 35.7006 39.2876 35.7006 38.5803V38.2445C35.3791 38.2159 35.1576 38.2088 34.9504 38.2088C34.093 38.2088 33.6786 38.4588 33.6786 38.9804ZM39.1467 39.5591V40.0021C38.9538 40.0807 38.7895 40.1093 38.6037 40.1093C37.9821 40.1093 37.5034 39.7878 37.5034 38.9733V36.6941H36.6174V36.2725H37.5034V35.1579H38.0035V36.2725H39.1824V36.6941H38.0035V38.8661C38.0035 39.452 38.2893 39.652 38.7037 39.652C38.8609 39.652 38.9895 39.6234 39.1467 39.5591ZM41.299 40.1093C40.2415 40.1093 39.5413 39.3162 39.5413 38.123C39.5413 37.0227 40.2701 36.2011 41.2704 36.2011C42.3421 36.2011 43.0423 37.0656 42.9566 38.2731H40.0415C40.0843 39.1662 40.5559 39.7163 41.2918 39.7163C41.9206 39.7163 42.3564 39.3662 42.4779 38.7661H42.9709C42.7994 39.602 42.1635 40.1093 41.299 40.1093ZM41.2632 36.5869C40.5845 36.5869 40.1058 37.1085 40.0415 37.9301H42.435C42.3921 37.087 41.9563 36.5869 41.2632 36.5869ZM47.5912 40.0378V39.3519C47.3697 39.8235 46.9125 40.1093 46.3266 40.1093C45.5478 40.1093 45.0405 39.6735 45.0405 38.9947C45.0405 38.2588 45.6264 37.873 46.7696 37.873C46.9982 37.873 47.1697 37.8872 47.5412 37.9158V37.6015C47.5412 36.9727 47.2054 36.6012 46.6338 36.6012C46.0194 36.6012 45.6335 36.9799 45.6264 37.5943H45.1691C45.1906 36.7584 45.7693 36.2011 46.6267 36.2011C47.5055 36.2011 48.0199 36.7155 48.0199 37.5872V40.0378H47.5912ZM45.5192 38.9804C45.5192 39.4377 45.8693 39.7449 46.398 39.7449C47.0982 39.7449 47.5412 39.2876 47.5412 38.5803V38.2445C47.2197 38.2159 46.9982 38.2088 46.791 38.2088C45.9336 38.2088 45.5192 38.4588 45.5192 38.9804ZM49.5721 37.8444V40.0378H49.072V36.2725H49.5364V36.9799C49.7793 36.5154 50.2366 36.2011 50.7796 36.2011C51.5655 36.2011 52.0728 36.7012 52.0728 37.5943V40.0378H51.5727V37.7658C51.5727 37.0442 51.244 36.6369 50.6296 36.6369C50.0437 36.6369 49.5721 37.1442 49.5721 37.8444ZM52.8472 38.1516C52.8472 36.9941 53.4902 36.2011 54.5048 36.2011C55.0692 36.2011 55.5479 36.5226 55.798 37.0584V34.9079H56.2981V40.0378H55.8337V39.2448C55.5694 39.7949 55.0835 40.1093 54.5048 40.1093C53.4902 40.1093 52.8472 39.3091 52.8472 38.1516ZM53.3545 38.1516C53.3545 39.109 53.8403 39.6735 54.5762 39.6735C55.305 39.6735 55.8051 39.0804 55.8051 38.1373C55.8051 37.1871 55.2907 36.6369 54.5762 36.6369C53.8403 36.6369 53.3545 37.1942 53.3545 38.1516ZM60.2827 40.1164C59.2896 40.1164 58.5965 39.3091 58.5965 38.1516C58.5965 37.0084 59.2967 36.2011 60.2827 36.2011C61.1615 36.2011 61.7903 36.7869 61.9403 37.7301H61.433C61.3187 37.0442 60.89 36.6369 60.2827 36.6369C59.5825 36.6369 59.1038 37.2514 59.1038 38.1516C59.1038 39.0661 59.5825 39.6806 60.2827 39.6806C60.8972 39.6806 61.3187 39.2805 61.433 38.5803H61.9403C61.8046 39.5377 61.1687 40.1164 60.2827 40.1164ZM65.1554 38.516V36.2725H65.6484V40.0378H65.184V39.3591C64.9911 39.7949 64.5338 40.1093 63.9837 40.1093C63.2192 40.1093 62.7119 39.6735 62.7119 38.7232V36.2725H63.212V38.616C63.212 39.3805 63.5907 39.6735 64.1194 39.6735C64.7196 39.6735 65.1554 39.1876 65.1554 38.516ZM69.5468 38.9876C69.5468 39.6806 68.9895 40.1093 68.0606 40.1093C67.1247 40.1093 66.5531 39.6377 66.4816 38.8589H66.9603C66.9961 39.3948 67.4176 39.7306 68.0606 39.7306C68.6751 39.7306 69.0466 39.4948 69.0466 39.0661C69.0466 38.6946 68.8323 38.5231 68.2607 38.4088L67.7177 38.3016C67.0032 38.1659 66.6245 37.8158 66.6245 37.2728C66.6245 36.644 67.1818 36.2011 68.0035 36.2011C68.868 36.2011 69.4396 36.6655 69.4968 37.4157H69.0252C68.9752 36.8941 68.5965 36.5869 68.0035 36.5869C67.4748 36.5869 67.1104 36.837 67.1104 37.2299C67.1104 37.6015 67.339 37.7801 67.8963 37.8872L68.4608 37.9944C69.211 38.1373 69.5468 38.4517 69.5468 38.9876ZM72.3241 39.5591V40.0021C72.1312 40.0807 71.9669 40.1093 71.7811 40.1093C71.1595 40.1093 70.6808 39.7878 70.6808 38.9733V36.6941H69.7948V36.2725H70.6808V35.1579H71.1809V36.2725H72.3598V36.6941H71.1809V38.8661C71.1809 39.452 71.4667 39.652 71.8811 39.652C72.0383 39.652 72.1669 39.6234 72.3241 39.5591ZM74.5049 40.1093C73.4689 40.1093 72.7187 39.2876 72.7187 38.1516C72.7187 37.0227 73.4689 36.2082 74.5049 36.2082C75.5481 36.2082 76.2983 37.0227 76.2983 38.1516C76.2983 39.2876 75.5481 40.1093 74.5049 40.1093ZM74.5049 39.6735C75.2409 39.6735 75.791 39.0876 75.791 38.1516C75.791 37.2299 75.2409 36.644 74.5049 36.644C73.7762 36.644 73.226 37.2299 73.226 38.1516C73.226 39.0876 73.7762 39.6735 74.5049 39.6735ZM77.6072 40.0378H77.1071V36.2725H77.5715V36.9799C77.8215 36.494 78.2645 36.2011 78.8004 36.2011C79.3863 36.2011 79.8221 36.5226 79.9793 37.0727C80.2151 36.544 80.6866 36.2011 81.2796 36.2011C82.0584 36.2011 82.5443 36.7155 82.5443 37.5943V40.0378H82.0513V37.7586C82.0513 37.0442 81.7226 36.6369 81.1153 36.6369C80.5437 36.6369 80.0793 37.137 80.0793 37.8301V40.0378H79.5792V37.7586C79.5792 37.0442 79.2505 36.6369 78.6432 36.6369C78.0645 36.6369 77.6072 37.137 77.6072 37.8301V40.0378ZM84.2462 35.4008C84.2462 35.6223 84.0819 35.7795 83.8389 35.7795C83.6032 35.7795 83.4388 35.6223 83.4388 35.4008C83.4388 35.1865 83.6032 35.0293 83.8389 35.0293C84.0819 35.0293 84.2462 35.1865 84.2462 35.4008ZM84.0962 40.0378H83.596V36.2725H84.0962V40.0378ZM87.8592 40.0378H84.8441V39.6735L87.159 36.7012H84.9155V36.2725H87.7735V36.6583L85.4728 39.6092H87.8592V40.0378ZM90.001 40.1093C88.9436 40.1093 88.2434 39.3162 88.2434 38.123C88.2434 37.0227 88.9722 36.2011 89.9724 36.2011C91.0442 36.2011 91.7444 37.0656 91.6586 38.2731H88.7435C88.7864 39.1662 89.258 39.7163 89.9939 39.7163C90.6226 39.7163 91.0585 39.3662 91.1799 38.7661H91.6729C91.5014 39.602 90.8655 40.1093 90.001 40.1093ZM89.9653 36.5869C89.2865 36.5869 88.8078 37.1085 88.7435 37.9301H91.137C91.0942 37.087 90.6583 36.5869 89.9653 36.5869ZM96.8791 36.2725L94.95 41.4168H94.4142L94.9643 39.9878L93.4711 36.2725H94.0069L95.2215 39.3877L96.3719 36.2725H96.8791ZM98.856 40.1093C97.82 40.1093 97.0698 39.2876 97.0698 38.1516C97.0698 37.0227 97.82 36.2082 98.856 36.2082C99.8991 36.2082 100.649 37.0227 100.649 38.1516C100.649 39.2876 99.8991 40.1093 98.856 40.1093ZM98.856 39.6735C99.5919 39.6735 100.142 39.0876 100.142 38.1516C100.142 37.2299 99.5919 36.644 98.856 36.644C98.1272 36.644 97.577 37.2299 97.577 38.1516C97.577 39.0876 98.1272 39.6735 98.856 39.6735ZM103.866 38.516V36.2725H104.359V40.0378H103.894V39.3591C103.702 39.7949 103.244 40.1093 102.694 40.1093C101.93 40.1093 101.422 39.6735 101.422 38.7232V36.2725H101.922V38.616C101.922 39.3805 102.301 39.6735 102.83 39.6735C103.43 39.6735 103.866 39.1876 103.866 38.516ZM105.942 38.023V40.0378H105.442V36.2725H105.907V37.1299C106.164 36.5726 106.721 36.2154 107.343 36.2154V36.7369C106.55 36.7084 105.942 37.2013 105.942 38.023ZM111.776 40.145C110.29 40.145 109.19 38.959 109.19 37.4657C109.19 35.9724 110.29 34.8007 111.776 34.8007C113.263 34.8007 114.37 35.9724 114.37 37.4657C114.37 38.959 113.263 40.145 111.776 40.145ZM111.776 39.6663C112.991 39.6663 113.813 38.6946 113.813 37.4657C113.813 36.2368 112.991 35.2794 111.776 35.2794C110.569 35.2794 109.74 36.2368 109.74 37.4657C109.74 38.6946 110.569 39.6663 111.776 39.6663ZM116.81 40.0378H116.281V35.3866H114.559V34.9079H118.532V35.3866H116.81V40.0378ZM120.937 38.1516H119.787V40.0378H119.251V34.9079H120.937C121.995 34.9079 122.716 35.4866 122.716 36.5226C122.716 37.5586 121.995 38.1516 120.937 38.1516ZM120.93 35.3651H119.787V37.6943H120.93C121.695 37.6943 122.181 37.2728 122.181 36.5226C122.181 35.7795 121.695 35.3651 120.93 35.3651ZM126.936 39.5591V40.0021C126.743 40.0807 126.579 40.1093 126.393 40.1093C125.771 40.1093 125.293 39.7878 125.293 38.9733V36.6941H124.407V36.2725H125.293V35.1579H125.793V36.2725H126.972V36.6941H125.793V38.8661C125.793 39.452 126.079 39.652 126.493 39.652C126.65 39.652 126.779 39.6234 126.936 39.5591ZM129.117 40.1093C128.081 40.1093 127.331 39.2876 127.331 38.1516C127.331 37.0227 128.081 36.2082 129.117 36.2082C130.16 36.2082 130.91 37.0227 130.91 38.1516C130.91 39.2876 130.16 40.1093 129.117 40.1093ZM129.117 39.6735C129.853 39.6735 130.403 39.0876 130.403 38.1516C130.403 37.2299 129.853 36.644 129.117 36.644C128.388 36.644 127.838 37.2299 127.838 38.1516C127.838 39.0876 128.388 39.6735 129.117 39.6735ZM134.691 40.1093C133.634 40.1093 132.933 39.3162 132.933 38.123C132.933 37.0227 133.662 36.2011 134.662 36.2011C135.734 36.2011 136.434 37.0656 136.349 38.2731H133.434C133.476 39.1662 133.948 39.7163 134.684 39.7163C135.313 39.7163 135.749 39.3662 135.87 38.7661H136.363C136.191 39.602 135.556 40.1093 134.691 40.1093ZM134.655 36.5869C133.977 36.5869 133.498 37.1085 133.434 37.9301H135.827C135.784 37.087 135.348 36.5869 134.655 36.5869ZM137.675 37.8444V40.0378H137.175V36.2725H137.64V36.9799C137.883 36.5154 138.34 36.2011 138.883 36.2011C139.669 36.2011 140.176 36.7012 140.176 37.5943V40.0378H139.676V37.7658C139.676 37.0442 139.347 36.6369 138.733 36.6369C138.147 36.6369 137.675 37.1442 137.675 37.8444ZM144.044 38.9876C144.044 39.6806 143.487 40.1093 142.558 40.1093C141.622 40.1093 141.05 39.6377 140.979 38.8589H141.458C141.493 39.3948 141.915 39.7306 142.558 39.7306C143.172 39.7306 143.544 39.4948 143.544 39.0661C143.544 38.6946 143.33 38.5231 142.758 38.4088L142.215 38.3016C141.501 38.1659 141.122 37.8158 141.122 37.2728C141.122 36.644 141.679 36.2011 142.501 36.2011C143.365 36.2011 143.937 36.6655 143.994 37.4157H143.523C143.473 36.8941 143.094 36.5869 142.501 36.5869C141.972 36.5869 141.608 36.837 141.608 37.2299C141.608 37.6015 141.836 37.7801 142.394 37.8872L142.958 37.9944C143.708 38.1373 144.044 38.4517 144.044 38.9876ZM147.321 38.516V36.2725H147.814V40.0378H147.35V39.3591C147.157 39.7949 146.699 40.1093 146.149 40.1093C145.385 40.1093 144.877 39.6735 144.877 38.7232V36.2725H145.378V38.616C145.378 39.3805 145.756 39.6735 146.285 39.6735C146.885 39.6735 147.321 39.1876 147.321 38.516ZM149.397 38.023V40.0378H148.897V36.2725H149.362V37.1299C149.619 36.5726 150.176 36.2154 150.798 36.2154V36.7369C150.005 36.7084 149.397 37.2013 149.397 38.023ZM152.881 40.1093C151.824 40.1093 151.123 39.3162 151.123 38.123C151.123 37.0227 151.852 36.2011 152.853 36.2011C153.924 36.2011 154.624 37.0656 154.539 38.2731H151.624C151.666 39.1662 152.138 39.7163 152.874 39.7163C153.503 39.7163 153.939 39.3662 154.06 38.7661H154.553C154.382 39.602 153.746 40.1093 152.881 40.1093ZM152.845 36.5869C152.167 36.5869 151.688 37.1085 151.624 37.9301H154.017C153.974 37.087 153.538 36.5869 152.845 36.5869ZM159.173 40.0378V39.3519C158.952 39.8235 158.495 40.1093 157.909 40.1093C157.13 40.1093 156.623 39.6735 156.623 38.9947C156.623 38.2588 157.209 37.873 158.352 37.873C158.58 37.873 158.752 37.8872 159.123 37.9158V37.6015C159.123 36.9727 158.788 36.6012 158.216 36.6012C157.601 36.6012 157.216 36.9799 157.209 37.5943H156.751C156.773 36.7584 157.351 36.2011 158.209 36.2011C159.088 36.2011 159.602 36.7155 159.602 37.5872V40.0378H159.173ZM157.101 38.9804C157.101 39.4377 157.451 39.7449 157.98 39.7449C158.68 39.7449 159.123 39.2876 159.123 38.5803V38.2445C158.802 38.2159 158.58 38.2088 158.373 38.2088C157.516 38.2088 157.101 38.4588 157.101 38.9804ZM164.962 38.9876C164.962 39.6806 164.405 40.1093 163.476 40.1093C162.54 40.1093 161.969 39.6377 161.897 38.8589H162.376C162.412 39.3948 162.833 39.7306 163.476 39.7306C164.091 39.7306 164.462 39.4948 164.462 39.0661C164.462 38.6946 164.248 38.5231 163.676 38.4088L163.133 38.3016C162.419 38.1659 162.04 37.8158 162.04 37.2728C162.04 36.644 162.597 36.2011 163.419 36.2011C164.284 36.2011 164.855 36.6655 164.912 37.4157H164.441C164.391 36.8941 164.012 36.5869 163.419 36.5869C162.89 36.5869 162.526 36.837 162.526 37.2299C162.526 37.6015 162.755 37.7801 163.312 37.8872L163.876 37.9944C164.627 38.1373 164.962 38.4517 164.962 38.9876ZM167.31 40.1093C166.253 40.1093 165.553 39.3162 165.553 38.123C165.553 37.0227 166.281 36.2011 167.282 36.2011C168.353 36.2011 169.054 37.0656 168.968 38.2731H166.053C166.096 39.1662 166.567 39.7163 167.303 39.7163C167.932 39.7163 168.368 39.3662 168.489 38.7661H168.982C168.811 39.602 168.175 40.1093 167.31 40.1093ZM167.275 36.5869C166.596 36.5869 166.117 37.1085 166.053 37.9301H168.446C168.403 37.087 167.968 36.5869 167.275 36.5869ZM171.132 40.1164C170.139 40.1164 169.446 39.3091 169.446 38.1516C169.446 37.0084 170.146 36.2011 171.132 36.2011C172.011 36.2011 172.64 36.7869 172.79 37.7301H172.283C172.168 37.0442 171.74 36.6369 171.132 36.6369C170.432 36.6369 169.953 37.2514 169.953 38.1516C169.953 39.0661 170.432 39.6806 171.132 39.6806C171.747 39.6806 172.168 39.2805 172.283 38.5803H172.79C172.654 39.5377 172.018 40.1164 171.132 40.1164ZM176.005 38.516V36.2725H176.498V40.0378H176.034V39.3591C175.841 39.7949 175.383 40.1093 174.833 40.1093C174.069 40.1093 173.561 39.6735 173.561 38.7232V36.2725H174.062V38.616C174.062 39.3805 174.44 39.6735 174.969 39.6735C175.569 39.6735 176.005 39.1876 176.005 38.516ZM178.081 38.023V40.0378H177.581V36.2725H178.046V37.1299C178.303 36.5726 178.86 36.2154 179.482 36.2154V36.7369C178.689 36.7084 178.081 37.2013 178.081 38.023ZM181.565 40.1093C180.508 40.1093 179.807 39.3162 179.807 38.123C179.807 37.0227 180.536 36.2011 181.536 36.2011C182.608 36.2011 183.308 37.0656 183.223 38.2731H180.308C180.35 39.1662 180.822 39.7163 181.558 39.7163C182.187 39.7163 182.622 39.3662 182.744 38.7661H183.237C183.065 39.602 182.43 40.1093 181.565 40.1093ZM181.529 36.5869C180.851 36.5869 180.372 37.1085 180.308 37.9301H182.701C182.658 37.087 182.222 36.5869 181.529 36.5869ZM187.857 40.0378V39.3519C187.636 39.8235 187.179 40.1093 186.593 40.1093C185.814 40.1093 185.307 39.6735 185.307 38.9947C185.307 38.2588 185.892 37.873 187.036 37.873C187.264 37.873 187.436 37.8872 187.807 37.9158V37.6015C187.807 36.9727 187.471 36.6012 186.9 36.6012C186.285 36.6012 185.9 36.9799 185.892 37.5943H185.435C185.457 36.7584 186.035 36.2011 186.893 36.2011C187.772 36.2011 188.286 36.7155 188.286 37.5872V40.0378H187.857ZM185.785 38.9804C185.785 39.4377 186.135 39.7449 186.664 39.7449C187.364 39.7449 187.807 39.2876 187.807 38.5803V38.2445C187.486 38.2159 187.264 38.2088 187.057 38.2088C186.2 38.2088 185.785 38.4588 185.785 38.9804ZM189.838 37.8444V40.0378H189.338V36.2725H189.802V36.9799C190.045 36.5154 190.503 36.2011 191.046 36.2011C191.832 36.2011 192.339 36.7012 192.339 37.5943V40.0378H191.839V37.7658C191.839 37.0442 191.51 36.6369 190.896 36.6369C190.31 36.6369 189.838 37.1442 189.838 37.8444ZM193.113 38.1516C193.113 36.9941 193.756 36.2011 194.771 36.2011C195.335 36.2011 195.814 36.5226 196.064 37.0584V34.9079H196.564V40.0378H196.1V39.2448C195.835 39.7949 195.35 40.1093 194.771 40.1093C193.756 40.1093 193.113 39.3091 193.113 38.1516ZM193.621 38.1516C193.621 39.109 194.106 39.6735 194.842 39.6735C195.571 39.6735 196.071 39.0804 196.071 38.1373C196.071 37.1871 195.557 36.6369 194.842 36.6369C194.106 36.6369 193.621 37.1942 193.621 38.1516ZM201.956 38.9876C201.956 39.6806 201.399 40.1093 200.47 40.1093C199.534 40.1093 198.963 39.6377 198.891 38.8589H199.37C199.406 39.3948 199.827 39.7306 200.47 39.7306C201.085 39.7306 201.456 39.4948 201.456 39.0661C201.456 38.6946 201.242 38.5231 200.67 38.4088L200.127 38.3016C199.413 38.1659 199.034 37.8158 199.034 37.2728C199.034 36.644 199.591 36.2011 200.413 36.2011C201.278 36.2011 201.849 36.6655 201.906 37.4157H201.435C201.385 36.8941 201.006 36.5869 200.413 36.5869C199.884 36.5869 199.52 36.837 199.52 37.2299C199.52 37.6015 199.749 37.7801 200.306 37.8872L200.87 37.9944C201.621 38.1373 201.956 38.4517 201.956 38.9876ZM204.304 40.1093C203.247 40.1093 202.547 39.3162 202.547 38.123C202.547 37.0227 203.275 36.2011 204.276 36.2011C205.347 36.2011 206.048 37.0656 205.962 38.2731H203.047C203.09 39.1662 203.561 39.7163 204.297 39.7163C204.926 39.7163 205.362 39.3662 205.483 38.7661H205.976C205.805 39.602 205.169 40.1093 204.304 40.1093ZM204.269 36.5869C203.59 36.5869 203.111 37.1085 203.047 37.9301H205.44C205.397 37.087 204.962 36.5869 204.269 36.5869ZM209.103 40.0378V39.3519C208.882 39.8235 208.425 40.1093 207.839 40.1093C207.06 40.1093 206.553 39.6735 206.553 38.9947C206.553 38.2588 207.139 37.873 208.282 37.873C208.51 37.873 208.682 37.8872 209.053 37.9158V37.6015C209.053 36.9727 208.718 36.6012 208.146 36.6012C207.532 36.6012 207.146 36.9799 207.139 37.5943H206.681C206.703 36.7584 207.281 36.2011 208.139 36.2011C209.018 36.2011 209.532 36.7155 209.532 37.5872V40.0378H209.103ZM207.031 38.9804C207.031 39.4377 207.381 39.7449 207.91 39.7449C208.61 39.7449 209.053 39.2876 209.053 38.5803V38.2445C208.732 38.2159 208.51 38.2088 208.303 38.2088C207.446 38.2088 207.031 38.4588 207.031 38.9804ZM211.084 40.0378H210.584V36.2725H211.049V36.9799C211.299 36.494 211.742 36.2011 212.277 36.2011C212.863 36.2011 213.299 36.5226 213.456 37.0727C213.692 36.544 214.164 36.2011 214.757 36.2011C215.536 36.2011 216.021 36.7155 216.021 37.5943V40.0378H215.528V37.7586C215.528 37.0442 215.2 36.6369 214.592 36.6369C214.021 36.6369 213.556 37.137 213.556 37.8301V40.0378H213.056V37.7586C213.056 37.0442 212.728 36.6369 212.12 36.6369C211.542 36.6369 211.084 37.137 211.084 37.8301V40.0378ZM217.573 40.0378H217.073V34.9079H217.573V40.0378ZM220.136 40.1093C219.079 40.1093 218.378 39.3162 218.378 38.123C218.378 37.0227 219.107 36.2011 220.107 36.2011C221.179 36.2011 221.879 37.0656 221.794 38.2731H218.878C218.921 39.1662 219.393 39.7163 220.129 39.7163C220.758 39.7163 221.193 39.3662 221.315 38.7661H221.808C221.636 39.602 221 40.1093 220.136 40.1093ZM220.1 36.5869C219.421 36.5869 218.943 37.1085 218.878 37.9301H221.272C221.229 37.087 220.793 36.5869 220.1 36.5869ZM225.435 38.9876C225.435 39.6806 224.878 40.1093 223.949 40.1093C223.013 40.1093 222.442 39.6377 222.37 38.8589H222.849C222.884 39.3948 223.306 39.7306 223.949 39.7306C224.564 39.7306 224.935 39.4948 224.935 39.0661C224.935 38.6946 224.721 38.5231 224.149 38.4088L223.606 38.3016C222.892 38.1659 222.513 37.8158 222.513 37.2728C222.513 36.644 223.07 36.2011 223.892 36.2011C224.756 36.2011 225.328 36.6655 225.385 37.4157H224.914C224.864 36.8941 224.485 36.5869 223.892 36.5869C223.363 36.5869 222.999 36.837 222.999 37.2299C222.999 37.6015 223.227 37.7801 223.785 37.8872L224.349 37.9944C225.099 38.1373 225.435 38.4517 225.435 38.9876ZM229.119 38.9876C229.119 39.6806 228.562 40.1093 227.633 40.1093C226.697 40.1093 226.126 39.6377 226.054 38.8589H226.533C226.569 39.3948 226.99 39.7306 227.633 39.7306C228.248 39.7306 228.619 39.4948 228.619 39.0661C228.619 38.6946 228.405 38.5231 227.833 38.4088L227.29 38.3016C226.576 38.1659 226.197 37.8158 226.197 37.2728C226.197 36.644 226.754 36.2011 227.576 36.2011C228.44 36.2011 229.012 36.6655 229.069 37.4157H228.598C228.548 36.8941 228.169 36.5869 227.576 36.5869C227.047 36.5869 226.683 36.837 226.683 37.2299C226.683 37.6015 226.911 37.7801 227.469 37.8872L228.033 37.9944C228.783 38.1373 229.119 38.4517 229.119 38.9876ZM14.7291 50.1093C13.6717 50.1093 12.9715 49.3162 12.9715 48.123C12.9715 47.0227 13.7003 46.2011 14.7006 46.2011C15.7723 46.2011 16.4725 47.0656 16.3867 48.2731H13.4716C13.5145 49.1662 13.9861 49.7163 14.722 49.7163C15.3507 49.7163 15.7866 49.3662 15.908 48.7661H16.401C16.2296 49.602 15.5937 50.1093 14.7291 50.1093ZM14.6934 46.5869C14.0147 46.5869 13.536 47.1085 13.4716 47.9301H15.8652C15.8223 47.087 15.3865 46.5869 14.6934 46.5869ZM17.1736 50.0378H16.6163L18.0024 48.1087L16.7021 46.2725H17.2736L18.3382 47.7944L19.41 46.2725H19.9458L18.6597 48.123L20.0316 50.0378H19.46L18.3096 48.4231L17.1736 50.0378ZM24.0971 48.1516C24.0971 49.3162 23.4469 50.1093 22.4467 50.1093C21.8822 50.1093 21.4035 49.8021 21.1463 49.2662V51.4168H20.6462V46.2725H21.1106V47.087C21.3678 46.5297 21.8679 46.2011 22.4467 46.2011C23.4469 46.2011 24.0971 47.0013 24.0971 48.1516ZM23.5898 48.1516C23.5898 47.2013 23.0968 46.6369 22.3609 46.6369C21.6607 46.6369 21.1392 47.1942 21.1392 48.1516C21.1392 49.0876 21.6464 49.6735 22.3609 49.6735C23.0968 49.6735 23.5898 49.1162 23.5898 48.1516ZM26.3813 50.1093C25.3239 50.1093 24.6237 49.3162 24.6237 48.123C24.6237 47.0227 25.3525 46.2011 26.3528 46.2011C27.4245 46.2011 28.1247 47.0656 28.039 48.2731H25.1239C25.1667 49.1662 25.6383 49.7163 26.3742 49.7163C27.0029 49.7163 27.4388 49.3662 27.5602 48.7661H28.0532C27.8818 49.602 27.2459 50.1093 26.3813 50.1093ZM26.3456 46.5869C25.6669 46.5869 25.1882 47.1085 25.1239 47.9301H27.5174C27.4745 47.087 27.0387 46.5869 26.3456 46.5869ZM29.3657 48.023V50.0378H28.8655V46.2725H29.3299V47.1299C29.5871 46.5726 30.1444 46.2154 30.766 46.2154V46.7369C29.973 46.7084 29.3657 47.2013 29.3657 48.023ZM32.0276 45.4008C32.0276 45.6223 31.8632 45.7795 31.6203 45.7795C31.3845 45.7795 31.2202 45.6223 31.2202 45.4008C31.2202 45.1865 31.3845 45.0293 31.6203 45.0293C31.8632 45.0293 32.0276 45.1865 32.0276 45.4008ZM31.8775 50.0378H31.3774V46.2725H31.8775V50.0378ZM34.4402 50.1093C33.3828 50.1093 32.6826 49.3162 32.6826 48.123C32.6826 47.0227 33.4114 46.2011 34.4116 46.2011C35.4834 46.2011 36.1836 47.0656 36.0978 48.2731H33.1827C33.2256 49.1662 33.6972 49.7163 34.4331 49.7163C35.0618 49.7163 35.4976 49.3662 35.6191 48.7661H36.1121C35.9406 49.602 35.3047 50.1093 34.4402 50.1093ZM34.4045 46.5869C33.7257 46.5869 33.247 47.1085 33.1827 47.9301H35.5762C35.5334 47.087 35.0975 46.5869 34.4045 46.5869ZM37.4245 47.8444V50.0378H36.9244V46.2725H37.3888V46.9799C37.6317 46.5154 38.089 46.2011 38.632 46.2011C39.4179 46.2011 39.9252 46.7012 39.9252 47.5943V50.0378H39.4251V47.7658C39.4251 47.0442 39.0964 46.6369 38.482 46.6369C37.8961 46.6369 37.4245 47.1442 37.4245 47.8444ZM42.3858 50.1164C41.3926 50.1164 40.6996 49.3091 40.6996 48.1516C40.6996 47.0084 41.3998 46.2011 42.3858 46.2011C43.2646 46.2011 43.8933 46.7869 44.0434 47.7301H43.5361C43.4218 47.0442 42.9931 46.6369 42.3858 46.6369C41.6856 46.6369 41.2069 47.2514 41.2069 48.1516C41.2069 49.0661 41.6856 49.6806 42.3858 49.6806C43.0002 49.6806 43.4218 49.2805 43.5361 48.5803H44.0434C43.9076 49.5377 43.2717 50.1164 42.3858 50.1164ZM46.2808 50.1093C45.2234 50.1093 44.5232 49.3162 44.5232 48.123C44.5232 47.0227 45.252 46.2011 46.2522 46.2011C47.324 46.2011 48.0241 47.0656 47.9384 48.2731H45.0233C45.0662 49.1662 45.5377 49.7163 46.2737 49.7163C46.9024 49.7163 47.3382 49.3662 47.4597 48.7661H47.9527C47.7812 49.602 47.1453 50.1093 46.2808 50.1093ZM46.2451 46.5869C45.5663 46.5869 45.0876 47.1085 45.0233 47.9301H47.4168C47.374 47.087 46.9381 46.5869 46.2451 46.5869ZM51.0869 50.0378H50.5868V46.6941H49.7008V46.2725H50.5868V45.9296C50.5868 45.2365 50.9655 44.8507 51.6228 44.8507C51.7943 44.8507 51.9443 44.8793 52.0729 44.9293V45.3437C51.9515 45.2937 51.8371 45.2865 51.7085 45.2865C51.3084 45.2865 51.0869 45.4866 51.0869 45.9296V46.2725H52.1944V46.6941H51.0869V50.0378ZM54.1729 50.1093C53.1369 50.1093 52.3867 49.2876 52.3867 48.1516C52.3867 47.0227 53.1369 46.2082 54.1729 46.2082C55.216 46.2082 55.9662 47.0227 55.9662 48.1516C55.9662 49.2876 55.216 50.1093 54.1729 50.1093ZM54.1729 49.6735C54.9088 49.6735 55.459 49.0876 55.459 48.1516C55.459 47.2299 54.9088 46.644 54.1729 46.644C53.4441 46.644 52.894 47.2299 52.894 48.1516C52.894 49.0876 53.4441 49.6735 54.1729 49.6735ZM57.2751 48.023V50.0378H56.775V46.2725H57.2394V47.1299C57.4966 46.5726 58.0539 46.2154 58.6755 46.2154V46.7369C57.8824 46.7084 57.2751 47.2013 57.2751 48.023ZM63.6808 46.2725L61.7517 51.4168H61.2158L61.766 49.9878L60.2727 46.2725H60.8086L62.0232 49.3877L63.1735 46.2725H63.6808ZM65.6576 50.1093C64.6216 50.1093 63.8714 49.2876 63.8714 48.1516C63.8714 47.0227 64.6216 46.2082 65.6576 46.2082C66.7008 46.2082 67.451 47.0227 67.451 48.1516C67.451 49.2876 66.7008 50.1093 65.6576 50.1093ZM65.6576 49.6735C66.3936 49.6735 66.9437 49.0876 66.9437 48.1516C66.9437 47.2299 66.3936 46.644 65.6576 46.644C64.9289 46.644 64.3787 47.2299 64.3787 48.1516C64.3787 49.0876 64.9289 49.6735 65.6576 49.6735ZM70.6676 48.516V46.2725H71.1606V50.0378H70.6961V49.3591C70.5032 49.7949 70.046 50.1093 69.4958 50.1093C68.7313 50.1093 68.224 49.6735 68.224 48.7232V46.2725H68.7242V48.616C68.7242 49.3805 69.1028 49.6735 69.6316 49.6735C70.2317 49.6735 70.6676 49.1876 70.6676 48.516ZM72.744 48.023V50.0378H72.2438V46.2725H72.7082V47.1299C72.9655 46.5726 73.5228 46.2154 74.1444 46.2154V46.7369C73.3513 46.7084 72.744 47.2013 72.744 48.023ZM78.6567 48.516V46.2725H79.1496V50.0378H78.6852V49.3591C78.4923 49.7949 78.0351 50.1093 77.4849 50.1093C76.7204 50.1093 76.2131 49.6735 76.2131 48.7232V46.2725H76.7133V48.616C76.7133 49.3805 77.0919 49.6735 77.6207 49.6735C78.2208 49.6735 78.6567 49.1876 78.6567 48.516ZM83.048 48.9876C83.048 49.6806 82.4907 50.1093 81.5619 50.1093C80.6259 50.1093 80.0543 49.6377 79.9829 48.8589H80.4616C80.4973 49.3948 80.9188 49.7306 81.5619 49.7306C82.1763 49.7306 82.5478 49.4948 82.5478 49.0661C82.5478 48.6946 82.3335 48.5231 81.7619 48.4088L81.2189 48.3016C80.5044 48.1659 80.1258 47.8158 80.1258 47.2728C80.1258 46.644 80.683 46.2011 81.5047 46.2011C82.3692 46.2011 82.9408 46.6655 82.998 47.4157H82.5264C82.4764 46.8941 82.0977 46.5869 81.5047 46.5869C80.976 46.5869 80.6116 46.837 80.6116 47.2299C80.6116 47.6015 80.8402 47.7801 81.3975 47.8872L81.962 47.9944C82.7122 48.1373 83.048 48.4517 83.048 48.9876ZM85.396 50.1093C84.3385 50.1093 83.6383 49.3162 83.6383 48.123C83.6383 47.0227 84.3671 46.2011 85.3674 46.2011C86.4391 46.2011 87.1393 47.0656 87.0536 48.2731H84.1385C84.1813 49.1662 84.6529 49.7163 85.3888 49.7163C86.0176 49.7163 86.4534 49.3662 86.5749 48.7661H87.0678C86.8964 49.602 86.2605 50.1093 85.396 50.1093ZM85.3602 46.5869C84.6815 46.5869 84.2028 47.1085 84.1385 47.9301H86.532C86.4891 47.087 86.0533 46.5869 85.3602 46.5869ZM88.3803 48.023V50.0378H87.8801V46.2725H88.3445V47.1299C88.6017 46.5726 89.159 46.2154 89.7806 46.2154V46.7369C88.9876 46.7084 88.3803 47.2013 88.3803 48.023ZM93.207 48.9876C93.207 49.6806 92.6497 50.1093 91.7209 50.1093C90.7849 50.1093 90.2134 49.6377 90.1419 48.8589H90.6206C90.6563 49.3948 91.0779 49.7306 91.7209 49.7306C92.3354 49.7306 92.7069 49.4948 92.7069 49.0661C92.7069 48.6946 92.4926 48.5231 91.921 48.4088L91.378 48.3016C90.6635 48.1659 90.2848 47.8158 90.2848 47.2728C90.2848 46.644 90.8421 46.2011 91.6638 46.2011C92.5283 46.2011 93.0999 46.6655 93.157 47.4157H92.6855C92.6355 46.8941 92.2568 46.5869 91.6638 46.5869C91.135 46.5869 90.7707 46.837 90.7707 47.2299C90.7707 47.6015 90.9993 47.7801 91.5566 47.8872L92.121 47.9944C92.8712 48.1373 93.207 48.4517 93.207 48.9876ZM94.9048 49.6234C94.9048 49.8807 94.7191 50.0736 94.4547 50.0736C94.1975 50.0736 94.0046 49.8807 94.0046 49.6234C94.0046 49.3519 94.1975 49.1662 94.4547 49.1662C94.7191 49.1662 94.9048 49.3519 94.9048 49.6234Z" fill="#767676"/>
<rect x="12.9621" y="64.5208" width="335.297" height="125.034" rx="4.84828" fill="#FAFAFA"/>
<rect x="12.9621" y="64.5208" width="335.297" height="125.034" rx="4.84828" stroke="#F1F1F1" stroke-width="0.510345"/>
<path d="M27.7492 83.9626C26.3202 83.9626 25.2128 82.798 25.2128 81.2833C25.2128 79.7758 26.3202 78.6183 27.7492 78.6183C29.0353 78.6183 30.0641 79.4757 30.257 80.7403H29.4211C29.2782 79.9115 28.6066 79.3256 27.7563 79.3256C26.7418 79.3256 26.0273 80.1473 26.0273 81.2833C26.0273 82.4336 26.7418 83.2553 27.7563 83.2553C28.6066 83.2553 29.2782 82.6623 29.4211 81.8335H30.257C30.0641 83.1053 29.0353 83.9626 27.7492 83.9626ZM33.3102 83.8555V83.2696C33.0744 83.6911 32.6528 83.9269 32.0955 83.9269C31.3096 83.9269 30.7952 83.4768 30.7952 82.7837C30.7952 82.0407 31.3882 81.6549 32.5171 81.6549C32.7386 81.6549 32.9172 81.662 33.2244 81.6977V81.4191C33.2244 80.8761 32.9315 80.5688 32.4313 80.5688C31.9026 80.5688 31.5811 80.8832 31.5597 81.4119H30.9024C30.9381 80.5617 31.5454 79.9973 32.4313 79.9973C33.3673 79.9973 33.9103 80.526 33.9103 81.4262V83.8555H33.3102ZM31.4811 82.7623C31.4811 83.1553 31.774 83.4125 32.2384 83.4125C32.8457 83.4125 33.2244 83.0338 33.2244 82.4551V82.1479C32.9458 82.1121 32.7457 82.105 32.56 82.105C31.8383 82.105 31.4811 82.3193 31.4811 82.7623ZM35.5968 83.8555H34.8752V80.0687H35.5468V80.6975C35.804 80.2616 36.2112 79.9973 36.7328 79.9973C37.2901 79.9973 37.7117 80.2831 37.8831 80.7832C38.1475 80.2973 38.5833 79.9973 39.1621 79.9973C39.9408 79.9973 40.441 80.5045 40.441 81.4048V83.8555H39.7193V81.6334C39.7193 81.0047 39.4407 80.6332 38.912 80.6332C38.419 80.6332 38.0189 81.0476 38.0189 81.6834V83.8555H37.2973V81.6334C37.2973 81.0047 37.0186 80.6332 36.4899 80.6332C35.9897 80.6332 35.5968 81.0476 35.5968 81.6834V83.8555ZM45.0213 81.9621C45.0213 83.1053 44.3639 83.9269 43.3494 83.9269C42.8349 83.9269 42.3991 83.6697 42.1276 83.2124V85.2344H41.406V80.0687H42.0776V80.7618C42.3491 80.2759 42.8135 79.9973 43.3494 79.9973C44.3568 79.9973 45.0213 80.8189 45.0213 81.9621ZM44.2711 81.9621C44.2711 81.1119 43.8209 80.6332 43.1993 80.6332C42.5992 80.6332 42.1276 81.1119 42.1276 81.9621C42.1276 82.798 42.592 83.2839 43.1993 83.2839C43.8209 83.2839 44.2711 82.8123 44.2711 81.9621ZM48.0464 83.8555V83.2696C47.8106 83.6911 47.389 83.9269 46.8317 83.9269C46.0458 83.9269 45.5314 83.4768 45.5314 82.7837C45.5314 82.0407 46.1244 81.6549 47.2533 81.6549C47.4748 81.6549 47.6534 81.662 47.9606 81.6977V81.4191C47.9606 80.8761 47.6677 80.5688 47.1676 80.5688C46.6388 80.5688 46.3173 80.8832 46.2959 81.4119H45.6386C45.6743 80.5617 46.2816 79.9973 47.1676 79.9973C48.1035 79.9973 48.6465 80.526 48.6465 81.4262V83.8555H48.0464ZM46.2173 82.7623C46.2173 83.1553 46.5102 83.4125 46.9746 83.4125C47.582 83.4125 47.9606 83.0338 47.9606 82.4551V82.1479C47.682 82.1121 47.4819 82.105 47.2962 82.105C46.5745 82.105 46.2173 82.3193 46.2173 82.7623ZM50.4902 79.1899C50.4902 79.4614 50.2758 79.6686 49.9686 79.6686C49.6614 79.6686 49.4399 79.4614 49.4399 79.1899C49.4399 78.9112 49.6614 78.7112 49.9686 78.7112C50.2758 78.7112 50.4902 78.9112 50.4902 79.1899ZM50.333 83.8555H49.6114V80.0687H50.333V83.8555ZM52.8495 85.313C51.8563 85.313 51.2133 84.7843 51.1704 83.9269H51.8706C51.9135 84.4556 52.2565 84.7414 52.8423 84.7414C53.4925 84.7414 53.8355 84.3913 53.8355 83.7412V83.0552C53.6211 83.5125 53.1924 83.7769 52.678 83.7769C51.7349 83.7769 51.0633 82.9981 51.0633 81.8835C51.0633 80.7546 51.7063 79.9973 52.6566 79.9973C53.1996 79.9973 53.6283 80.2616 53.8855 80.7403V80.0687H54.5571V83.7269C54.5571 84.72 53.9212 85.313 52.8495 85.313ZM51.792 81.8835C51.792 82.6694 52.1779 83.1481 52.8066 83.1481C53.4211 83.1481 53.8355 82.6551 53.8355 81.9049C53.8355 81.119 53.4282 80.6189 52.8066 80.6189C52.185 80.6189 51.792 81.1047 51.792 81.8835ZM56.2777 81.7192V83.8555H55.5561V80.0687H56.2277V80.6975C56.4849 80.2759 56.9136 79.9973 57.4352 79.9973C58.214 79.9973 58.7284 80.4974 58.7284 81.4048V83.8555H58.0068V81.6477C58.0068 80.9975 57.721 80.6332 57.1851 80.6332C56.6921 80.6332 56.2777 81.0476 56.2777 81.7192ZM61.9015 81.7192V83.8555H61.1798V80.0687H61.8515V80.6975C62.1087 80.2759 62.5374 79.9973 63.0589 79.9973C63.8377 79.9973 64.3521 80.4974 64.3521 81.4048V83.8555H63.6305V81.6477C63.6305 80.9975 63.3447 80.6332 62.8089 80.6332C62.3159 80.6332 61.9015 81.0476 61.9015 81.7192ZM67.6039 83.8555V83.2696C67.3682 83.6911 66.9466 83.9269 66.3893 83.9269C65.6034 83.9269 65.089 83.4768 65.089 82.7837C65.089 82.0407 65.682 81.6549 66.8109 81.6549C67.0324 81.6549 67.211 81.662 67.5182 81.6977V81.4191C67.5182 80.8761 67.2253 80.5688 66.7251 80.5688C66.1964 80.5688 65.8749 80.8832 65.8535 81.4119H65.1961C65.2319 80.5617 65.8392 79.9973 66.7251 79.9973C67.6611 79.9973 68.2041 80.526 68.2041 81.4262V83.8555H67.6039ZM65.7749 82.7623C65.7749 83.1553 66.0678 83.4125 66.5322 83.4125C67.1395 83.4125 67.5182 83.0338 67.5182 82.4551V82.1479C67.2396 82.1121 67.0395 82.105 66.8537 82.105C66.1321 82.105 65.7749 82.3193 65.7749 82.7623ZM69.8906 83.8555H69.1689V80.0687H69.8405V80.6975C70.0978 80.2616 70.505 79.9973 71.0266 79.9973C71.5839 79.9973 72.0054 80.2831 72.1769 80.7832C72.4413 80.2973 72.8771 79.9973 73.4558 79.9973C74.2346 79.9973 74.7348 80.5045 74.7348 81.4048V83.8555H74.0131V81.6334C74.0131 81.0047 73.7345 80.6332 73.2058 80.6332C72.7128 80.6332 72.3127 81.0476 72.3127 81.6834V83.8555H71.591V81.6334C71.591 81.0047 71.3124 80.6332 70.7837 80.6332C70.2835 80.6332 69.8906 81.0476 69.8906 81.6834V83.8555ZM77.2573 83.9269C76.1642 83.9269 75.4282 83.1338 75.4282 81.9407C75.4282 80.8189 76.1927 79.9973 77.2359 79.9973C78.3648 79.9973 79.115 80.9118 78.9864 82.1407H76.1642C76.2213 82.9124 76.6071 83.3625 77.243 83.3625C77.7789 83.3625 78.1504 83.0695 78.2719 82.5765H78.9864C78.8006 83.4196 78.1504 83.9269 77.2573 83.9269ZM77.2216 80.5403C76.6429 80.5403 76.2499 80.9547 76.1713 81.662H78.2219C78.1862 80.9618 77.8075 80.5403 77.2216 80.5403Z" fill="#1A1A1A"/>
<rect x="25.2107" y="90.1727" width="310.8" height="22.6966" rx="3.82759" fill="white"/>
<rect x="25.2107" y="90.1727" width="310.8" height="22.6966" rx="3.82759" stroke="#D0D5DD" stroke-width="0.510345"/>
<path d="M34.4112 104.103C33.2027 104.103 32.4025 103.196 32.4025 101.833C32.4025 100.575 33.2353 99.6361 34.3785 99.6361C35.6033 99.6361 36.4036 100.624 36.3056 102.004H32.9741C33.023 103.025 33.562 103.654 34.403 103.654C35.1216 103.654 35.6197 103.253 35.7585 102.568H36.3219C36.1259 103.523 35.3992 104.103 34.4112 104.103ZM34.3704 100.077C33.5946 100.077 33.0475 100.673 32.9741 101.612H35.7095C35.6605 100.649 35.1624 100.077 34.3704 100.077ZM37.8218 101.514V104.021H37.2502V99.7178H37.781V100.526C38.0586 99.9954 38.5812 99.6361 39.2018 99.6361C40.1 99.6361 40.6797 100.208 40.6797 101.228V104.021H40.1082V101.424C40.1082 100.6 39.7325 100.134 39.0303 100.134C38.3607 100.134 37.8218 100.714 37.8218 101.514ZM44.0881 103.474V103.98C43.8676 104.07 43.6798 104.103 43.4675 104.103C42.7571 104.103 42.21 103.735 42.21 102.804V100.2H41.1975V99.7178H42.21V98.4439H42.7816V99.7178H44.1289V100.2H42.7816V102.682C42.7816 103.351 43.1082 103.58 43.5818 103.58C43.7615 103.58 43.9084 103.547 44.0881 103.474ZM46.5478 104.103C45.3393 104.103 44.5391 103.196 44.5391 101.833C44.5391 100.575 45.372 99.6361 46.5152 99.6361C47.74 99.6361 48.5402 100.624 48.4422 102.004H45.1107C45.1597 103.025 45.6986 103.654 46.5397 103.654C47.2582 103.654 47.7563 103.253 47.8951 102.568H48.4586C48.2626 103.523 47.5358 104.103 46.5478 104.103ZM46.507 100.077C45.7313 100.077 45.1842 100.673 45.1107 101.612H47.8461C47.7971 100.649 47.299 100.077 46.507 100.077ZM49.9585 101.718V104.021H49.3869V99.7178H49.9176V100.698C50.2116 100.061 50.8485 99.6524 51.5589 99.6524V100.249C50.6525 100.216 49.9585 100.779 49.9585 101.718ZM55.5726 104.111C54.4376 104.111 53.6456 103.188 53.6456 101.865C53.6456 100.559 54.4458 99.6361 55.5726 99.6361C56.577 99.6361 57.2956 100.306 57.467 101.384H56.8873C56.7566 100.6 56.2667 100.134 55.5726 100.134C54.7724 100.134 54.2253 100.836 54.2253 101.865C54.2253 102.91 54.7724 103.613 55.5726 103.613C56.2749 103.613 56.7566 103.155 56.8873 102.355H57.467C57.3119 103.449 56.5852 104.111 55.5726 104.111ZM61.0353 104.021V103.237C60.7822 103.776 60.2596 104.103 59.59 104.103C58.7 104.103 58.1202 103.605 58.1202 102.829C58.1202 101.988 58.7898 101.547 60.0963 101.547C60.3576 101.547 60.5535 101.563 60.9781 101.596V101.237C60.9781 100.518 60.5944 100.093 59.9411 100.093C59.2389 100.093 58.7979 100.526 58.7898 101.228H58.2672C58.2917 100.273 58.9531 99.6361 59.933 99.6361C60.9373 99.6361 61.5252 100.224 61.5252 101.22V104.021H61.0353ZM58.6673 102.812C58.6673 103.335 59.0674 103.686 59.6717 103.686C60.4719 103.686 60.9781 103.164 60.9781 102.355V101.971C60.6107 101.939 60.3576 101.931 60.1208 101.931C59.1409 101.931 58.6673 102.216 58.6673 102.812ZM63.2992 104.021H62.7276V99.7178H63.2584V100.526C63.5442 99.9709 64.0504 99.6361 64.6628 99.6361C65.3324 99.6361 65.8305 100.004 66.0101 100.632C66.2796 100.028 66.8185 99.6361 67.4963 99.6361C68.3863 99.6361 68.9416 100.224 68.9416 101.228V104.021H68.3781V101.416C68.3781 100.6 68.0025 100.134 67.3085 100.134C66.6552 100.134 66.1245 100.706 66.1245 101.498V104.021H65.5529V101.416C65.5529 100.6 65.1773 100.134 64.4832 100.134C63.8218 100.134 63.2992 100.706 63.2992 101.498V104.021ZM74.0875 101.865C74.0875 103.196 73.3444 104.103 72.2013 104.103C71.5562 104.103 71.0091 103.752 70.7151 103.139V105.597H70.1436V99.7178H70.6743V100.649C70.9683 100.012 71.5399 99.6361 72.2013 99.6361C73.3444 99.6361 74.0875 100.551 74.0875 101.865ZM73.5077 101.865C73.5077 100.779 72.9443 100.134 72.1033 100.134C71.3031 100.134 70.707 100.771 70.707 101.865C70.707 102.935 71.2867 103.605 72.1033 103.605C72.9443 103.605 73.5077 102.968 73.5077 101.865ZM77.6534 104.021V103.237C77.4003 103.776 76.8777 104.103 76.2081 104.103C75.3181 104.103 74.7383 103.605 74.7383 102.829C74.7383 101.988 75.4079 101.547 76.7144 101.547C76.9757 101.547 77.1716 101.563 77.5962 101.596V101.237C77.5962 100.518 77.2125 100.093 76.5592 100.093C75.857 100.093 75.4161 100.526 75.4079 101.228H74.8853C74.9098 100.273 75.5712 99.6361 76.5511 99.6361C77.5554 99.6361 78.1433 100.224 78.1433 101.22V104.021H77.6534ZM75.2854 102.812C75.2854 103.335 75.6855 103.686 76.2898 103.686C77.09 103.686 77.5962 103.164 77.5962 102.355V101.971C77.2288 101.939 76.9757 101.931 76.7389 101.931C75.759 101.931 75.2854 102.216 75.2854 102.812ZM80.0888 98.7216C80.0888 98.9747 79.901 99.1543 79.6233 99.1543C79.3539 99.1543 79.1661 98.9747 79.1661 98.7216C79.1661 98.4766 79.3539 98.297 79.6233 98.297C79.901 98.297 80.0888 98.4766 80.0888 98.7216ZM79.9173 104.021H79.3457V99.7178H79.9173V104.021ZM82.7808 105.687C81.6866 105.687 81.0007 105.115 80.9517 104.152H81.4988C81.5478 104.854 82.0051 105.229 82.7726 105.229C83.6218 105.229 84.0709 104.78 84.0709 103.931V103.033C83.8096 103.637 83.287 103.988 82.6501 103.988C81.5641 103.988 80.8374 103.115 80.8374 101.808C80.8374 100.502 81.5559 99.6361 82.642 99.6361C83.287 99.6361 83.826 100.004 84.1036 100.632V99.7178H84.6343V103.923C84.6343 105.034 83.9566 105.687 82.7808 105.687ZM81.409 101.808C81.409 102.861 81.9071 103.498 82.7318 103.498C83.5402 103.498 84.0791 102.845 84.0791 101.849C84.0791 100.796 83.5483 100.126 82.7318 100.126C81.9152 100.126 81.409 100.763 81.409 101.808ZM86.4481 101.514V104.021H85.8765V99.7178H86.4073V100.526C86.6849 99.9954 87.2075 99.6361 87.8281 99.6361C88.7263 99.6361 89.306 100.208 89.306 101.228V104.021H88.7345V101.424C88.7345 100.6 88.3588 100.134 87.6566 100.134C86.987 100.134 86.4481 100.714 86.4481 101.514ZM92.7876 101.514V104.021H92.216V99.7178H92.7467V100.526C93.0244 99.9954 93.5469 99.6361 94.1675 99.6361C95.0657 99.6361 95.6455 100.208 95.6455 101.228V104.021H95.0739V101.424C95.0739 100.6 94.6983 100.134 93.9961 100.134C93.3265 100.134 92.7876 100.714 92.7876 101.514ZM99.4946 104.021V103.237C99.2414 103.776 98.7188 104.103 98.0493 104.103C97.1592 104.103 96.5795 103.605 96.5795 102.829C96.5795 101.988 97.2491 101.547 98.5555 101.547C98.8168 101.547 99.0128 101.563 99.4374 101.596V101.237C99.4374 100.518 99.0536 100.093 98.4004 100.093C97.6982 100.093 97.2572 100.526 97.2491 101.228H96.7265C96.751 100.273 97.4124 99.6361 98.3922 99.6361C99.3966 99.6361 99.9845 100.224 99.9845 101.22V104.021H99.4946ZM97.1266 102.812C97.1266 103.335 97.5267 103.686 98.1309 103.686C98.9311 103.686 99.4374 103.164 99.4374 102.355V101.971C99.07 101.939 98.8168 101.931 98.58 101.931C97.6002 101.931 97.1266 102.216 97.1266 102.812ZM101.758 104.021H101.187V99.7178H101.718V100.526C102.003 99.9709 102.51 99.6361 103.122 99.6361C103.792 99.6361 104.29 100.004 104.469 100.632C104.739 100.028 105.278 99.6361 105.956 99.6361C106.846 99.6361 107.401 100.224 107.401 101.228V104.021H106.837V101.416C106.837 100.6 106.462 100.134 105.768 100.134C105.114 100.134 104.584 100.706 104.584 101.498V104.021H104.012V101.416C104.012 100.6 103.637 100.134 102.942 100.134C102.281 100.134 101.758 100.706 101.758 101.498V104.021ZM110.293 104.103C109.085 104.103 108.284 103.196 108.284 101.833C108.284 100.575 109.117 99.6361 110.26 99.6361C111.485 99.6361 112.285 100.624 112.187 102.004H108.856C108.905 103.025 109.444 103.654 110.285 103.654C111.003 103.654 111.502 103.253 111.64 102.568H112.204C112.008 103.523 111.281 104.103 110.293 104.103ZM110.252 100.077C109.477 100.077 108.929 100.673 108.856 101.612H111.591C111.542 100.649 111.044 100.077 110.252 100.077Z" fill="#A3A3A3"/>
<path d="M27.1347 130.311H25.5129V125.181H27.1347C28.7709 125.181 29.714 126.224 29.714 127.724C29.714 129.203 28.7352 130.311 27.1347 130.311ZM26.2988 125.859V129.632H27.099C28.2779 129.632 28.9138 128.903 28.9138 127.724C28.9138 126.567 28.2851 125.859 27.099 125.859H26.2988ZM32.037 130.382C30.9438 130.382 30.2079 129.589 30.2079 128.396C30.2079 127.274 30.9724 126.452 32.0155 126.452C33.1444 126.452 33.8946 127.367 33.766 128.596H30.9438C31.001 129.367 31.3868 129.818 32.0227 129.818C32.5586 129.818 32.9301 129.525 33.0515 129.032H33.766C33.5803 129.875 32.9301 130.382 32.037 130.382ZM32.0013 126.995C31.4225 126.995 31.0296 127.41 30.951 128.117H33.0015C32.9658 127.417 32.5871 126.995 32.0013 126.995ZM37.5341 129.182C37.5341 129.925 36.9554 130.382 35.9479 130.382C34.9477 130.382 34.3546 129.889 34.2832 129.074H34.9762C35.0048 129.546 35.3835 129.839 35.9622 129.839C36.4695 129.839 36.8053 129.66 36.8053 129.303C36.8053 128.989 36.6124 128.853 36.1409 128.76L35.5264 128.646C34.8262 128.51 34.4332 128.153 34.4332 127.581C34.4332 126.917 35.012 126.452 35.8908 126.452C36.7982 126.452 37.4126 126.938 37.4769 127.717H36.7839C36.741 127.26 36.4052 126.995 35.8979 126.995C35.4407 126.995 35.1334 127.188 35.1334 127.517C35.1334 127.824 35.3263 127.967 35.7836 128.053L36.4266 128.174C37.1769 128.31 37.5341 128.639 37.5341 129.182ZM39.8152 130.389C38.7792 130.389 38.0505 129.575 38.0505 128.417C38.0505 127.274 38.7935 126.452 39.8152 126.452C40.7512 126.452 41.43 127.074 41.5657 128.06H40.8084C40.7298 127.453 40.3511 127.088 39.8224 127.088C39.2008 127.088 38.7935 127.617 38.7935 128.417C38.7935 129.225 39.2008 129.746 39.8224 129.746C40.3583 129.746 40.7298 129.389 40.8155 128.774H41.5657C41.4371 129.775 40.7655 130.389 39.8152 130.389ZM43.0137 128.374V130.311H42.2921V126.524H42.9637V127.324C43.2281 126.802 43.7997 126.474 44.4213 126.474V127.224C43.6067 127.181 43.0137 127.538 43.0137 128.374ZM45.8712 125.645C45.8712 125.916 45.6568 126.124 45.3496 126.124C45.0424 126.124 44.8209 125.916 44.8209 125.645C44.8209 125.366 45.0424 125.166 45.3496 125.166C45.6568 125.166 45.8712 125.366 45.8712 125.645ZM45.714 130.311H44.9923V126.524H45.714V130.311ZM50.331 128.417C50.331 129.56 49.6737 130.382 48.6591 130.382C48.1447 130.382 47.7089 130.125 47.4374 129.668V131.689H46.7158V126.524H47.3874V127.217C47.6589 126.731 48.1233 126.452 48.6591 126.452C49.6666 126.452 50.331 127.274 50.331 128.417ZM49.5808 128.417C49.5808 127.567 49.1307 127.088 48.5091 127.088C47.9089 127.088 47.4374 127.567 47.4374 128.417C47.4374 129.253 47.9018 129.739 48.5091 129.739C49.1307 129.739 49.5808 129.267 49.5808 128.417ZM53.1431 129.61V130.246C52.9217 130.346 52.7287 130.382 52.5001 130.382C51.7999 130.382 51.3141 130.003 51.3141 129.167V127.138H50.4781V126.524H51.3141V125.402H52.0357V126.524H53.1789V127.138H52.0357V129.003C52.0357 129.525 52.2858 129.71 52.6716 129.71C52.8431 129.71 52.9931 129.682 53.1431 129.61ZM54.7464 125.645C54.7464 125.916 54.532 126.124 54.2248 126.124C53.9176 126.124 53.6961 125.916 53.6961 125.645C53.6961 125.366 53.9176 125.166 54.2248 125.166C54.532 125.166 54.7464 125.366 54.7464 125.645ZM54.5892 130.311H53.8676V126.524H54.5892V130.311ZM57.1771 130.382C56.1054 130.382 55.3195 129.539 55.3195 128.417C55.3195 127.295 56.1054 126.452 57.1771 126.452C58.2488 126.452 59.0348 127.295 59.0348 128.417C59.0348 129.539 58.2488 130.382 57.1771 130.382ZM57.1771 129.746C57.7987 129.746 58.2917 129.246 58.2917 128.417C58.2917 127.588 57.7987 127.095 57.1771 127.095C56.5555 127.095 56.0697 127.588 56.0697 128.417C56.0697 129.246 56.5555 129.746 57.1771 129.746ZM60.492 128.174V130.311H59.7704V126.524H60.442V127.153C60.6992 126.731 61.1279 126.452 61.6495 126.452C62.4283 126.452 62.9427 126.952 62.9427 127.86V130.311H62.2211V128.103C62.2211 127.453 61.9353 127.088 61.3994 127.088C60.9064 127.088 60.492 127.503 60.492 128.174Z" fill="#1A1A1A"/>
<rect x="25.2107" y="136.628" width="310.8" height="41.3379" rx="3.82759" fill="white"/>
<rect x="25.2107" y="136.628" width="310.8" height="41.3379" rx="3.82759" stroke="#D0D5DD" stroke-width="0.510345"/>
<path d="M34.4275 150.476H32.7617V144.613H34.4275C36.3056 144.613 37.3426 145.805 37.3426 147.52C37.3426 149.21 36.2648 150.476 34.4275 150.476ZM33.3742 145.144V149.945H34.4112C35.8973 149.945 36.722 148.974 36.722 147.52C36.722 146.075 35.9136 145.144 34.4112 145.144H33.3742ZM39.9771 150.558C38.7686 150.558 37.9684 149.651 37.9684 148.288C37.9684 147.03 38.8013 146.091 39.9445 146.091C41.1693 146.091 41.9695 147.079 41.8715 148.459H38.54C38.589 149.48 39.1279 150.109 39.969 150.109C40.6875 150.109 41.1856 149.709 41.3244 149.023H41.8879C41.6919 149.978 40.9652 150.558 39.9771 150.558ZM39.9363 146.532C39.1606 146.532 38.6135 147.128 38.54 148.067H41.2754C41.2265 147.104 40.7284 146.532 39.9363 146.532ZM46.0334 149.276C46.0334 150.068 45.3965 150.558 44.335 150.558C43.2653 150.558 42.612 150.019 42.5304 149.129H43.0775C43.1183 149.741 43.6001 150.125 44.335 150.125C45.0372 150.125 45.4618 149.855 45.4618 149.366C45.4618 148.941 45.2168 148.745 44.5636 148.614L43.943 148.492C43.1265 148.337 42.6937 147.937 42.6937 147.316C42.6937 146.597 43.3306 146.091 44.2696 146.091C45.2577 146.091 45.9109 146.622 45.9762 147.479H45.4373C45.3802 146.883 44.9474 146.532 44.2696 146.532C43.6654 146.532 43.249 146.818 43.249 147.267C43.249 147.692 43.5102 147.896 44.1472 148.018L44.7922 148.141C45.6496 148.304 46.0334 148.663 46.0334 149.276ZM48.6351 150.566C47.5001 150.566 46.7081 149.643 46.7081 148.32C46.7081 147.014 47.5083 146.091 48.6351 146.091C49.6395 146.091 50.3581 146.761 50.5295 147.839H49.9498C49.8191 147.055 49.3292 146.589 48.6351 146.589C47.8349 146.589 47.2878 147.292 47.2878 148.32C47.2878 149.366 47.8349 150.068 48.6351 150.068C49.3374 150.068 49.8191 149.611 49.9498 148.81H50.5295C50.3744 149.904 49.6477 150.566 48.6351 150.566ZM52.0238 148.173V150.476H51.4522V146.173H51.9829V147.153C52.2769 146.516 52.9138 146.108 53.6242 146.108V146.704C52.7178 146.671 52.0238 147.234 52.0238 148.173ZM55.0659 145.177C55.0659 145.43 54.8781 145.609 54.6005 145.609C54.331 145.609 54.1432 145.43 54.1432 145.177C54.1432 144.932 54.331 144.752 54.6005 144.752C54.8781 144.752 55.0659 144.932 55.0659 145.177ZM54.8944 150.476H54.3229V146.173H54.8944V150.476ZM60.0769 148.32C60.0769 149.643 59.3339 150.558 58.1825 150.558C57.5211 150.558 56.9659 150.198 56.6638 149.57V150.476H56.133V144.613H56.7046V147.079C56.9822 146.45 57.5293 146.091 58.1825 146.091C59.3339 146.091 60.0769 146.998 60.0769 148.32ZM59.4972 148.32C59.4972 147.226 58.9338 146.589 58.0927 146.589C57.2843 146.589 56.6964 147.218 56.6964 148.304C56.6964 149.382 57.268 150.06 58.0927 150.06C58.9338 150.06 59.4972 149.415 59.4972 148.32ZM62.6875 150.558C61.479 150.558 60.6788 149.651 60.6788 148.288C60.6788 147.03 61.5116 146.091 62.6548 146.091C63.8796 146.091 64.6799 147.079 64.5819 148.459H61.2503C61.2993 149.48 61.8383 150.109 62.6793 150.109C63.3979 150.109 63.896 149.709 64.0348 149.023H64.5982C64.4022 149.978 63.6755 150.558 62.6875 150.558ZM62.6467 146.532C61.8709 146.532 61.3238 147.128 61.2503 148.067H63.9858C63.9368 147.104 63.4387 146.532 62.6467 146.532ZM70.5482 146.173L68.3435 152.052H67.7311L68.3598 150.419L66.6532 146.173H67.2657L68.6538 149.733L69.9684 146.173H70.5482ZM72.8074 150.558C71.6234 150.558 70.766 149.619 70.766 148.32C70.766 147.03 71.6234 146.099 72.8074 146.099C73.9996 146.099 74.857 147.03 74.857 148.32C74.857 149.619 73.9996 150.558 72.8074 150.558ZM72.8074 150.06C73.6485 150.06 74.2772 149.39 74.2772 148.32C74.2772 147.267 73.6485 146.597 72.8074 146.597C71.9745 146.597 71.3458 147.267 71.3458 148.32C71.3458 149.39 71.9745 150.06 72.8074 150.06ZM78.533 148.737V146.173H79.0965V150.476H78.5657V149.7C78.3452 150.198 77.8226 150.558 77.1939 150.558C76.3202 150.558 75.7404 150.06 75.7404 148.974V146.173H76.312V148.851C76.312 149.725 76.7448 150.06 77.349 150.06C78.035 150.06 78.533 149.504 78.533 148.737ZM80.9061 148.173V150.476H80.3345V146.173H80.8653V147.153C81.1592 146.516 81.7961 146.108 82.5065 146.108V146.704C81.6002 146.671 80.9061 147.234 80.9061 148.173ZM86.5203 150.566C85.3853 150.566 84.5932 149.643 84.5932 148.32C84.5932 147.014 85.3934 146.091 86.5203 146.091C87.5246 146.091 88.2432 146.761 88.4147 147.839H87.8349C87.7043 147.055 87.2143 146.589 86.5203 146.589C85.72 146.589 85.173 147.292 85.173 148.32C85.173 149.366 85.72 150.068 86.5203 150.068C87.2225 150.068 87.7043 149.611 87.8349 148.81H88.4147C88.2595 149.904 87.5328 150.566 86.5203 150.566ZM91.9829 150.476V149.692C91.7298 150.231 91.2072 150.558 90.5376 150.558C89.6476 150.558 89.0678 150.06 89.0678 149.284C89.0678 148.443 89.7374 148.002 91.0439 148.002C91.3052 148.002 91.5012 148.018 91.9258 148.051V147.692C91.9258 146.973 91.542 146.548 90.8888 146.548C90.1865 146.548 89.7456 146.981 89.7374 147.683H89.2148C89.2393 146.728 89.9007 146.091 90.8806 146.091C91.8849 146.091 92.4729 146.679 92.4729 147.675V150.476H91.9829ZM89.6149 149.268C89.6149 149.79 90.015 150.141 90.6193 150.141C91.4195 150.141 91.9258 149.619 91.9258 148.81V148.427C91.5583 148.394 91.3052 148.386 91.0684 148.386C90.0885 148.386 89.6149 148.671 89.6149 149.268ZM94.2468 150.476H93.6752V146.173H94.206V146.981C94.4918 146.426 94.9981 146.091 95.6105 146.091C96.28 146.091 96.7781 146.459 96.9578 147.087C97.2272 146.483 97.7662 146.091 98.4439 146.091C99.3339 146.091 99.8892 146.679 99.8892 147.683V150.476H99.3258V147.871C99.3258 147.055 98.9502 146.589 98.2561 146.589C97.6029 146.589 97.0721 147.161 97.0721 147.953V150.476H96.5005V147.871C96.5005 147.055 96.1249 146.589 95.4308 146.589C94.7694 146.589 94.2468 147.161 94.2468 147.953V150.476ZM105.035 148.32C105.035 149.651 104.292 150.558 103.149 150.558C102.504 150.558 101.957 150.207 101.663 149.594V152.052H101.091V146.173H101.622V147.104C101.916 146.467 102.487 146.091 103.149 146.091C104.292 146.091 105.035 147.006 105.035 148.32ZM104.455 148.32C104.455 147.234 103.892 146.589 103.051 146.589C102.251 146.589 101.655 147.226 101.655 148.32C101.655 149.39 102.234 150.06 103.051 150.06C103.892 150.06 104.455 149.423 104.455 148.32ZM108.601 150.476V149.692C108.348 150.231 107.825 150.558 107.156 150.558C106.266 150.558 105.686 150.06 105.686 149.284C105.686 148.443 106.356 148.002 107.662 148.002C107.923 148.002 108.119 148.018 108.544 148.051V147.692C108.544 146.973 108.16 146.548 107.507 146.548C106.805 146.548 106.364 146.981 106.356 147.683H105.833C105.857 146.728 106.519 146.091 107.499 146.091C108.503 146.091 109.091 146.679 109.091 147.675V150.476H108.601ZM106.233 149.268C106.233 149.79 106.633 150.141 107.237 150.141C108.038 150.141 108.544 149.619 108.544 148.81V148.427C108.176 148.394 107.923 148.386 107.687 148.386C106.707 148.386 106.233 148.671 106.233 149.268ZM111.036 145.177C111.036 145.43 110.849 145.609 110.571 145.609C110.302 145.609 110.114 145.43 110.114 145.177C110.114 144.932 110.302 144.752 110.571 144.752C110.849 144.752 111.036 144.932 111.036 145.177ZM110.865 150.476H110.293V146.173H110.865V150.476ZM113.728 152.142C112.634 152.142 111.948 151.57 111.899 150.607H112.446C112.495 151.309 112.953 151.685 113.72 151.685C114.569 151.685 115.019 151.235 115.019 150.386V149.488C114.757 150.092 114.235 150.443 113.598 150.443C112.512 150.443 111.785 149.57 111.785 148.263C111.785 146.957 112.504 146.091 113.59 146.091C114.235 146.091 114.774 146.459 115.051 147.087V146.173H115.582V150.378C115.582 151.489 114.904 152.142 113.728 152.142ZM112.357 148.263C112.357 149.317 112.855 149.953 113.679 149.953C114.488 149.953 115.027 149.3 115.027 148.304C115.027 147.251 114.496 146.581 113.679 146.581C112.863 146.581 112.357 147.218 112.357 148.263ZM117.396 147.969V150.476H116.824V146.173H117.355V146.981C117.633 146.45 118.155 146.091 118.776 146.091C119.674 146.091 120.254 146.663 120.254 147.683V150.476H119.682V147.879C119.682 147.055 119.306 146.589 118.604 146.589C117.935 146.589 117.396 147.169 117.396 147.969ZM122.414 145.25C122.414 145.814 121.948 146.377 121.214 146.352V146.018C121.638 146.018 121.94 145.756 121.989 145.405C121.924 145.438 121.859 145.446 121.793 145.446C121.54 145.446 121.352 145.258 121.352 145.013C121.352 144.744 121.556 144.564 121.842 144.564C122.218 144.564 122.414 144.858 122.414 145.25ZM126.341 149.276C126.341 150.068 125.704 150.558 124.643 150.558C123.573 150.558 122.92 150.019 122.838 149.129H123.385C123.426 149.741 123.908 150.125 124.643 150.125C125.345 150.125 125.769 149.855 125.769 149.366C125.769 148.941 125.524 148.745 124.871 148.614L124.251 148.492C123.434 148.337 123.001 147.937 123.001 147.316C123.001 146.597 123.638 146.091 124.577 146.091C125.565 146.091 126.218 146.622 126.284 147.479H125.745C125.688 146.883 125.255 146.532 124.577 146.532C123.973 146.532 123.557 146.818 123.557 147.267C123.557 147.692 123.818 147.896 124.455 148.018L125.1 148.141C125.957 148.304 126.341 148.663 126.341 149.276ZM132.984 148.32C132.984 149.651 132.241 150.558 131.098 150.558C130.453 150.558 129.906 150.207 129.612 149.594V152.052H129.041V146.173H129.571V147.104C129.865 146.467 130.437 146.091 131.098 146.091C132.241 146.091 132.984 147.006 132.984 148.32ZM132.405 148.32C132.405 147.234 131.841 146.589 131 146.589C130.2 146.589 129.604 147.226 129.604 148.32C129.604 149.39 130.184 150.06 131 150.06C131.841 150.06 132.405 149.423 132.405 148.32ZM136.657 148.737V146.173H137.22V150.476H136.689V149.7C136.469 150.198 135.946 150.558 135.317 150.558C134.444 150.558 133.864 150.06 133.864 148.974V146.173H134.436V148.851C134.436 149.725 134.868 150.06 135.473 150.06C136.158 150.06 136.657 149.504 136.657 148.737ZM139.03 148.173V150.476H138.458V146.173H138.989V147.153C139.283 146.516 139.92 146.108 140.63 146.108V146.704C139.724 146.671 139.03 147.234 139.03 148.173ZM145.273 148.32C145.273 149.651 144.53 150.558 143.386 150.558C142.741 150.558 142.194 150.207 141.9 149.594V152.052H141.329V146.173H141.859V147.104C142.153 146.467 142.725 146.091 143.386 146.091C144.53 146.091 145.273 147.006 145.273 148.32ZM144.693 148.32C144.693 147.234 144.129 146.589 143.288 146.589C142.488 146.589 141.892 147.226 141.892 148.32C141.892 149.39 142.472 150.06 143.288 150.06C144.129 150.06 144.693 149.423 144.693 148.32ZM147.916 150.558C146.732 150.558 145.874 149.619 145.874 148.32C145.874 147.03 146.732 146.099 147.916 146.099C149.108 146.099 149.965 147.03 149.965 148.32C149.965 149.619 149.108 150.558 147.916 150.558ZM147.916 150.06C148.757 150.06 149.386 149.39 149.386 148.32C149.386 147.267 148.757 146.597 147.916 146.597C147.083 146.597 146.454 147.267 146.454 148.32C146.454 149.39 147.083 150.06 147.916 150.06ZM154.107 149.276C154.107 150.068 153.47 150.558 152.408 150.558C151.339 150.558 150.686 150.019 150.604 149.129H151.151C151.192 149.741 151.674 150.125 152.408 150.125C153.111 150.125 153.535 149.855 153.535 149.366C153.535 148.941 153.29 148.745 152.637 148.614L152.017 148.492C151.2 148.337 150.767 147.937 150.767 147.316C150.767 146.597 151.404 146.091 152.343 146.091C153.331 146.091 153.984 146.622 154.05 147.479H153.511C153.454 146.883 153.021 146.532 152.343 146.532C151.739 146.532 151.322 146.818 151.322 147.267C151.322 147.692 151.584 147.896 152.221 148.018L152.866 148.141C153.723 148.304 154.107 148.663 154.107 149.276ZM156.79 150.558C155.582 150.558 154.782 149.651 154.782 148.288C154.782 147.03 155.614 146.091 156.758 146.091C157.982 146.091 158.783 147.079 158.685 148.459H155.353C155.402 149.48 155.941 150.109 156.782 150.109C157.501 150.109 157.999 149.709 158.138 149.023H158.701C158.505 149.978 157.778 150.558 156.79 150.558ZM156.749 146.532C155.974 146.532 155.427 147.128 155.353 148.067H158.089C158.04 147.104 157.542 146.532 156.749 146.532Z" fill="#919191"/>
</svg>
