<svg width="249" height="185" viewBox="0 0 249 185" fill="none" xmlns="http://www.w3.org/2000/svg">
<rect x="0.677873" y="0.177629" width="247.615" height="385.14" rx="6.92753" fill="white"/>
<rect x="0.677873" y="0.177629" width="247.615" height="385.14" rx="6.92753" stroke="#F1F1F1" stroke-width="0.355258"/>
<path d="M10.4901 14.75L8.87723 10.8493V14.75H8.15961V9.64849H9.11881L10.8312 13.7908L12.5364 9.64849H13.5027V14.75H12.778V10.8422L11.158 14.75H10.4901ZM16.0977 14.8211C15.0106 14.8211 14.2788 14.0324 14.2788 12.8458C14.2788 11.7303 15.039 10.9132 16.0764 10.9132C17.199 10.9132 17.945 11.8227 17.8171 13.0448H15.0106C15.0674 13.8121 15.4511 14.2597 16.0835 14.2597C16.6164 14.2597 16.9858 13.9684 17.1066 13.4782H17.8171C17.6324 14.3166 16.9858 14.8211 16.0977 14.8211ZM16.0622 11.4532C15.4866 11.4532 15.0959 11.8653 15.0177 12.5687H17.0569C17.0214 11.8724 16.6448 11.4532 16.0622 11.4532ZM21.5643 13.6274C21.5643 14.3663 20.9888 14.8211 19.9869 14.8211C18.9922 14.8211 18.4025 14.3308 18.3314 13.5208H19.0206C19.049 13.9897 19.4256 14.2811 20.0011 14.2811C20.5056 14.2811 20.8395 14.1034 20.8395 13.7482C20.8395 13.4355 20.6477 13.3005 20.1788 13.2082L19.5677 13.0945C18.8714 12.9595 18.4806 12.6042 18.4806 12.0358C18.4806 11.375 19.0562 10.9132 19.9301 10.9132C20.8324 10.9132 21.4435 11.3964 21.5074 12.1708H20.8182C20.7756 11.7161 20.4417 11.4532 19.9372 11.4532C19.4825 11.4532 19.1769 11.645 19.1769 11.9719C19.1769 12.2774 19.3688 12.4195 19.8235 12.5048L20.463 12.6256C21.209 12.7606 21.5643 13.0874 21.5643 13.6274ZM25.332 13.6274C25.332 14.3663 24.7564 14.8211 23.7546 14.8211C22.7599 14.8211 22.1702 14.3308 22.0991 13.5208H22.7883C22.8167 13.9897 23.1933 14.2811 23.7688 14.2811C24.2733 14.2811 24.6072 14.1034 24.6072 13.7482C24.6072 13.4355 24.4154 13.3005 23.9464 13.2082L23.3354 13.0945C22.6391 12.9595 22.2483 12.6042 22.2483 12.0358C22.2483 11.375 22.8238 10.9132 23.6978 10.9132C24.6001 10.9132 25.2112 11.3964 25.2751 12.1708H24.5859C24.5433 11.7161 24.2093 11.4532 23.7049 11.4532C23.2501 11.4532 22.9446 11.645 22.9446 11.9719C22.9446 12.2774 23.1365 12.4195 23.5912 12.5048L24.2307 12.6256C24.9767 12.7606 25.332 13.0874 25.332 13.6274ZM28.3962 14.75V14.1674C28.1617 14.5866 27.7425 14.8211 27.1883 14.8211C26.4068 14.8211 25.8952 14.3734 25.8952 13.6842C25.8952 12.9453 26.4849 12.5616 27.6075 12.5616C27.8278 12.5616 28.0054 12.5687 28.311 12.6042V12.3271C28.311 11.7871 28.0196 11.4816 27.5223 11.4816C26.9965 11.4816 26.6768 11.7943 26.6555 12.32H26.0018C26.0373 11.4745 26.6412 10.9132 27.5223 10.9132C28.4531 10.9132 28.9931 11.439 28.9931 12.3342V14.75H28.3962ZM26.5773 13.6629C26.5773 14.0537 26.8686 14.3095 27.3304 14.3095C27.9344 14.3095 28.311 13.9329 28.311 13.3574V13.0519C28.0339 13.0163 27.8349 13.0092 27.6502 13.0092C26.9326 13.0092 26.5773 13.2224 26.5773 13.6629ZM31.4588 16.1995C30.4712 16.1995 29.8317 15.6737 29.7891 14.8211H30.4854C30.528 15.3468 30.8691 15.631 31.4517 15.631C32.0983 15.631 32.4393 15.2829 32.4393 14.6363V13.9542C32.2262 14.409 31.7999 14.6718 31.2883 14.6718C30.3504 14.6718 29.6825 13.8974 29.6825 12.789C29.6825 11.6664 30.322 10.9132 31.267 10.9132C31.807 10.9132 32.2333 11.1761 32.4891 11.6521V10.9843H33.157V14.6221C33.157 15.6097 32.5246 16.1995 31.4588 16.1995ZM30.4073 12.789C30.4073 13.5705 30.7909 14.0466 31.4162 14.0466C32.0272 14.0466 32.4393 13.5563 32.4393 12.8103C32.4393 12.0287 32.0343 11.5314 31.4162 11.5314C30.798 11.5314 30.4073 12.0145 30.4073 12.789ZM35.6993 14.8211C34.6122 14.8211 33.8804 14.0324 33.8804 12.8458C33.8804 11.7303 34.6407 10.9132 35.678 10.9132C36.8006 10.9132 37.5467 11.8227 37.4188 13.0448H34.6122C34.6691 13.8121 35.0528 14.2597 35.6851 14.2597C36.218 14.2597 36.5875 13.9684 36.7083 13.4782H37.4188C37.234 14.3166 36.5875 14.8211 35.6993 14.8211ZM35.6638 11.4532C35.0883 11.4532 34.6975 11.8653 34.6193 12.5687H36.6585C36.623 11.8724 36.2464 11.4532 35.6638 11.4532ZM41.9474 14.8566C40.5263 14.8566 39.425 13.6984 39.425 12.1921C39.425 10.693 40.5263 9.54192 41.9474 9.54192C43.2263 9.54192 44.2494 10.3945 44.4413 11.6521H43.61C43.4679 10.828 42.8 10.2453 41.9545 10.2453C40.9455 10.2453 40.235 11.0624 40.235 12.1921C40.235 13.3361 40.9455 14.1532 41.9545 14.1532C42.8 14.1532 43.4679 13.5634 43.61 12.7392H44.4413C44.2494 14.004 43.2263 14.8566 41.9474 14.8566ZM45.9143 12.8245V14.75H45.1967V10.9843H45.8646V11.78C46.1275 11.2614 46.6959 10.9345 47.314 10.9345V11.6806C46.5041 11.6379 45.9143 11.9932 45.9143 12.8245ZM49.417 14.8211C48.3299 14.8211 47.5981 14.0324 47.5981 12.8458C47.5981 11.7303 48.3583 10.9132 49.3957 10.9132C50.5183 10.9132 51.2643 11.8227 51.1364 13.0448H48.3299C48.3868 13.8121 48.7704 14.2597 49.4028 14.2597C49.9357 14.2597 50.3051 13.9684 50.4259 13.4782H51.1364C50.9517 14.3166 50.3051 14.8211 49.417 14.8211ZM49.3815 11.4532C48.806 11.4532 48.4152 11.8653 48.337 12.5687H50.3762C50.3407 11.8724 49.9641 11.4532 49.3815 11.4532ZM54.1802 14.75V14.1674C53.9457 14.5866 53.5265 14.8211 52.9723 14.8211C52.1907 14.8211 51.6792 14.3734 51.6792 13.6842C51.6792 12.9453 52.2689 12.5616 53.3915 12.5616C53.6118 12.5616 53.7894 12.5687 54.0949 12.6042V12.3271C54.0949 11.7871 53.8036 11.4816 53.3062 11.4816C52.7805 11.4816 52.4607 11.7943 52.4394 12.32H51.7857C51.8213 11.4745 52.4252 10.9132 53.3062 10.9132C54.237 10.9132 54.777 11.439 54.777 12.3342V14.75H54.1802ZM52.3613 13.6629C52.3613 14.0537 52.6526 14.3095 53.1144 14.3095C53.7183 14.3095 54.0949 13.9329 54.0949 13.3574V13.0519C53.8178 13.0163 53.6189 13.0092 53.4341 13.0092C52.7165 13.0092 52.3613 13.2224 52.3613 13.6629ZM57.8262 14.0537V14.6861C57.606 14.7855 57.4141 14.8211 57.1868 14.8211C56.4905 14.8211 56.0073 14.4445 56.0073 13.6132V11.5953H55.176V10.9843H56.0073V9.86875H56.7249V10.9843H57.8618V11.5953H56.7249V13.4498C56.7249 13.9684 56.9736 14.1532 57.3573 14.1532C57.5278 14.1532 57.677 14.1247 57.8262 14.0537ZM59.4206 10.1103C59.4206 10.3803 59.2074 10.5864 58.9019 10.5864C58.5964 10.5864 58.3761 10.3803 58.3761 10.1103C58.3761 9.83323 58.5964 9.63428 58.9019 9.63428C59.2074 9.63428 59.4206 9.83323 59.4206 10.1103ZM59.2643 14.75H58.5466V10.9843H59.2643V14.75ZM61.8378 14.8211C60.772 14.8211 59.9905 13.9826 59.9905 12.8671C59.9905 11.7516 60.772 10.9132 61.8378 10.9132C62.9036 10.9132 63.6852 11.7516 63.6852 12.8671C63.6852 13.9826 62.9036 14.8211 61.8378 14.8211ZM61.8378 14.1887C62.456 14.1887 62.9462 13.6913 62.9462 12.8671C62.9462 12.0429 62.456 11.5527 61.8378 11.5527C61.2197 11.5527 60.7365 12.0429 60.7365 12.8671C60.7365 13.6913 61.2197 14.1887 61.8378 14.1887ZM65.1343 12.6256V14.75H64.4167V10.9843H65.0846V11.6095C65.3404 11.1903 65.7667 10.9132 66.2854 10.9132C67.0598 10.9132 67.5714 11.4106 67.5714 12.3129V14.75H66.8538V12.5545C66.8538 11.9079 66.5696 11.5456 66.0367 11.5456C65.5464 11.5456 65.1343 11.9577 65.1343 12.6256Z" fill="#1A1A1A"/>
<path d="M10.5249 24.5264L10.1519 23.5366H8.48574L8.10774 24.5264H7.7397L9.12733 20.9553H9.53517L10.9178 24.5264H10.5249ZM9.3213 21.3532L8.60013 23.2332H10.0325L9.3213 21.3532ZM11.0874 23.2133C11.0874 22.4076 11.535 21.8555 12.2412 21.8555C12.6342 21.8555 12.9674 22.0793 13.1415 22.4524V20.9553H13.4896V24.5264H13.1663V23.9743C12.9823 24.3573 12.6441 24.5761 12.2412 24.5761C11.535 24.5761 11.0874 24.0191 11.0874 23.2133ZM11.4405 23.2133C11.4405 23.8798 11.7787 24.2727 12.291 24.2727C12.7983 24.2727 13.1464 23.8599 13.1464 23.2034C13.1464 22.5419 12.7883 22.1589 12.291 22.1589C11.7787 22.1589 11.4405 22.5469 11.4405 23.2133ZM14.0502 23.2133C14.0502 22.4076 14.4978 21.8555 15.204 21.8555C15.597 21.8555 15.9302 22.0793 16.1043 22.4524V20.9553H16.4524V24.5264H16.1291V23.9743C15.9451 24.3573 15.6069 24.5761 15.204 24.5761C14.4978 24.5761 14.0502 24.0191 14.0502 23.2133ZM14.4033 23.2133C14.4033 23.8798 14.7415 24.2727 15.2538 24.2727C15.7611 24.2727 16.1092 23.8599 16.1092 23.2034C16.1092 22.5419 15.7511 22.1589 15.2538 22.1589C14.7415 22.1589 14.4033 22.5469 14.4033 23.2133ZM20.6486 23.2133C20.6486 24.0191 20.196 24.5761 19.4947 24.5761C19.0919 24.5761 18.7536 24.3573 18.5696 23.9743V24.5264H18.2463V20.9553H18.5945V22.4573C18.7636 22.0744 19.0968 21.8555 19.4947 21.8555C20.196 21.8555 20.6486 22.4076 20.6486 23.2133ZM20.2955 23.2133C20.2955 22.5469 19.9523 22.1589 19.44 22.1589C18.9476 22.1589 18.5895 22.5419 18.5895 23.2034C18.5895 23.8599 18.9377 24.2727 19.44 24.2727C19.9523 24.2727 20.2955 23.8798 20.2955 23.2133ZM21.5573 23.1238V24.5264H21.2091V21.9053H21.5324V22.5021C21.7115 22.1142 22.0994 21.8655 22.5321 21.8655V22.2286C21.98 22.2087 21.5573 22.5518 21.5573 23.1238ZM24.0022 24.5761C23.2811 24.5761 22.7588 24.0041 22.7588 23.2133C22.7588 22.4275 23.2811 21.8605 24.0022 21.8605C24.7284 21.8605 25.2506 22.4275 25.2506 23.2133C25.2506 24.0041 24.7284 24.5761 24.0022 24.5761ZM24.0022 24.2727C24.5145 24.2727 24.8975 23.8649 24.8975 23.2133C24.8975 22.5717 24.5145 22.1639 24.0022 22.1639C23.4949 22.1639 23.112 22.5717 23.112 23.2133C23.112 23.8649 23.4949 24.2727 24.0022 24.2727ZM27.4251 24.5264V24.0489C27.2709 24.3772 26.9526 24.5761 26.5447 24.5761C26.0026 24.5761 25.6495 24.2727 25.6495 23.8002C25.6495 23.2879 26.0573 23.0194 26.8531 23.0194C27.0123 23.0194 27.1316 23.0293 27.3902 23.0492V22.8304C27.3902 22.3927 27.1565 22.1341 26.7586 22.1341C26.3309 22.1341 26.0623 22.3977 26.0573 22.8254H25.739C25.7539 22.2435 26.1568 21.8555 26.7536 21.8555C27.3654 21.8555 27.7235 22.2136 27.7235 22.8204V24.5264H27.4251ZM25.9827 23.7903C25.9827 24.1086 26.2264 24.3224 26.5945 24.3224C27.0819 24.3224 27.3902 24.0041 27.3902 23.5118V23.278C27.1664 23.2581 27.0123 23.2531 26.868 23.2531C26.2712 23.2531 25.9827 23.4272 25.9827 23.7903ZM28.2619 23.2133C28.2619 22.4076 28.7095 21.8555 29.4157 21.8555C29.8087 21.8555 30.1419 22.0793 30.316 22.4524V20.9553H30.6641V24.5264H30.3408V23.9743C30.1568 24.3573 29.8186 24.5761 29.4157 24.5761C28.7095 24.5761 28.2619 24.0191 28.2619 23.2133ZM28.615 23.2133C28.615 23.8798 28.9532 24.2727 29.4655 24.2727C29.9728 24.2727 30.3209 23.8599 30.3209 23.2034C30.3209 22.5419 29.9628 22.1589 29.4655 22.1589C28.9532 22.1589 28.615 22.5469 28.615 23.2133ZM32.3984 24.5811C31.7071 24.5811 31.2247 24.0191 31.2247 23.2133C31.2247 22.4176 31.7121 21.8555 32.3984 21.8555C33.0102 21.8555 33.4479 22.2634 33.5523 22.9199H33.1992C33.1196 22.4424 32.8212 22.1589 32.3984 22.1589C31.911 22.1589 31.5778 22.5867 31.5778 23.2133C31.5778 23.85 31.911 24.2777 32.3984 24.2777C32.8262 24.2777 33.1196 23.9992 33.1992 23.5118H33.5523C33.4578 24.1782 33.0152 24.5811 32.3984 24.5811ZM35.7257 24.5264V24.0489C35.5716 24.3772 35.2533 24.5761 34.8454 24.5761C34.3033 24.5761 33.9502 24.2727 33.9502 23.8002C33.9502 23.2879 34.358 23.0194 35.1538 23.0194C35.3129 23.0194 35.4323 23.0293 35.6909 23.0492V22.8304C35.6909 22.3927 35.4572 22.1341 35.0593 22.1341C34.6316 22.1341 34.363 22.3977 34.358 22.8254H34.0397C34.0546 22.2435 34.4575 21.8555 35.0543 21.8555C35.6661 21.8555 36.0242 22.2136 36.0242 22.8204V24.5264H35.7257ZM34.2834 23.7903C34.2834 24.1086 34.5271 24.3224 34.8952 24.3224C35.3826 24.3224 35.6909 24.0041 35.6909 23.5118V23.278C35.4671 23.2581 35.3129 23.2531 35.1687 23.2531C34.5719 23.2531 34.2834 23.4272 34.2834 23.7903ZM38.7161 23.7952C38.7161 24.2777 38.3282 24.5761 37.6816 24.5761C37.0301 24.5761 36.6322 24.2478 36.5825 23.7057H36.9157C36.9406 24.0787 37.234 24.3125 37.6816 24.3125C38.1094 24.3125 38.368 24.1484 38.368 23.85C38.368 23.5913 38.2188 23.472 37.8209 23.3924L37.4429 23.3178C36.9455 23.2233 36.6819 22.9796 36.6819 22.6016C36.6819 22.1639 37.0699 21.8555 37.6418 21.8555C38.2436 21.8555 38.6415 22.1788 38.6813 22.7011H38.3531C38.3182 22.338 38.0546 22.1241 37.6418 22.1241C37.2738 22.1241 37.0201 22.2982 37.0201 22.5717C37.0201 22.8304 37.1793 22.9547 37.5672 23.0293L37.9601 23.1039C38.4824 23.2034 38.7161 23.4222 38.7161 23.7952ZM40.6495 24.1931V24.5015C40.5152 24.5562 40.4008 24.5761 40.2715 24.5761C39.8388 24.5761 39.5055 24.3523 39.5055 23.7853V22.1987H38.8888V21.9053H39.5055V21.1294H39.8537V21.9053H40.6743V22.1987H39.8537V23.7107C39.8537 24.1185 40.0526 24.2578 40.3411 24.2578C40.4505 24.2578 40.5401 24.2379 40.6495 24.1931ZM42.5883 22.9995V24.5264H42.2401V21.9053H42.5634V22.3977C42.7325 22.0744 43.0508 21.8555 43.4288 21.8555C43.9759 21.8555 44.329 22.2037 44.329 22.8254V24.5264H43.9809V22.9448C43.9809 22.4424 43.7521 22.1589 43.3244 22.1589C42.9165 22.1589 42.5883 22.5121 42.5883 22.9995ZM46.6735 24.5264V24.0489C46.5193 24.3772 46.201 24.5761 45.7932 24.5761C45.2511 24.5761 44.8979 24.2727 44.8979 23.8002C44.8979 23.2879 45.3058 23.0194 46.1016 23.0194C46.2607 23.0194 46.3801 23.0293 46.6387 23.0492V22.8304C46.6387 22.3927 46.4049 22.1341 46.0071 22.1341C45.5793 22.1341 45.3108 22.3977 45.3058 22.8254H44.9875C45.0024 22.2435 45.4053 21.8555 46.0021 21.8555C46.6138 21.8555 46.9719 22.2136 46.9719 22.8204V24.5264H46.6735ZM45.2312 23.7903C45.2312 24.1086 45.4749 24.3224 45.8429 24.3224C46.3303 24.3224 46.6387 24.0041 46.6387 23.5118V23.278C46.4149 23.2581 46.2607 23.2531 46.1165 23.2531C45.5196 23.2531 45.2312 23.4272 45.2312 23.7903ZM48.0525 24.5264H47.7043V21.9053H48.0276V22.3977C48.2017 22.0595 48.51 21.8555 48.8831 21.8555C49.2909 21.8555 49.5943 22.0793 49.7037 22.4623C49.8678 22.0943 50.1961 21.8555 50.6089 21.8555C51.151 21.8555 51.4892 22.2136 51.4892 22.8254V24.5264H51.146V22.9398C51.146 22.4424 50.9173 22.1589 50.4945 22.1589C50.0966 22.1589 49.7733 22.5071 49.7733 22.9895V24.5264H49.4252V22.9398C49.4252 22.4424 49.1964 22.1589 48.7736 22.1589C48.3708 22.1589 48.0525 22.5071 48.0525 22.9895V24.5264ZM53.2509 24.5761C52.5148 24.5761 52.0274 24.024 52.0274 23.1934C52.0274 22.4275 52.5347 21.8555 53.231 21.8555C53.977 21.8555 54.4645 22.4573 54.4048 23.2979H52.3755C52.4054 23.9196 52.7336 24.3026 53.2459 24.3026C53.6836 24.3026 53.987 24.0588 54.0715 23.6411H54.4147C54.2954 24.223 53.8527 24.5761 53.2509 24.5761ZM53.226 22.1241C52.7535 22.1241 52.4203 22.4872 52.3755 23.0592H54.0417C54.0119 22.4723 53.7085 22.1241 53.226 22.1241ZM57.631 24.5264V24.0489C57.4768 24.3772 57.1585 24.5761 56.7507 24.5761C56.2086 24.5761 55.8554 24.2727 55.8554 23.8002C55.8554 23.2879 56.2633 23.0194 57.0591 23.0194C57.2182 23.0194 57.3376 23.0293 57.5962 23.0492V22.8304C57.5962 22.3927 57.3624 22.1341 56.9646 22.1341C56.5368 22.1341 56.2682 22.3977 56.2633 22.8254H55.945C55.9599 22.2435 56.3627 21.8555 56.9596 21.8555C57.5713 21.8555 57.9294 22.2136 57.9294 22.8204V24.5264H57.631ZM56.1887 23.7903C56.1887 24.1086 56.4324 24.3224 56.8004 24.3224C57.2878 24.3224 57.5962 24.0041 57.5962 23.5118V23.278C57.3724 23.2581 57.2182 23.2531 57.074 23.2531C56.4771 23.2531 56.1887 23.4272 56.1887 23.7903ZM59.0099 22.9995V24.5264H58.6618V21.9053H58.9851V22.3977C59.1542 22.0744 59.4725 21.8555 59.8505 21.8555C60.3976 21.8555 60.7507 22.2037 60.7507 22.8254V24.5264H60.4026V22.9448C60.4026 22.4424 60.1738 22.1589 59.746 22.1589C59.3382 22.1589 59.0099 22.5121 59.0099 22.9995ZM61.2898 23.2133C61.2898 22.4076 61.7374 21.8555 62.4436 21.8555C62.8366 21.8555 63.1698 22.0793 63.3439 22.4524V20.9553H63.692V24.5264H63.3687V23.9743C63.1847 24.3573 62.8465 24.5761 62.4436 24.5761C61.7374 24.5761 61.2898 24.0191 61.2898 23.2133ZM61.6429 23.2133C61.6429 23.8798 61.9811 24.2727 62.4934 24.2727C63.0007 24.2727 63.3488 23.8599 63.3488 23.2034C63.3488 22.5419 62.9907 22.1589 62.4934 22.1589C61.9811 22.1589 61.6429 22.5469 61.6429 23.2133ZM66.8338 24.1931V24.5015C66.6995 24.5562 66.5851 24.5761 66.4558 24.5761C66.0231 24.5761 65.6899 24.3523 65.6899 23.7853V22.1987H65.0731V21.9053H65.6899V21.1294H66.038V21.9053H66.8587V22.1987H66.038V23.7107C66.038 24.1185 66.237 24.2578 66.5254 24.2578C66.6348 24.2578 66.7244 24.2379 66.8338 24.1931ZM68.332 24.5761C67.5959 24.5761 67.1085 24.024 67.1085 23.1934C67.1085 22.4275 67.6158 21.8555 68.3121 21.8555C69.0582 21.8555 69.5456 22.4573 69.4859 23.2979H67.4567C67.4865 23.9196 67.8148 24.3026 68.327 24.3026C68.7647 24.3026 69.0681 24.0588 69.1527 23.6411H69.4958C69.3765 24.223 68.9338 24.5761 68.332 24.5761ZM68.3071 22.1241C67.8347 22.1241 67.5014 22.4872 67.4567 23.0592H69.1228C69.093 22.4723 68.7896 22.1241 68.3071 22.1241ZM70.4094 24.5264H70.0613V21.9053H70.3846V22.3977C70.5586 22.0595 70.867 21.8555 71.24 21.8555C71.6479 21.8555 71.9513 22.0793 72.0607 22.4623C72.2248 22.0943 72.5531 21.8555 72.9659 21.8555C73.508 21.8555 73.8462 22.2136 73.8462 22.8254V24.5264H73.503V22.9398C73.503 22.4424 73.2742 22.1589 72.8515 22.1589C72.4536 22.1589 72.1303 22.5071 72.1303 22.9895V24.5264H71.7821V22.9398C71.7821 22.4424 71.5534 22.1589 71.1306 22.1589C70.7277 22.1589 70.4094 22.5071 70.4094 22.9895V24.5264ZM76.9806 23.2133C76.9806 24.024 76.528 24.5761 75.8317 24.5761C75.4388 24.5761 75.1055 24.3622 74.9265 23.9892V25.4863H74.5783V21.9053H74.9016V22.4723C75.0807 22.0843 75.4288 21.8555 75.8317 21.8555C76.528 21.8555 76.9806 22.4126 76.9806 23.2133ZM76.6275 23.2133C76.6275 22.5518 76.2843 22.1589 75.772 22.1589C75.2846 22.1589 74.9215 22.5469 74.9215 23.2133C74.9215 23.8649 75.2746 24.2727 75.772 24.2727C76.2843 24.2727 76.6275 23.8848 76.6275 23.2133ZM77.8893 24.5264H77.5411V20.9553H77.8893V24.5264ZM80.2551 24.5264V24.0489C80.1009 24.3772 79.7826 24.5761 79.3748 24.5761C78.8327 24.5761 78.4795 24.2727 78.4795 23.8002C78.4795 23.2879 78.8874 23.0194 79.6832 23.0194C79.8423 23.0194 79.9617 23.0293 80.2203 23.0492V22.8304C80.2203 22.3927 79.9865 22.1341 79.5887 22.1341C79.1609 22.1341 78.8924 22.3977 78.8874 22.8254H78.5691C78.584 22.2435 78.9869 21.8555 79.5837 21.8555C80.1954 21.8555 80.5535 22.2136 80.5535 22.8204V24.5264H80.2551ZM78.8128 23.7903C78.8128 24.1086 79.0565 24.3224 79.4245 24.3224C79.9119 24.3224 80.2203 24.0041 80.2203 23.5118V23.278C79.9965 23.2581 79.8423 23.2531 79.6981 23.2531C79.1012 23.2531 78.8128 23.4272 78.8128 23.7903ZM82.6192 24.1931V24.5015C82.4849 24.5562 82.3705 24.5761 82.2412 24.5761C81.8085 24.5761 81.4753 24.3523 81.4753 23.7853V22.1987H80.8585V21.9053H81.4753V21.1294H81.8234V21.9053H82.6441V22.1987H81.8234V23.7107C81.8234 24.1185 82.0224 24.2578 82.3108 24.2578C82.4202 24.2578 82.5098 24.2379 82.6192 24.1931ZM84.1174 24.5761C83.3813 24.5761 82.8939 24.024 82.8939 23.1934C82.8939 22.4275 83.4012 21.8555 84.0975 21.8555C84.8436 21.8555 85.331 22.4573 85.2713 23.2979H83.2421C83.2719 23.9196 83.6002 24.3026 84.1124 24.3026C84.5501 24.3026 84.8535 24.0588 84.9381 23.6411H85.2812C85.1619 24.223 84.7192 24.5761 84.1174 24.5761ZM84.0925 22.1241C83.62 22.1241 83.2868 22.4872 83.2421 23.0592H84.9082C84.8784 22.4723 84.575 22.1241 84.0925 22.1241ZM89.2883 23.2133C89.2883 24.0191 88.8357 24.5761 88.1345 24.5761C87.7316 24.5761 87.3934 24.3573 87.2094 23.9743V24.5264H86.8861V20.9553H87.2342V22.4573C87.4033 22.0744 87.7366 21.8555 88.1345 21.8555C88.8357 21.8555 89.2883 22.4076 89.2883 23.2133ZM88.9352 23.2133C88.9352 22.5469 88.592 22.1589 88.0797 22.1589C87.5874 22.1589 87.2293 22.5419 87.2293 23.2034C87.2293 23.8599 87.5774 24.2727 88.0797 24.2727C88.592 24.2727 88.9352 23.8798 88.9352 23.2133ZM90.8784 24.5761C90.1423 24.5761 89.6549 24.024 89.6549 23.1934C89.6549 22.4275 90.1622 21.8555 90.8585 21.8555C91.6046 21.8555 92.092 22.4573 92.0323 23.2979H90.0031C90.0329 23.9196 90.3612 24.3026 90.8734 24.3026C91.3111 24.3026 91.6145 24.0588 91.6991 23.6411H92.0422C91.9229 24.223 91.4802 24.5761 90.8784 24.5761ZM90.8535 22.1241C90.381 22.1241 90.0478 22.4872 90.0031 23.0592H91.6692C91.6394 22.4723 91.336 22.1241 90.8535 22.1241ZM92.9558 24.5264H92.6077V20.9553H92.9558V24.5264ZM94.7597 24.5761C94.0385 24.5761 93.5163 24.0041 93.5163 23.2133C93.5163 22.4275 94.0385 21.8605 94.7597 21.8605C95.4858 21.8605 96.008 22.4275 96.008 23.2133C96.008 24.0041 95.4858 24.5761 94.7597 24.5761ZM94.7597 24.2727C95.2719 24.2727 95.6549 23.8649 95.6549 23.2133C95.6549 22.5717 95.2719 22.1639 94.7597 22.1639C94.2523 22.1639 93.8694 22.5717 93.8694 23.2133C93.8694 23.8649 94.2523 24.2727 94.7597 24.2727ZM98.701 24.5264L98.0147 22.3678L97.3333 24.5264H96.9801L96.2142 21.9053H96.5574L97.1642 24.034L97.8456 21.9053H98.1887L98.8651 24.039L99.4719 21.9053H99.8201L99.0492 24.5264H98.701Z" fill="#767676"/>
<path d="M9.55009 45.7453C8.55537 45.7453 7.78446 44.9346 7.78446 43.8802C7.78446 42.8307 8.55537 42.025 9.55009 42.025C10.4453 42.025 11.1615 42.6218 11.2958 43.5022H10.7139C10.6144 42.9252 10.1469 42.5174 9.55506 42.5174C8.84881 42.5174 8.35145 43.0893 8.35145 43.8802C8.35145 44.6809 8.84881 45.2529 9.55506 45.2529C10.1469 45.2529 10.6144 44.8401 10.7139 44.2631H11.2958C11.1615 45.1484 10.4453 45.7453 9.55009 45.7453ZM12.9288 45.7204C12.1827 45.7204 11.6356 45.1335 11.6356 44.3526C11.6356 43.5718 12.1827 42.9849 12.9288 42.9849C13.6748 42.9849 14.2219 43.5718 14.2219 44.3526C14.2219 45.1335 13.6748 45.7204 12.9288 45.7204ZM12.9288 45.2777C13.3615 45.2777 13.7047 44.9296 13.7047 44.3526C13.7047 43.7757 13.3615 43.4325 12.9288 43.4325C12.4961 43.4325 12.1579 43.7757 12.1579 44.3526C12.1579 44.9296 12.4961 45.2777 12.9288 45.2777ZM15.2363 45.6707H14.734V43.0346H15.2015V43.4723C15.3806 43.1689 15.6641 42.9849 16.0271 42.9849C16.4151 42.9849 16.7085 43.1838 16.8279 43.532C17.0119 43.1938 17.3153 42.9849 17.7182 42.9849C18.2603 42.9849 18.6084 43.338 18.6084 43.9647V45.6707H18.1061V44.1239C18.1061 43.6862 17.9121 43.4276 17.5441 43.4276C17.2009 43.4276 16.9224 43.716 16.9224 44.1587V45.6707H16.42V44.1239C16.42 43.6862 16.2261 43.4276 15.858 43.4276C15.5099 43.4276 15.2363 43.716 15.2363 44.1587V45.6707ZM21.7968 44.3526C21.7968 45.1484 21.3393 45.7204 20.633 45.7204C20.2749 45.7204 19.9715 45.5413 19.7825 45.223V46.6306H19.2802V43.0346H19.7477V43.5171C19.9367 43.1789 20.26 42.9849 20.633 42.9849C21.3343 42.9849 21.7968 43.5569 21.7968 44.3526ZM21.2746 44.3526C21.2746 43.7608 20.9613 43.4276 20.5286 43.4276C20.1108 43.4276 19.7825 43.7608 19.7825 44.3526C19.7825 44.9346 20.1058 45.2728 20.5286 45.2728C20.9613 45.2728 21.2746 44.9445 21.2746 44.3526ZM23.4103 45.7204C22.6642 45.7204 22.1171 45.1335 22.1171 44.3526C22.1171 43.5718 22.6642 42.9849 23.4103 42.9849C24.1563 42.9849 24.7034 43.5718 24.7034 44.3526C24.7034 45.1335 24.1563 45.7204 23.4103 45.7204ZM23.4103 45.2777C23.843 45.2777 24.1862 44.9296 24.1862 44.3526C24.1862 43.7757 23.843 43.4325 23.4103 43.4325C22.9776 43.4325 22.6394 43.7757 22.6394 44.3526C22.6394 44.9296 22.9776 45.2777 23.4103 45.2777ZM27.3044 44.8848C27.3044 45.4021 26.9015 45.7204 26.2003 45.7204C25.504 45.7204 25.0912 45.3772 25.0414 44.8102H25.5239C25.5438 45.1385 25.8074 45.3424 26.2102 45.3424C26.5633 45.3424 26.7971 45.2181 26.7971 44.9694C26.7971 44.7505 26.6628 44.656 26.3346 44.5914L25.9068 44.5118C25.4194 44.4173 25.1459 44.1686 25.1459 43.7707C25.1459 43.3082 25.5487 42.9849 26.1605 42.9849C26.7921 42.9849 27.2199 43.3231 27.2646 43.8652H26.7822C26.7523 43.5469 26.5186 43.3629 26.1655 43.3629C25.8471 43.3629 25.6333 43.4972 25.6333 43.726C25.6333 43.9398 25.7676 44.0393 26.0859 44.099L26.5335 44.1835C27.0557 44.278 27.3044 44.5068 27.3044 44.8848ZM28.9371 45.7204C28.1762 45.7204 27.6639 45.1683 27.6639 44.3377C27.6639 43.5569 28.196 42.9849 28.9222 42.9849C29.708 42.9849 30.2303 43.6215 30.1407 44.477H28.1762C28.2159 45.0141 28.4845 45.3275 28.9272 45.3275C29.3002 45.3275 29.5588 45.1236 29.6434 44.7804H30.1407C30.0114 45.3673 29.5588 45.7204 28.9371 45.7204ZM28.9122 43.3629C28.5094 43.3629 28.2358 43.6514 28.1811 44.1438H29.6086C29.5837 43.6563 29.3201 43.3629 28.9122 43.3629ZM33.3854 45.6707L32.2563 42.9401V45.6707H31.754V42.0996H32.4254L33.6241 44.9992L34.8178 42.0996H35.4942V45.6707H34.9869V42.9352L33.8529 45.6707H33.3854ZM37.3107 45.7204C36.5497 45.7204 36.0374 45.1683 36.0374 44.3377C36.0374 43.5569 36.5696 42.9849 37.2957 42.9849C38.0816 42.9849 38.6038 43.6215 38.5143 44.477H36.5497C36.5895 45.0141 36.8581 45.3275 37.3007 45.3275C37.6737 45.3275 37.9324 45.1236 38.0169 44.7804H38.5143C38.385 45.3673 37.9324 45.7204 37.3107 45.7204ZM37.2858 43.3629C36.8829 43.3629 36.6094 43.6514 36.5547 44.1438H37.9821C37.9572 43.6563 37.6936 43.3629 37.2858 43.3629ZM41.1373 44.8848C41.1373 45.4021 40.7344 45.7204 40.0331 45.7204C39.3368 45.7204 38.924 45.3772 38.8743 44.8102H39.3567C39.3766 45.1385 39.6402 45.3424 40.0431 45.3424C40.3962 45.3424 40.63 45.2181 40.63 44.9694C40.63 44.7505 40.4957 44.656 40.1674 44.5914L39.7397 44.5118C39.2523 44.4173 38.9787 44.1686 38.9787 43.7707C38.9787 43.3082 39.3816 42.9849 39.9933 42.9849C40.625 42.9849 41.0527 43.3231 41.0975 43.8652H40.615C40.5852 43.5469 40.3514 43.3629 39.9983 43.3629C39.68 43.3629 39.4661 43.4972 39.4661 43.726C39.4661 43.9398 39.6004 44.0393 39.9187 44.099L40.3664 44.1835C40.8886 44.278 41.1373 44.5068 41.1373 44.8848ZM43.7746 44.8848C43.7746 45.4021 43.3718 45.7204 42.6705 45.7204C41.9742 45.7204 41.5614 45.3772 41.5117 44.8102H41.9941C42.014 45.1385 42.2776 45.3424 42.6805 45.3424C43.0336 45.3424 43.2673 45.2181 43.2673 44.9694C43.2673 44.7505 43.1331 44.656 42.8048 44.5914L42.3771 44.5118C41.8896 44.4173 41.6161 44.1686 41.6161 43.7707C41.6161 43.3082 42.019 42.9849 42.6307 42.9849C43.2624 42.9849 43.6901 43.3231 43.7349 43.8652H43.2524C43.2226 43.5469 42.9888 43.3629 42.6357 43.3629C42.3174 43.3629 42.1035 43.4972 42.1035 43.726C42.1035 43.9398 42.2378 44.0393 42.5561 44.099L43.0037 44.1835C43.526 44.278 43.7746 44.5068 43.7746 44.8848ZM45.9196 45.6707V45.2628C45.7555 45.5563 45.4621 45.7204 45.0741 45.7204C44.527 45.7204 44.1689 45.4071 44.1689 44.9246C44.1689 44.4074 44.5817 44.1388 45.3676 44.1388C45.5217 44.1388 45.6461 44.1438 45.86 44.1686V43.9747C45.86 43.5967 45.656 43.3828 45.3079 43.3828C44.9398 43.3828 44.716 43.6016 44.7011 43.9697H44.2435C44.2684 43.3778 44.6912 42.9849 45.3079 42.9849C45.9594 42.9849 46.3374 43.353 46.3374 43.9796V45.6707H45.9196ZM44.6464 44.9097C44.6464 45.1832 44.8503 45.3623 45.1736 45.3623C45.5964 45.3623 45.86 45.0987 45.86 44.6958V44.482C45.666 44.4571 45.5267 44.4521 45.3974 44.4521C44.8951 44.4521 44.6464 44.6013 44.6464 44.9097ZM48.0635 46.6853C47.3721 46.6853 46.9245 46.3172 46.8947 45.7204H47.3821C47.4119 46.0884 47.6506 46.2874 48.0585 46.2874C48.5111 46.2874 48.7498 46.0437 48.7498 45.5911V45.1136C48.6006 45.4319 48.3022 45.6159 47.9441 45.6159C47.2876 45.6159 46.8201 45.0738 46.8201 44.2979C46.8201 43.5121 47.2677 42.9849 47.9292 42.9849C48.3072 42.9849 48.6056 43.1689 48.7846 43.5022V43.0346H49.2521V45.5811C49.2521 46.2725 48.8095 46.6853 48.0635 46.6853ZM47.3274 44.2979C47.3274 44.845 47.5959 45.1783 48.0336 45.1783C48.4613 45.1783 48.7498 44.8351 48.7498 44.3129C48.7498 43.7658 48.4663 43.4176 48.0336 43.4176C47.6009 43.4176 47.3274 43.7558 47.3274 44.2979ZM51.0318 45.7204C50.2708 45.7204 49.7586 45.1683 49.7586 44.3377C49.7586 43.5569 50.2907 42.9849 51.0169 42.9849C51.8027 42.9849 52.3249 43.6215 52.2354 44.477H50.2708C50.3106 45.0141 50.5792 45.3275 51.0219 45.3275C51.3949 45.3275 51.6535 45.1236 51.7381 44.7804H52.2354C52.1061 45.3673 51.6535 45.7204 51.0318 45.7204ZM51.0069 43.3629C50.6041 43.3629 50.3305 43.6514 50.2758 44.1438H51.7032C51.6784 43.6563 51.4148 43.3629 51.0069 43.3629Z" fill="#1A1A1A"/>
<rect x="7.78304" y="50.9799" width="233.405" height="63.5778" rx="2.66444" fill="white"/>
<rect x="7.78304" y="50.9799" width="233.405" height="63.5778" rx="2.66444" stroke="#D0D5DD" stroke-width="0.355258"/>
<path d="M14.5514 59.9739V60.3263C14.398 60.3888 14.2672 60.4116 14.1194 60.4116C13.6249 60.4116 13.2441 60.1558 13.2441 59.5078V57.6946H12.5393V57.3592H13.2441V56.4725H13.642V57.3592H14.5799V57.6946H13.642V59.4225C13.642 59.8886 13.8693 60.0478 14.199 60.0478C14.3241 60.0478 14.4264 60.0251 14.5514 59.9739ZM17.4892 57.3592L15.9545 61.4518H15.5282L15.9658 60.3149L14.7779 57.3592H15.2042L16.1705 59.8375L17.0856 57.3592H17.4892ZM20.6968 58.8541C20.6968 59.7806 20.1795 60.4116 19.3837 60.4116C18.9347 60.4116 18.5539 60.1672 18.3492 59.7409V61.4518H17.9513V57.3592H18.3208V58.0072C18.5254 57.5638 18.9233 57.3024 19.3837 57.3024C20.1795 57.3024 20.6968 57.939 20.6968 58.8541ZM20.2932 58.8541C20.2932 58.0981 19.901 57.6491 19.3155 57.6491C18.7585 57.6491 18.3435 58.0925 18.3435 58.8541C18.3435 59.5987 18.7471 60.0648 19.3155 60.0648C19.901 60.0648 20.2932 59.6215 20.2932 58.8541ZM22.514 60.4116C21.6728 60.4116 21.1157 59.7806 21.1157 58.8314C21.1157 57.956 21.6955 57.3024 22.4913 57.3024C23.3439 57.3024 23.9009 57.9901 23.8327 58.9508H21.5136C21.5477 59.6613 21.9229 60.099 22.5083 60.099C23.0085 60.099 23.3553 59.8204 23.4519 59.343H23.8441C23.7077 60.008 23.2018 60.4116 22.514 60.4116ZM22.4856 57.6093C21.9456 57.6093 21.5648 58.0242 21.5136 58.6779H23.4178C23.3837 58.0072 23.0369 57.6093 22.4856 57.6093ZM27.986 57.3592L26.4512 61.4518H26.0249L26.4626 60.3149L25.2746 57.3592H25.7009L26.6672 59.8375L27.5824 57.3592H27.986ZM29.5586 60.4116C28.7344 60.4116 28.1376 59.7579 28.1376 58.8541C28.1376 57.956 28.7344 57.308 29.5586 57.308C30.3885 57.308 30.9854 57.956 30.9854 58.8541C30.9854 59.7579 30.3885 60.4116 29.5586 60.4116ZM29.5586 60.0648C30.1441 60.0648 30.5818 59.5987 30.5818 58.8541C30.5818 58.1209 30.1441 57.6548 29.5586 57.6548C28.9789 57.6548 28.5412 58.1209 28.5412 58.8541C28.5412 59.5987 28.9789 60.0648 29.5586 60.0648ZM33.5443 59.144V57.3592H33.9365V60.3547H33.5671V59.8147C33.4136 60.1615 33.0498 60.4116 32.6121 60.4116C32.0039 60.4116 31.6004 60.0648 31.6004 59.3089V57.3592H31.9982V59.2236C31.9982 59.8318 32.2995 60.0648 32.7201 60.0648C33.1976 60.0648 33.5443 59.6783 33.5443 59.144ZM35.1962 58.7518V60.3547H34.7983V57.3592H35.1678V58.0413C35.3724 57.5979 35.8158 57.3137 36.3103 57.3137V57.7287C35.6794 57.7059 35.1962 58.0981 35.1962 58.7518ZM38.3825 60.3547H37.9846V57.3592H38.354V57.9219C38.553 57.5354 38.9054 57.3024 39.3317 57.3024C39.7978 57.3024 40.1445 57.5581 40.2696 57.9958C40.4572 57.5752 40.8323 57.3024 41.3041 57.3024C41.9237 57.3024 42.3102 57.7116 42.3102 58.4108V60.3547H41.918V58.5415C41.918 57.9731 41.6565 57.6491 41.1734 57.6491C40.7186 57.6491 40.3492 58.047 40.3492 58.5983V60.3547H39.9513V58.5415C39.9513 57.9731 39.6898 57.6491 39.2067 57.6491C38.7462 57.6491 38.3825 58.047 38.3825 58.5983V60.3547ZM44.3235 60.4116C43.4823 60.4116 42.9252 59.7806 42.9252 58.8314C42.9252 57.956 43.505 57.3024 44.3008 57.3024C45.1534 57.3024 45.7104 57.9901 45.6422 58.9508H43.3231C43.3572 59.6613 43.7324 60.099 44.3178 60.099C44.818 60.099 45.1648 59.8204 45.2614 59.343H45.6536C45.5172 60.008 45.0113 60.4116 44.3235 60.4116ZM44.2951 57.6093C43.7551 57.6093 43.3743 58.0242 43.3231 58.6779H45.2273C45.1932 58.0072 44.8465 57.6093 44.2951 57.6093ZM48.5394 59.5192C48.5394 60.0705 48.096 60.4116 47.3571 60.4116C46.6124 60.4116 46.1577 60.0364 46.1009 59.4169H46.4817C46.5101 59.8432 46.8455 60.1103 47.3571 60.1103C47.8459 60.1103 48.1415 59.9227 48.1415 59.5817C48.1415 59.2861 47.971 59.1497 47.5162 59.0588L47.0842 58.9735C46.5158 58.8655 46.2146 58.587 46.2146 58.155C46.2146 57.6548 46.6579 57.3024 47.3116 57.3024C47.9994 57.3024 48.4541 57.6718 48.4996 58.2687H48.1244C48.0846 57.8537 47.7834 57.6093 47.3116 57.6093C46.891 57.6093 46.6011 57.8082 46.6011 58.1209C46.6011 58.4164 46.783 58.5586 47.2263 58.6438L47.6754 58.7291C48.2722 58.8428 48.5394 59.0929 48.5394 59.5192ZM51.4702 59.5192C51.4702 60.0705 51.0269 60.4116 50.2879 60.4116C49.5433 60.4116 49.0886 60.0364 49.0318 59.4169H49.4126C49.441 59.8432 49.7764 60.1103 50.2879 60.1103C50.7768 60.1103 51.0724 59.9227 51.0724 59.5817C51.0724 59.2861 50.9018 59.1497 50.4471 59.0588L50.0151 58.9735C49.4467 58.8655 49.1454 58.587 49.1454 58.155C49.1454 57.6548 49.5888 57.3024 50.2425 57.3024C50.9303 57.3024 51.385 57.6718 51.4305 58.2687H51.0553C51.0155 57.8537 50.7143 57.6093 50.2425 57.6093C49.8218 57.6093 49.532 57.8082 49.532 58.1209C49.532 58.4164 49.7139 58.5586 50.1572 58.6438L50.6063 58.7291C51.2031 58.8428 51.4702 59.0929 51.4702 59.5192ZM54.0032 60.3547V59.8091C53.827 60.1842 53.4632 60.4116 52.9971 60.4116C52.3776 60.4116 51.974 60.0648 51.974 59.5249C51.974 58.9394 52.4401 58.6324 53.3496 58.6324C53.5315 58.6324 53.6679 58.6438 53.9634 58.6666V58.4164C53.9634 57.9162 53.6963 57.6207 53.2416 57.6207C52.7527 57.6207 52.4458 57.9219 52.4401 58.4108H52.0763C52.0934 57.7457 52.5538 57.3024 53.2359 57.3024C53.935 57.3024 54.3443 57.7116 54.3443 58.4051V60.3547H54.0032ZM52.3548 59.5135C52.3548 59.8773 52.6334 60.1217 53.054 60.1217C53.611 60.1217 53.9634 59.7579 53.9634 59.1952V58.928C53.7077 58.9053 53.5315 58.8996 53.3666 58.8996C52.6845 58.8996 52.3548 59.0985 52.3548 59.5135ZM56.3124 61.5143C55.5507 61.5143 55.0733 61.1164 55.0392 60.4457H55.42C55.4541 60.9345 55.7724 61.196 56.3067 61.196C56.8979 61.196 57.2105 60.8834 57.2105 60.2922V59.667C57.0286 60.0876 56.6648 60.332 56.2215 60.332C55.4655 60.332 54.9596 59.7238 54.9596 58.8143C54.9596 57.9049 55.4598 57.3024 56.2158 57.3024C56.6648 57.3024 57.04 57.5581 57.2332 57.9958V57.3592H57.6027V60.2865C57.6027 61.0596 57.1309 61.5143 56.3124 61.5143ZM55.3575 58.8143C55.3575 59.5476 55.7042 59.991 56.2783 59.991C56.841 59.991 57.2162 59.5362 57.2162 58.8428C57.2162 58.1095 56.8467 57.6434 56.2783 57.6434C55.7099 57.6434 55.3575 58.0868 55.3575 58.8143ZM59.644 60.4116C58.8028 60.4116 58.2457 59.7806 58.2457 58.8314C58.2457 57.956 58.8255 57.3024 59.6213 57.3024C60.4739 57.3024 61.031 57.9901 60.9627 58.9508H58.6436C58.6777 59.6613 59.0529 60.099 59.6383 60.099C60.1385 60.099 60.4853 59.8204 60.5819 59.343H60.9741C60.8377 60.008 60.3318 60.4116 59.644 60.4116ZM59.6156 57.6093C59.0756 57.6093 58.6948 58.0242 58.6436 58.6779H60.5478C60.5137 58.0072 60.167 57.6093 59.6156 57.6093ZM63.2061 58.6097V60.3547H62.8082V56.2735H63.2061V57.9106C63.3937 57.5525 63.7347 57.3024 64.1667 57.3024C64.792 57.3024 65.1956 57.7002 65.1956 58.4108V60.3547H64.7977V58.5472C64.7977 57.9731 64.5362 57.6491 64.0474 57.6491C63.5813 57.6491 63.2061 58.0527 63.2061 58.6097ZM67.2099 60.4116C66.3687 60.4116 65.8116 59.7806 65.8116 58.8314C65.8116 57.956 66.3914 57.3024 67.1872 57.3024C68.0398 57.3024 68.5968 57.9901 68.5286 58.9508H66.2095C66.2436 59.6613 66.6188 60.099 67.2042 60.099C67.7044 60.099 68.0512 59.8204 68.1478 59.343H68.54C68.4036 60.008 67.8977 60.4116 67.2099 60.4116ZM67.1815 57.6093C66.6415 57.6093 66.2607 58.0242 66.2095 58.6779H68.1137C68.0796 58.0072 67.7328 57.6093 67.1815 57.6093ZM69.5841 58.7518V60.3547H69.1862V57.3592H69.5557V58.0413C69.7603 57.5979 70.2037 57.3137 70.6982 57.3137V57.7287C70.0672 57.7059 69.5841 58.0981 69.5841 58.7518ZM72.3556 60.4116C71.5143 60.4116 70.9573 59.7806 70.9573 58.8314C70.9573 57.956 71.5371 57.3024 72.3329 57.3024C73.1855 57.3024 73.7425 57.9901 73.6743 58.9508H71.3552C71.3893 59.6613 71.7644 60.099 72.3499 60.099C72.8501 60.099 73.1968 59.8204 73.2935 59.343H73.6857C73.5493 60.008 73.0434 60.4116 72.3556 60.4116ZM72.3272 57.6093C71.7872 57.6093 71.4063 58.0242 71.3552 58.6779H73.2594C73.2253 58.0072 72.8785 57.6093 72.3272 57.6093Z" fill="#919191"/>
<rect x="12.5793" y="99.8279" width="12.7893" height="12.7893" rx="2.84206" fill="#FAFAFA"/>
<path fill-rule="evenodd" clip-rule="evenodd" d="M16.9012 104.446C16.9012 104.028 16.9012 103.818 17.0313 103.688C17.1613 103.558 17.3707 103.558 17.7893 103.558H19.1449C19.8678 103.558 20.4538 104.155 20.4538 104.891C20.4538 105.626 19.8678 106.223 19.1449 106.223H16.9012V104.446Z" stroke="#484848" stroke-width="0.444073" stroke-linecap="round" stroke-linejoin="round"/>
<path d="M19.1004 106.223H19.4669C20.1754 106.223 20.7498 106.819 20.7498 107.555C20.7498 108.291 20.1754 108.887 19.4669 108.887H17.7893C17.3707 108.887 17.1613 108.887 17.0312 108.757C16.9012 108.627 16.9012 108.418 16.9012 107.999V106.223" stroke="#484848" stroke-width="0.444073" stroke-linecap="round" stroke-linejoin="round"/>
<rect x="28.2107" y="99.8279" width="12.7893" height="12.7893" rx="2.84206" fill="#FAFAFA"/>
<path d="M34.6056 103.854H36.6779" stroke="#484848" stroke-width="0.444073" stroke-linecap="round"/>
<path d="M33.4214 108.591L35.7898 103.854" stroke="#484848" stroke-width="0.444073" stroke-linecap="round"/>
<path d="M32.5332 108.591H34.6055" stroke="#484848" stroke-width="0.444073" stroke-linecap="round"/>
<rect x="43.842" y="99.8279" width="12.7893" height="12.7893" rx="2.84206" fill="#FAFAFA"/>
<path d="M48.3122 103.558V106.075C48.3122 107.138 49.1737 107.999 50.2365 107.999C51.2993 107.999 52.1608 107.138 52.1608 106.075V103.558" stroke="#484848" stroke-width="0.444073" stroke-linecap="round" stroke-linejoin="round"/>
<path d="M47.572 108.887H52.9008" stroke="#484848" stroke-width="0.444073" stroke-linecap="round"/>
<rect x="59.4733" y="99.8279" width="12.7893" height="12.7893" rx="2.84206" fill="#FAFAFA"/>
<path d="M65.2759 106.586C65.3178 106.655 65.3676 106.72 65.4251 106.78C65.7826 107.152 66.3275 107.21 66.7436 106.955C66.8207 106.907 66.8933 106.849 66.9596 106.78L67.9186 105.782C68.3423 105.341 68.3423 104.626 67.9186 104.185C67.4948 103.744 66.8079 103.744 66.3841 104.185L66.1729 104.405" stroke="#484848" stroke-width="0.444073" stroke-linecap="round"/>
<path d="M65.563 108.04L65.3517 108.26C64.928 108.701 64.241 108.701 63.8172 108.26C63.3935 107.819 63.3935 107.104 63.8172 106.663L64.7763 105.665C65.2 105.224 65.887 105.224 66.3107 105.665C66.3683 105.725 66.418 105.79 66.4599 105.859" stroke="#484848" stroke-width="0.444073" stroke-linecap="round"/>
<rect x="75.1047" y="99.8279" width="12.7893" height="12.7893" rx="2.84206" fill="#FAFAFA"/>
<path d="M83.2756 108.887C83.6404 108.887 83.9361 108.546 83.9361 108.126C83.9361 107.461 83.9066 107.018 84.3631 106.492C84.4921 106.343 84.4921 106.102 84.3631 105.954C83.9066 105.427 83.9361 104.985 83.9361 104.32C83.9361 103.899 83.6404 103.558 83.2756 103.558" stroke="#484848" stroke-width="0.444073" stroke-linecap="round" stroke-linejoin="round"/>
<path d="M79.7233 108.887C79.3585 108.887 79.0628 108.546 79.0628 108.126C79.0628 107.461 79.0924 107.018 78.6359 106.492C78.5069 106.343 78.5069 106.102 78.6359 105.954C79.0824 105.439 79.0628 104.991 79.0628 104.32C79.0628 103.899 79.3585 103.558 79.7233 103.558" stroke="#484848" stroke-width="0.444073" stroke-linecap="round" stroke-linejoin="round"/>
<path d="M8.6996 121.867H8.35642V118.803H7.69493V118.505H8.6996V121.867ZM10.4536 121.916C9.84186 121.916 9.37434 121.504 9.35445 120.932H9.69265C9.7225 121.344 10.0309 121.608 10.4536 121.608C10.9659 121.608 11.2593 121.29 11.2593 120.817C11.2593 120.395 10.941 120.056 10.4636 120.056C10.1403 120.056 9.8916 120.196 9.72747 120.454L9.45889 120.375L9.75234 118.505H11.4235V118.808H10.001L9.81699 120.021C10.0209 119.837 10.2497 119.758 10.5083 119.758C11.1947 119.758 11.6125 120.235 11.6125 120.812C11.6125 121.444 11.1748 121.916 10.4536 121.916ZM13.082 118.46C13.7534 118.46 14.2508 118.942 14.2508 119.559C14.2508 119.972 14.0866 120.23 13.8032 120.588L12.7935 121.867H12.3956L13.4053 120.584C13.271 120.638 13.1317 120.658 13.0074 120.658C12.3807 120.658 11.9082 120.225 11.9082 119.569C11.9082 118.942 12.4056 118.46 13.082 118.46ZM13.077 118.748C12.6045 118.748 12.2663 119.091 12.2663 119.559C12.2663 120.061 12.6045 120.395 13.077 120.395C13.5395 120.395 13.8927 120.106 13.8927 119.569C13.8927 119.091 13.5395 118.748 13.077 118.748ZM16.8316 121.921C16.1403 121.921 15.6578 121.359 15.6578 120.554C15.6578 119.758 16.1453 119.196 16.8316 119.196C17.4434 119.196 17.881 119.604 17.9855 120.26H17.6324C17.5528 119.783 17.2544 119.499 16.8316 119.499C16.3442 119.499 16.011 119.927 16.011 120.554C16.011 121.19 16.3442 121.618 16.8316 121.618C17.2593 121.618 17.5528 121.339 17.6324 120.852H17.9855C17.891 121.519 17.4483 121.921 16.8316 121.921ZM18.8956 120.34V121.867H18.5475V118.296H18.8956V119.728C19.0598 119.415 19.3582 119.196 19.7362 119.196C20.2833 119.196 20.6364 119.544 20.6364 120.166V121.867H20.2882V120.285C20.2882 119.783 20.0595 119.499 19.6317 119.499C19.2239 119.499 18.8956 119.852 18.8956 120.34ZM22.9809 121.867V121.389C22.8267 121.717 22.5084 121.916 22.1005 121.916C21.5584 121.916 21.2053 121.613 21.2053 121.141C21.2053 120.628 21.6131 120.36 22.4089 120.36C22.5681 120.36 22.6874 120.37 22.946 120.39V120.171C22.946 119.733 22.7123 119.474 22.3144 119.474C21.8867 119.474 21.6181 119.738 21.6131 120.166H21.2948C21.3097 119.584 21.7126 119.196 22.3094 119.196C22.9212 119.196 23.2793 119.554 23.2793 120.161V121.867H22.9809ZM21.5385 121.131C21.5385 121.449 21.7822 121.663 22.1503 121.663C22.6377 121.663 22.946 121.344 22.946 120.852V120.618C22.7222 120.598 22.5681 120.593 22.4238 120.593C21.827 120.593 21.5385 120.768 21.5385 121.131ZM24.3598 120.464V121.867H24.0116V119.246H24.3349V119.842C24.514 119.454 24.9019 119.206 25.3346 119.206V119.569C24.7826 119.549 24.3598 119.892 24.3598 120.464ZM27.3716 121.867V121.389C27.2175 121.717 26.8991 121.916 26.4913 121.916C25.9492 121.916 25.5961 121.613 25.5961 121.141C25.5961 120.628 26.0039 120.36 26.7997 120.36C26.9588 120.36 27.0782 120.37 27.3368 120.39V120.171C27.3368 119.733 27.1031 119.474 26.7052 119.474C26.2774 119.474 26.0089 119.738 26.0039 120.166H25.6856C25.7005 119.584 26.1034 119.196 26.7002 119.196C27.3119 119.196 27.67 119.554 27.67 120.161V121.867H27.3716ZM25.9293 121.131C25.9293 121.449 26.173 121.663 26.541 121.663C27.0285 121.663 27.3368 121.344 27.3368 120.852V120.618C27.113 120.598 26.9588 120.593 26.8146 120.593C26.2178 120.593 25.9293 120.768 25.9293 121.131ZM29.3822 121.921C28.6909 121.921 28.2084 121.359 28.2084 120.554C28.2084 119.758 28.6959 119.196 29.3822 119.196C29.994 119.196 30.4316 119.604 30.5361 120.26H30.183C30.1034 119.783 29.805 119.499 29.3822 119.499C28.8948 119.499 28.5616 119.927 28.5616 120.554C28.5616 121.19 28.8948 121.618 29.3822 121.618C29.8099 121.618 30.1034 121.339 30.183 120.852H30.5361C30.4416 121.519 29.9989 121.921 29.3822 121.921ZM32.4459 121.533V121.842C32.3116 121.897 32.1972 121.916 32.0679 121.916C31.6352 121.916 31.302 121.693 31.302 121.126V119.539H30.6853V119.246H31.302V118.47H31.6501V119.246H32.4708V119.539H31.6501V121.051C31.6501 121.459 31.8491 121.598 32.1376 121.598C32.247 121.598 32.3365 121.578 32.4459 121.533ZM33.9441 121.916C33.2081 121.916 32.7206 121.364 32.7206 120.534C32.7206 119.768 33.2279 119.196 33.9243 119.196C34.6703 119.196 35.1577 119.798 35.098 120.638H33.0688C33.0986 121.26 33.4269 121.643 33.9392 121.643C34.3769 121.643 34.6802 121.399 34.7648 120.981H35.108C34.9886 121.563 34.546 121.916 33.9441 121.916ZM33.9193 119.464C33.4468 119.464 33.1136 119.828 33.0688 120.399H34.735C34.7051 119.813 34.4017 119.464 33.9193 119.464ZM36.0216 120.464V121.867H35.6734V119.246H35.9967V119.842C36.1757 119.454 36.5637 119.206 36.9964 119.206V119.569C36.4443 119.549 36.0216 119.892 36.0216 120.464ZM39.3815 121.136C39.3815 121.618 38.9936 121.916 38.347 121.916C37.6955 121.916 37.2976 121.588 37.2479 121.046H37.5811C37.606 121.419 37.8994 121.653 38.347 121.653C38.7748 121.653 39.0334 121.489 39.0334 121.19C39.0334 120.932 38.8842 120.812 38.4863 120.733L38.1083 120.658C37.6109 120.564 37.3473 120.32 37.3473 119.942C37.3473 119.504 37.7353 119.196 38.3072 119.196C38.9091 119.196 39.3069 119.519 39.3467 120.041H39.0185C38.9837 119.678 38.7201 119.464 38.3072 119.464C37.9392 119.464 37.6855 119.639 37.6855 119.912C37.6855 120.171 37.8447 120.295 38.2326 120.37L38.6256 120.444C39.1478 120.544 39.3815 120.763 39.3815 121.136ZM41.374 120.464V121.867H41.0259V119.246H41.3492V119.842C41.5282 119.454 41.9161 119.206 42.3489 119.206V119.569C41.7968 119.549 41.374 119.892 41.374 120.464ZM43.7991 121.916C43.063 121.916 42.5756 121.364 42.5756 120.534C42.5756 119.768 43.0829 119.196 43.7792 119.196C44.5252 119.196 45.0126 119.798 44.953 120.638H42.9237C42.9536 121.26 43.2818 121.643 43.7941 121.643C44.2318 121.643 44.5352 121.399 44.6197 120.981H44.9629C44.8435 121.563 44.4009 121.916 43.7991 121.916ZM43.7742 119.464C43.3017 119.464 42.9685 119.828 42.9237 120.399H44.5899C44.5601 119.813 44.2567 119.464 43.7742 119.464ZM45.8765 121.867H45.5284V119.246H45.8516V119.738C46.0257 119.4 46.3341 119.196 46.7071 119.196C47.1149 119.196 47.4183 119.42 47.5277 119.803C47.6919 119.435 48.0201 119.196 48.4329 119.196C48.9751 119.196 49.3133 119.554 49.3133 120.166V121.867H48.9701V120.28C48.9701 119.783 48.7413 119.499 48.3185 119.499C47.9207 119.499 47.5974 119.847 47.5974 120.33V121.867H47.2492V120.28C47.2492 119.783 47.0204 119.499 46.5977 119.499C46.1948 119.499 45.8765 119.847 45.8765 120.33V121.867ZM51.6568 121.867V121.389C51.5027 121.717 51.1844 121.916 50.7765 121.916C50.2344 121.916 49.8813 121.613 49.8813 121.141C49.8813 120.628 50.2891 120.36 51.0849 120.36C51.244 120.36 51.3634 120.37 51.622 120.39V120.171C51.622 119.733 51.3883 119.474 50.9904 119.474C50.5627 119.474 50.2941 119.738 50.2891 120.166H49.9708C49.9857 119.584 50.3886 119.196 50.9854 119.196C51.5972 119.196 51.9553 119.554 51.9553 120.161V121.867H51.6568ZM50.2145 121.131C50.2145 121.449 50.4582 121.663 50.8263 121.663C51.3137 121.663 51.622 121.344 51.622 120.852V120.618C51.3982 120.598 51.244 120.593 51.0998 120.593C50.503 120.593 50.2145 120.768 50.2145 121.131ZM53.1402 118.639C53.1402 118.793 53.0258 118.902 52.8567 118.902C52.6926 118.902 52.5782 118.793 52.5782 118.639C52.5782 118.49 52.6926 118.38 52.8567 118.38C53.0258 118.38 53.1402 118.49 53.1402 118.639ZM53.0358 121.867H52.6876V119.246H53.0358V121.867ZM54.1383 120.34V121.867H53.7902V119.246H54.1135V119.738C54.2826 119.415 54.6009 119.196 54.9789 119.196C55.526 119.196 55.8791 119.544 55.8791 120.166V121.867H55.5309V120.285C55.5309 119.783 55.3022 119.499 54.8744 119.499C54.4666 119.499 54.1383 119.852 54.1383 120.34ZM57.0647 118.639C57.0647 118.793 56.9503 118.902 56.7812 118.902C56.6171 118.902 56.5027 118.793 56.5027 118.639C56.5027 118.49 56.6171 118.38 56.7812 118.38C56.9503 118.38 57.0647 118.49 57.0647 118.639ZM56.9603 121.867H56.6121V119.246H56.9603V121.867ZM58.0628 120.34V121.867H57.7147V119.246H58.038V119.738C58.2071 119.415 58.5254 119.196 58.9034 119.196C59.4505 119.196 59.8036 119.544 59.8036 120.166V121.867H59.4554V120.285C59.4554 119.783 59.2267 119.499 58.7989 119.499C58.3911 119.499 58.0628 119.852 58.0628 120.34ZM61.5264 122.881C60.8599 122.881 60.4421 122.533 60.4123 121.946H60.7455C60.7753 122.374 61.0539 122.603 61.5214 122.603C62.0386 122.603 62.3122 122.329 62.3122 121.812V121.265C62.153 121.633 61.8347 121.847 61.4468 121.847C60.7853 121.847 60.3426 121.315 60.3426 120.519C60.3426 119.723 60.7803 119.196 61.4418 119.196C61.8347 119.196 62.163 119.42 62.3321 119.803V119.246H62.6554V121.807C62.6554 122.483 62.2426 122.881 61.5264 122.881ZM60.6908 120.519C60.6908 121.16 60.9942 121.548 61.4965 121.548C61.9889 121.548 62.3172 121.15 62.3172 120.544C62.3172 119.902 61.9939 119.494 61.4965 119.494C60.9992 119.494 60.6908 119.882 60.6908 120.519ZM64.9139 122.827H64.5757V118.296H64.9139V122.827ZM67.5475 121.867H67.2044V118.803H66.5429V118.505H67.5475V121.867ZM69.7392 121.867H69.391V119.246H69.7143V119.738C69.8884 119.4 70.1967 119.196 70.5698 119.196C70.9776 119.196 71.281 119.42 71.3904 119.803C71.5545 119.435 71.8828 119.196 72.2956 119.196C72.8377 119.196 73.1759 119.554 73.1759 120.166V121.867H72.8327V120.28C72.8327 119.783 72.604 119.499 72.1812 119.499C71.7833 119.499 71.46 119.847 71.46 120.33V121.867H71.1119V120.28C71.1119 119.783 70.8831 119.499 70.4603 119.499C70.0575 119.499 69.7392 119.847 69.7392 120.33V121.867ZM74.9376 121.916C74.2015 121.916 73.7141 121.364 73.7141 120.534C73.7141 119.768 74.2214 119.196 74.9177 119.196C75.6637 119.196 76.1512 119.798 76.0915 120.638H74.0622C74.0921 121.26 74.4203 121.643 74.9326 121.643C75.3703 121.643 75.6737 121.399 75.7582 120.981H76.1014C75.9821 121.563 75.5394 121.916 74.9376 121.916ZM74.9127 119.464C74.4402 119.464 74.107 119.828 74.0622 120.399H75.7284C75.6986 119.813 75.3952 119.464 74.9127 119.464ZM78.6265 121.136C78.6265 121.618 78.2385 121.916 77.592 121.916C76.9404 121.916 76.5425 121.588 76.4928 121.046H76.826C76.8509 121.419 77.1443 121.653 77.592 121.653C78.0197 121.653 78.2783 121.489 78.2783 121.19C78.2783 120.932 78.1291 120.812 77.7312 120.733L77.3532 120.658C76.8559 120.564 76.5923 120.32 76.5923 119.942C76.5923 119.504 76.9802 119.196 77.5522 119.196C78.154 119.196 78.5519 119.519 78.5916 120.041H78.2634C78.2286 119.678 77.965 119.464 77.5522 119.464C77.1841 119.464 76.9305 119.639 76.9305 119.912C76.9305 120.171 77.0896 120.295 77.4776 120.37L77.8705 120.444C78.3927 120.544 78.6265 120.763 78.6265 121.136ZM81.191 121.136C81.191 121.618 80.803 121.916 80.1565 121.916C79.5049 121.916 79.107 121.588 79.0573 121.046H79.3905C79.4154 121.419 79.7088 121.653 80.1565 121.653C80.5842 121.653 80.8428 121.489 80.8428 121.19C80.8428 120.932 80.6936 120.812 80.2957 120.733L79.9177 120.658C79.4204 120.564 79.1568 120.32 79.1568 119.942C79.1568 119.504 79.5447 119.196 80.1167 119.196C80.7185 119.196 81.1164 119.519 81.1562 120.041H80.8279C80.7931 119.678 80.5295 119.464 80.1167 119.464C79.7486 119.464 79.495 119.639 79.495 119.912C79.495 120.171 79.6541 120.295 80.0421 120.37L80.435 120.444C80.9572 120.544 81.191 120.763 81.191 121.136ZM83.4073 121.867V121.389C83.2532 121.717 82.9349 121.916 82.527 121.916C81.9849 121.916 81.6318 121.613 81.6318 121.141C81.6318 120.628 82.0396 120.36 82.8354 120.36C82.9945 120.36 83.1139 120.37 83.3725 120.39V120.171C83.3725 119.733 83.1388 119.474 82.7409 119.474C82.3132 119.474 82.0446 119.738 82.0396 120.166H81.7213C81.7362 119.584 82.1391 119.196 82.7359 119.196C83.3477 119.196 83.7058 119.554 83.7058 120.161V121.867H83.4073ZM81.965 121.131C81.965 121.449 82.2087 121.663 82.5768 121.663C83.0642 121.663 83.3725 121.344 83.3725 120.852V120.618C83.1487 120.598 82.9945 120.593 82.8503 120.593C82.2535 120.593 81.965 120.768 81.965 121.131ZM85.4279 122.881C84.7614 122.881 84.3436 122.533 84.3138 121.946H84.647C84.6769 122.374 84.9554 122.603 85.4229 122.603C85.9402 122.603 86.2137 122.329 86.2137 121.812V121.265C86.0546 121.633 85.7362 121.847 85.3483 121.847C84.6868 121.847 84.2442 121.315 84.2442 120.519C84.2442 119.723 84.6818 119.196 85.3433 119.196C85.7362 119.196 86.0645 119.42 86.2336 119.803V119.246H86.5569V121.807C86.5569 122.483 86.1441 122.881 85.4279 122.881ZM84.5923 120.519C84.5923 121.16 84.8957 121.548 85.398 121.548C85.8904 121.548 86.2187 121.15 86.2187 120.544C86.2187 119.902 85.8954 119.494 85.398 119.494C84.9007 119.494 84.5923 119.882 84.5923 120.519ZM88.343 121.916C87.6069 121.916 87.1195 121.364 87.1195 120.534C87.1195 119.768 87.6268 119.196 88.3231 119.196C89.0692 119.196 89.5566 119.798 89.4969 120.638H87.4677C87.4975 121.26 87.8258 121.643 88.3381 121.643C88.7757 121.643 89.0791 121.399 89.1637 120.981H89.5069C89.3875 121.563 88.9448 121.916 88.343 121.916ZM88.3182 119.464C87.8457 119.464 87.5124 119.828 87.4677 120.399H89.1338C89.104 119.813 88.8006 119.464 88.3182 119.464ZM91.077 122.827H90.7487C90.3409 122.205 90.1171 121.384 90.1171 120.559C90.1171 119.738 90.3409 118.917 90.7487 118.296H91.077C90.6642 118.917 90.4652 119.738 90.4652 120.559C90.4652 121.384 90.6642 122.205 91.077 122.827ZM93.5424 121.136C93.5424 121.618 93.1545 121.916 92.5079 121.916C91.8564 121.916 91.4585 121.588 91.4088 121.046H91.742C91.7669 121.419 92.0603 121.653 92.5079 121.653C92.9357 121.653 93.1943 121.489 93.1943 121.19C93.1943 120.932 93.0451 120.812 92.6472 120.733L92.2692 120.658C91.7718 120.564 91.5082 120.32 91.5082 119.942C91.5082 119.504 91.8962 119.196 92.4681 119.196C93.0699 119.196 93.4678 119.519 93.5076 120.041H93.1794C93.1446 119.678 92.8809 119.464 92.4681 119.464C92.1001 119.464 91.8464 119.639 91.8464 119.912C91.8464 120.171 92.0056 120.295 92.3935 120.37L92.7865 120.444C93.3087 120.544 93.5424 120.763 93.5424 121.136ZM94.2269 122.827H93.8987C94.3065 122.205 94.5104 121.384 94.5104 120.559C94.5104 119.738 94.3065 118.917 93.8987 118.296H94.2269C94.6348 118.917 94.8586 119.738 94.8586 120.559C94.8586 121.384 94.6348 122.205 94.2269 122.827Z" fill="#767676"/>
<path d="M12.0463 141.748L10.9663 137.748L9.87918 141.748H9.0763L7.74763 136.647H8.51499L9.4955 140.576L10.5684 136.647H11.3784L12.437 140.583L13.4176 136.647H14.1849L12.8562 141.748H12.0463ZM15.544 139.624V141.748H14.8264V136.647H15.544V138.586C15.7927 138.181 16.1764 137.911 16.6951 137.911C17.4695 137.911 17.9811 138.409 17.9811 139.311V141.748H17.2635V139.553C17.2635 138.906 16.9793 138.544 16.4464 138.544C15.9561 138.544 15.544 138.956 15.544 139.624ZM20.5114 141.819C19.4457 141.819 18.6641 140.981 18.6641 139.865C18.6641 138.75 19.4457 137.911 20.5114 137.911C21.5772 137.911 22.3588 138.75 22.3588 139.865C22.3588 140.981 21.5772 141.819 20.5114 141.819ZM20.5114 141.187C21.1296 141.187 21.6198 140.689 21.6198 139.865C21.6198 139.041 21.1296 138.551 20.5114 138.551C19.8933 138.551 19.4101 139.041 19.4101 139.865C19.4101 140.689 19.8933 141.187 20.5114 141.187ZM24.3052 139.865C24.3052 138.721 24.9589 137.911 25.9749 137.911C26.4794 137.911 26.9199 138.167 27.1828 138.629V136.647H27.9004V141.748H27.2325V141.073C26.9625 141.549 26.5078 141.819 25.9749 141.819C24.9589 141.819 24.3052 140.995 24.3052 139.865ZM25.0513 139.865C25.0513 140.704 25.4918 141.18 26.117 141.18C26.7281 141.18 27.1828 140.682 27.1828 139.851C27.1828 139.005 26.7139 138.544 26.117 138.544C25.4918 138.544 25.0513 139.013 25.0513 139.865ZM30.4753 141.819C29.4095 141.819 28.628 140.981 28.628 139.865C28.628 138.75 29.4095 137.911 30.4753 137.911C31.5411 137.911 32.3227 138.75 32.3227 139.865C32.3227 140.981 31.5411 141.819 30.4753 141.819ZM30.4753 141.187C31.0935 141.187 31.5837 140.689 31.5837 139.865C31.5837 139.041 31.0935 138.551 30.4753 138.551C29.8572 138.551 29.374 139.041 29.374 139.865C29.374 140.689 29.8572 141.187 30.4753 141.187ZM37.6654 137.982L35.7825 143.119H35.0009L35.5409 141.698L34.0559 137.982H34.8304L35.9246 140.853L36.9406 137.982H37.6654ZM39.6343 141.819C38.5685 141.819 37.787 140.981 37.787 139.865C37.787 138.75 38.5685 137.911 39.6343 137.911C40.7001 137.911 41.4817 138.75 41.4817 139.865C41.4817 140.981 40.7001 141.819 39.6343 141.819ZM39.6343 141.187C40.2525 141.187 40.7427 140.689 40.7427 139.865C40.7427 139.041 40.2525 138.551 39.6343 138.551C39.0162 138.551 38.533 139.041 38.533 139.865C38.533 140.689 39.0162 141.187 39.6343 141.187ZM44.565 140.199V137.982H45.2826V141.748H44.6148V141.151C44.4158 141.542 43.9753 141.819 43.4637 141.819C42.7035 141.819 42.1777 141.371 42.1777 140.405V137.982H42.8953V140.263C42.8953 140.917 43.2221 141.187 43.6911 141.187C44.1742 141.187 44.565 140.789 44.565 140.199ZM50.8762 141.748L50.0236 138.949L49.1638 141.748H48.4391L47.352 137.982H48.0554L48.8157 140.725L49.6683 137.982H50.3788L51.2172 140.732L51.9775 137.982H52.688L51.5938 141.748H50.8762ZM55.4362 141.748V141.165C55.2017 141.585 54.7825 141.819 54.2283 141.819C53.4467 141.819 52.9352 141.371 52.9352 140.682C52.9352 139.943 53.5249 139.56 54.6475 139.56C54.8678 139.56 55.0454 139.567 55.3509 139.602V139.325C55.3509 138.785 55.0596 138.48 54.5623 138.48C54.0365 138.48 53.7167 138.792 53.6954 139.318H53.0418C53.0773 138.473 53.6812 137.911 54.5623 137.911C55.493 137.911 56.033 138.437 56.033 139.332V141.748H55.4362ZM53.6173 140.661C53.6173 141.052 53.9086 141.308 54.3704 141.308C54.9744 141.308 55.3509 140.931 55.3509 140.355V140.05C55.0738 140.014 54.8749 140.007 54.6901 140.007C53.9725 140.007 53.6173 140.22 53.6173 140.661ZM57.7101 139.624V141.748H56.9925V137.982H57.6604V138.608C57.9162 138.188 58.3425 137.911 58.8612 137.911C59.6356 137.911 60.1472 138.409 60.1472 139.311V141.748H59.4296V139.553C59.4296 138.906 59.1454 138.544 58.6125 138.544C58.1222 138.544 57.7101 138.956 57.7101 139.624ZM63.2107 141.052V141.684C62.9905 141.784 62.7986 141.819 62.5713 141.819C61.875 141.819 61.3918 141.443 61.3918 140.611V138.593H60.5605V137.982H61.3918V136.867H62.1094V137.982H63.2463V138.593H62.1094V140.448C62.1094 140.966 62.3581 141.151 62.7418 141.151C62.9123 141.151 63.0615 141.123 63.2107 141.052ZM67.5404 141.052V141.684C67.3202 141.784 67.1283 141.819 66.901 141.819C66.2047 141.819 65.7215 141.443 65.7215 140.611V138.593H64.8902V137.982H65.7215V136.867H66.4391V137.982H67.576V138.593H66.4391V140.448C66.4391 140.966 66.6878 141.151 67.0715 141.151C67.242 141.151 67.3912 141.123 67.5404 141.052ZM69.7341 141.819C68.6683 141.819 67.8868 140.981 67.8868 139.865C67.8868 138.75 68.6683 137.911 69.7341 137.911C70.7999 137.911 71.5814 138.75 71.5814 139.865C71.5814 140.981 70.7999 141.819 69.7341 141.819ZM69.7341 141.187C70.3523 141.187 70.8425 140.689 70.8425 139.865C70.8425 139.041 70.3523 138.551 69.7341 138.551C69.116 138.551 68.6328 139.041 68.6328 139.865C68.6328 140.689 69.116 141.187 69.7341 141.187ZM76.782 140.625C76.782 141.364 76.2065 141.819 75.2047 141.819C74.21 141.819 73.6202 141.329 73.5492 140.519H74.2384C74.2668 140.988 74.6434 141.279 75.2189 141.279C75.7234 141.279 76.0573 141.101 76.0573 140.746C76.0573 140.434 75.8655 140.299 75.3965 140.206L74.7855 140.093C74.0892 139.958 73.6984 139.602 73.6984 139.034C73.6984 138.373 74.2739 137.911 75.1478 137.911C76.0502 137.911 76.6612 138.394 76.7252 139.169H76.036C75.9934 138.714 75.6594 138.451 75.155 138.451C74.7002 138.451 74.3947 138.643 74.3947 138.97C74.3947 139.275 74.5865 139.418 75.0413 139.503L75.6807 139.624C76.4268 139.759 76.782 140.085 76.782 140.625ZM79.1145 141.819C78.0274 141.819 77.2955 141.03 77.2955 139.844C77.2955 138.728 78.0558 137.911 79.0932 137.911C80.2158 137.911 80.9618 138.821 80.8339 140.043H78.0274C78.0842 140.81 78.4679 141.258 79.1003 141.258C79.6331 141.258 80.0026 140.966 80.1234 140.476H80.8339C80.6492 141.315 80.0026 141.819 79.1145 141.819ZM79.0789 138.451C78.5034 138.451 78.1126 138.863 78.0345 139.567H80.0737C80.0381 138.87 79.6616 138.451 79.0789 138.451ZM82.3145 139.624V141.748H81.5969V137.982H82.2648V138.608C82.5206 138.188 82.9469 137.911 83.4656 137.911C84.24 137.911 84.7516 138.409 84.7516 139.311V141.748H84.034V139.553C84.034 138.906 83.7498 138.544 83.2169 138.544C82.7266 138.544 82.3145 138.956 82.3145 139.624ZM85.4346 139.865C85.4346 138.721 86.0882 137.911 87.1043 137.911C87.6087 137.911 88.0493 138.167 88.3122 138.629V136.647H89.0298V141.748H88.3619V141.073C88.0919 141.549 87.6372 141.819 87.1043 141.819C86.0882 141.819 85.4346 140.995 85.4346 139.865ZM86.1806 139.865C86.1806 140.704 86.6211 141.18 87.2464 141.18C87.8574 141.18 88.3122 140.682 88.3122 139.851C88.3122 139.005 87.8432 138.544 87.2464 138.544C86.6211 138.544 86.1806 139.013 86.1806 139.865ZM92.3861 137.108C92.3861 137.378 92.173 137.584 91.8675 137.584C91.5619 137.584 91.3417 137.378 91.3417 137.108C91.3417 136.831 91.5619 136.632 91.8675 136.632C92.173 136.632 92.3861 136.831 92.3861 137.108ZM92.2298 141.748H91.5122V137.982H92.2298V141.748ZM95.3505 141.052V141.684C95.1302 141.784 94.9384 141.819 94.711 141.819C94.0147 141.819 93.5316 141.443 93.5316 140.611V138.593H92.7003V137.982H93.5316V136.867H94.2492V137.982H95.386V138.593H94.2492V140.448C94.2492 140.966 94.4979 141.151 94.8815 141.151C95.0521 141.151 95.2013 141.123 95.3505 141.052ZM99.6802 141.052V141.684C99.4599 141.784 99.2681 141.819 99.0407 141.819C98.3444 141.819 97.8613 141.443 97.8613 140.611V138.593H97.03V137.982H97.8613V136.867H98.5789V137.982H99.7157V138.593H98.5789V140.448C98.5789 140.966 98.8276 141.151 99.2113 141.151C99.3818 141.151 99.531 141.123 99.6802 141.052ZM101.874 141.819C100.808 141.819 100.027 140.981 100.027 139.865C100.027 138.75 100.808 137.911 101.874 137.911C102.94 137.911 103.721 138.75 103.721 139.865C103.721 140.981 102.94 141.819 101.874 141.819ZM101.874 141.187C102.492 141.187 102.982 140.689 102.982 139.865C102.982 139.041 102.492 138.551 101.874 138.551C101.256 138.551 100.773 139.041 100.773 139.865C100.773 140.689 101.256 141.187 101.874 141.187ZM104.765 137.961H104.083C104.112 137.144 104.772 136.575 105.668 136.575C106.591 136.575 107.21 137.123 107.21 137.862C107.21 138.295 106.968 138.622 106.577 138.956L106.158 139.297C105.81 139.595 105.732 139.787 105.789 140.348H105.305C105.149 139.702 105.156 139.382 105.568 139.02L105.995 138.643C106.265 138.402 106.421 138.224 106.421 137.925C106.421 137.52 106.108 137.215 105.597 137.215C105.114 137.215 104.787 137.52 104.765 137.961ZM106.101 141.251C106.101 141.556 105.852 141.784 105.533 141.784C105.213 141.784 104.964 141.556 104.964 141.251C104.964 140.931 105.206 140.704 105.533 140.704C105.86 140.704 106.101 140.931 106.101 141.251Z" fill="#1A1A1A"/>
<path d="M10.5101 150.535C10.5101 151.102 10.0476 151.574 9.21698 151.574C8.38639 151.574 7.89897 151.112 7.86416 150.435H8.24215C8.27697 150.943 8.59528 151.271 9.21201 151.271C9.71932 151.271 10.1172 151.012 10.1172 150.584C10.1172 150.216 9.90831 150.047 9.401 149.943L8.94841 149.853C8.47591 149.759 7.97855 149.54 7.97855 148.918C7.97855 148.346 8.48089 147.904 9.19211 147.904C9.88842 147.904 10.4256 148.341 10.4654 149.023H10.0824C10.0575 148.55 9.70937 148.207 9.19709 148.207C8.64999 148.207 8.35655 148.54 8.35655 148.898C8.35655 149.321 8.71465 149.45 9.11253 149.53L9.56513 149.624C10.1669 149.749 10.5101 149.998 10.5101 150.535ZM12.209 151.574C11.4729 151.574 10.9855 151.022 10.9855 150.191C10.9855 149.426 11.4928 148.854 12.1891 148.854C12.9351 148.854 13.4226 149.455 13.3629 150.296H11.3336C11.3635 150.918 11.6917 151.301 12.204 151.301C12.6417 151.301 12.9451 151.057 13.0296 150.639H13.3728C13.2535 151.221 12.8108 151.574 12.209 151.574ZM12.1841 149.122C11.7116 149.122 11.3784 149.485 11.3336 150.057H12.9998C12.97 149.47 12.6666 149.122 12.1841 149.122ZM14.2864 151.524H13.9383V147.953H14.2864V151.524ZM16.0703 151.574C15.3343 151.574 14.8468 151.022 14.8468 150.191C14.8468 149.426 15.3541 148.854 16.0505 148.854C16.7965 148.854 17.2839 149.455 17.2242 150.296H15.195C15.2248 150.918 15.5531 151.301 16.0654 151.301C16.5031 151.301 16.8064 151.057 16.891 150.639H17.2342C17.1148 151.221 16.6722 151.574 16.0703 151.574ZM16.0455 149.122C15.573 149.122 15.2398 149.485 15.195 150.057H16.8612C16.8313 149.47 16.5279 149.122 16.0455 149.122ZM18.7308 151.579C18.0395 151.579 17.5571 151.017 17.5571 150.211C17.5571 149.416 18.0445 148.854 18.7308 148.854C19.3426 148.854 19.7803 149.261 19.8847 149.918H19.5316C19.452 149.44 19.1536 149.157 18.7308 149.157C18.2434 149.157 17.9102 149.585 17.9102 150.211C17.9102 150.848 18.2434 151.276 18.7308 151.276C19.1586 151.276 19.452 150.997 19.5316 150.51H19.8847C19.7902 151.176 19.3476 151.579 18.7308 151.579ZM21.7945 151.191V151.5C21.6603 151.554 21.5459 151.574 21.4166 151.574C20.9838 151.574 20.6506 151.35 20.6506 150.783V149.197H20.0339V148.903H20.6506V148.127H20.9988V148.903H21.8194V149.197H20.9988V150.709C20.9988 151.117 21.1977 151.256 21.4862 151.256C21.5956 151.256 21.6851 151.236 21.7945 151.191ZM24.365 151.579C23.6737 151.579 23.1912 151.017 23.1912 150.211C23.1912 149.416 23.6787 148.854 24.365 148.854C24.9768 148.854 25.4144 149.261 25.5189 149.918H25.1658C25.0862 149.44 24.7878 149.157 24.365 149.157C23.8776 149.157 23.5444 149.585 23.5444 150.211C23.5444 150.848 23.8776 151.276 24.365 151.276C24.7927 151.276 25.0862 150.997 25.1658 150.51H25.5189C25.4244 151.176 24.9817 151.579 24.365 151.579ZM27.0963 151.574C26.3751 151.574 25.8529 151.002 25.8529 150.211C25.8529 149.426 26.3751 148.859 27.0963 148.859C27.8224 148.859 28.3447 149.426 28.3447 150.211C28.3447 151.002 27.8224 151.574 27.0963 151.574ZM27.0963 151.271C27.6086 151.271 27.9916 150.863 27.9916 150.211C27.9916 149.57 27.6086 149.162 27.0963 149.162C26.589 149.162 26.206 149.57 26.206 150.211C26.206 150.863 26.589 151.271 27.0963 151.271ZM29.2558 149.998V151.524H28.9077V148.903H29.231V149.396C29.4001 149.072 29.7184 148.854 30.0964 148.854C30.6435 148.854 30.9966 149.202 30.9966 149.823V151.524H30.6484V149.943C30.6484 149.44 30.4196 149.157 29.9919 149.157C29.5841 149.157 29.2558 149.51 29.2558 149.998ZM33.0726 151.191V151.5C32.9383 151.554 32.8239 151.574 32.6946 151.574C32.2619 151.574 31.9287 151.35 31.9287 150.783V149.197H31.3119V148.903H31.9287V148.127H32.2768V148.903H33.0975V149.197H32.2768V150.709C32.2768 151.117 32.4758 151.256 32.7642 151.256C32.8737 151.256 32.9632 151.236 33.0726 151.191ZM35.2353 151.524V151.047C35.0811 151.375 34.7628 151.574 34.355 151.574C33.8129 151.574 33.4597 151.271 33.4597 150.798C33.4597 150.286 33.8676 150.017 34.6633 150.017C34.8225 150.017 34.9419 150.027 35.2005 150.047V149.828C35.2005 149.391 34.9667 149.132 34.5688 149.132C34.1411 149.132 33.8725 149.396 33.8676 149.823H33.5493C33.5642 149.242 33.967 148.854 34.5639 148.854C35.1756 148.854 35.5337 149.212 35.5337 149.818V151.524H35.2353ZM33.793 150.788C33.793 151.107 34.0367 151.32 34.4047 151.32C34.8921 151.32 35.2005 151.002 35.2005 150.51V150.276C34.9767 150.256 34.8225 150.251 34.6783 150.251C34.0814 150.251 33.793 150.425 33.793 150.788ZM37.2459 151.579C36.5546 151.579 36.0721 151.017 36.0721 150.211C36.0721 149.416 36.5595 148.854 37.2459 148.854C37.8576 148.854 38.2953 149.261 38.3998 149.918H38.0466C37.9671 149.44 37.6686 149.157 37.2459 149.157C36.7585 149.157 36.4252 149.585 36.4252 150.211C36.4252 150.848 36.7585 151.276 37.2459 151.276C37.6736 151.276 37.9671 150.997 38.0466 150.51H38.3998C38.3053 151.176 37.8626 151.579 37.2459 151.579ZM40.3096 151.191V151.5C40.1753 151.554 40.0609 151.574 39.9316 151.574C39.4989 151.574 39.1657 151.35 39.1657 150.783V149.197H38.5489V148.903H39.1657V148.127H39.5138V148.903H40.3345V149.197H39.5138V150.709C39.5138 151.117 39.7128 151.256 40.0012 151.256C40.1107 151.256 40.2002 151.236 40.3096 151.191ZM42.8156 150.793C42.8156 151.276 42.4277 151.574 41.7811 151.574C41.1295 151.574 40.7317 151.246 40.6819 150.704H41.0152C41.04 151.077 41.3335 151.311 41.7811 151.311C42.2088 151.311 42.4674 151.146 42.4674 150.848C42.4674 150.589 42.3182 150.47 41.9203 150.39L41.5424 150.316C41.045 150.221 40.7814 149.978 40.7814 149.6C40.7814 149.162 41.1693 148.854 41.7413 148.854C42.3431 148.854 42.741 149.177 42.7808 149.699H42.4525C42.4177 149.336 42.1541 149.122 41.7413 149.122C41.3733 149.122 41.1196 149.296 41.1196 149.57C41.1196 149.828 41.2788 149.953 41.6667 150.027L42.0596 150.102C42.5818 150.201 42.8156 150.42 42.8156 150.793ZM46.8622 150.211C46.8622 151.017 46.4096 151.574 45.7083 151.574C45.3054 151.574 44.9672 151.355 44.7832 150.972V151.524H44.4599V147.953H44.8081V149.455C44.9772 149.072 45.3104 148.854 45.7083 148.854C46.4096 148.854 46.8622 149.406 46.8622 150.211ZM46.5091 150.211C46.5091 149.545 46.1659 149.157 45.6536 149.157C45.1612 149.157 44.8031 149.54 44.8031 150.201C44.8031 150.858 45.1513 151.271 45.6536 151.271C46.1659 151.271 46.5091 150.878 46.5091 150.211ZM48.4523 151.574C47.7162 151.574 47.2287 151.022 47.2287 150.191C47.2287 149.426 47.7361 148.854 48.4324 148.854C49.1784 148.854 49.6658 149.455 49.6061 150.296H47.5769C47.6067 150.918 47.935 151.301 48.4473 151.301C48.885 151.301 49.1884 151.057 49.2729 150.639H49.6161C49.4967 151.221 49.0541 151.574 48.4523 151.574ZM48.4274 149.122C47.9549 149.122 47.6217 149.485 47.5769 150.057H49.2431C49.2132 149.47 48.9098 149.122 48.4274 149.122ZM50.5297 151.524H50.1815V147.953H50.5297V151.524ZM52.3335 151.574C51.6123 151.574 51.0901 151.002 51.0901 150.211C51.0901 149.426 51.6123 148.859 52.3335 148.859C53.0596 148.859 53.5819 149.426 53.5819 150.211C53.5819 151.002 53.0596 151.574 52.3335 151.574ZM52.3335 151.271C52.8458 151.271 53.2288 150.863 53.2288 150.211C53.2288 149.57 52.8458 149.162 52.3335 149.162C51.8262 149.162 51.4432 149.57 51.4432 150.211C51.4432 150.863 51.8262 151.271 52.3335 151.271ZM56.2749 151.524L55.5885 149.366L54.9071 151.524H54.554L53.7881 148.903H54.1312L54.738 151.032L55.4194 148.903H55.7626L56.439 151.037L57.0458 148.903H57.3939L56.623 151.524H56.2749Z" fill="#767676"/>
<rect x="191.754" y="136.261" width="49.434" height="15.7499" rx="2.66444" fill="white"/>
<rect x="191.754" y="136.261" width="49.434" height="15.7499" rx="2.66444" stroke="#C1BFD0" stroke-width="0.355258"/>
<path d="M201.222 145.636L200.852 144.624H199.09L198.715 145.636H198.084L199.647 141.555H200.335L201.887 145.636H201.222ZM199.977 142.237L199.278 144.118H200.665L199.977 142.237ZM202.016 144.13C202.016 143.215 202.539 142.567 203.352 142.567C203.755 142.567 204.108 142.771 204.318 143.141V141.555H204.892V145.636H204.358V145.096C204.142 145.477 203.778 145.693 203.352 145.693C202.539 145.693 202.016 145.033 202.016 144.13ZM202.613 144.13C202.613 144.8 202.965 145.181 203.465 145.181C203.954 145.181 204.318 144.783 204.318 144.118C204.318 143.442 203.943 143.072 203.465 143.072C202.965 143.072 202.613 143.448 202.613 144.13ZM205.474 144.13C205.474 143.215 205.997 142.567 206.81 142.567C207.214 142.567 207.566 142.771 207.776 143.141V141.555H208.35V145.636H207.816V145.096C207.6 145.477 207.236 145.693 206.81 145.693C205.997 145.693 205.474 145.033 205.474 144.13ZM206.071 144.13C206.071 144.8 206.423 145.181 206.924 145.181C207.412 145.181 207.776 144.783 207.776 144.118C207.776 143.442 207.401 143.072 206.924 143.072C206.423 143.072 206.071 143.448 206.071 144.13ZM212.161 145.721C211.024 145.721 210.143 144.795 210.143 143.59C210.143 142.39 211.024 141.47 212.161 141.47C213.184 141.47 214.003 142.152 214.156 143.158H213.491C213.377 142.498 212.843 142.032 212.167 142.032C211.359 142.032 210.791 142.686 210.791 143.59C210.791 144.505 211.359 145.159 212.167 145.159C212.843 145.159 213.377 144.687 213.491 144.027H214.156C214.003 145.039 213.184 145.721 212.161 145.721ZM216.022 145.693C215.17 145.693 214.544 145.022 214.544 144.13C214.544 143.237 215.17 142.567 216.022 142.567C216.875 142.567 217.5 143.237 217.5 144.13C217.5 145.022 216.875 145.693 216.022 145.693ZM216.022 145.187C216.517 145.187 216.909 144.789 216.909 144.13C216.909 143.47 216.517 143.078 216.022 143.078C215.528 143.078 215.141 143.47 215.141 144.13C215.141 144.789 215.528 145.187 216.022 145.187ZM218.659 143.936V145.636H218.085V142.623H218.62V143.124C218.824 142.788 219.165 142.567 219.58 142.567C220.2 142.567 220.609 142.964 220.609 143.686V145.636H220.035V143.88C220.035 143.362 219.808 143.072 219.381 143.072C218.989 143.072 218.659 143.402 218.659 143.936ZM223.06 145.079V145.585C222.884 145.664 222.73 145.693 222.548 145.693C221.991 145.693 221.605 145.392 221.605 144.727V143.112H220.94V142.623H221.605V141.731H222.179V142.623H223.088V143.112H222.179V144.596C222.179 145.011 222.378 145.159 222.685 145.159C222.821 145.159 222.941 145.136 223.06 145.079ZM225.461 145.636V145.17C225.273 145.505 224.938 145.693 224.495 145.693C223.869 145.693 223.46 145.335 223.46 144.783C223.46 144.192 223.932 143.885 224.83 143.885C225.006 143.885 225.148 143.891 225.393 143.919V143.698C225.393 143.266 225.16 143.021 224.762 143.021C224.341 143.021 224.085 143.271 224.068 143.692H223.545C223.574 143.016 224.057 142.567 224.762 142.567C225.506 142.567 225.938 142.987 225.938 143.703V145.636H225.461ZM224.006 144.766C224.006 145.079 224.239 145.284 224.608 145.284C225.091 145.284 225.393 144.982 225.393 144.522V144.277C225.171 144.249 225.012 144.243 224.864 144.243C224.29 144.243 224.006 144.414 224.006 144.766ZM227.894 145.699C227.07 145.699 226.49 145.051 226.49 144.13C226.49 143.22 227.081 142.567 227.894 142.567C228.639 142.567 229.179 143.061 229.287 143.845H228.684C228.621 143.362 228.32 143.072 227.9 143.072C227.405 143.072 227.081 143.493 227.081 144.13C227.081 144.772 227.405 145.187 227.9 145.187C228.326 145.187 228.621 144.903 228.69 144.414H229.287C229.184 145.21 228.65 145.699 227.894 145.699ZM231.564 145.079V145.585C231.388 145.664 231.234 145.693 231.052 145.693C230.495 145.693 230.109 145.392 230.109 144.727V143.112H229.444V142.623H230.109V141.731H230.683V142.623H231.592V143.112H230.683V144.596C230.683 145.011 230.882 145.159 231.189 145.159C231.325 145.159 231.445 145.136 231.564 145.079ZM234.516 144.738C234.516 145.329 234.056 145.693 233.255 145.693C232.459 145.693 231.987 145.301 231.93 144.653H232.482C232.504 145.028 232.806 145.261 233.266 145.261C233.67 145.261 233.937 145.119 233.937 144.835C233.937 144.584 233.783 144.476 233.408 144.403L232.919 144.312C232.362 144.204 232.05 143.919 232.05 143.465C232.05 142.936 232.51 142.567 233.209 142.567C233.931 142.567 234.42 142.953 234.471 143.573H233.92C233.886 143.209 233.618 142.999 233.215 142.999C232.851 142.999 232.607 143.152 232.607 143.413C232.607 143.658 232.76 143.772 233.124 143.84L233.635 143.936C234.232 144.044 234.516 144.306 234.516 144.738Z" fill="#383268"/>
<rect x="7.78316" y="161.097" width="233.405" height="15.7499" rx="2.66444" fill="white"/>
<rect x="7.78316" y="161.097" width="233.405" height="15.7499" rx="2.66444" stroke="#D0D5DD" stroke-width="0.355258"/>
<path d="M15.9837 171.636C17.5369 171.636 18.7961 170.377 18.7961 168.823C18.7961 167.27 17.5369 166.011 15.9837 166.011C14.4304 166.011 13.1712 167.27 13.1712 168.823C13.1712 170.377 14.4304 171.636 15.9837 171.636Z" stroke="#A3A3A3" stroke-width="0.532887" stroke-linecap="round" stroke-linejoin="round"/>
<path d="M19.0922 171.932L18.5001 171.34" stroke="#A3A3A3" stroke-width="0.532887" stroke-linecap="round" stroke-linejoin="round"/>
<path d="M25.1979 169.636C25.1979 170.187 24.7545 170.528 24.0156 170.528C23.271 170.528 22.8163 170.153 22.7594 169.534H23.1403C23.1687 169.96 23.504 170.227 24.0156 170.227C24.5044 170.227 24.8 170.039 24.8 169.698C24.8 169.403 24.6295 169.266 24.1748 169.175L23.7428 169.09C23.1744 168.982 22.8731 168.704 22.8731 168.272C22.8731 167.771 23.3165 167.419 23.9701 167.419C24.6579 167.419 25.1126 167.789 25.1581 168.385H24.783C24.7432 167.97 24.4419 167.726 23.9701 167.726C23.5495 167.726 23.2596 167.925 23.2596 168.238C23.2596 168.533 23.4415 168.675 23.8849 168.761L24.3339 168.846C24.9308 168.959 25.1979 169.21 25.1979 169.636ZM27.0659 170.528C26.2246 170.528 25.6676 169.897 25.6676 168.948C25.6676 168.073 26.2473 167.419 27.0431 167.419C27.8957 167.419 28.4528 168.107 28.3846 169.067H26.0654C26.0996 169.778 26.4747 170.216 27.0602 170.216C27.5604 170.216 27.9071 169.937 28.0037 169.46H28.3959C28.2595 170.125 27.7536 170.528 27.0659 170.528ZM27.0374 167.726C26.4974 167.726 26.1166 168.141 26.0654 168.795H27.9696C27.9355 168.124 27.5888 167.726 27.0374 167.726ZM30.8838 170.471V169.926C30.7076 170.301 30.3438 170.528 29.8777 170.528C29.2582 170.528 28.8546 170.182 28.8546 169.642C28.8546 169.056 29.3207 168.749 30.2301 168.749C30.412 168.749 30.5484 168.761 30.844 168.783V168.533C30.844 168.033 30.5769 167.737 30.1221 167.737C29.6333 167.737 29.3264 168.039 29.3207 168.527H28.9569C28.9739 167.862 29.4344 167.419 30.1165 167.419C30.8156 167.419 31.2249 167.828 31.2249 168.522V170.471H30.8838ZM29.2354 169.63C29.2354 169.994 29.5139 170.238 29.9346 170.238C30.4916 170.238 30.844 169.875 30.844 169.312V169.045C30.5882 169.022 30.412 169.016 30.2472 169.016C29.5651 169.016 29.2354 169.215 29.2354 169.63ZM32.4597 168.869V170.471H32.0618V167.476H32.4313V168.158C32.6359 167.715 33.0793 167.43 33.5738 167.43V167.845C32.9429 167.823 32.4597 168.215 32.4597 168.869ZM35.1744 170.534C34.3843 170.534 33.8329 169.892 33.8329 168.971C33.8329 168.061 34.39 167.419 35.1744 167.419C35.8735 167.419 36.3737 167.885 36.4931 168.635H36.0895C35.9986 168.09 35.6575 167.766 35.1744 167.766C34.6174 167.766 34.2365 168.255 34.2365 168.971C34.2365 169.698 34.6174 170.187 35.1744 170.187C35.6632 170.187 35.9986 169.869 36.0895 169.312H36.4931C36.3851 170.074 35.8792 170.534 35.1744 170.534ZM37.5333 168.726V170.471H37.1354V166.39H37.5333V168.027C37.7208 167.669 38.0619 167.419 38.4939 167.419C39.1191 167.419 39.5227 167.817 39.5227 168.527V170.471H39.1248V168.664C39.1248 168.09 38.8634 167.766 38.3745 167.766C37.9084 167.766 37.5333 168.169 37.5333 168.726ZM44.2938 168.971C44.2938 169.892 43.7765 170.528 42.9751 170.528C42.5146 170.528 42.1281 170.278 41.9178 169.84V170.471H41.5483V166.39H41.9462V168.107C42.1395 167.669 42.5203 167.419 42.9751 167.419C43.7765 167.419 44.2938 168.05 44.2938 168.971ZM43.8902 168.971C43.8902 168.209 43.498 167.766 42.9125 167.766C42.3498 167.766 41.9406 168.203 41.9406 168.959C41.9406 169.71 42.3384 170.182 42.9125 170.182C43.498 170.182 43.8902 169.732 43.8902 168.971ZM47.1533 167.476L45.6186 171.568H45.1923L45.63 170.432L44.442 167.476H44.8683L45.8346 169.954L46.7498 167.476H47.1533ZM49.2013 168.726V170.471H48.8034V167.476H49.1728V168.039C49.3661 167.669 49.7299 167.419 50.1619 167.419C50.7871 167.419 51.1907 167.817 51.1907 168.527V170.471H50.7928V168.664C50.7928 168.09 50.5314 167.766 50.0425 167.766C49.5764 167.766 49.2013 168.169 49.2013 168.726ZM53.8701 170.471V169.926C53.6939 170.301 53.3301 170.528 52.864 170.528C52.2445 170.528 51.8409 170.182 51.8409 169.642C51.8409 169.056 52.307 168.749 53.2164 168.749C53.3983 168.749 53.5348 168.761 53.8303 168.783V168.533C53.8303 168.033 53.5632 167.737 53.1084 167.737C52.6196 167.737 52.3127 168.039 52.307 168.527H51.9432C51.9602 167.862 52.4207 167.419 53.1028 167.419C53.8019 167.419 54.2112 167.828 54.2112 168.522V170.471H53.8701ZM52.2217 169.63C52.2217 169.994 52.5002 170.238 52.9209 170.238C53.4779 170.238 53.8303 169.875 53.8303 169.312V169.045C53.5745 169.022 53.3983 169.016 53.2335 169.016C52.5514 169.016 52.2217 169.215 52.2217 169.63ZM55.446 170.471H55.0482V167.476H55.4176V168.039C55.6166 167.652 55.969 167.419 56.3953 167.419C56.8614 167.419 57.2081 167.675 57.3332 168.113C57.5207 167.692 57.8959 167.419 58.3677 167.419C58.9873 167.419 59.3738 167.828 59.3738 168.527V170.471H58.9816V168.658C58.9816 168.09 58.7201 167.766 58.2369 167.766C57.7822 167.766 57.4127 168.164 57.4127 168.715V170.471H57.0149V168.658C57.0149 168.09 56.7534 167.766 56.2702 167.766C55.8098 167.766 55.446 168.164 55.446 168.715V170.471ZM61.3871 170.528C60.5459 170.528 59.9888 169.897 59.9888 168.948C59.9888 168.073 60.5686 167.419 61.3644 167.419C62.217 167.419 62.774 168.107 62.7058 169.067H60.3867C60.4208 169.778 60.796 170.216 61.3814 170.216C61.8816 170.216 62.2284 169.937 62.325 169.46H62.7172C62.5808 170.125 62.0749 170.528 61.3871 170.528ZM61.3587 167.726C60.8187 167.726 60.4379 168.141 60.3867 168.795H62.2909C62.2568 168.124 61.91 167.726 61.3587 167.726Z" fill="#A3A3A3"/>
<rect x="7.78316" y="183.241" width="233.405" height="149.208" rx="5.15124" fill="#FAFAFA"/>
<rect x="7.78316" y="183.241" width="233.405" height="149.208" rx="5.15124" stroke="#F1F1F1" stroke-width="0.355258"/>
</svg>
