<svg width="326" height="187" viewBox="0 0 326 187" fill="none" xmlns="http://www.w3.org/2000/svg">
<rect x="1.5" y="1" width="330.405" height="512.213" rx="10.4099" fill="white"/>
<rect x="1.5" y="1" width="330.405" height="512.213" rx="10.4099" stroke="#383268" stroke-width="2"/>
<path d="M15.7303 21.9395L13.5943 16.7734V21.9395H12.6439V15.1831H13.9142L16.182 20.6691L18.4404 15.1831H19.7201V21.9395H18.7603V16.764L16.6149 21.9395H15.7303ZM23.1569 22.0336C21.7172 22.0336 20.7479 20.9891 20.7479 19.4176C20.7479 17.9402 21.7548 16.8581 23.1286 16.8581C24.6154 16.8581 25.6034 18.0626 25.4341 19.6811H21.7172C21.7924 20.6973 22.3006 21.2902 23.1381 21.2902C23.8438 21.2902 24.3331 20.9044 24.4931 20.2551H25.4341C25.1894 21.3654 24.3331 22.0336 23.1569 22.0336ZM23.1098 17.5733C22.3476 17.5733 21.8301 18.119 21.7266 19.0506H24.4272C24.3802 18.1284 23.8814 17.5733 23.1098 17.5733ZM30.3967 20.4527C30.3967 21.4313 29.6345 22.0336 28.3077 22.0336C26.9903 22.0336 26.2093 21.3843 26.1152 20.3115H27.0279C27.0656 20.9326 27.5643 21.3184 28.3265 21.3184C28.9946 21.3184 29.4369 21.0832 29.4369 20.6127C29.4369 20.1986 29.1828 20.0198 28.5618 19.8975L27.7525 19.7469C26.8303 19.5682 26.3128 19.0977 26.3128 18.3449C26.3128 17.4698 27.075 16.8581 28.2324 16.8581C29.4275 16.8581 30.2367 17.498 30.3214 18.5237H29.4086C29.3522 17.9214 28.9099 17.5733 28.2418 17.5733C27.6396 17.5733 27.235 17.8273 27.235 18.2602C27.235 18.6648 27.489 18.853 28.0913 18.9659L28.9381 19.1259C29.9262 19.3047 30.3967 19.7375 30.3967 20.4527ZM35.3865 20.4527C35.3865 21.4313 34.6243 22.0336 33.2975 22.0336C31.9801 22.0336 31.1991 21.3843 31.105 20.3115H32.0178C32.0554 20.9326 32.5541 21.3184 33.3163 21.3184C33.9844 21.3184 34.4267 21.0832 34.4267 20.6127C34.4267 20.1986 34.1726 20.0198 33.5516 19.8975L32.7423 19.7469C31.8202 19.5682 31.3026 19.0977 31.3026 18.3449C31.3026 17.4698 32.0648 16.8581 33.2222 16.8581C34.4173 16.8581 35.2265 17.498 35.3112 18.5237H34.3985C34.342 17.9214 33.8997 17.5733 33.2316 17.5733C32.6294 17.5733 32.2248 17.8273 32.2248 18.2602C32.2248 18.6648 32.4788 18.853 33.0811 18.9659L33.928 19.1259C34.916 19.3047 35.3865 19.7375 35.3865 20.4527ZM39.4447 21.9395V21.1678C39.1342 21.723 38.579 22.0336 37.8451 22.0336C36.81 22.0336 36.1325 21.4407 36.1325 20.528C36.1325 19.5493 36.9135 19.0412 38.4002 19.0412C38.6919 19.0412 38.9272 19.0506 39.3318 19.0977V18.7307C39.3318 18.0155 38.946 17.6109 38.2873 17.6109C37.591 17.6109 37.1675 18.0249 37.1393 18.7213H36.2736C36.3207 17.6015 37.1205 16.8581 38.2873 16.8581C39.52 16.8581 40.2352 17.5544 40.2352 18.7401V21.9395H39.4447ZM37.0358 20.4997C37.0358 21.0173 37.4216 21.356 38.0333 21.356C38.8331 21.356 39.3318 20.8573 39.3318 20.0951V19.6905C38.9648 19.6434 38.7014 19.634 38.4567 19.634C37.5063 19.634 37.0358 19.9163 37.0358 20.4997ZM43.5008 23.8591C42.1928 23.8591 41.3459 23.1627 41.2894 22.0336H42.2116C42.2681 22.7299 42.7198 23.1063 43.4914 23.1063C44.3477 23.1063 44.7993 22.6452 44.7993 21.7889V20.8855C44.517 21.4878 43.9524 21.8359 43.2749 21.8359C42.0328 21.8359 41.1483 20.8103 41.1483 19.3423C41.1483 17.8556 41.9952 16.8581 43.2467 16.8581C43.9619 16.8581 44.5265 17.2063 44.8652 17.8367V16.9522H45.7497V21.7701C45.7497 23.0781 44.9123 23.8591 43.5008 23.8591ZM42.1081 19.3423C42.1081 20.3774 42.6162 21.0079 43.4443 21.0079C44.2536 21.0079 44.7993 20.3586 44.7993 19.3706C44.7993 18.3355 44.263 17.6768 43.4443 17.6768C42.6257 17.6768 42.1081 18.3166 42.1081 19.3423ZM49.1168 22.0336C47.6771 22.0336 46.7079 20.9891 46.7079 19.4176C46.7079 17.9402 47.7147 16.8581 49.0886 16.8581C50.5753 16.8581 51.5634 18.0626 51.394 19.6811H47.6771C47.7524 20.6973 48.2605 21.2902 49.098 21.2902C49.8037 21.2902 50.293 20.9044 50.453 20.2551H51.394C51.1493 21.3654 50.293 22.0336 49.1168 22.0336ZM49.0697 17.5733C48.3075 17.5733 47.79 18.119 47.6865 19.0506H50.3871C50.3401 18.1284 49.8414 17.5733 49.0697 17.5733ZM57.3915 22.0806C55.5096 22.0806 54.051 20.5468 54.051 18.5519C54.051 16.5664 55.5096 15.042 57.3915 15.042C59.0853 15.042 60.4404 16.1712 60.6944 17.8367H59.5935C59.4053 16.7452 58.5207 15.9736 57.401 15.9736C56.0648 15.9736 55.1238 17.0557 55.1238 18.5519C55.1238 20.0669 56.0648 21.149 57.401 21.149C58.5207 21.149 59.4053 20.368 59.5935 19.2765H60.6944C60.4404 20.9514 59.0853 22.0806 57.3915 22.0806ZM62.6453 19.3894V21.9395H61.6949V16.9522H62.5794V18.0061C62.9276 17.3192 63.6804 16.8863 64.499 16.8863V17.8744C63.4263 17.8179 62.6453 18.2884 62.6453 19.3894ZM67.2841 22.0336C65.8444 22.0336 64.8752 20.9891 64.8752 19.4176C64.8752 17.9402 65.8821 16.8581 67.2559 16.8581C68.7427 16.8581 69.7307 18.0626 69.5613 19.6811H65.8444C65.9197 20.6973 66.4278 21.2902 67.2653 21.2902C67.9711 21.2902 68.4604 20.9044 68.6203 20.2551H69.5613C69.3167 21.3654 68.4604 22.0336 67.2841 22.0336ZM67.2371 17.5733C66.4749 17.5733 65.9573 18.119 65.8538 19.0506H68.5545C68.5074 18.1284 68.0087 17.5733 67.2371 17.5733ZM73.5924 21.9395V21.1678C73.2818 21.723 72.7267 22.0336 71.9927 22.0336C70.9576 22.0336 70.2801 21.4407 70.2801 20.528C70.2801 19.5493 71.0611 19.0412 72.5479 19.0412C72.8396 19.0412 73.0748 19.0506 73.4795 19.0977V18.7307C73.4795 18.0155 73.0937 17.6109 72.435 17.6109C71.7386 17.6109 71.3152 18.0249 71.287 18.7213H70.4212C70.4683 17.6015 71.2681 16.8581 72.435 16.8581C73.6677 16.8581 74.3828 17.5544 74.3828 18.7401V21.9395H73.5924ZM71.1834 20.4997C71.1834 21.0173 71.5692 21.356 72.1809 21.356C72.9807 21.356 73.4795 20.8573 73.4795 20.0951V19.6905C73.1125 19.6434 72.849 19.634 72.6043 19.634C71.6539 19.634 71.1834 19.9163 71.1834 20.4997ZM78.4211 21.0173V21.8548C78.1294 21.9865 77.8753 22.0336 77.5742 22.0336C76.6521 22.0336 76.0122 21.5348 76.0122 20.4339V17.7615H74.9112V16.9522H76.0122V15.4749H76.9626V16.9522H78.4682V17.7615H76.9626V20.2174C76.9626 20.9044 77.2919 21.149 77.8001 21.149C78.0259 21.149 78.2235 21.1114 78.4211 21.0173ZM80.5326 15.7948C80.5326 16.1524 80.2503 16.4253 79.8457 16.4253C79.4411 16.4253 79.1494 16.1524 79.1494 15.7948C79.1494 15.4278 79.4411 15.1643 79.8457 15.1643C80.2503 15.1643 80.5326 15.4278 80.5326 15.7948ZM80.3256 21.9395H79.3752V16.9522H80.3256V21.9395ZM83.734 22.0336C82.3225 22.0336 81.2874 20.9232 81.2874 19.4458C81.2874 17.9685 82.3225 16.8581 83.734 16.8581C85.1454 16.8581 86.1805 17.9685 86.1805 19.4458C86.1805 20.9232 85.1454 22.0336 83.734 22.0336ZM83.734 21.1961C84.5526 21.1961 85.2019 20.5374 85.2019 19.4458C85.2019 18.3543 84.5526 17.705 83.734 17.705C82.9153 17.705 82.2754 18.3543 82.2754 19.4458C82.2754 20.5374 82.9153 21.1961 83.734 21.1961ZM88.0998 19.1259V21.9395H87.1494V16.9522H88.0339V17.7803C88.3727 17.2251 88.9373 16.8581 89.6242 16.8581C90.6499 16.8581 91.3274 17.5168 91.3274 18.7119V21.9395H90.377V19.0318C90.377 18.1755 90.0006 17.6956 89.2948 17.6956C88.6456 17.6956 88.0998 18.2414 88.0998 19.1259Z" fill="#1A1A1A"/>
<path d="M15.7764 35.292L15.2824 33.9812H13.0758L12.5752 35.292H12.0878L13.9255 30.5626H14.4656L16.2968 35.292H15.7764ZM14.1824 31.0895L13.2273 33.5794H15.1243L14.1824 31.0895ZM16.5213 33.553C16.5213 32.486 17.1142 31.7548 18.0495 31.7548C18.5699 31.7548 19.0112 32.0512 19.2417 32.5452V30.5626H19.7028V35.292H19.2747V34.5608C19.0309 35.068 18.583 35.3579 18.0495 35.3579C17.1142 35.3579 16.5213 34.6201 16.5213 33.553ZM16.989 33.553C16.989 34.4357 17.4369 34.9561 18.1154 34.9561C18.7872 34.9561 19.2483 34.4093 19.2483 33.5399C19.2483 32.6638 18.7741 32.1566 18.1154 32.1566C17.4369 32.1566 16.989 32.6704 16.989 33.553ZM20.4452 33.553C20.4452 32.486 21.038 31.7548 21.9733 31.7548C22.4937 31.7548 22.935 32.0512 23.1656 32.5452V30.5626H23.6267V35.292H23.1985V34.5608C22.9548 35.068 22.5069 35.3579 21.9733 35.3579C21.038 35.3579 20.4452 34.6201 20.4452 33.553ZM20.9129 33.553C20.9129 34.4357 21.3608 34.9561 22.0392 34.9561C22.7111 34.9561 23.1722 34.4093 23.1722 33.5399C23.1722 32.6638 22.6979 32.1566 22.0392 32.1566C21.3608 32.1566 20.9129 32.6704 20.9129 33.553ZM29.184 33.553C29.184 34.6201 28.5846 35.3579 27.6558 35.3579C27.1223 35.3579 26.6744 35.068 26.4306 34.5608V35.292H26.0025V30.5626H26.4636V32.5518C26.6875 32.0446 27.1289 31.7548 27.6558 31.7548C28.5846 31.7548 29.184 32.486 29.184 33.553ZM28.7163 33.553C28.7163 32.6704 28.2618 32.1566 27.5834 32.1566C26.9312 32.1566 26.457 32.6638 26.457 33.5399C26.457 34.4093 26.9181 34.9561 27.5834 34.9561C28.2618 34.9561 28.7163 34.4357 28.7163 33.553ZM30.3874 33.4345V35.292H29.9263V31.8207H30.3545V32.6111C30.5916 32.0973 31.1054 31.768 31.6785 31.768V32.2488C30.9473 32.2225 30.3874 32.677 30.3874 33.4345ZM33.6255 35.3579C32.6704 35.3579 31.9787 34.6004 31.9787 33.553C31.9787 32.5123 32.6704 31.7614 33.6255 31.7614C34.5872 31.7614 35.2788 32.5123 35.2788 33.553C35.2788 34.6004 34.5872 35.3579 33.6255 35.3579ZM33.6255 34.9561C34.3039 34.9561 34.8111 34.4159 34.8111 33.553C34.8111 32.7033 34.3039 32.1632 33.6255 32.1632C32.9536 32.1632 32.4464 32.7033 32.4464 33.553C32.4464 34.4159 32.9536 34.9561 33.6255 34.9561ZM38.1586 35.292V34.6596C37.9544 35.0944 37.5328 35.3579 36.9927 35.3579C36.2747 35.3579 35.807 34.9561 35.807 34.3303C35.807 33.6518 36.3472 33.2962 37.4011 33.2962C37.6119 33.2962 37.7699 33.3093 38.1125 33.3357V33.0458C38.1125 32.4662 37.8029 32.1237 37.2759 32.1237C36.7094 32.1237 36.3537 32.4728 36.3472 33.0393H35.9256C35.9454 32.2686 36.4789 31.7548 37.2693 31.7548C38.0795 31.7548 38.5538 32.2291 38.5538 33.0327V35.292H38.1586ZM36.2484 34.3171C36.2484 34.7387 36.5711 35.0219 37.0585 35.0219C37.7041 35.0219 38.1125 34.6004 38.1125 33.9483V33.6387C37.816 33.6123 37.6119 33.6057 37.4208 33.6057C36.6304 33.6057 36.2484 33.8363 36.2484 34.3171ZM39.2668 33.553C39.2668 32.486 39.8596 31.7548 40.795 31.7548C41.3154 31.7548 41.7567 32.0512 41.9872 32.5452V30.5626H42.4483V35.292H42.0202V34.5608C41.7764 35.068 41.3285 35.3579 40.795 35.3579C39.8596 35.3579 39.2668 34.6201 39.2668 33.553ZM39.7345 33.553C39.7345 34.4357 40.1824 34.9561 40.8609 34.9561C41.5327 34.9561 41.9938 34.4093 41.9938 33.5399C41.9938 32.6638 41.5195 32.1566 40.8609 32.1566C40.1824 32.1566 39.7345 32.6704 39.7345 33.553ZM44.7452 35.3644C43.8296 35.3644 43.1907 34.6201 43.1907 33.553C43.1907 32.4991 43.8362 31.7548 44.7452 31.7548C45.5554 31.7548 46.135 32.2949 46.2734 33.1644H45.8057C45.7003 32.5321 45.3051 32.1566 44.7452 32.1566C44.0997 32.1566 43.6583 32.7231 43.6583 33.553C43.6583 34.3962 44.0997 34.9626 44.7452 34.9626C45.3117 34.9626 45.7003 34.5938 45.8057 33.9483H46.2734C46.1482 34.8309 45.562 35.3644 44.7452 35.3644ZM49.1518 35.292V34.6596C48.9476 35.0944 48.526 35.3579 47.9859 35.3579C47.2679 35.3579 46.8003 34.9561 46.8003 34.3303C46.8003 33.6518 47.3404 33.2962 48.3943 33.2962C48.6051 33.2962 48.7632 33.3093 49.1057 33.3357V33.0458C49.1057 32.4662 48.7961 32.1237 48.2691 32.1237C47.7027 32.1237 47.347 32.4728 47.3404 33.0393H46.9188C46.9386 32.2686 47.4721 31.7548 48.2626 31.7548C49.0727 31.7548 49.547 32.2291 49.547 33.0327V35.292H49.1518ZM47.2416 34.3171C47.2416 34.7387 47.5643 35.0219 48.0518 35.0219C48.6973 35.0219 49.1057 34.6004 49.1057 33.9483V33.6387C48.8093 33.6123 48.6051 33.6057 48.4141 33.6057C47.6236 33.6057 47.2416 33.8363 47.2416 34.3171ZM53.1122 34.3237C53.1122 34.9626 52.5984 35.3579 51.7421 35.3579C50.8792 35.3579 50.3523 34.9231 50.2864 34.2051H50.7277C50.7606 34.6992 51.1493 35.0088 51.7421 35.0088C52.3086 35.0088 52.6511 34.7914 52.6511 34.3962C52.6511 34.0536 52.4535 33.8956 51.9265 33.7902L51.4259 33.6914C50.7672 33.5662 50.4181 33.2435 50.4181 32.7429C50.4181 32.1632 50.9319 31.7548 51.6894 31.7548C52.4864 31.7548 53.0134 32.183 53.0661 32.8746H52.6313C52.5852 32.3937 52.2361 32.1105 51.6894 32.1105C51.202 32.1105 50.866 32.341 50.866 32.7033C50.866 33.0458 51.0768 33.2105 51.5906 33.3093L52.111 33.4081C52.8026 33.5399 53.1122 33.8297 53.1122 34.3237ZM55.6726 34.8507V35.2591C55.4948 35.3315 55.3433 35.3579 55.172 35.3579C54.599 35.3579 54.1576 35.0614 54.1576 34.3105V32.2093H53.3409V31.8207H54.1576V30.7931H54.6187V31.8207H55.7056V32.2093H54.6187V34.2117C54.6187 34.7519 54.8822 34.9363 55.2643 34.9363C55.4092 34.9363 55.5277 34.91 55.6726 34.8507ZM58.2404 33.2698V35.292H57.7793V31.8207H58.2074V32.4728C58.4314 32.0446 58.8529 31.7548 59.3536 31.7548C60.0781 31.7548 60.5458 32.2159 60.5458 33.0393V35.292H60.0847V33.1973C60.0847 32.5321 59.7817 32.1566 59.2152 32.1566C58.6751 32.1566 58.2404 32.6243 58.2404 33.2698ZM63.6508 35.292V34.6596C63.4466 35.0944 63.025 35.3579 62.4849 35.3579C61.7669 35.3579 61.2992 34.9561 61.2992 34.3303C61.2992 33.6518 61.8393 33.2962 62.8933 33.2962C63.104 33.2962 63.2621 33.3093 63.6046 33.3357V33.0458C63.6046 32.4662 63.2951 32.1237 62.7681 32.1237C62.2016 32.1237 61.8459 32.4728 61.8393 33.0393H61.4178C61.4375 32.2686 61.9711 31.7548 62.7615 31.7548C63.5717 31.7548 64.046 32.2291 64.046 33.0327V35.292H63.6508ZM61.7405 34.3171C61.7405 34.7387 62.0633 35.0219 62.5507 35.0219C63.1963 35.0219 63.6046 34.6004 63.6046 33.9483V33.6387C63.3082 33.6123 63.104 33.6057 62.913 33.6057C62.1226 33.6057 61.7405 33.8363 61.7405 34.3171ZM65.477 35.292H65.0159V31.8207H65.444V32.4728C65.6746 32.0249 66.083 31.7548 66.577 31.7548C67.1171 31.7548 67.5189 32.0512 67.6638 32.5584C67.8812 32.071 68.3159 31.7548 68.8627 31.7548C69.5806 31.7548 70.0285 32.2291 70.0285 33.0393V35.292H69.574V33.1908C69.574 32.5321 69.271 32.1566 68.7112 32.1566C68.1842 32.1566 67.7561 32.6177 67.7561 33.2566V35.292H67.295V33.1908C67.295 32.5321 66.992 32.1566 66.4321 32.1566C65.8985 32.1566 65.477 32.6177 65.477 33.2566V35.292ZM72.3617 35.3579C71.3868 35.3579 70.7413 34.6267 70.7413 33.5267C70.7413 32.5123 71.4131 31.7548 72.3353 31.7548C73.3233 31.7548 73.9689 32.5518 73.8898 33.665H71.2024C71.2419 34.4884 71.6766 34.9956 72.3551 34.9956C72.9347 34.9956 73.3365 34.6728 73.4485 34.1195H73.903C73.7449 34.8902 73.1587 35.3579 72.3617 35.3579ZM72.3287 32.1105C71.703 32.1105 71.2616 32.5914 71.2024 33.3488H73.409C73.3695 32.5716 72.9676 32.1105 72.3287 32.1105ZM78.1626 35.292V34.6596C77.9584 35.0944 77.5368 35.3579 76.9967 35.3579C76.2787 35.3579 75.811 34.9561 75.811 34.3303C75.811 33.6518 76.3512 33.2962 77.4051 33.2962C77.6159 33.2962 77.7739 33.3093 78.1165 33.3357V33.0458C78.1165 32.4662 77.8069 32.1237 77.2799 32.1237C76.7135 32.1237 76.3578 32.4728 76.3512 33.0393H75.9296C75.9494 32.2686 76.4829 31.7548 77.2733 31.7548C78.0835 31.7548 78.5578 32.2291 78.5578 33.0327V35.292H78.1626ZM76.2524 34.3171C76.2524 34.7387 76.5751 35.0219 77.0626 35.0219C77.7081 35.0219 78.1165 34.6004 78.1165 33.9483V33.6387C77.8201 33.6123 77.6159 33.6057 77.4248 33.6057C76.6344 33.6057 76.2524 33.8363 76.2524 34.3171ZM79.9888 33.2698V35.292H79.5277V31.8207H79.9559V32.4728C80.1798 32.0446 80.6014 31.7548 81.102 31.7548C81.8266 31.7548 82.2942 32.2159 82.2942 33.0393V35.292H81.8331V33.1973C81.8331 32.5321 81.5301 32.1566 80.9637 32.1566C80.4235 32.1566 79.9888 32.6243 79.9888 33.2698ZM83.0081 33.553C83.0081 32.486 83.601 31.7548 84.5363 31.7548C85.0567 31.7548 85.498 32.0512 85.7285 32.5452V30.5626H86.1896V35.292H85.7615V34.5608C85.5178 35.068 85.0698 35.3579 84.5363 35.3579C83.601 35.3579 83.0081 34.6201 83.0081 33.553ZM83.4758 33.553C83.4758 34.4357 83.9237 34.9561 84.6022 34.9561C85.274 34.9561 85.7351 34.4093 85.7351 33.5399C85.7351 32.6638 85.2609 32.1566 84.6022 32.1566C83.9237 32.1566 83.4758 32.6704 83.4758 33.553ZM90.3505 34.8507V35.2591C90.1727 35.3315 90.0212 35.3579 89.8499 35.3579C89.2768 35.3579 88.8355 35.0614 88.8355 34.3105V32.2093H88.0187V31.8207H88.8355V30.7931H89.2966V31.8207H90.3834V32.2093H89.2966V34.2117C89.2966 34.7519 89.5601 34.9363 89.9421 34.9363C90.087 34.9363 90.2056 34.91 90.3505 34.8507ZM92.3347 35.3579C91.3598 35.3579 90.7143 34.6267 90.7143 33.5267C90.7143 32.5123 91.3862 31.7548 92.3084 31.7548C93.2964 31.7548 93.9419 32.5518 93.8629 33.665H91.1754C91.2149 34.4884 91.6497 34.9956 92.3281 34.9956C92.9078 34.9956 93.3096 34.6728 93.4216 34.1195H93.8761C93.718 34.8902 93.1317 35.3579 92.3347 35.3579ZM92.3018 32.1105C91.676 32.1105 91.2347 32.5914 91.1754 33.3488H93.382C93.3425 32.5716 92.9407 32.1105 92.3018 32.1105ZM95.086 35.292H94.6249V31.8207H95.0531V32.4728C95.2836 32.0249 95.692 31.7548 96.186 31.7548C96.7261 31.7548 97.1279 32.0512 97.2728 32.5584C97.4902 32.071 97.925 31.7548 98.4717 31.7548C99.1896 31.7548 99.6376 32.2291 99.6376 33.0393V35.292H99.1831V33.1908C99.1831 32.5321 98.8801 32.1566 98.3202 32.1566C97.7932 32.1566 97.3651 32.6177 97.3651 33.2566V35.292H96.904V33.1908C96.904 32.5321 96.601 32.1566 96.0411 32.1566C95.5076 32.1566 95.086 32.6177 95.086 33.2566V35.292ZM103.789 33.553C103.789 34.6267 103.189 35.3579 102.267 35.3579C101.747 35.3579 101.305 35.0746 101.068 34.5806V36.5633H100.607V31.8207H101.035V32.5716C101.272 32.0578 101.734 31.7548 102.267 31.7548C103.189 31.7548 103.789 32.4925 103.789 33.553ZM103.321 33.553C103.321 32.677 102.866 32.1566 102.188 32.1566C101.543 32.1566 101.062 32.6704 101.062 33.553C101.062 34.4159 101.529 34.9561 102.188 34.9561C102.866 34.9561 103.321 34.4423 103.321 33.553ZM104.992 35.292H104.531V30.5626H104.992V35.292ZM108.125 35.292V34.6596C107.921 35.0944 107.5 35.3579 106.959 35.3579C106.242 35.3579 105.774 34.9561 105.774 34.3303C105.774 33.6518 106.314 33.2962 107.368 33.2962C107.579 33.2962 107.737 33.3093 108.079 33.3357V33.0458C108.079 32.4662 107.77 32.1237 107.243 32.1237C106.676 32.1237 106.321 32.4728 106.314 33.0393H105.892C105.912 32.2686 106.446 31.7548 107.236 31.7548C108.046 31.7548 108.521 32.2291 108.521 33.0327V35.292H108.125ZM106.215 34.3171C106.215 34.7387 106.538 35.0219 107.025 35.0219C107.671 35.0219 108.079 34.6004 108.079 33.9483V33.6387C107.783 33.6123 107.579 33.6057 107.388 33.6057C106.597 33.6057 106.215 33.8363 106.215 34.3171ZM111.256 34.8507V35.2591C111.078 35.3315 110.927 35.3579 110.756 35.3579C110.183 35.3579 109.741 35.0614 109.741 34.3105V32.2093H108.925V31.8207H109.741V30.7931H110.202V31.8207H111.289V32.2093H110.202V34.2117C110.202 34.7519 110.466 34.9363 110.848 34.9363C110.993 34.9363 111.111 34.91 111.256 34.8507ZM113.24 35.3579C112.266 35.3579 111.62 34.6267 111.62 33.5267C111.62 32.5123 112.292 31.7548 113.214 31.7548C114.202 31.7548 114.848 32.5518 114.769 33.665H112.081C112.121 34.4884 112.555 34.9956 113.234 34.9956C113.814 34.9956 114.215 34.6728 114.327 34.1195H114.782C114.624 34.8902 114.038 35.3579 113.24 35.3579ZM113.208 32.1105C112.582 32.1105 112.14 32.5914 112.081 33.3488H114.288C114.248 32.5716 113.846 32.1105 113.208 32.1105ZM120.089 33.553C120.089 34.6201 119.489 35.3579 118.561 35.3579C118.027 35.3579 117.579 35.068 117.335 34.5608V35.292H116.907V30.5626H117.368V32.5518C117.592 32.0446 118.034 31.7548 118.561 31.7548C119.489 31.7548 120.089 32.486 120.089 33.553ZM119.621 33.553C119.621 32.6704 119.167 32.1566 118.488 32.1566C117.836 32.1566 117.362 32.6638 117.362 33.5399C117.362 34.4093 117.823 34.9561 118.488 34.9561C119.167 34.9561 119.621 34.4357 119.621 33.553ZM122.195 35.3579C121.22 35.3579 120.574 34.6267 120.574 33.5267C120.574 32.5123 121.246 31.7548 122.168 31.7548C123.156 31.7548 123.802 32.5518 123.723 33.665H121.035C121.075 34.4884 121.51 34.9956 122.188 34.9956C122.768 34.9956 123.169 34.6728 123.281 34.1195H123.736C123.578 34.8902 122.992 35.3579 122.195 35.3579ZM122.162 32.1105C121.536 32.1105 121.095 32.5914 121.035 33.3488H123.242C123.202 32.5716 122.801 32.1105 122.162 32.1105ZM124.946 35.292H124.485V30.5626H124.946V35.292ZM127.335 35.3579C126.38 35.3579 125.688 34.6004 125.688 33.553C125.688 32.5123 126.38 31.7614 127.335 31.7614C128.297 31.7614 128.988 32.5123 128.988 33.553C128.988 34.6004 128.297 35.3579 127.335 35.3579ZM127.335 34.9561C128.013 34.9561 128.52 34.4159 128.52 33.553C128.52 32.7033 128.013 32.1632 127.335 32.1632C126.663 32.1632 126.156 32.7033 126.156 33.553C126.156 34.4159 126.663 34.9561 127.335 34.9561ZM132.555 35.292L131.646 32.4333L130.743 35.292H130.276L129.261 31.8207H129.716L130.519 34.6399L131.422 31.8207H131.876L132.772 34.6465L133.576 31.8207H134.037L133.016 35.292H132.555Z" fill="#767676"/>
<path d="M14.4854 62.799C13.168 62.799 12.147 61.7253 12.147 60.3289C12.147 58.9391 13.168 57.872 14.4854 57.872C15.671 57.872 16.6196 58.6624 16.7974 59.8283H16.0267C15.895 59.0642 15.2758 58.5241 14.492 58.5241C13.5566 58.5241 12.898 59.2816 12.898 60.3289C12.898 61.3894 13.5566 62.1469 14.492 62.1469C15.2758 62.1469 15.895 61.6002 16.0267 60.8361H16.7974C16.6196 62.0086 15.671 62.799 14.4854 62.799ZM18.96 62.7661C17.972 62.7661 17.2474 61.9888 17.2474 60.9547C17.2474 59.9205 17.972 59.1433 18.96 59.1433C19.9481 59.1433 20.6726 59.9205 20.6726 60.9547C20.6726 61.9888 19.9481 62.7661 18.96 62.7661ZM18.96 62.1798C19.5331 62.1798 19.9876 61.7187 19.9876 60.9547C19.9876 60.1906 19.5331 59.7361 18.96 59.7361C18.387 59.7361 17.9391 60.1906 17.9391 60.9547C17.9391 61.7187 18.387 62.1798 18.96 62.1798ZM22.0161 62.7002H21.3508V59.2091H21.97V59.7888C22.2071 59.387 22.5826 59.1433 23.0634 59.1433C23.5772 59.1433 23.9658 59.4067 24.1239 59.8678C24.3676 59.4199 24.7694 59.1433 25.303 59.1433C26.021 59.1433 26.4821 59.6109 26.4821 60.4409V62.7002H25.8168V60.6517C25.8168 60.072 25.5599 59.7295 25.0724 59.7295C24.6179 59.7295 24.2491 60.1115 24.2491 60.6978V62.7002H23.5838V60.6517C23.5838 60.072 23.3269 59.7295 22.8395 59.7295C22.3784 59.7295 22.0161 60.1115 22.0161 60.6978V62.7002ZM30.7047 60.9547C30.7047 62.0086 30.0987 62.7661 29.1633 62.7661C28.6891 62.7661 28.2873 62.5289 28.037 62.1074V63.9715H27.3717V59.2091H27.9909V59.8481C28.2412 59.4001 28.6693 59.1433 29.1633 59.1433C30.0921 59.1433 30.7047 59.9008 30.7047 60.9547ZM30.0131 60.9547C30.0131 60.1708 29.5981 59.7295 29.025 59.7295C28.4717 59.7295 28.037 60.1708 28.037 60.9547C28.037 61.7253 28.4651 62.1732 29.025 62.1732C29.5981 62.1732 30.0131 61.7385 30.0131 60.9547ZM32.8415 62.7661C31.8534 62.7661 31.1289 61.9888 31.1289 60.9547C31.1289 59.9205 31.8534 59.1433 32.8415 59.1433C33.8295 59.1433 34.5541 59.9205 34.5541 60.9547C34.5541 61.9888 33.8295 62.7661 32.8415 62.7661ZM32.8415 62.1798C33.4145 62.1798 33.869 61.7187 33.869 60.9547C33.869 60.1906 33.4145 59.7361 32.8415 59.7361C32.2684 59.7361 31.8205 60.1906 31.8205 60.9547C31.8205 61.7187 32.2684 62.1798 32.8415 62.1798ZM37.9988 61.6595C37.9988 62.3445 37.4652 62.7661 36.5365 62.7661C35.6143 62.7661 35.0676 62.3116 35.0017 61.5607H35.6407C35.667 61.9954 36.0161 62.2655 36.5497 62.2655C37.0173 62.2655 37.3269 62.1008 37.3269 61.7714C37.3269 61.4816 37.1491 61.3565 36.7143 61.2708L36.1479 61.1654C35.5023 61.0403 35.1401 60.7109 35.1401 60.184C35.1401 59.5714 35.6736 59.1433 36.4838 59.1433C37.3203 59.1433 37.8868 59.5912 37.9461 60.3091H37.3072C37.2676 59.8876 36.958 59.6439 36.4904 59.6439C36.0688 59.6439 35.7856 59.8217 35.7856 60.1247C35.7856 60.4079 35.9634 60.5397 36.385 60.6187L36.9778 60.7307C37.6694 60.8559 37.9988 61.1589 37.9988 61.6595ZM40.1611 62.7661C39.1533 62.7661 38.4748 62.0349 38.4748 60.9349C38.4748 59.9008 39.1796 59.1433 40.1413 59.1433C41.1821 59.1433 41.8737 59.9864 41.7551 61.1193H39.1533C39.206 61.8307 39.5617 62.2457 40.1479 62.2457C40.6419 62.2457 40.9845 61.9756 41.0964 61.5211H41.7551C41.5839 62.2984 40.9845 62.7661 40.1611 62.7661ZM40.1282 59.6439C39.5946 59.6439 39.2323 60.0259 39.1599 60.678H41.0503C41.0174 60.0325 40.6683 59.6439 40.1282 59.6439ZM46.0522 62.7002L44.557 59.084V62.7002H43.8917V57.9708H44.7809L46.3684 61.811L47.9493 57.9708H48.8451V62.7002H48.1732V59.0774L46.6714 62.7002H46.0522ZM51.2508 62.7661C50.243 62.7661 49.5645 62.0349 49.5645 60.9349C49.5645 59.9008 50.2694 59.1433 51.231 59.1433C52.2718 59.1433 52.9634 59.9864 52.8448 61.1193H50.243C50.2957 61.8307 50.6514 62.2457 51.2376 62.2457C51.7316 62.2457 52.0742 61.9756 52.1861 61.5211H52.8448C52.6736 62.2984 52.0742 62.7661 51.2508 62.7661ZM51.2179 59.6439C50.6843 59.6439 50.322 60.0259 50.2496 60.678H52.14C52.1071 60.0325 51.758 59.6439 51.2179 59.6439ZM56.3187 61.6595C56.3187 62.3445 55.7851 62.7661 54.8564 62.7661C53.9342 62.7661 53.3875 62.3116 53.3216 61.5607H53.9606C53.9869 61.9954 54.336 62.2655 54.8696 62.2655C55.3372 62.2655 55.6468 62.1008 55.6468 61.7714C55.6468 61.4816 55.469 61.3565 55.0342 61.2708L54.4677 61.1654C53.8222 61.0403 53.4599 60.7109 53.4599 60.184C53.4599 59.5714 53.9935 59.1433 54.8037 59.1433C55.6402 59.1433 56.2067 59.5912 56.266 60.3091H55.627C55.5875 59.8876 55.2779 59.6439 54.8103 59.6439C54.3887 59.6439 54.1055 59.8217 54.1055 60.1247C54.1055 60.4079 54.2833 60.5397 54.7049 60.6187L55.2977 60.7307C55.9893 60.8559 56.3187 61.1589 56.3187 61.6595ZM59.8115 61.6595C59.8115 62.3445 59.278 62.7661 58.3493 62.7661C57.4271 62.7661 56.8804 62.3116 56.8145 61.5607H57.4534C57.4798 61.9954 57.8289 62.2655 58.3624 62.2655C58.8301 62.2655 59.1397 62.1008 59.1397 61.7714C59.1397 61.4816 58.9618 61.3565 58.5271 61.2708L57.9606 61.1654C57.3151 61.0403 56.9528 60.7109 56.9528 60.184C56.9528 59.5714 57.4864 59.1433 58.2966 59.1433C59.1331 59.1433 59.6996 59.5912 59.7589 60.3091H59.1199C59.0804 59.8876 58.7708 59.6439 58.3031 59.6439C57.8816 59.6439 57.5983 59.8217 57.5983 60.1247C57.5983 60.4079 57.7762 60.5397 58.1978 60.6187L58.7906 60.7307C59.4822 60.8559 59.8115 61.1589 59.8115 61.6595ZM62.6523 62.7002V62.1601C62.4349 62.5487 62.0463 62.7661 61.5325 62.7661C60.808 62.7661 60.3337 62.3511 60.3337 61.7122C60.3337 61.0271 60.8804 60.6714 61.9212 60.6714C62.1254 60.6714 62.29 60.678 62.5733 60.7109V60.4541C62.5733 59.9534 62.3032 59.6702 61.8421 59.6702C61.3547 59.6702 61.0583 59.96 61.0385 60.4475H60.4325C60.4655 59.6636 61.0253 59.1433 61.8421 59.1433C62.705 59.1433 63.2056 59.6307 63.2056 60.4606V62.7002H62.6523ZM60.9661 61.6924C60.9661 62.0547 61.2361 62.2918 61.6643 62.2918C62.2242 62.2918 62.5733 61.9427 62.5733 61.4092V61.1259C62.3164 61.093 62.1319 61.0864 61.9607 61.0864C61.2954 61.0864 60.9661 61.284 60.9661 61.6924ZM65.4915 64.0439C64.576 64.0439 63.9831 63.5565 63.9436 62.7661H64.5891C64.6287 63.2535 64.9448 63.517 65.485 63.517C66.0844 63.517 66.4005 63.1942 66.4005 62.5948V61.9625C66.2029 62.384 65.8077 62.6277 65.3335 62.6277C64.464 62.6277 63.8448 61.9098 63.8448 60.8822C63.8448 59.8415 64.4376 59.1433 65.3137 59.1433C65.8143 59.1433 66.2095 59.387 66.4466 59.8283V59.2091H67.0658V62.5816C67.0658 63.4972 66.4796 64.0439 65.4915 64.0439ZM64.5167 60.8822C64.5167 61.6068 64.8724 62.0481 65.452 62.0481C66.0185 62.0481 66.4005 61.5936 66.4005 60.902C66.4005 60.1774 66.0251 59.7163 65.452 59.7163C64.879 59.7163 64.5167 60.1642 64.5167 60.8822ZM69.4228 62.7661C68.415 62.7661 67.7365 62.0349 67.7365 60.9349C67.7365 59.9008 68.4413 59.1433 69.403 59.1433C70.4437 59.1433 71.1354 59.9864 71.0168 61.1193H68.415C68.4676 61.8307 68.8233 62.2457 69.4096 62.2457C69.9036 62.2457 70.2461 61.9756 70.3581 61.5211H71.0168C70.8455 62.2984 70.2461 62.7661 69.4228 62.7661ZM69.3898 59.6439C68.8563 59.6439 68.494 60.0259 68.4215 60.678H70.312C70.2791 60.0325 69.9299 59.6439 69.3898 59.6439Z" fill="#1A1A1A"/>
<rect x="12.1452" y="68.7584" width="309.115" height="85.3909" rx="3.52871" fill="white"/>
<rect x="12.1452" y="68.7584" width="309.115" height="85.3909" rx="3.52871" stroke="#D0D5DD" stroke-width="0.470495"/>
<path d="M21.109 81.7237V82.1904C20.9058 82.2732 20.7326 82.3033 20.5369 82.3033C19.882 82.3033 19.3776 81.9646 19.3776 81.1064V78.705H18.4441V78.2608H19.3776V77.0865H19.9045V78.2608H21.1467V78.705H19.9045V80.9934C19.9045 81.6107 20.2057 81.8215 20.6423 81.8215C20.8079 81.8215 20.9434 81.7914 21.109 81.7237ZM24.9997 78.2608L22.9672 83.6809H22.4026L22.9822 82.1753L21.4089 78.2608H21.9735L23.2532 81.543L24.4652 78.2608H24.9997ZM29.2478 80.2407C29.2478 81.4677 28.5627 82.3033 27.5088 82.3033C26.9141 82.3033 26.4097 81.9796 26.1387 81.415V83.6809H25.6118V78.2608H26.1011V79.119C26.3721 78.5318 26.899 78.1855 27.5088 78.1855C28.5627 78.1855 29.2478 79.0287 29.2478 80.2407ZM28.7133 80.2407C28.7133 79.2394 28.1938 78.6447 27.4185 78.6447C26.6807 78.6447 26.1312 79.2319 26.1312 80.2407C26.1312 81.2268 26.6657 81.8441 27.4185 81.8441C28.1938 81.8441 28.7133 81.2569 28.7133 80.2407ZM31.6545 82.3033C30.5403 82.3033 29.8026 81.4677 29.8026 80.2105C29.8026 79.0512 30.5704 78.1855 31.6243 78.1855C32.7535 78.1855 33.4913 79.0964 33.4009 80.3686H30.3295C30.3747 81.3096 30.8715 81.8893 31.6469 81.8893C32.3094 81.8893 32.7686 81.5204 32.8966 80.8881H33.416C33.2353 81.7688 32.5653 82.3033 31.6545 82.3033ZM31.6168 78.592C30.9017 78.592 30.3973 79.1416 30.3295 80.0073H32.8514C32.8062 79.119 32.347 78.592 31.6168 78.592ZM38.9014 78.2608L36.8688 83.6809H36.3042L36.8839 82.1753L35.3105 78.2608H35.8751L37.1549 81.543L38.3669 78.2608H38.9014ZM40.9842 82.3033C39.8926 82.3033 39.1022 81.4376 39.1022 80.2407C39.1022 79.0512 39.8926 78.1931 40.9842 78.1931C42.0833 78.1931 42.8737 79.0512 42.8737 80.2407C42.8737 81.4376 42.0833 82.3033 40.9842 82.3033ZM40.9842 81.8441C41.7596 81.8441 42.3392 81.2268 42.3392 80.2407C42.3392 79.2696 41.7596 78.6523 40.9842 78.6523C40.2163 78.6523 39.6367 79.2696 39.6367 80.2407C39.6367 81.2268 40.2163 81.8441 40.9842 81.8441ZM46.2627 80.6246V78.2608H46.7822V82.228H46.2928V81.5129C46.0896 81.9721 45.6078 82.3033 45.0281 82.3033C44.2227 82.3033 43.6882 81.8441 43.6882 80.8429V78.2608H44.2151V80.73C44.2151 81.5355 44.6141 81.8441 45.1712 81.8441C45.8035 81.8441 46.2627 81.3322 46.2627 80.6246ZM48.4505 80.1052V82.228H47.9235V78.2608H48.4128V79.1642C48.6838 78.577 49.271 78.2006 49.9259 78.2006V78.7501C49.0903 78.72 48.4505 79.2394 48.4505 80.1052ZM52.6702 82.228H52.1433V78.2608H52.6326V79.0061C52.8961 78.4942 53.3628 78.1855 53.9274 78.1855C54.5447 78.1855 55.0039 78.5243 55.1695 79.1039C55.4179 78.5469 55.9148 78.1855 56.5396 78.1855C57.3601 78.1855 57.872 78.7275 57.872 79.6535V82.228H57.3526V79.8266C57.3526 79.0738 57.0063 78.6447 56.3664 78.6447C55.7642 78.6447 55.2749 79.1717 55.2749 79.9019V82.228H54.7479V79.8266C54.7479 79.0738 54.4016 78.6447 53.7618 78.6447C53.152 78.6447 52.6702 79.1717 52.6702 79.9019V82.228ZM60.5384 82.3033C59.4243 82.3033 58.6866 81.4677 58.6866 80.2105C58.6866 79.0512 59.4544 78.1855 60.5083 78.1855C61.6375 78.1855 62.3752 79.0964 62.2849 80.3686H59.2135C59.2587 81.3096 59.7555 81.8893 60.5309 81.8893C61.1934 81.8893 61.6526 81.5204 61.7805 80.8881H62.3C62.1193 81.7688 61.4493 82.3033 60.5384 82.3033ZM60.5008 78.592C59.7856 78.592 59.2813 79.1416 59.2135 80.0073H61.7354C61.6902 79.119 61.231 78.592 60.5008 78.592ZM66.1218 81.1214C66.1218 81.8516 65.5346 82.3033 64.556 82.3033C63.5698 82.3033 62.9676 81.8065 62.8923 80.9859H63.3967C63.4343 81.5505 63.8785 81.9043 64.556 81.9043C65.2034 81.9043 65.5948 81.6559 65.5948 81.2042C65.5948 80.8128 65.369 80.6321 64.7668 80.5117L64.1946 80.3987C63.4418 80.2557 63.0429 79.8868 63.0429 79.3147C63.0429 78.6523 63.63 78.1855 64.4958 78.1855C65.4066 78.1855 66.0089 78.6748 66.0691 79.4653H65.5722C65.5196 78.9157 65.1206 78.592 64.4958 78.592C63.9387 78.592 63.5548 78.8555 63.5548 79.2696C63.5548 79.661 63.7957 79.8492 64.3828 79.9621L64.9775 80.075C65.768 80.2256 66.1218 80.5568 66.1218 81.1214ZM70.0034 81.1214C70.0034 81.8516 69.4162 82.3033 68.4376 82.3033C67.4514 82.3033 66.8492 81.8065 66.7739 80.9859H67.2783C67.3159 81.5505 67.7601 81.9043 68.4376 81.9043C69.085 81.9043 69.4764 81.6559 69.4764 81.2042C69.4764 80.8128 69.2506 80.6321 68.6483 80.5117L68.0762 80.3987C67.3234 80.2557 66.9245 79.8868 66.9245 79.3147C66.9245 78.6523 67.5116 78.1855 68.3773 78.1855C69.2882 78.1855 69.8905 78.6748 69.9507 79.4653H69.4538C69.4011 78.9157 69.0022 78.592 68.3773 78.592C67.8203 78.592 67.4363 78.8555 67.4363 79.2696C67.4363 79.661 67.6772 79.8492 68.2644 79.9621L68.8591 80.075C69.6496 80.2256 70.0034 80.5568 70.0034 81.1214ZM73.358 82.228V81.5053C73.1246 82.0022 72.6428 82.3033 72.0256 82.3033C71.205 82.3033 70.6705 81.8441 70.6705 81.129C70.6705 80.3536 71.2878 79.9471 72.4923 79.9471C72.7332 79.9471 72.9139 79.9621 73.3053 79.9922V79.661C73.3053 78.9986 72.9515 78.6071 72.3493 78.6071C71.7019 78.6071 71.2953 79.0061 71.2878 79.6535H70.806C70.8286 78.7727 71.4384 78.1855 72.3417 78.1855C73.2677 78.1855 73.8097 78.7275 73.8097 79.646V82.228H73.358ZM71.1749 81.1139C71.1749 81.5957 71.5438 81.9194 72.1008 81.9194C72.8386 81.9194 73.3053 81.4376 73.3053 80.6923V80.3385C72.9665 80.3084 72.7332 80.3009 72.5149 80.3009C71.6115 80.3009 71.1749 80.5644 71.1749 81.1139ZM76.4162 83.7637C75.4075 83.7637 74.7751 83.2368 74.73 82.3485H75.2343C75.2795 82.9959 75.7011 83.3422 76.4087 83.3422C77.1916 83.3422 77.6056 82.9281 77.6056 82.1452V81.3171C77.3647 81.8742 76.8829 82.1979 76.2958 82.1979C75.2946 82.1979 74.6246 81.3924 74.6246 80.188C74.6246 78.9835 75.287 78.1855 76.2882 78.1855C76.8829 78.1855 77.3798 78.5243 77.6357 79.1039V78.2608H78.1251V82.1377C78.1251 83.1615 77.5002 83.7637 76.4162 83.7637ZM75.1515 80.188C75.1515 81.1591 75.6107 81.7462 76.371 81.7462C77.1163 81.7462 77.6132 81.144 77.6132 80.2256C77.6132 79.2545 77.1238 78.6372 76.371 78.6372C75.6183 78.6372 75.1515 79.2244 75.1515 80.188ZM80.8285 82.3033C79.7144 82.3033 78.9766 81.4677 78.9766 80.2105C78.9766 79.0512 79.7445 78.1855 80.7984 78.1855C81.9276 78.1855 82.6653 79.0964 82.575 80.3686H79.5036C79.5488 81.3096 80.0456 81.8893 80.821 81.8893C81.4834 81.8893 81.9426 81.5204 82.0706 80.8881H82.59C82.4094 81.7688 81.7394 82.3033 80.8285 82.3033ZM80.7909 78.592C80.0757 78.592 79.5714 79.1416 79.5036 80.0073H82.0255C81.9803 79.119 81.5211 78.592 80.7909 78.592ZM85.5461 79.917V82.228H85.0191V76.823H85.5461V78.991C85.7945 78.5168 86.2461 78.1855 86.8183 78.1855C87.6463 78.1855 88.1808 78.7125 88.1808 79.6535V82.228H87.6539V79.8341C87.6539 79.0738 87.3076 78.6447 86.6602 78.6447C86.0429 78.6447 85.5461 79.1792 85.5461 79.917ZM90.8486 82.3033C89.7345 82.3033 88.9967 81.4677 88.9967 80.2105C88.9967 79.0512 89.7646 78.1855 90.8185 78.1855C91.9477 78.1855 92.6854 79.0964 92.5951 80.3686H89.5237C89.5688 81.3096 90.0657 81.8893 90.8411 81.8893C91.5035 81.8893 91.9627 81.5204 92.0907 80.8881H92.6101C92.4294 81.7688 91.7595 82.3033 90.8486 82.3033ZM90.8109 78.592C90.0958 78.592 89.5914 79.1416 89.5237 80.0073H92.0455C92.0004 79.119 91.5412 78.592 90.8109 78.592ZM93.9929 80.1052V82.228H93.466V78.2608H93.9553V79.1642C94.2263 78.577 94.8134 78.2006 95.4684 78.2006V78.7501C94.6328 78.72 93.9929 79.2394 93.9929 80.1052ZM97.6634 82.3033C96.5493 82.3033 95.8115 81.4677 95.8115 80.2105C95.8115 79.0512 96.5794 78.1855 97.6333 78.1855C98.7625 78.1855 99.5002 79.0964 99.4099 80.3686H96.3385C96.3837 81.3096 96.8805 81.8893 97.6559 81.8893C98.3183 81.8893 98.7775 81.5204 98.9055 80.8881H99.4249C99.2443 81.7688 98.5743 82.3033 97.6634 82.3033ZM97.6258 78.592C96.9106 78.592 96.4063 79.1416 96.3385 80.0073H98.8604C98.8152 79.119 98.356 78.592 97.6258 78.592Z" fill="#919191"/>
<rect x="18.4976" y="133.451" width="16.9378" height="16.9378" rx="3.76396" fill="#FAFAFA"/>
<path fill-rule="evenodd" clip-rule="evenodd" d="M24.2216 139.568C24.2216 139.014 24.2216 138.736 24.3938 138.564C24.5661 138.392 24.8433 138.392 25.3978 138.392H27.1931C28.1504 138.392 28.9265 139.182 28.9265 140.156C28.9265 141.131 28.1504 141.921 27.1931 141.921H24.2216V139.568Z" stroke="#484848" stroke-width="0.588119" stroke-linecap="round" stroke-linejoin="round"/>
<path d="M27.1342 141.92H27.6196C28.5579 141.92 29.3186 142.71 29.3186 143.685C29.3186 144.659 28.5579 145.449 27.6196 145.449H25.3978C24.8433 145.449 24.5661 145.449 24.3938 145.277C24.2216 145.105 24.2216 144.827 24.2216 144.273V141.92" stroke="#484848" stroke-width="0.588119" stroke-linecap="round" stroke-linejoin="round"/>
<rect x="39.1995" y="133.451" width="16.9378" height="16.9378" rx="3.76396" fill="#FAFAFA"/>
<path d="M47.6685 138.784H50.413" stroke="#484848" stroke-width="0.588119" stroke-linecap="round"/>
<path d="M46.1002 145.057L49.2369 138.784" stroke="#484848" stroke-width="0.588119" stroke-linecap="round"/>
<path d="M44.9241 145.057H47.6686" stroke="#484848" stroke-width="0.588119" stroke-linecap="round"/>
<rect x="59.9011" y="133.451" width="16.9378" height="16.9378" rx="3.76396" fill="#FAFAFA"/>
<path d="M65.8207 138.392V141.725C65.8207 143.132 66.9617 144.273 68.3692 144.273C69.7767 144.273 70.9177 143.132 70.9177 141.725V138.392" stroke="#484848" stroke-width="0.588119" stroke-linecap="round" stroke-linejoin="round"/>
<path d="M64.8405 145.449H71.8979" stroke="#484848" stroke-width="0.588119" stroke-linecap="round"/>
<rect x="80.6029" y="133.451" width="16.9378" height="16.9378" rx="3.76396" fill="#FAFAFA"/>
<path d="M88.2872 142.402C88.3427 142.493 88.4087 142.579 88.4849 142.659C88.9584 143.152 89.68 143.229 90.231 142.89C90.3331 142.827 90.4293 142.75 90.5171 142.659L91.7872 141.337C92.3483 140.753 92.3483 139.806 91.7872 139.222C91.226 138.638 90.3162 138.638 89.755 139.222L89.4752 139.513" stroke="#484848" stroke-width="0.588119" stroke-linecap="round"/>
<path d="M88.6677 144.328L88.3879 144.619C87.8267 145.203 86.9169 145.203 86.3557 144.619C85.7945 144.035 85.7945 143.088 86.3557 142.504L87.6258 141.182C88.187 140.598 89.0968 140.598 89.658 141.182C89.7342 141.262 89.8001 141.348 89.8556 141.439" stroke="#484848" stroke-width="0.588119" stroke-linecap="round"/>
<rect x="101.305" y="133.451" width="16.9378" height="16.9378" rx="3.76396" fill="#FAFAFA"/>
<path d="M112.127 145.449C112.61 145.449 113.001 144.998 113.001 144.441C113.001 143.56 112.962 142.974 113.567 142.277C113.738 142.08 113.738 141.761 113.567 141.564C112.962 140.867 113.001 140.281 113.001 139.4C113.001 138.843 112.61 138.392 112.127 138.392" stroke="#484848" stroke-width="0.588119" stroke-linecap="round" stroke-linejoin="round"/>
<path d="M107.422 145.449C106.939 145.449 106.547 144.998 106.547 144.441C106.547 143.56 106.586 142.974 105.982 142.277C105.811 142.08 105.811 141.761 105.982 141.564C106.573 140.883 106.547 140.289 106.547 139.4C106.547 138.843 106.939 138.392 107.422 138.392" stroke="#484848" stroke-width="0.588119" stroke-linecap="round" stroke-linejoin="round"/>
<path d="M13.359 164.208H12.9045V160.15H12.0285V159.755H13.359V164.208ZM15.682 164.273C14.8718 164.273 14.2526 163.727 14.2263 162.969H14.6742C14.7137 163.516 15.1221 163.865 15.682 163.865C16.3605 163.865 16.7491 163.443 16.7491 162.818C16.7491 162.258 16.3275 161.81 15.6952 161.81C15.267 161.81 14.9377 161.994 14.7203 162.337L14.3646 162.231L14.7533 159.755H16.9665V160.157H15.0826L14.8389 161.764C15.1089 161.52 15.4119 161.415 15.7545 161.415C16.6635 161.415 17.2168 162.047 17.2168 162.811C17.2168 163.648 16.6371 164.273 15.682 164.273ZM19.1629 159.695C20.0522 159.695 20.7109 160.334 20.7109 161.151C20.7109 161.698 20.4935 162.04 20.118 162.515L18.7809 164.208H18.2539L19.5911 162.508C19.4132 162.581 19.2288 162.607 19.0641 162.607C18.2342 162.607 17.6084 162.034 17.6084 161.164C17.6084 160.334 18.2671 159.695 19.1629 159.695ZM19.1564 160.078C18.5306 160.078 18.0827 160.532 18.0827 161.151C18.0827 161.816 18.5306 162.258 19.1564 162.258C19.7689 162.258 20.2366 161.876 20.2366 161.164C20.2366 160.532 19.7689 160.078 19.1564 160.078ZM24.1289 164.28C23.2133 164.28 22.5744 163.536 22.5744 162.469C22.5744 161.415 23.2199 160.67 24.1289 160.67C24.9391 160.67 25.5187 161.21 25.657 162.08H25.1894C25.084 161.448 24.6888 161.072 24.1289 161.072C23.4834 161.072 23.042 161.639 23.042 162.469C23.042 163.312 23.4834 163.878 24.1289 163.878C24.6953 163.878 25.084 163.509 25.1894 162.864H25.657C25.5319 163.746 24.9456 164.28 24.1289 164.28ZM26.8624 162.185V164.208H26.4013V159.478H26.8624V161.375C27.0798 160.96 27.475 160.67 27.9756 160.67C28.7001 160.67 29.1678 161.131 29.1678 161.955V164.208H28.7067V162.113C28.7067 161.448 28.4037 161.072 27.8373 161.072C27.2971 161.072 26.8624 161.54 26.8624 162.185ZM32.2728 164.208V163.575C32.0686 164.01 31.647 164.273 31.1069 164.273C30.3889 164.273 29.9212 163.872 29.9212 163.246C29.9212 162.567 30.4614 162.212 31.5153 162.212C31.7261 162.212 31.8842 162.225 32.2267 162.251V161.961C32.2267 161.382 31.9171 161.039 31.3901 161.039C30.8237 161.039 30.468 161.388 30.4614 161.955H30.0398C30.0596 161.184 30.5931 160.67 31.3835 160.67C32.1937 160.67 32.668 161.145 32.668 161.948V164.208H32.2728ZM30.3626 163.233C30.3626 163.654 30.6853 163.937 31.1728 163.937C31.8183 163.937 32.2267 163.516 32.2267 162.864V162.554C31.9303 162.528 31.7261 162.521 31.535 162.521C30.7446 162.521 30.3626 162.752 30.3626 163.233ZM34.099 162.35V164.208H33.6379V160.736H34.0661V161.527C34.3032 161.013 34.817 160.684 35.39 160.684V161.164C34.6589 161.138 34.099 161.593 34.099 162.35ZM38.0878 164.208V163.575C37.8836 164.01 37.462 164.273 36.9219 164.273C36.2039 164.273 35.7363 163.872 35.7363 163.246C35.7363 162.567 36.2764 162.212 37.3303 162.212C37.5411 162.212 37.6992 162.225 38.0417 162.251V161.961C38.0417 161.382 37.7321 161.039 37.2052 161.039C36.6387 161.039 36.283 161.388 36.2764 161.955H35.8548C35.8746 161.184 36.4081 160.67 37.1986 160.67C38.0088 160.67 38.483 161.145 38.483 161.948V164.208H38.0878ZM36.1776 163.233C36.1776 163.654 36.5004 163.937 36.9878 163.937C37.6333 163.937 38.0417 163.516 38.0417 162.864V162.554C37.7453 162.528 37.5411 162.521 37.3501 162.521C36.5596 162.521 36.1776 162.752 36.1776 163.233ZM40.7506 164.28C39.835 164.28 39.1961 163.536 39.1961 162.469C39.1961 161.415 39.8416 160.67 40.7506 160.67C41.5608 160.67 42.1404 161.21 42.2787 162.08H41.8111C41.7057 161.448 41.3105 161.072 40.7506 161.072C40.1051 161.072 39.6637 161.639 39.6637 162.469C39.6637 163.312 40.1051 163.878 40.7506 163.878C41.317 163.878 41.7057 163.509 41.8111 162.864H42.2787C42.1536 163.746 41.5674 164.28 40.7506 164.28ZM44.8081 163.766V164.175C44.6302 164.247 44.4787 164.273 44.3075 164.273C43.7344 164.273 43.2931 163.977 43.2931 163.226V161.125H42.4763V160.736H43.2931V159.709H43.7542V160.736H44.841V161.125H43.7542V163.127C43.7542 163.667 44.0176 163.852 44.3997 163.852C44.5446 163.852 44.6632 163.825 44.8081 163.766ZM46.7923 164.273C45.8174 164.273 45.1719 163.542 45.1719 162.442C45.1719 161.428 45.8438 160.67 46.7659 160.67C47.754 160.67 48.3995 161.467 48.3204 162.581H45.633C45.6725 163.404 46.1072 163.911 46.7857 163.911C47.3653 163.911 47.7671 163.588 47.8791 163.035H48.3336C48.1755 163.806 47.5893 164.273 46.7923 164.273ZM46.7593 161.026C46.1336 161.026 45.6923 161.507 45.633 162.264H47.8396C47.8001 161.487 47.3983 161.026 46.7593 161.026ZM49.5436 162.35V164.208H49.0825V160.736H49.5106V161.527C49.7477 161.013 50.2615 160.684 50.8346 160.684V161.164C50.1034 161.138 49.5436 161.593 49.5436 162.35ZM53.9934 163.239C53.9934 163.878 53.4797 164.273 52.6234 164.273C51.7605 164.273 51.2335 163.839 51.1676 163.121H51.609C51.6419 163.615 52.0305 163.924 52.6234 163.924C53.1898 163.924 53.5324 163.707 53.5324 163.312C53.5324 162.969 53.3347 162.811 52.8078 162.706L52.3072 162.607C51.6485 162.482 51.2994 162.159 51.2994 161.658C51.2994 161.079 51.8132 160.67 52.5707 160.67C53.3677 160.67 53.8946 161.098 53.9473 161.79H53.5126C53.4665 161.309 53.1174 161.026 52.5707 161.026C52.0832 161.026 51.7473 161.257 51.7473 161.619C51.7473 161.961 51.9581 162.126 52.4719 162.225L52.9922 162.324C53.6838 162.455 53.9934 162.745 53.9934 163.239ZM56.6322 162.35V164.208H56.1711V160.736H56.5993V161.527C56.8364 161.013 57.3502 160.684 57.9233 160.684V161.164C57.1921 161.138 56.6322 161.593 56.6322 162.35ZM59.8439 164.273C58.8691 164.273 58.2235 163.542 58.2235 162.442C58.2235 161.428 58.8954 160.67 59.8176 160.67C60.8056 160.67 61.4511 161.467 61.3721 162.581H58.6846C58.7241 163.404 59.1589 163.911 59.8373 163.911C60.417 163.911 60.8188 163.588 60.9308 163.035H61.3853C61.2272 163.806 60.6409 164.273 59.8439 164.273ZM59.811 161.026C59.1852 161.026 58.7439 161.507 58.6846 162.264H60.8912C60.8517 161.487 60.4499 161.026 59.811 161.026ZM62.5952 164.208H62.1341V160.736H62.5623V161.388C62.7928 160.94 63.2012 160.67 63.6952 160.67C64.2353 160.67 64.6371 160.967 64.7821 161.474C64.9994 160.987 65.4342 160.67 65.9809 160.67C66.6989 160.67 67.1468 161.145 67.1468 161.955V164.208H66.6923V162.106C66.6923 161.448 66.3893 161.072 65.8294 161.072C65.3024 161.072 64.8743 161.533 64.8743 162.172V164.208H64.4132V162.106C64.4132 161.448 64.1102 161.072 63.5503 161.072C63.0168 161.072 62.5952 161.533 62.5952 162.172V164.208ZM70.2505 164.208V163.575C70.0463 164.01 69.6248 164.273 69.0847 164.273C68.3667 164.273 67.899 163.872 67.899 163.246C67.899 162.567 68.4391 162.212 69.493 162.212C69.7038 162.212 69.8619 162.225 70.2044 162.251V161.961C70.2044 161.382 69.8948 161.039 69.3679 161.039C68.8014 161.039 68.4457 161.388 68.4391 161.955H68.0176C68.0373 161.184 68.5709 160.67 69.3613 160.67C70.1715 160.67 70.6458 161.145 70.6458 161.948V164.208H70.2505ZM68.3403 163.233C68.3403 163.654 68.6631 163.937 69.1505 163.937C69.796 163.937 70.2044 163.516 70.2044 162.864V162.554C69.908 162.528 69.7038 162.521 69.5128 162.521C68.7224 162.521 68.3403 162.752 68.3403 163.233ZM72.2151 159.933C72.2151 160.137 72.0636 160.282 71.8396 160.282C71.6223 160.282 71.4708 160.137 71.4708 159.933C71.4708 159.735 71.6223 159.59 71.8396 159.59C72.0636 159.59 72.2151 159.735 72.2151 159.933ZM72.0768 164.208H71.6157V160.736H72.0768V164.208ZM73.537 162.185V164.208H73.0759V160.736H73.504V161.388C73.728 160.96 74.1495 160.67 74.6501 160.67C75.3747 160.67 75.8424 161.131 75.8424 161.955V164.208H75.3813V162.113C75.3813 161.448 75.0783 161.072 74.5118 161.072C73.9717 161.072 73.537 161.54 73.537 162.185ZM77.4126 159.933C77.4126 160.137 77.2611 160.282 77.0371 160.282C76.8198 160.282 76.6683 160.137 76.6683 159.933C76.6683 159.735 76.8198 159.59 77.0371 159.59C77.2611 159.59 77.4126 159.735 77.4126 159.933ZM77.2743 164.208H76.8132V160.736H77.2743V164.208ZM78.7345 162.185V164.208H78.2734V160.736H78.7015V161.388C78.9255 160.96 79.347 160.67 79.8476 160.67C80.5722 160.67 81.0399 161.131 81.0399 161.955V164.208H80.5788V162.113C80.5788 161.448 80.2758 161.072 79.7093 161.072C79.1692 161.072 78.7345 161.54 78.7345 162.185ZM83.3215 165.551C82.4388 165.551 81.8855 165.09 81.846 164.313H82.2873C82.3268 164.879 82.6957 165.182 83.3149 165.182C83.9999 165.182 84.3622 164.82 84.3622 164.135V163.411C84.1514 163.898 83.7299 164.181 83.2161 164.181C82.34 164.181 81.7538 163.476 81.7538 162.422C81.7538 161.369 82.3334 160.67 83.2095 160.67C83.7299 160.67 84.1646 160.967 84.3886 161.474V160.736H84.8167V164.128C84.8167 165.024 84.27 165.551 83.3215 165.551ZM82.2149 162.422C82.2149 163.272 82.6167 163.786 83.282 163.786C83.9341 163.786 84.3688 163.259 84.3688 162.455C84.3688 161.606 83.9406 161.066 83.282 161.066C82.6233 161.066 82.2149 161.579 82.2149 162.422ZM87.8079 165.479H87.36V159.478H87.8079V165.479ZM91.2958 164.208H90.8413V160.15H89.9652V159.755H91.2958V164.208ZM94.1983 164.208H93.7372V160.736H94.1654V161.388C94.3959 160.94 94.8043 160.67 95.2983 160.67C95.8384 160.67 96.2402 160.967 96.3852 161.474C96.6025 160.987 97.0373 160.67 97.584 160.67C98.302 160.67 98.7499 161.145 98.7499 161.955V164.208H98.2954V162.106C98.2954 161.448 97.9924 161.072 97.4325 161.072C96.9055 161.072 96.4774 161.533 96.4774 162.172V164.208H96.0163V162.106C96.0163 161.448 95.7133 161.072 95.1534 161.072C94.6199 161.072 94.1983 161.533 94.1983 162.172V164.208ZM101.083 164.273C100.108 164.273 99.4626 163.542 99.4626 162.442C99.4626 161.428 100.134 160.67 101.057 160.67C102.045 160.67 102.69 161.467 102.611 162.581H99.9237C99.9632 163.404 100.398 163.911 101.076 163.911C101.656 163.911 102.058 163.588 102.17 163.035H102.624C102.466 163.806 101.88 164.273 101.083 164.273ZM101.05 161.026C100.424 161.026 99.983 161.507 99.9237 162.264H102.13C102.091 161.487 101.689 161.026 101.05 161.026ZM105.968 163.239C105.968 163.878 105.455 164.273 104.598 164.273C103.735 164.273 103.208 163.839 103.143 163.121H103.584C103.617 163.615 104.006 163.924 104.598 163.924C105.165 163.924 105.507 163.707 105.507 163.312C105.507 162.969 105.31 162.811 104.783 162.706L104.282 162.607C103.623 162.482 103.274 162.159 103.274 161.658C103.274 161.079 103.788 160.67 104.546 160.67C105.343 160.67 105.87 161.098 105.922 161.79H105.488C105.441 161.309 105.092 161.026 104.546 161.026C104.058 161.026 103.722 161.257 103.722 161.619C103.722 161.961 103.933 162.126 104.447 162.225L104.967 162.324C105.659 162.455 105.968 162.745 105.968 163.239ZM109.365 163.239C109.365 163.878 108.851 164.273 107.995 164.273C107.132 164.273 106.605 163.839 106.539 163.121H106.98C107.013 163.615 107.402 163.924 107.995 163.924C108.561 163.924 108.904 163.707 108.904 163.312C108.904 162.969 108.706 162.811 108.179 162.706L107.679 162.607C107.02 162.482 106.671 162.159 106.671 161.658C106.671 161.079 107.185 160.67 107.942 160.67C108.739 160.67 109.266 161.098 109.319 161.79H108.884C108.838 161.309 108.489 161.026 107.942 161.026C107.455 161.026 107.119 161.257 107.119 161.619C107.119 161.961 107.329 162.126 107.843 162.225L108.364 162.324C109.055 162.455 109.365 162.745 109.365 163.239ZM112.3 164.208V163.575C112.096 164.01 111.674 164.273 111.134 164.273C110.416 164.273 109.949 163.872 109.949 163.246C109.949 162.567 110.489 162.212 111.543 162.212C111.753 162.212 111.911 162.225 112.254 162.251V161.961C112.254 161.382 111.944 161.039 111.417 161.039C110.851 161.039 110.495 161.388 110.489 161.955H110.067C110.087 161.184 110.62 160.67 111.411 160.67C112.221 160.67 112.695 161.145 112.695 161.948V164.208H112.3ZM110.39 163.233C110.39 163.654 110.713 163.937 111.2 163.937C111.846 163.937 112.254 163.516 112.254 162.864V162.554C111.958 162.528 111.753 162.521 111.562 162.521C110.772 162.521 110.39 162.752 110.39 163.233ZM114.976 165.551C114.093 165.551 113.54 165.09 113.501 164.313H113.942C113.981 164.879 114.35 165.182 114.969 165.182C115.654 165.182 116.017 164.82 116.017 164.135V163.411C115.806 163.898 115.384 164.181 114.871 164.181C113.995 164.181 113.408 163.476 113.408 162.422C113.408 161.369 113.988 160.67 114.864 160.67C115.384 160.67 115.819 160.967 116.043 161.474V160.736H116.471V164.128C116.471 165.024 115.925 165.551 114.976 165.551ZM113.869 162.422C113.869 163.272 114.271 163.786 114.937 163.786C115.589 163.786 116.023 163.259 116.023 162.455C116.023 161.606 115.595 161.066 114.937 161.066C114.278 161.066 113.869 161.579 113.869 162.422ZM118.837 164.273C117.862 164.273 117.216 163.542 117.216 162.442C117.216 161.428 117.888 160.67 118.81 160.67C119.799 160.67 120.444 161.467 120.365 162.581H117.678C117.717 163.404 118.152 163.911 118.83 163.911C119.41 163.911 119.812 163.588 119.924 163.035H120.378C120.22 163.806 119.634 164.273 118.837 164.273ZM118.804 161.026C118.178 161.026 117.737 161.507 117.678 162.264H119.884C119.845 161.487 119.443 161.026 118.804 161.026ZM122.458 165.479H122.023C121.483 164.655 121.186 163.569 121.186 162.475C121.186 161.388 121.483 160.301 122.023 159.478H122.458C121.911 160.301 121.647 161.388 121.647 162.475C121.647 163.569 121.911 164.655 122.458 165.479ZM125.723 163.239C125.723 163.878 125.209 164.273 124.353 164.273C123.49 164.273 122.963 163.839 122.897 163.121H123.338C123.371 163.615 123.76 163.924 124.353 163.924C124.919 163.924 125.262 163.707 125.262 163.312C125.262 162.969 125.064 162.811 124.537 162.706L124.037 162.607C123.378 162.482 123.029 162.159 123.029 161.658C123.029 161.079 123.542 160.67 124.3 160.67C125.097 160.67 125.624 161.098 125.677 161.79H125.242C125.196 161.309 124.847 161.026 124.3 161.026C123.813 161.026 123.477 161.257 123.477 161.619C123.477 161.961 123.687 162.126 124.201 162.225L124.722 162.324C125.413 162.455 125.723 162.745 125.723 163.239ZM126.629 165.479H126.195C126.735 164.655 127.005 163.569 127.005 162.475C127.005 161.388 126.735 160.301 126.195 159.478H126.629C127.169 160.301 127.466 161.388 127.466 162.475C127.466 163.569 127.169 164.655 126.629 165.479Z" fill="#767676"/>
<path d="M17.7913 189.97L16.361 184.672L14.9213 189.97H13.858L12.0984 183.213H13.1146L14.4132 188.417L15.8341 183.213H16.9068L18.3089 188.427L19.6075 183.213H20.6237L18.8641 189.97H17.7913ZM22.4237 187.156V189.97H21.4733V183.213H22.4237V185.782C22.7531 185.246 23.2612 184.888 23.9481 184.888C24.9738 184.888 25.6513 185.547 25.6513 186.742V189.97H24.7009V187.062C24.7009 186.206 24.3245 185.726 23.6188 185.726C22.9695 185.726 22.4237 186.272 22.4237 187.156ZM29.0024 190.064C27.5909 190.064 26.5559 188.953 26.5559 187.476C26.5559 185.999 27.5909 184.888 29.0024 184.888C30.4139 184.888 31.449 185.999 31.449 187.476C31.449 188.953 30.4139 190.064 29.0024 190.064ZM29.0024 189.226C29.8211 189.226 30.4704 188.568 30.4704 187.476C30.4704 186.385 29.8211 185.735 29.0024 185.735C28.1838 185.735 27.5439 186.385 27.5439 187.476C27.5439 188.568 28.1838 189.226 29.0024 189.226ZM34.0268 187.476C34.0268 185.961 34.8925 184.888 36.2381 184.888C36.9062 184.888 37.4896 185.227 37.8378 185.839V183.213H38.7882V189.97H37.9037V189.076C37.5461 189.706 36.9439 190.064 36.2381 190.064C34.8925 190.064 34.0268 188.972 34.0268 187.476ZM35.0148 187.476C35.0148 188.586 35.5982 189.217 36.4263 189.217C37.2356 189.217 37.8378 188.558 37.8378 187.457C37.8378 186.338 37.2168 185.726 36.4263 185.726C35.5982 185.726 35.0148 186.347 35.0148 187.476ZM42.1983 190.064C40.7869 190.064 39.7518 188.953 39.7518 187.476C39.7518 185.999 40.7869 184.888 42.1983 184.888C43.6098 184.888 44.6449 185.999 44.6449 187.476C44.6449 188.953 43.6098 190.064 42.1983 190.064ZM42.1983 189.226C43.017 189.226 43.6663 188.568 43.6663 187.476C43.6663 186.385 43.017 185.735 42.1983 185.735C41.3797 185.735 40.7398 186.385 40.7398 187.476C40.7398 188.568 41.3797 189.226 42.1983 189.226ZM51.7206 184.982L49.227 191.786H48.1919L48.9071 189.904L46.9404 184.982H47.9661L49.4152 188.784L50.7608 184.982H51.7206ZM54.3283 190.064C52.9168 190.064 51.8817 188.953 51.8817 187.476C51.8817 185.999 52.9168 184.888 54.3283 184.888C55.7398 184.888 56.7749 185.999 56.7749 187.476C56.7749 188.953 55.7398 190.064 54.3283 190.064ZM54.3283 189.226C55.1469 189.226 55.7962 188.568 55.7962 187.476C55.7962 186.385 55.1469 185.735 54.3283 185.735C53.5096 185.735 52.8697 186.385 52.8697 187.476C52.8697 188.568 53.5096 189.226 54.3283 189.226ZM60.8584 187.918V184.982H61.8088V189.97H60.9243V189.179C60.6608 189.697 60.0774 190.064 59.3998 190.064C58.393 190.064 57.6967 189.471 57.6967 188.191V184.982H58.6471V188.003C58.6471 188.869 59.0799 189.226 59.701 189.226C60.3408 189.226 60.8584 188.699 60.8584 187.918ZM69.2167 189.97L68.0875 186.262L66.9489 189.97H65.9891L64.5494 184.982H65.481L66.4879 188.615L67.617 184.982H68.558L69.6684 188.624L70.6753 184.982H71.6162L70.1671 189.97H69.2167ZM75.2559 189.97V189.198C74.9454 189.753 74.3902 190.064 73.6562 190.064C72.6211 190.064 71.9436 189.471 71.9436 188.558C71.9436 187.58 72.7246 187.071 74.2114 187.071C74.5031 187.071 74.7383 187.081 75.143 187.128V186.761C75.143 186.046 74.7572 185.641 74.0985 185.641C73.4021 185.641 72.9787 186.055 72.9505 186.752H72.0848C72.1318 185.632 72.9316 184.888 74.0985 184.888C75.3312 184.888 76.0463 185.585 76.0463 186.77V189.97H75.2559ZM72.847 188.53C72.847 189.048 73.2328 189.386 73.8444 189.386C74.6442 189.386 75.143 188.888 75.143 188.125V187.721C74.776 187.674 74.5125 187.664 74.2679 187.664C73.3175 187.664 72.847 187.947 72.847 188.53ZM78.2674 187.156V189.97H77.317V184.982H78.2016V185.811C78.5403 185.255 79.1049 184.888 79.7918 184.888C80.8175 184.888 81.495 185.547 81.495 186.742V189.97H80.5446V187.062C80.5446 186.206 80.1682 185.726 79.4625 185.726C78.8132 185.726 78.2674 186.272 78.2674 187.156ZM85.5523 189.048V189.885C85.2606 190.017 85.0065 190.064 84.7054 190.064C83.7832 190.064 83.1434 189.565 83.1434 188.464V185.792H82.0424V184.982H83.1434V183.505H84.0938V184.982H85.5994V185.792H84.0938V188.248C84.0938 188.935 84.4231 189.179 84.9313 189.179C85.1571 189.179 85.3547 189.142 85.5523 189.048ZM91.2865 189.048V189.885C90.9948 190.017 90.7407 190.064 90.4396 190.064C89.5174 190.064 88.8775 189.565 88.8775 188.464V185.792H87.7766V184.982H88.8775V183.505H89.8279V184.982H91.3335V185.792H89.8279V188.248C89.8279 188.935 90.1573 189.179 90.6654 189.179C90.8912 189.179 91.0889 189.142 91.2865 189.048ZM94.1917 190.064C92.7802 190.064 91.7451 188.953 91.7451 187.476C91.7451 185.999 92.7802 184.888 94.1917 184.888C95.6032 184.888 96.6383 185.999 96.6383 187.476C96.6383 188.953 95.6032 190.064 94.1917 190.064ZM94.1917 189.226C95.0104 189.226 95.6596 188.568 95.6596 187.476C95.6596 186.385 95.0104 185.735 94.1917 185.735C93.373 185.735 92.7332 186.385 92.7332 187.476C92.7332 188.568 93.373 189.226 94.1917 189.226ZM103.526 188.483C103.526 189.462 102.764 190.064 101.437 190.064C100.119 190.064 99.3384 189.415 99.2443 188.342H100.157C100.195 188.963 100.693 189.349 101.456 189.349C102.124 189.349 102.566 189.113 102.566 188.643C102.566 188.229 102.312 188.05 101.691 187.928L100.882 187.777C99.9594 187.598 99.4419 187.128 99.4419 186.375C99.4419 185.5 100.204 184.888 101.362 184.888C102.557 184.888 103.366 185.528 103.451 186.554H102.538C102.481 185.952 102.039 185.604 101.371 185.604C100.769 185.604 100.364 185.858 100.364 186.29C100.364 186.695 100.618 186.883 101.22 186.996L102.067 187.156C103.055 187.335 103.526 187.768 103.526 188.483ZM106.615 190.064C105.175 190.064 104.206 189.019 104.206 187.448C104.206 185.971 105.213 184.888 106.587 184.888C108.073 184.888 109.061 186.093 108.892 187.711H105.175C105.25 188.728 105.759 189.32 106.596 189.32C107.302 189.32 107.791 188.935 107.951 188.285H108.892C108.647 189.396 107.791 190.064 106.615 190.064ZM106.568 185.604C105.806 185.604 105.288 186.149 105.185 187.081H107.885C107.838 186.159 107.339 185.604 106.568 185.604ZM110.853 187.156V189.97H109.902V184.982H110.787V185.811C111.126 185.255 111.69 184.888 112.377 184.888C113.403 184.888 114.08 185.547 114.08 186.742V189.97H113.13V187.062C113.13 186.206 112.754 185.726 112.048 185.726C111.399 185.726 110.853 186.272 110.853 187.156ZM114.985 187.476C114.985 185.961 115.851 184.888 117.196 184.888C117.864 184.888 118.448 185.227 118.796 185.839V183.213H119.746V189.97H118.862V189.076C118.504 189.706 117.902 190.064 117.196 190.064C115.851 190.064 114.985 188.972 114.985 187.476ZM115.973 187.476C115.973 188.586 116.556 189.217 117.385 189.217C118.194 189.217 118.796 188.558 118.796 187.457C118.796 186.338 118.175 185.726 117.385 185.726C116.556 185.726 115.973 186.347 115.973 187.476ZM124.191 183.825C124.191 184.183 123.909 184.456 123.505 184.456C123.1 184.456 122.808 184.183 122.808 183.825C122.808 183.458 123.1 183.195 123.505 183.195C123.909 183.195 124.191 183.458 124.191 183.825ZM123.984 189.97H123.034V184.982H123.984V189.97ZM128.117 189.048V189.885C127.826 190.017 127.572 190.064 127.27 190.064C126.348 190.064 125.708 189.565 125.708 188.464V185.792H124.607V184.982H125.708V183.505H126.659V184.982H128.164V185.792H126.659V188.248C126.659 188.935 126.988 189.179 127.496 189.179C127.722 189.179 127.92 189.142 128.117 189.048ZM133.852 189.048V189.885C133.56 190.017 133.306 190.064 133.005 190.064C132.082 190.064 131.443 189.565 131.443 188.464V185.792H130.342V184.982H131.443V183.505H132.393V184.982H133.899V185.792H132.393V188.248C132.393 188.935 132.722 189.179 133.23 189.179C133.456 189.179 133.654 189.142 133.852 189.048ZM136.757 190.064C135.345 190.064 134.31 188.953 134.31 187.476C134.31 185.999 135.345 184.888 136.757 184.888C138.168 184.888 139.203 185.999 139.203 187.476C139.203 188.953 138.168 190.064 136.757 190.064ZM136.757 189.226C137.575 189.226 138.225 188.568 138.225 187.476C138.225 186.385 137.575 185.735 136.757 185.735C135.938 185.735 135.298 186.385 135.298 187.476C135.298 188.568 135.938 189.226 136.757 189.226ZM140.586 184.954H139.683C139.721 183.872 140.596 183.119 141.781 183.119C143.005 183.119 143.823 183.844 143.823 184.823C143.823 185.397 143.503 185.829 142.986 186.272L142.431 186.723C141.969 187.119 141.866 187.373 141.941 188.116H141.301C141.094 187.26 141.104 186.836 141.65 186.356L142.214 185.858C142.572 185.538 142.779 185.302 142.779 184.907C142.779 184.371 142.365 183.966 141.687 183.966C141.047 183.966 140.614 184.371 140.586 184.954ZM142.355 189.311C142.355 189.716 142.026 190.017 141.603 190.017C141.179 190.017 140.85 189.716 140.85 189.311C140.85 188.888 141.17 188.586 141.603 188.586C142.035 188.586 142.355 188.888 142.355 189.311Z" fill="#1A1A1A"/>
<rect x="255.793" y="182.176" width="65.4673" height="20.9394" rx="3.52871" fill="white"/>
<rect x="255.793" y="182.176" width="65.4673" height="20.9394" rx="3.52871" stroke="#C1BFD0" stroke-width="0.470495"/>
</svg>
