<svg width="326" height="188" viewBox="0 0 326 188" fill="none" xmlns="http://www.w3.org/2000/svg">
<rect x="1.13232" y="1.97925" width="331.364" height="628.515" rx="9.00075" fill="white"/>
<rect x="1.13232" y="1.97925" width="331.364" height="628.515" rx="9.00075" stroke="#383268" stroke-width="2"/>
<path d="M15.3633 23.3896L13.2272 18.2233V23.3896H12.2767V16.633H13.5471L15.815 22.1192L18.0735 16.633H19.3534V23.3896H18.3935V18.2139L16.2479 23.3896H15.3633ZM22.7903 23.4838C21.3505 23.4838 20.3812 22.4392 20.3812 20.8677C20.3812 19.3902 21.3881 18.308 22.7621 18.308C24.2489 18.308 25.237 19.5126 25.0676 21.1312H21.3505C21.4258 22.1475 21.9339 22.7403 22.7715 22.7403C23.4772 22.7403 23.9666 22.3545 24.1266 21.7052H25.0676C24.8229 22.8156 23.9666 23.4838 22.7903 23.4838ZM22.7432 19.0232C21.981 19.0232 21.4634 19.569 21.3599 20.5007H24.0607C24.0136 19.5784 23.5149 19.0232 22.7432 19.0232ZM30.0305 21.9028C30.0305 22.8815 29.2682 23.4838 27.9414 23.4838C26.6239 23.4838 25.8429 22.8344 25.7488 21.7616H26.6616C26.6992 22.3827 27.198 22.7686 27.9602 22.7686C28.6283 22.7686 29.0706 22.5333 29.0706 22.0628C29.0706 21.6487 28.8165 21.4699 28.1955 21.3476L27.3862 21.197C26.4639 21.0182 25.9464 20.5477 25.9464 19.7949C25.9464 18.9197 26.7086 18.308 27.8661 18.308C29.0612 18.308 29.8705 18.9479 29.9552 19.9737H29.0424C28.9859 19.3714 28.5436 19.0232 27.8755 19.0232C27.2732 19.0232 26.8686 19.2773 26.8686 19.7102C26.8686 20.1148 27.1227 20.303 27.7249 20.416L28.5719 20.5759C29.56 20.7547 30.0305 21.1876 30.0305 21.9028ZM35.0206 21.9028C35.0206 22.8815 34.2583 23.4838 32.9315 23.4838C31.614 23.4838 30.8329 22.8344 30.7388 21.7616H31.6517C31.6893 22.3827 32.188 22.7686 32.9503 22.7686C33.6184 22.7686 34.0607 22.5333 34.0607 22.0628C34.0607 21.6487 33.8066 21.4699 33.1855 21.3476L32.3763 21.197C31.454 21.0182 30.9365 20.5477 30.9365 19.7949C30.9365 18.9197 31.6987 18.308 32.8562 18.308C34.0513 18.308 34.8606 18.9479 34.9453 19.9737H34.0325C33.976 19.3714 33.5337 19.0232 32.8656 19.0232C32.2633 19.0232 31.8587 19.2773 31.8587 19.7102C31.8587 20.1148 32.1128 20.303 32.715 20.416L33.562 20.5759C34.5501 20.7547 35.0206 21.1876 35.0206 21.9028ZM39.079 23.3896V22.618C38.7685 23.1732 38.2133 23.4838 37.4793 23.4838C36.4441 23.4838 35.7666 22.8909 35.7666 21.9781C35.7666 20.9994 36.5476 20.4912 38.0345 20.4912C38.3262 20.4912 38.5615 20.5007 38.9661 20.5477V20.1807C38.9661 19.4655 38.5803 19.0609 37.9216 19.0609C37.2252 19.0609 36.8017 19.4749 36.7735 20.1713H35.9077C35.9548 19.0515 36.7547 18.308 37.9216 18.308C39.1543 18.308 39.8695 19.0044 39.8695 20.1901V23.3896H39.079ZM36.67 21.9499C36.67 22.4674 37.0558 22.8062 37.6675 22.8062C38.4674 22.8062 38.9661 22.3075 38.9661 21.5452V21.1406C38.5991 21.0935 38.3356 21.0841 38.0909 21.0841C37.1405 21.0841 36.67 21.3664 36.67 21.9499ZM43.1353 25.3094C41.8272 25.3094 40.9803 24.613 40.9238 23.4838H41.8461C41.9025 24.1801 42.3542 24.5565 43.1259 24.5565C43.9822 24.5565 44.4339 24.0954 44.4339 23.2391V22.3357C44.1516 22.9379 43.587 23.2861 42.9094 23.2861C41.6673 23.2861 40.7827 22.2604 40.7827 20.7924C40.7827 19.3055 41.6296 18.308 42.8812 18.308C43.5964 18.308 44.161 18.6562 44.4998 19.2867V18.4021H45.3844V23.2203C45.3844 24.5283 44.5468 25.3094 43.1353 25.3094ZM41.7425 20.7924C41.7425 21.8275 42.2507 22.458 43.0788 22.458C43.8881 22.458 44.4339 21.8087 44.4339 20.8206C44.4339 19.7855 43.8975 19.1267 43.0788 19.1267C42.2601 19.1267 41.7425 19.7666 41.7425 20.7924ZM48.7516 23.4838C47.3118 23.4838 46.3425 22.4392 46.3425 20.8677C46.3425 19.3902 47.3495 18.308 48.7234 18.308C50.2102 18.308 51.1983 19.5126 51.0289 21.1312H47.3118C47.3871 22.1475 47.8953 22.7403 48.7328 22.7403C49.4386 22.7403 49.9279 22.3545 50.0879 21.7052H51.0289C50.7842 22.8156 49.9279 23.4838 48.7516 23.4838ZM48.7045 19.0232C47.9423 19.0232 47.4247 19.569 47.3212 20.5007H50.022C49.975 19.5784 49.4762 19.0232 48.7045 19.0232ZM57.0268 23.5308C55.1447 23.5308 53.6861 21.9969 53.6861 20.0019C53.6861 18.0163 55.1447 16.4918 57.0268 16.4918C58.7207 16.4918 60.0758 17.6211 60.3299 19.2867H59.2288C59.0406 18.1951 58.156 17.4235 57.0362 17.4235C55.6999 17.4235 54.7589 18.5056 54.7589 20.0019C54.7589 21.517 55.6999 22.5992 57.0362 22.5992C58.156 22.5992 59.0406 21.8181 59.2288 20.7265H60.3299C60.0758 22.4016 58.7207 23.5308 57.0268 23.5308ZM62.2808 20.8394V23.3896H61.3304V18.4021H62.2149V19.4561C62.5631 18.7691 63.316 18.3363 64.1347 18.3363V19.3244C63.0619 19.2679 62.2808 19.7384 62.2808 20.8394ZM66.9199 23.4838C65.4801 23.4838 64.5109 22.4392 64.5109 20.8677C64.5109 19.3902 65.5178 18.308 66.8917 18.308C68.3785 18.308 69.3666 19.5126 69.1972 21.1312H65.4801C65.5554 22.1475 66.0636 22.7403 66.9011 22.7403C67.6069 22.7403 68.0962 22.3545 68.2562 21.7052H69.1972C68.9526 22.8156 68.0962 23.4838 66.9199 23.4838ZM66.8729 19.0232C66.1106 19.0232 65.5931 19.569 65.4895 20.5007H68.1903C68.1433 19.5784 67.6445 19.0232 66.8729 19.0232ZM73.2285 23.3896V22.618C72.918 23.1732 72.3627 23.4838 71.6287 23.4838C70.5936 23.4838 69.916 22.8909 69.916 21.9781C69.916 20.9994 70.6971 20.4912 72.1839 20.4912C72.4757 20.4912 72.7109 20.5007 73.1156 20.5477V20.1807C73.1156 19.4655 72.7297 19.0609 72.071 19.0609C71.3746 19.0609 70.9512 19.4749 70.9229 20.1713H70.0572C70.1042 19.0515 70.9041 18.308 72.071 18.308C73.3038 18.308 74.019 19.0044 74.019 20.1901V23.3896H73.2285ZM70.8194 21.9499C70.8194 22.4674 71.2053 22.8062 71.8169 22.8062C72.6168 22.8062 73.1156 22.3075 73.1156 21.5452V21.1406C72.7486 21.0935 72.4851 21.0841 72.2404 21.0841C71.29 21.0841 70.8194 21.3664 70.8194 21.9499ZM78.0575 22.4674V23.305C77.7658 23.4367 77.5117 23.4838 77.2106 23.4838C76.2883 23.4838 75.6484 22.985 75.6484 21.884V19.2114H74.5474V18.4021H75.6484V16.9247H76.5989V18.4021H78.1046V19.2114H76.5989V21.6675C76.5989 22.3545 76.9283 22.5992 77.4364 22.5992C77.6623 22.5992 77.8599 22.5615 78.0575 22.4674ZM80.1691 17.2447C80.1691 17.6023 79.8868 17.8752 79.4821 17.8752C79.0775 17.8752 78.7858 17.6023 78.7858 17.2447C78.7858 16.8777 79.0775 16.6142 79.4821 16.6142C79.8868 16.6142 80.1691 16.8777 80.1691 17.2447ZM79.9621 23.3896H79.0116V18.4021H79.9621V23.3896ZM83.3706 23.4838C81.9591 23.4838 80.9239 22.3733 80.9239 20.8959C80.9239 19.4185 81.9591 18.308 83.3706 18.308C84.7822 18.308 85.8173 19.4185 85.8173 20.8959C85.8173 22.3733 84.7822 23.4838 83.3706 23.4838ZM83.3706 22.6462C84.1893 22.6462 84.8386 21.9875 84.8386 20.8959C84.8386 19.8043 84.1893 19.155 83.3706 19.155C82.5519 19.155 81.912 19.8043 81.912 20.8959C81.912 21.9875 82.5519 22.6462 83.3706 22.6462ZM87.7367 20.5759V23.3896H86.7862V18.4021H87.6708V19.2303C88.0096 18.675 88.5742 18.308 89.2612 18.308C90.2869 18.308 90.9645 18.9668 90.9645 20.1619V23.3896H90.014V20.4818C90.014 19.6255 89.6376 19.1456 88.9318 19.1456C88.2825 19.1456 87.7367 19.6914 87.7367 20.5759Z" fill="#1A1A1A"/>
<path d="M15.4095 36.7422L14.9154 35.4313H12.7087L12.208 36.7422H11.7206L13.5584 32.0125H14.0986L15.9299 36.7422H15.4095ZM13.8153 32.5395L12.8602 35.0295H14.7573L13.8153 32.5395ZM16.1544 35.0031C16.1544 33.936 16.7472 33.2048 17.6826 33.2048C18.203 33.2048 18.6444 33.5012 18.8749 33.9953V32.0125H19.336V36.7422H18.9079V36.011C18.6641 36.5182 18.2162 36.8081 17.6826 36.8081C16.7472 36.8081 16.1544 36.0703 16.1544 35.0031ZM16.6221 35.0031C16.6221 35.8858 17.07 36.4062 17.7485 36.4062C18.4204 36.4062 18.8815 35.8595 18.8815 34.99C18.8815 34.1139 18.4072 33.6066 17.7485 33.6066C17.07 33.6066 16.6221 34.1204 16.6221 35.0031ZM20.0784 35.0031C20.0784 33.936 20.6713 33.2048 21.6067 33.2048C22.1271 33.2048 22.5684 33.5012 22.799 33.9953V32.0125H23.2601V36.7422H22.8319V36.011C22.5882 36.5182 22.1403 36.8081 21.6067 36.8081C20.6713 36.8081 20.0784 36.0703 20.0784 35.0031ZM20.5461 35.0031C20.5461 35.8858 20.9941 36.4062 21.6726 36.4062C22.3445 36.4062 22.8056 35.8595 22.8056 34.99C22.8056 34.1139 22.3313 33.6066 21.6726 33.6066C20.9941 33.6066 20.5461 34.1204 20.5461 35.0031ZM28.8177 35.0031C28.8177 36.0703 28.2183 36.8081 27.2895 36.8081C26.7559 36.8081 26.308 36.5182 26.0642 36.011V36.7422H25.6361V32.0125H26.0972V34.0019C26.3211 33.4947 26.7625 33.2048 27.2895 33.2048C28.2183 33.2048 28.8177 33.936 28.8177 35.0031ZM28.35 35.0031C28.35 34.1204 27.8955 33.6066 27.217 33.6066C26.5649 33.6066 26.0906 34.1139 26.0906 34.99C26.0906 35.8595 26.5517 36.4062 27.217 36.4062C27.8955 36.4062 28.35 35.8858 28.35 35.0031ZM30.0212 34.8846V36.7422H29.5601V33.2707H29.9883V34.0612C30.2254 33.5474 30.7392 33.218 31.3123 33.218V33.6989C30.5811 33.6725 30.0212 34.127 30.0212 34.8846ZM33.2594 36.8081C32.3043 36.8081 31.6126 36.0505 31.6126 35.0031C31.6126 33.9624 32.3043 33.2114 33.2594 33.2114C34.2212 33.2114 34.9129 33.9624 34.9129 35.0031C34.9129 36.0505 34.2212 36.8081 33.2594 36.8081ZM33.2594 36.4062C33.9379 36.4062 34.4452 35.8661 34.4452 35.0031C34.4452 34.1534 33.9379 33.6132 33.2594 33.6132C32.5875 33.6132 32.0803 34.1534 32.0803 35.0031C32.0803 35.8661 32.5875 36.4062 33.2594 36.4062ZM37.7928 36.7422V36.1098C37.5886 36.5446 37.167 36.8081 36.6268 36.8081C35.9088 36.8081 35.4411 36.4062 35.4411 35.7804C35.4411 35.102 35.9813 34.7462 37.0352 34.7462C37.246 34.7462 37.4041 34.7594 37.7467 34.7858V34.4959C37.7467 33.9162 37.4371 33.5737 36.9101 33.5737C36.3436 33.5737 35.9879 33.9228 35.9813 34.4893H35.5597C35.5795 33.7186 36.113 33.2048 36.9035 33.2048C37.7137 33.2048 38.188 33.6791 38.188 34.4828V36.7422H37.7928ZM35.8825 35.7673C35.8825 36.1889 36.2052 36.4721 36.6927 36.4721C37.3383 36.4721 37.7467 36.0505 37.7467 35.3984V35.0888C37.4502 35.0624 37.246 35.0558 37.055 35.0558C36.2645 35.0558 35.8825 35.2864 35.8825 35.7673ZM38.9011 35.0031C38.9011 33.936 39.4939 33.2048 40.4293 33.2048C40.9497 33.2048 41.3911 33.5012 41.6216 33.9953V32.0125H42.0827V36.7422H41.6546V36.011C41.4108 36.5182 40.9629 36.8081 40.4293 36.8081C39.4939 36.8081 38.9011 36.0703 38.9011 35.0031ZM39.3688 35.0031C39.3688 35.8858 39.8167 36.4062 40.4952 36.4062C41.1671 36.4062 41.6282 35.8595 41.6282 34.99C41.6282 34.1139 41.1539 33.6066 40.4952 33.6066C39.8167 33.6066 39.3688 34.1204 39.3688 35.0031ZM44.3798 36.8146C43.4641 36.8146 42.8252 36.0703 42.8252 35.0031C42.8252 33.9492 43.4707 33.2048 44.3798 33.2048C45.19 33.2048 45.7697 33.745 45.908 34.6145H45.4403C45.3349 33.9821 44.9397 33.6066 44.3798 33.6066C43.7342 33.6066 43.2928 34.1731 43.2928 35.0031C43.2928 35.8463 43.7342 36.4128 44.3798 36.4128C44.9463 36.4128 45.3349 36.0439 45.4403 35.3984H45.908C45.7828 36.2811 45.1966 36.8146 44.3798 36.8146ZM48.7866 36.7422V36.1098C48.5824 36.5446 48.1608 36.8081 47.6206 36.8081C46.9026 36.8081 46.4349 36.4062 46.4349 35.7804C46.4349 35.102 46.9751 34.7462 48.0291 34.7462C48.2398 34.7462 48.3979 34.7594 48.7405 34.7858V34.4959C48.7405 33.9162 48.4309 33.5737 47.9039 33.5737C47.3374 33.5737 46.9817 33.9228 46.9751 34.4893H46.5535C46.5733 33.7186 47.1068 33.2048 47.8973 33.2048C48.7075 33.2048 49.1818 33.6791 49.1818 34.4828V36.7422H48.7866ZM46.8763 35.7673C46.8763 36.1889 47.1991 36.4721 47.6865 36.4721C48.3321 36.4721 48.7405 36.0505 48.7405 35.3984V35.0888C48.444 35.0624 48.2398 35.0558 48.0488 35.0558C47.2583 35.0558 46.8763 35.2864 46.8763 35.7673ZM52.7472 35.7739C52.7472 36.4128 52.2334 36.8081 51.377 36.8081C50.5141 36.8081 49.9871 36.3733 49.9212 35.6553H50.3626C50.3955 36.1493 50.7842 36.4589 51.377 36.4589C51.9435 36.4589 52.2861 36.2416 52.2861 35.8463C52.2861 35.5038 52.0885 35.3457 51.5615 35.2403L51.0608 35.1415C50.4021 35.0163 50.053 34.6935 50.053 34.1929C50.053 33.6132 50.5668 33.2048 51.3243 33.2048C52.1214 33.2048 52.6484 33.633 52.7011 34.3247H52.2663C52.2202 33.8438 51.8711 33.5605 51.3243 33.5605C50.8369 33.5605 50.5009 33.7911 50.5009 34.1534C50.5009 34.4959 50.7117 34.6606 51.2255 34.7594L51.7459 34.8582C52.4376 34.99 52.7472 35.2798 52.7472 35.7739ZM55.3078 36.3008V36.7093C55.1299 36.7817 54.9784 36.8081 54.8072 36.8081C54.2341 36.8081 53.7927 36.5116 53.7927 35.7607V33.6593H52.9759V33.2707H53.7927V32.2431H54.2538V33.2707H55.3407V33.6593H54.2538V35.6619C54.2538 36.202 54.5173 36.3865 54.8994 36.3865C55.0443 36.3865 55.1629 36.3601 55.3078 36.3008ZM57.8756 34.7199V36.7422H57.4145V33.2707H57.8427V33.9228C58.0667 33.4947 58.4883 33.2048 58.9889 33.2048C59.7135 33.2048 60.1812 33.6659 60.1812 34.4893V36.7422H59.7201V34.6474C59.7201 33.9821 59.4171 33.6066 58.8506 33.6066C58.3104 33.6066 57.8756 34.0743 57.8756 34.7199ZM63.2863 36.7422V36.1098C63.0821 36.5446 62.6605 36.8081 62.1204 36.8081C61.4024 36.8081 60.9347 36.4062 60.9347 35.7804C60.9347 35.102 61.4748 34.7462 62.5288 34.7462C62.7396 34.7462 62.8977 34.7594 63.2402 34.7858V34.4959C63.2402 33.9162 62.9306 33.5737 62.4036 33.5737C61.8371 33.5737 61.4814 33.9228 61.4748 34.4893H61.0532C61.073 33.7186 61.6066 33.2048 62.397 33.2048C63.2073 33.2048 63.6816 33.6791 63.6816 34.4828V36.7422H63.2863ZM61.376 35.7673C61.376 36.1889 61.6988 36.4721 62.1862 36.4721C62.8318 36.4721 63.2402 36.0505 63.2402 35.3984V35.0888C62.9438 35.0624 62.7396 35.0558 62.5485 35.0558C61.7581 35.0558 61.376 35.2864 61.376 35.7673ZM65.1126 36.7422H64.6515V33.2707H65.0797V33.9228C65.3103 33.4749 65.7187 33.2048 66.2127 33.2048C66.7529 33.2048 67.1547 33.5012 67.2996 34.0085C67.517 33.521 67.9518 33.2048 68.4985 33.2048C69.2165 33.2048 69.6645 33.6791 69.6645 34.4893V36.7422H69.2099V34.6408C69.2099 33.9821 68.9069 33.6066 68.347 33.6066C67.82 33.6066 67.3918 34.0678 67.3918 34.7067V36.7422H66.9307V34.6408C66.9307 33.9821 66.6277 33.6066 66.0678 33.6066C65.5342 33.6066 65.1126 34.0678 65.1126 34.7067V36.7422ZM71.9977 36.8081C71.0228 36.8081 70.3772 36.0769 70.3772 34.9768C70.3772 33.9624 71.0491 33.2048 71.9713 33.2048C72.9594 33.2048 73.605 34.0019 73.5259 35.1151H70.8383C70.8779 35.9385 71.3126 36.4458 71.9911 36.4458C72.5708 36.4458 72.9726 36.123 73.0846 35.5697H73.5391C73.381 36.3404 72.7948 36.8081 71.9977 36.8081ZM71.9648 33.5605C71.339 33.5605 70.8976 34.0414 70.8383 34.7989H73.0451C73.0055 34.0216 72.6037 33.5605 71.9648 33.5605ZM77.7989 36.7422V36.1098C77.5947 36.5446 77.1731 36.8081 76.633 36.8081C75.915 36.8081 75.4473 36.4062 75.4473 35.7804C75.4473 35.102 75.9874 34.7462 77.0414 34.7462C77.2522 34.7462 77.4103 34.7594 77.7528 34.7858V34.4959C77.7528 33.9162 77.4432 33.5737 76.9162 33.5737C76.3497 33.5737 75.994 33.9228 75.9874 34.4893H75.5658C75.5856 33.7186 76.1192 33.2048 76.9096 33.2048C77.7199 33.2048 78.1942 33.6791 78.1942 34.4828V36.7422H77.7989ZM75.8886 35.7673C75.8886 36.1889 76.2114 36.4721 76.6989 36.4721C77.3444 36.4721 77.7528 36.0505 77.7528 35.3984V35.0888C77.4564 35.0624 77.2522 35.0558 77.0612 35.0558C76.2707 35.0558 75.8886 35.2864 75.8886 35.7673ZM79.6252 34.7199V36.7422H79.1641V33.2707H79.5923V33.9228C79.8163 33.4947 80.2379 33.2048 80.7385 33.2048C81.4631 33.2048 81.9308 33.6659 81.9308 34.4893V36.7422H81.4697V34.6474C81.4697 33.9821 81.1667 33.6066 80.6002 33.6066C80.06 33.6066 79.6252 34.0743 79.6252 34.7199ZM82.6447 35.0031C82.6447 33.936 83.2376 33.2048 84.173 33.2048C84.6934 33.2048 85.1347 33.5012 85.3653 33.9953V32.0125H85.8264V36.7422H85.3982V36.011C85.1545 36.5182 84.7066 36.8081 84.173 36.8081C83.2376 36.8081 82.6447 36.0703 82.6447 35.0031ZM83.1124 35.0031C83.1124 35.8858 83.5604 36.4062 84.2389 36.4062C84.9108 36.4062 85.3719 35.8595 85.3719 34.99C85.3719 34.1139 84.8976 33.6066 84.2389 33.6066C83.5604 33.6066 83.1124 34.1204 83.1124 35.0031ZM89.9875 36.3008V36.7093C89.8097 36.7817 89.6581 36.8081 89.4869 36.8081C88.9138 36.8081 88.4724 36.5116 88.4724 35.7607V33.6593H87.6556V33.2707H88.4724V32.2431H88.9335V33.2707H90.0204V33.6593H88.9335V35.6619C88.9335 36.202 89.197 36.3865 89.5791 36.3865C89.724 36.3865 89.8426 36.3601 89.9875 36.3008ZM91.9718 36.8081C90.9969 36.8081 90.3513 36.0769 90.3513 34.9768C90.3513 33.9624 91.0233 33.2048 91.9455 33.2048C92.9336 33.2048 93.5791 34.0019 93.5001 35.1151H90.8125C90.852 35.9385 91.2867 36.4458 91.9652 36.4458C92.5449 36.4458 92.9467 36.123 93.0587 35.5697H93.5132C93.3551 36.3404 92.7689 36.8081 91.9718 36.8081ZM91.9389 33.5605C91.3131 33.5605 90.8717 34.0414 90.8125 34.7989H93.0192C92.9797 34.0216 92.5779 33.5605 91.9389 33.5605ZM94.7232 36.7422H94.2621V33.2707H94.6903V33.9228C94.9209 33.4749 95.3293 33.2048 95.8233 33.2048C96.3635 33.2048 96.7653 33.5012 96.9102 34.0085C97.1276 33.521 97.5624 33.2048 98.1091 33.2048C98.8271 33.2048 99.2751 33.6791 99.2751 34.4893V36.7422H98.8205V34.6408C98.8205 33.9821 98.5175 33.6066 97.9576 33.6066C97.4306 33.6066 97.0024 34.0678 97.0024 34.7067V36.7422H96.5413V34.6408C96.5413 33.9821 96.2383 33.6066 95.6784 33.6066C95.1448 33.6066 94.7232 34.0678 94.7232 34.7067V36.7422ZM103.426 35.0031C103.426 36.0769 102.827 36.8081 101.905 36.8081C101.384 36.8081 100.943 36.5248 100.706 36.0308V38.0135H100.245V33.2707H100.673V34.0216C100.91 33.5078 101.371 33.2048 101.905 33.2048C102.827 33.2048 103.426 33.9426 103.426 35.0031ZM102.959 35.0031C102.959 34.127 102.504 33.6066 101.826 33.6066C101.18 33.6066 100.699 34.1204 100.699 35.0031C100.699 35.8661 101.167 36.4062 101.826 36.4062C102.504 36.4062 102.959 35.8924 102.959 35.0031ZM104.63 36.7422H104.169V32.0125H104.63V36.7422ZM107.763 36.7422V36.1098C107.559 36.5446 107.138 36.8081 106.597 36.8081C105.879 36.8081 105.412 36.4062 105.412 35.7804C105.412 35.102 105.952 34.7462 107.006 34.7462C107.217 34.7462 107.375 34.7594 107.717 34.7858V34.4959C107.717 33.9162 107.408 33.5737 106.881 33.5737C106.314 33.5737 105.958 33.9228 105.952 34.4893H105.53C105.55 33.7186 106.084 33.2048 106.874 33.2048C107.684 33.2048 108.159 33.6791 108.159 34.4828V36.7422H107.763ZM105.853 35.7673C105.853 36.1889 106.176 36.4721 106.663 36.4721C107.309 36.4721 107.717 36.0505 107.717 35.3984V35.0888C107.421 35.0624 107.217 35.0558 107.026 35.0558C106.235 35.0558 105.853 35.2864 105.853 35.7673ZM110.894 36.3008V36.7093C110.717 36.7817 110.565 36.8081 110.394 36.8081C109.821 36.8081 109.379 36.5116 109.379 35.7607V33.6593H108.563V33.2707H109.379V32.2431H109.84V33.2707H110.927V33.6593H109.84V35.6619C109.84 36.202 110.104 36.3865 110.486 36.3865C110.631 36.3865 110.749 36.3601 110.894 36.3008ZM112.879 36.8081C111.904 36.8081 111.258 36.0769 111.258 34.9768C111.258 33.9624 111.93 33.2048 112.852 33.2048C113.84 33.2048 114.486 34.0019 114.407 35.1151H111.719C111.759 35.9385 112.194 36.4458 112.872 36.4458C113.452 36.4458 113.854 36.123 113.966 35.5697H114.42C114.262 36.3404 113.676 36.8081 112.879 36.8081ZM112.846 33.5605C112.22 33.5605 111.779 34.0414 111.719 34.7989H113.926C113.887 34.0216 113.485 33.5605 112.846 33.5605ZM119.727 35.0031C119.727 36.0703 119.128 36.8081 118.199 36.8081C117.666 36.8081 117.218 36.5182 116.974 36.011V36.7422H116.546V32.0125H117.007V34.0019C117.231 33.4947 117.672 33.2048 118.199 33.2048C119.128 33.2048 119.727 33.936 119.727 35.0031ZM119.26 35.0031C119.26 34.1204 118.805 33.6066 118.127 33.6066C117.474 33.6066 117 34.1139 117 34.99C117 35.8595 117.461 36.4062 118.127 36.4062C118.805 36.4062 119.26 35.8858 119.26 35.0031ZM121.833 36.8081C120.858 36.8081 120.213 36.0769 120.213 34.9768C120.213 33.9624 120.885 33.2048 121.807 33.2048C122.795 33.2048 123.441 34.0019 123.362 35.1151H120.674C120.713 35.9385 121.148 36.4458 121.827 36.4458C122.406 36.4458 122.808 36.123 122.92 35.5697H123.375C123.217 36.3404 122.63 36.8081 121.833 36.8081ZM121.8 33.5605C121.175 33.5605 120.733 34.0414 120.674 34.7989H122.881C122.841 34.0216 122.439 33.5605 121.8 33.5605ZM124.585 36.7422H124.124V32.0125H124.585V36.7422ZM126.974 36.8081C126.019 36.8081 125.327 36.0505 125.327 35.0031C125.327 33.9624 126.019 33.2114 126.974 33.2114C127.936 33.2114 128.627 33.9624 128.627 35.0031C128.627 36.0505 127.936 36.8081 126.974 36.8081ZM126.974 36.4062C127.652 36.4062 128.16 35.8661 128.16 35.0031C128.16 34.1534 127.652 33.6132 126.974 33.6132C126.302 33.6132 125.795 34.1534 125.795 35.0031C125.795 35.8661 126.302 36.4062 126.974 36.4062ZM132.194 36.7422L131.285 33.8833L130.382 36.7422H129.915L128.9 33.2707H129.355L130.158 36.09L131.061 33.2707H131.515L132.411 36.0966L133.215 33.2707H133.676L132.655 36.7422H132.194Z" fill="#767676"/>
<path d="M17.4242 70.5042L15.9938 65.2061L14.5541 70.5042H13.4907L11.7309 63.7475H12.7473L14.0459 68.9514L15.4669 63.7475H16.5396L17.9418 68.9608L19.2404 63.7475H20.2568L18.497 70.5042H17.4242ZM22.0569 67.6904V70.5042H21.1064V63.7475H22.0569V66.3165C22.3862 65.7801 22.8944 65.4225 23.5813 65.4225C24.6071 65.4225 25.2846 66.0813 25.2846 67.2764V70.5042H24.3342V67.5963C24.3342 66.74 23.9578 66.2601 23.252 66.2601C22.6027 66.2601 22.0569 66.8059 22.0569 67.6904ZM29.5675 70.5042V69.7325C29.257 70.2877 28.7018 70.5983 27.9678 70.5983C26.9326 70.5983 26.2551 70.0054 26.2551 69.0926C26.2551 68.1139 27.0361 67.6057 28.523 67.6057C28.8147 67.6057 29.05 67.6152 29.4546 67.6622V67.2952C29.4546 66.58 29.0688 66.1754 28.4101 66.1754C27.7137 66.1754 27.2902 66.5894 27.262 67.2858H26.3962C26.4433 66.166 27.2432 65.4225 28.4101 65.4225C29.6428 65.4225 30.358 66.1189 30.358 67.3046V70.5042H29.5675ZM27.1585 69.0644C27.1585 69.5819 27.5443 69.9207 28.156 69.9207C28.9559 69.9207 29.4546 69.422 29.4546 68.6597V68.2551C29.0876 68.208 28.8241 68.1986 28.5794 68.1986C27.629 68.1986 27.1585 68.4809 27.1585 69.0644ZM34.3965 69.5819V70.4195C34.1048 70.5512 33.8507 70.5983 33.5496 70.5983C32.6274 70.5983 31.9875 70.0995 31.9875 68.9985V66.3259H30.8865V65.5166H31.9875V64.0392H32.9379V65.5166H34.4436V66.3259H32.9379V68.782C32.9379 69.469 33.2673 69.7137 33.7755 69.7137C34.0013 69.7137 34.1989 69.676 34.3965 69.5819ZM38.2677 70.5042H37.3173V65.5166H38.2019V66.3448C38.5407 65.7707 39.077 65.4225 39.764 65.4225C40.498 65.4225 41.0532 65.7989 41.2791 66.4577C41.6273 65.8178 42.2013 65.4225 42.9635 65.4225C43.9893 65.4225 44.648 66.0907 44.648 67.2764V70.5042H43.6976V67.5775C43.6976 66.7494 43.3305 66.2601 42.6342 66.2601C41.9849 66.2601 41.4579 66.8059 41.4579 67.6434V70.5042H40.5074V67.5775C40.5074 66.7494 40.1404 66.2601 39.4441 66.2601C38.7853 66.2601 38.2677 66.8059 38.2677 67.6434V70.5042ZM47.9705 70.5983C46.5307 70.5983 45.5614 69.5537 45.5614 67.9822C45.5614 66.5047 46.5683 65.4225 47.9422 65.4225C49.4291 65.4225 50.4172 66.6271 50.2478 68.2457H46.5307C46.606 69.262 47.1141 69.8548 47.9516 69.8548C48.6574 69.8548 49.1468 69.469 49.3067 68.8197H50.2478C50.0031 69.9301 49.1468 70.5983 47.9705 70.5983ZM47.9234 66.1377C47.1612 66.1377 46.6436 66.6835 46.5401 67.6152H49.2409C49.1938 66.6929 48.6951 66.1377 47.9234 66.1377ZM55.2107 69.0173C55.2107 69.996 54.4484 70.5983 53.1216 70.5983C51.8041 70.5983 51.023 69.9489 50.9289 68.8762H51.8417C51.8794 69.4972 52.3781 69.8831 53.1404 69.8831C53.8085 69.8831 54.2508 69.6478 54.2508 69.1773C54.2508 68.7632 53.9967 68.5844 53.3756 68.4621L52.5663 68.3115C51.6441 68.1327 51.1265 67.6622 51.1265 66.9094C51.1265 66.0342 51.8888 65.4225 53.0463 65.4225C54.2414 65.4225 55.0507 66.0624 55.1354 67.0882H54.2226C54.1661 66.4859 53.7238 66.1377 53.0557 66.1377C52.4534 66.1377 52.0488 66.3918 52.0488 66.8247C52.0488 67.2293 52.3029 67.4175 52.9051 67.5305L53.7521 67.6904C54.7401 67.8692 55.2107 68.3021 55.2107 69.0173ZM60.2007 69.0173C60.2007 69.996 59.4385 70.5983 58.1116 70.5983C56.7942 70.5983 56.0131 69.9489 55.919 68.8762H56.8318C56.8695 69.4972 57.3682 69.8831 58.1305 69.8831C58.7986 69.8831 59.2409 69.6478 59.2409 69.1773C59.2409 68.7632 58.9868 68.5844 58.3657 68.4621L57.5564 68.3115C56.6342 68.1327 56.1166 67.6622 56.1166 66.9094C56.1166 66.0342 56.8789 65.4225 58.0364 65.4225C59.2315 65.4225 60.0408 66.0624 60.1255 67.0882H59.2127C59.1562 66.4859 58.7139 66.1377 58.0458 66.1377C57.4435 66.1377 57.0389 66.3918 57.0389 66.8247C57.0389 67.2293 57.2929 67.4175 57.8952 67.5305L58.7421 67.6904C59.7302 67.8692 60.2007 68.3021 60.2007 69.0173ZM64.2592 70.5042V69.7325C63.9487 70.2877 63.3934 70.5983 62.6594 70.5983C61.6243 70.5983 60.9467 70.0054 60.9467 69.0926C60.9467 68.1139 61.7278 67.6057 63.2147 67.6057C63.5064 67.6057 63.7416 67.6152 64.1463 67.6622V67.2952C64.1463 66.58 63.7605 66.1754 63.1017 66.1754C62.4054 66.1754 61.9819 66.5894 61.9537 67.2858H61.0879C61.135 66.166 61.9348 65.4225 63.1017 65.4225C64.3345 65.4225 65.0497 66.1189 65.0497 67.3046V70.5042H64.2592ZM61.8501 69.0644C61.8501 69.5819 62.236 69.9207 62.8476 69.9207C63.6475 69.9207 64.1463 69.422 64.1463 68.6597V68.2551C63.7793 68.208 63.5158 68.1986 63.2711 68.1986C62.3207 68.1986 61.8501 68.4809 61.8501 69.0644ZM68.3155 72.4239C67.0074 72.4239 66.1605 71.7275 66.104 70.5983H67.0262C67.0827 71.2946 67.5344 71.671 68.306 71.671C69.1624 71.671 69.6141 71.2099 69.6141 70.3536V69.4502C69.3318 70.0525 68.7672 70.4006 68.0896 70.4006C66.8474 70.4006 65.9629 69.3749 65.9629 67.9069C65.9629 66.42 66.8098 65.4225 68.0614 65.4225C68.7766 65.4225 69.3412 65.7707 69.68 66.4012V65.5166H70.5645V70.3348C70.5645 71.6428 69.727 72.4239 68.3155 72.4239ZM66.9227 67.9069C66.9227 68.942 67.4309 69.5725 68.259 69.5725C69.0683 69.5725 69.6141 68.9232 69.6141 67.9351C69.6141 66.9 69.0777 66.2412 68.259 66.2412C67.4403 66.2412 66.9227 66.8811 66.9227 67.9069ZM73.9318 70.5983C72.492 70.5983 71.5227 69.5537 71.5227 67.9822C71.5227 66.5047 72.5296 65.4225 73.9035 65.4225C75.3904 65.4225 76.3785 66.6271 76.2091 68.2457H72.492C72.5673 69.262 73.0754 69.8548 73.913 69.8548C74.6187 69.8548 75.1081 69.469 75.2681 68.8197H76.2091C75.9644 69.9301 75.1081 70.5983 73.9318 70.5983ZM73.8847 66.1377C73.1225 66.1377 72.6049 66.6835 72.5014 67.6152H75.2022C75.1551 66.6929 74.6564 66.1377 73.8847 66.1377ZM78.8286 68.0104C78.8286 66.4953 79.6944 65.4225 81.0401 65.4225C81.7082 65.4225 82.2917 65.7613 82.6398 66.373V63.7475H83.5903V70.5042H82.7057V69.6102C82.3481 70.2407 81.7459 70.5983 81.0401 70.5983C79.6944 70.5983 78.8286 69.5066 78.8286 68.0104ZM79.8167 68.0104C79.8167 69.1208 80.4002 69.7513 81.2283 69.7513C82.0376 69.7513 82.6398 69.0926 82.6398 67.9916C82.6398 66.8717 82.0188 66.2601 81.2283 66.2601C80.4002 66.2601 79.8167 66.8811 79.8167 68.0104ZM87.0006 70.5983C85.5891 70.5983 84.5539 69.4878 84.5539 68.0104C84.5539 66.533 85.5891 65.4225 87.0006 65.4225C88.4122 65.4225 89.4473 66.533 89.4473 68.0104C89.4473 69.4878 88.4122 70.5983 87.0006 70.5983ZM87.0006 69.7607C87.8193 69.7607 88.4686 69.102 88.4686 68.0104C88.4686 66.9188 87.8193 66.2695 87.0006 66.2695C86.1819 66.2695 85.542 66.9188 85.542 68.0104C85.542 69.102 86.1819 69.7607 87.0006 69.7607ZM96.5234 65.5166L94.0297 72.3204H92.9945L93.7097 70.4383L91.7429 65.5166H92.7687L94.2179 69.3184L95.5636 65.5166H96.5234ZM99.1312 70.5983C97.7197 70.5983 96.6845 69.4878 96.6845 68.0104C96.6845 66.533 97.7197 65.4225 99.1312 65.4225C100.543 65.4225 101.578 66.533 101.578 68.0104C101.578 69.4878 100.543 70.5983 99.1312 70.5983ZM99.1312 69.7607C99.9499 69.7607 100.599 69.102 100.599 68.0104C100.599 66.9188 99.9499 66.2695 99.1312 66.2695C98.3125 66.2695 97.6726 66.9188 97.6726 68.0104C97.6726 69.102 98.3125 69.7607 99.1312 69.7607ZM105.662 68.4527V65.5166H106.612V70.5042H105.728V69.7137C105.464 70.2312 104.881 70.5983 104.203 70.5983C103.196 70.5983 102.5 70.0054 102.5 68.7256V65.5166H103.45V68.5374C103.45 69.4031 103.883 69.7607 104.504 69.7607C105.144 69.7607 105.662 69.2337 105.662 68.4527ZM114.02 70.5042L112.891 66.7965L111.753 70.5042H110.793L109.353 65.5166H110.285L111.291 69.1491L112.421 65.5166H113.362L114.472 69.1585L115.479 65.5166H116.42L114.971 70.5042H114.02ZM120.06 70.5042V69.7325C119.749 70.2877 119.194 70.5983 118.46 70.5983C117.425 70.5983 116.747 70.0054 116.747 69.0926C116.747 68.1139 117.529 67.6057 119.015 67.6057C119.307 67.6057 119.542 67.6152 119.947 67.6622V67.2952C119.947 66.58 119.561 66.1754 118.902 66.1754C118.206 66.1754 117.783 66.5894 117.754 67.2858H116.889C116.936 66.166 117.736 65.4225 118.902 65.4225C120.135 65.4225 120.85 66.1189 120.85 67.3046V70.5042H120.06ZM117.651 69.0644C117.651 69.5819 118.037 69.9207 118.648 69.9207C119.448 69.9207 119.947 69.422 119.947 68.6597V68.2551C119.58 68.208 119.317 68.1986 119.072 68.1986C118.121 68.1986 117.651 68.4809 117.651 69.0644ZM123.072 67.6904V70.5042H122.121V65.5166H123.006V66.3448C123.345 65.7895 123.909 65.4225 124.596 65.4225C125.622 65.4225 126.299 66.0813 126.299 67.2764V70.5042H125.349V67.5963C125.349 66.74 124.973 66.2601 124.267 66.2601C123.617 66.2601 123.072 66.8059 123.072 67.6904ZM130.357 69.5819V70.4195C130.065 70.5512 129.811 70.5983 129.51 70.5983C128.588 70.5983 127.948 70.0995 127.948 68.9985V66.3259H126.847V65.5166H127.948V64.0392H128.898V65.5166H130.404V66.3259H128.898V68.782C128.898 69.469 129.228 69.7137 129.736 69.7137C129.962 69.7137 130.159 69.676 130.357 69.5819ZM136.091 69.5819V70.4195C135.8 70.5512 135.546 70.5983 135.244 70.5983C134.322 70.5983 133.682 70.0995 133.682 68.9985V66.3259H132.581V65.5166H133.682V64.0392H134.633V65.5166H136.138V66.3259H134.633V68.782C134.633 69.469 134.962 69.7137 135.47 69.7137C135.696 69.7137 135.894 69.676 136.091 69.5819ZM138.997 70.5983C137.585 70.5983 136.55 69.4878 136.55 68.0104C136.55 66.533 137.585 65.4225 138.997 65.4225C140.408 65.4225 141.443 66.533 141.443 68.0104C141.443 69.4878 140.408 70.5983 138.997 70.5983ZM138.997 69.7607C139.815 69.7607 140.465 69.102 140.465 68.0104C140.465 66.9188 139.815 66.2695 138.997 66.2695C138.178 66.2695 137.538 66.9188 137.538 68.0104C137.538 69.102 138.178 69.7607 138.997 69.7607ZM148.331 69.0173C148.331 69.996 147.569 70.5983 146.242 70.5983C144.925 70.5983 144.144 69.9489 144.05 68.8762H144.962C145 69.4972 145.499 69.8831 146.261 69.8831C146.929 69.8831 147.371 69.6478 147.371 69.1773C147.371 68.7632 147.117 68.5844 146.496 68.4621L145.687 68.3115C144.765 68.1327 144.247 67.6622 144.247 66.9094C144.247 66.0342 145.009 65.4225 146.167 65.4225C147.362 65.4225 148.171 66.0624 148.256 67.0882H147.343C147.287 66.4859 146.845 66.1377 146.176 66.1377C145.574 66.1377 145.169 66.3918 145.169 66.8247C145.169 67.2293 145.424 67.4175 146.026 67.5305L146.873 67.6904C147.861 67.8692 148.331 68.3021 148.331 69.0173ZM151.421 70.5983C149.981 70.5983 149.011 69.5537 149.011 67.9822C149.011 66.5047 150.018 65.4225 151.392 65.4225C152.879 65.4225 153.867 66.6271 153.698 68.2457H149.981C150.056 69.262 150.564 69.8548 151.402 69.8548C152.108 69.8548 152.597 69.469 152.757 68.8197H153.698C153.453 69.9301 152.597 70.5983 151.421 70.5983ZM151.374 66.1377C150.611 66.1377 150.094 66.6835 149.99 67.6152H152.691C152.644 66.6929 152.145 66.1377 151.374 66.1377ZM155.659 67.6904V70.5042H154.708V65.5166H155.593V66.3448C155.932 65.7895 156.496 65.4225 157.183 65.4225C158.209 65.4225 158.887 66.0813 158.887 67.2764V70.5042H157.936V67.5963C157.936 66.74 157.56 66.2601 156.854 66.2601C156.205 66.2601 155.659 66.8059 155.659 67.6904ZM159.791 68.0104C159.791 66.4953 160.657 65.4225 162.003 65.4225C162.671 65.4225 163.254 65.7613 163.602 66.373V63.7475H164.553V70.5042H163.668V69.6102C163.311 70.2407 162.708 70.5983 162.003 70.5983C160.657 70.5983 159.791 69.5066 159.791 68.0104ZM160.779 68.0104C160.779 69.1208 161.363 69.7513 162.191 69.7513C163 69.7513 163.602 69.0926 163.602 67.9916C163.602 66.8717 162.981 66.2601 162.191 66.2601C161.363 66.2601 160.779 66.8811 160.779 68.0104ZM166.288 65.4884H165.385C165.422 64.4062 166.298 63.6534 167.483 63.6534C168.707 63.6534 169.525 64.378 169.525 65.3567C169.525 65.9307 169.205 66.3636 168.688 66.8059L168.133 67.2576C167.671 67.6528 167.568 67.9069 167.643 68.6503H167.003C166.796 67.794 166.806 67.3705 167.351 66.8906L167.916 66.3918C168.274 66.0719 168.481 65.8366 168.481 65.4414C168.481 64.905 168.067 64.5003 167.389 64.5003C166.749 64.5003 166.316 64.905 166.288 65.4884ZM168.057 69.8454C168.057 70.2501 167.728 70.5512 167.304 70.5512C166.881 70.5512 166.552 70.2501 166.552 69.8454C166.552 69.422 166.872 69.1208 167.304 69.1208C167.737 69.1208 168.057 69.422 168.057 69.8454Z" fill="#1A1A1A"/>
<path d="M15.4095 83.8567L14.9154 82.5458H12.7087L12.208 83.8567H11.7206L13.5584 79.127H14.0986L15.9299 83.8567H15.4095ZM13.8153 79.654L12.8602 82.144H14.7573L13.8153 79.654ZM16.1544 82.1176C16.1544 81.0505 16.7472 80.3193 17.6826 80.3193C18.203 80.3193 18.6444 80.6157 18.8749 81.1098V79.127H19.336V83.8567H18.9079V83.1255C18.6641 83.6327 18.2162 83.9226 17.6826 83.9226C16.7472 83.9226 16.1544 83.1848 16.1544 82.1176ZM16.6221 82.1176C16.6221 83.0003 17.07 83.5207 17.7485 83.5207C18.4204 83.5207 18.8815 82.974 18.8815 82.1045C18.8815 81.2284 18.4072 80.7211 17.7485 80.7211C17.07 80.7211 16.6221 81.235 16.6221 82.1176ZM20.0784 82.1176C20.0784 81.0505 20.6713 80.3193 21.6067 80.3193C22.1271 80.3193 22.5684 80.6157 22.799 81.1098V79.127H23.2601V83.8567H22.8319V83.1255C22.5882 83.6327 22.1403 83.9226 21.6067 83.9226C20.6713 83.9226 20.0784 83.1848 20.0784 82.1176ZM20.5461 82.1176C20.5461 83.0003 20.9941 83.5207 21.6726 83.5207C22.3445 83.5207 22.8056 82.974 22.8056 82.1045C22.8056 81.2284 22.3313 80.7211 21.6726 80.7211C20.9941 80.7211 20.5461 81.235 20.5461 82.1176ZM28.8177 82.1176C28.8177 83.1848 28.2183 83.9226 27.2895 83.9226C26.7559 83.9226 26.308 83.6327 26.0642 83.1255V83.8567H25.6361V79.127H26.0972V81.1164C26.3211 80.6092 26.7625 80.3193 27.2895 80.3193C28.2183 80.3193 28.8177 81.0505 28.8177 82.1176ZM28.35 82.1176C28.35 81.235 27.8955 80.7211 27.217 80.7211C26.5649 80.7211 26.0906 81.2284 26.0906 82.1045C26.0906 82.974 26.5517 83.5207 27.217 83.5207C27.8955 83.5207 28.35 83.0003 28.35 82.1176ZM30.0212 81.9991V83.8567H29.5601V80.3852H29.9883V81.1757C30.2254 80.6619 30.7392 80.3325 31.3123 80.3325V80.8134C30.5811 80.787 30.0212 81.2415 30.0212 81.9991ZM33.2594 83.9226C32.3043 83.9226 31.6126 83.165 31.6126 82.1176C31.6126 81.0769 32.3043 80.3259 33.2594 80.3259C34.2212 80.3259 34.9129 81.0769 34.9129 82.1176C34.9129 83.165 34.2212 83.9226 33.2594 83.9226ZM33.2594 83.5207C33.9379 83.5207 34.4452 82.9806 34.4452 82.1176C34.4452 81.2679 33.9379 80.7277 33.2594 80.7277C32.5875 80.7277 32.0803 81.2679 32.0803 82.1176C32.0803 82.9806 32.5875 83.5207 33.2594 83.5207ZM37.7928 83.8567V83.2243C37.5886 83.6591 37.167 83.9226 36.6268 83.9226C35.9088 83.9226 35.4411 83.5207 35.4411 82.8949C35.4411 82.2165 35.9813 81.8607 37.0352 81.8607C37.246 81.8607 37.4041 81.8739 37.7467 81.9003V81.6104C37.7467 81.0307 37.4371 80.6882 36.9101 80.6882C36.3436 80.6882 35.9879 81.0373 35.9813 81.6038H35.5597C35.5795 80.8331 36.113 80.3193 36.9035 80.3193C37.7137 80.3193 38.188 80.7936 38.188 81.5973V83.8567H37.7928ZM35.8825 82.8818C35.8825 83.3034 36.2052 83.5866 36.6927 83.5866C37.3383 83.5866 37.7467 83.165 37.7467 82.5129V82.2033C37.4502 82.1769 37.246 82.1703 37.055 82.1703C36.2645 82.1703 35.8825 82.4009 35.8825 82.8818ZM38.9011 82.1176C38.9011 81.0505 39.4939 80.3193 40.4293 80.3193C40.9497 80.3193 41.3911 80.6157 41.6216 81.1098V79.127H42.0827V83.8567H41.6546V83.1255C41.4108 83.6327 40.9629 83.9226 40.4293 83.9226C39.4939 83.9226 38.9011 83.1848 38.9011 82.1176ZM39.3688 82.1176C39.3688 83.0003 39.8167 83.5207 40.4952 83.5207C41.1671 83.5207 41.6282 82.974 41.6282 82.1045C41.6282 81.2284 41.1539 80.7211 40.4952 80.7211C39.8167 80.7211 39.3688 81.235 39.3688 82.1176ZM44.3798 83.9291C43.4641 83.9291 42.8252 83.1848 42.8252 82.1176C42.8252 81.0637 43.4707 80.3193 44.3798 80.3193C45.19 80.3193 45.7697 80.8595 45.908 81.729H45.4403C45.3349 81.0966 44.9397 80.7211 44.3798 80.7211C43.7342 80.7211 43.2928 81.2877 43.2928 82.1176C43.2928 82.9608 43.7342 83.5273 44.3798 83.5273C44.9463 83.5273 45.3349 83.1584 45.4403 82.5129H45.908C45.7828 83.3956 45.1966 83.9291 44.3798 83.9291ZM48.7866 83.8567V83.2243C48.5824 83.6591 48.1608 83.9226 47.6206 83.9226C46.9026 83.9226 46.4349 83.5207 46.4349 82.8949C46.4349 82.2165 46.9751 81.8607 48.0291 81.8607C48.2398 81.8607 48.3979 81.8739 48.7405 81.9003V81.6104C48.7405 81.0307 48.4309 80.6882 47.9039 80.6882C47.3374 80.6882 46.9817 81.0373 46.9751 81.6038H46.5535C46.5733 80.8331 47.1068 80.3193 47.8973 80.3193C48.7075 80.3193 49.1818 80.7936 49.1818 81.5973V83.8567H48.7866ZM46.8763 82.8818C46.8763 83.3034 47.1991 83.5866 47.6865 83.5866C48.3321 83.5866 48.7405 83.165 48.7405 82.5129V82.2033C48.444 82.1769 48.2398 82.1703 48.0488 82.1703C47.2583 82.1703 46.8763 82.4009 46.8763 82.8818ZM52.7472 82.8884C52.7472 83.5273 52.2334 83.9226 51.377 83.9226C50.5141 83.9226 49.9871 83.4878 49.9212 82.7698H50.3626C50.3955 83.2638 50.7842 83.5734 51.377 83.5734C51.9435 83.5734 52.2861 83.3561 52.2861 82.9608C52.2861 82.6183 52.0885 82.4602 51.5615 82.3548L51.0608 82.256C50.4021 82.1308 50.053 81.808 50.053 81.3074C50.053 80.7277 50.5668 80.3193 51.3243 80.3193C52.1214 80.3193 52.6484 80.7475 52.7011 81.4392H52.2663C52.2202 80.9583 51.8711 80.675 51.3243 80.675C50.8369 80.675 50.5009 80.9056 50.5009 81.2679C50.5009 81.6104 50.7117 81.7751 51.2255 81.8739L51.7459 81.9727C52.4376 82.1045 52.7472 82.3943 52.7472 82.8884ZM55.3078 83.4153V83.8238C55.1299 83.8962 54.9784 83.9226 54.8072 83.9226C54.2341 83.9226 53.7927 83.6261 53.7927 82.8752V80.7738H52.9759V80.3852H53.7927V79.3576H54.2538V80.3852H55.3407V80.7738H54.2538V82.7764C54.2538 83.3165 54.5173 83.501 54.8994 83.501C55.0443 83.501 55.1629 83.4746 55.3078 83.4153ZM57.8756 81.8344V83.8567H57.4145V80.3852H57.8427V81.0373C58.0667 80.6092 58.4883 80.3193 58.9889 80.3193C59.7135 80.3193 60.1812 80.7804 60.1812 81.6038V83.8567H59.7201V81.7619C59.7201 81.0966 59.4171 80.7211 58.8506 80.7211C58.3104 80.7211 57.8756 81.1888 57.8756 81.8344ZM63.2863 83.8567V83.2243C63.0821 83.6591 62.6605 83.9226 62.1204 83.9226C61.4024 83.9226 60.9347 83.5207 60.9347 82.8949C60.9347 82.2165 61.4748 81.8607 62.5288 81.8607C62.7396 81.8607 62.8977 81.8739 63.2402 81.9003V81.6104C63.2402 81.0307 62.9306 80.6882 62.4036 80.6882C61.8371 80.6882 61.4814 81.0373 61.4748 81.6038H61.0532C61.073 80.8331 61.6066 80.3193 62.397 80.3193C63.2073 80.3193 63.6816 80.7936 63.6816 81.5973V83.8567H63.2863ZM61.376 82.8818C61.376 83.3034 61.6988 83.5866 62.1862 83.5866C62.8318 83.5866 63.2402 83.165 63.2402 82.5129V82.2033C62.9438 82.1769 62.7396 82.1703 62.5485 82.1703C61.7581 82.1703 61.376 82.4009 61.376 82.8818ZM65.1126 83.8567H64.6515V80.3852H65.0797V81.0373C65.3103 80.5894 65.7187 80.3193 66.2127 80.3193C66.7529 80.3193 67.1547 80.6157 67.2996 81.123C67.517 80.6355 67.9518 80.3193 68.4985 80.3193C69.2165 80.3193 69.6645 80.7936 69.6645 81.6038V83.8567H69.2099V81.7553C69.2099 81.0966 68.9069 80.7211 68.347 80.7211C67.82 80.7211 67.3918 81.1823 67.3918 81.8212V83.8567H66.9307V81.7553C66.9307 81.0966 66.6277 80.7211 66.0678 80.7211C65.5342 80.7211 65.1126 81.1823 65.1126 81.8212V83.8567ZM71.9977 83.9226C71.0228 83.9226 70.3772 83.1914 70.3772 82.0913C70.3772 81.0769 71.0491 80.3193 71.9713 80.3193C72.9594 80.3193 73.605 81.1164 73.5259 82.2296H70.8383C70.8779 83.053 71.3126 83.5603 71.9911 83.5603C72.5708 83.5603 72.9726 83.2375 73.0846 82.6842H73.5391C73.381 83.4549 72.7948 83.9226 71.9977 83.9226ZM71.9648 80.675C71.339 80.675 70.8976 81.1559 70.8383 81.9134H73.0451C73.0055 81.1361 72.6037 80.675 71.9648 80.675ZM77.7989 83.8567V83.2243C77.5947 83.6591 77.1731 83.9226 76.633 83.9226C75.915 83.9226 75.4473 83.5207 75.4473 82.8949C75.4473 82.2165 75.9874 81.8607 77.0414 81.8607C77.2522 81.8607 77.4103 81.8739 77.7528 81.9003V81.6104C77.7528 81.0307 77.4432 80.6882 76.9162 80.6882C76.3497 80.6882 75.994 81.0373 75.9874 81.6038H75.5658C75.5856 80.8331 76.1192 80.3193 76.9096 80.3193C77.7199 80.3193 78.1942 80.7936 78.1942 81.5973V83.8567H77.7989ZM75.8886 82.8818C75.8886 83.3034 76.2114 83.5866 76.6989 83.5866C77.3444 83.5866 77.7528 83.165 77.7528 82.5129V82.2033C77.4564 82.1769 77.2522 82.1703 77.0612 82.1703C76.2707 82.1703 75.8886 82.4009 75.8886 82.8818ZM79.6252 81.8344V83.8567H79.1641V80.3852H79.5923V81.0373C79.8163 80.6092 80.2379 80.3193 80.7385 80.3193C81.4631 80.3193 81.9308 80.7804 81.9308 81.6038V83.8567H81.4697V81.7619C81.4697 81.0966 81.1667 80.7211 80.6002 80.7211C80.06 80.7211 79.6252 81.1888 79.6252 81.8344ZM82.6447 82.1176C82.6447 81.0505 83.2376 80.3193 84.173 80.3193C84.6934 80.3193 85.1347 80.6157 85.3653 81.1098V79.127H85.8264V83.8567H85.3982V83.1255C85.1545 83.6327 84.7066 83.9226 84.173 83.9226C83.2376 83.9226 82.6447 83.1848 82.6447 82.1176ZM83.1124 82.1176C83.1124 83.0003 83.5604 83.5207 84.2389 83.5207C84.9108 83.5207 85.3719 82.974 85.3719 82.1045C85.3719 81.2284 84.8976 80.7211 84.2389 80.7211C83.5604 80.7211 83.1124 81.235 83.1124 82.1176ZM89.9875 83.4153V83.8238C89.8097 83.8962 89.6581 83.9226 89.4869 83.9226C88.9138 83.9226 88.4724 83.6261 88.4724 82.8752V80.7738H87.6556V80.3852H88.4724V79.3576H88.9335V80.3852H90.0204V80.7738H88.9335V82.7764C88.9335 83.3165 89.197 83.501 89.5791 83.501C89.724 83.501 89.8426 83.4746 89.9875 83.4153ZM91.9718 83.9226C90.9969 83.9226 90.3513 83.1914 90.3513 82.0913C90.3513 81.0769 91.0233 80.3193 91.9455 80.3193C92.9336 80.3193 93.5791 81.1164 93.5001 82.2296H90.8125C90.852 83.053 91.2867 83.5603 91.9652 83.5603C92.5449 83.5603 92.9467 83.2375 93.0587 82.6842H93.5132C93.3551 83.4549 92.7689 83.9226 91.9718 83.9226ZM91.9389 80.675C91.3131 80.675 90.8717 81.1559 90.8125 81.9134H93.0192C92.9797 81.1361 92.5779 80.675 91.9389 80.675ZM94.7232 83.8567H94.2621V80.3852H94.6903V81.0373C94.9209 80.5894 95.3293 80.3193 95.8233 80.3193C96.3635 80.3193 96.7653 80.6157 96.9102 81.123C97.1276 80.6355 97.5624 80.3193 98.1091 80.3193C98.8271 80.3193 99.2751 80.7936 99.2751 81.6038V83.8567H98.8205V81.7553C98.8205 81.0966 98.5175 80.7211 97.9576 80.7211C97.4306 80.7211 97.0024 81.1823 97.0024 81.8212V83.8567H96.5413V81.7553C96.5413 81.0966 96.2383 80.7211 95.6784 80.7211C95.1448 80.7211 94.7232 81.1823 94.7232 81.8212V83.8567ZM103.426 82.1176C103.426 83.1914 102.827 83.9226 101.905 83.9226C101.384 83.9226 100.943 83.6393 100.706 83.1453V85.128H100.245V80.3852H100.673V81.1361C100.91 80.6223 101.371 80.3193 101.905 80.3193C102.827 80.3193 103.426 81.0571 103.426 82.1176ZM102.959 82.1176C102.959 81.2415 102.504 80.7211 101.826 80.7211C101.18 80.7211 100.699 81.235 100.699 82.1176C100.699 82.9806 101.167 83.5207 101.826 83.5207C102.504 83.5207 102.959 83.0069 102.959 82.1176ZM104.63 83.8567H104.169V79.127H104.63V83.8567ZM107.763 83.8567V83.2243C107.559 83.6591 107.138 83.9226 106.597 83.9226C105.879 83.9226 105.412 83.5207 105.412 82.8949C105.412 82.2165 105.952 81.8607 107.006 81.8607C107.217 81.8607 107.375 81.8739 107.717 81.9003V81.6104C107.717 81.0307 107.408 80.6882 106.881 80.6882C106.314 80.6882 105.958 81.0373 105.952 81.6038H105.53C105.55 80.8331 106.084 80.3193 106.874 80.3193C107.684 80.3193 108.159 80.7936 108.159 81.5973V83.8567H107.763ZM105.853 82.8818C105.853 83.3034 106.176 83.5866 106.663 83.5866C107.309 83.5866 107.717 83.165 107.717 82.5129V82.2033C107.421 82.1769 107.217 82.1703 107.026 82.1703C106.235 82.1703 105.853 82.4009 105.853 82.8818ZM110.894 83.4153V83.8238C110.717 83.8962 110.565 83.9226 110.394 83.9226C109.821 83.9226 109.379 83.6261 109.379 82.8752V80.7738H108.563V80.3852H109.379V79.3576H109.84V80.3852H110.927V80.7738H109.84V82.7764C109.84 83.3165 110.104 83.501 110.486 83.501C110.631 83.501 110.749 83.4746 110.894 83.4153ZM112.879 83.9226C111.904 83.9226 111.258 83.1914 111.258 82.0913C111.258 81.0769 111.93 80.3193 112.852 80.3193C113.84 80.3193 114.486 81.1164 114.407 82.2296H111.719C111.759 83.053 112.194 83.5603 112.872 83.5603C113.452 83.5603 113.854 83.2375 113.966 82.6842H114.42C114.262 83.4549 113.676 83.9226 112.879 83.9226ZM112.846 80.675C112.22 80.675 111.779 81.1559 111.719 81.9134H113.926C113.887 81.1361 113.485 80.675 112.846 80.675ZM119.727 82.1176C119.727 83.1848 119.128 83.9226 118.199 83.9226C117.666 83.9226 117.218 83.6327 116.974 83.1255V83.8567H116.546V79.127H117.007V81.1164C117.231 80.6092 117.672 80.3193 118.199 80.3193C119.128 80.3193 119.727 81.0505 119.727 82.1176ZM119.26 82.1176C119.26 81.235 118.805 80.7211 118.127 80.7211C117.474 80.7211 117 81.2284 117 82.1045C117 82.974 117.461 83.5207 118.127 83.5207C118.805 83.5207 119.26 83.0003 119.26 82.1176ZM121.833 83.9226C120.858 83.9226 120.213 83.1914 120.213 82.0913C120.213 81.0769 120.885 80.3193 121.807 80.3193C122.795 80.3193 123.441 81.1164 123.362 82.2296H120.674C120.713 83.053 121.148 83.5603 121.827 83.5603C122.406 83.5603 122.808 83.2375 122.92 82.6842H123.375C123.217 83.4549 122.63 83.9226 121.833 83.9226ZM121.8 80.675C121.175 80.675 120.733 81.1559 120.674 81.9134H122.881C122.841 81.1361 122.439 80.675 121.8 80.675ZM124.585 83.8567H124.124V79.127H124.585V83.8567ZM126.974 83.9226C126.019 83.9226 125.327 83.165 125.327 82.1176C125.327 81.0769 126.019 80.3259 126.974 80.3259C127.936 80.3259 128.627 81.0769 128.627 82.1176C128.627 83.165 127.936 83.9226 126.974 83.9226ZM126.974 83.5207C127.652 83.5207 128.16 82.9806 128.16 82.1176C128.16 81.2679 127.652 80.7277 126.974 80.7277C126.302 80.7277 125.795 81.2679 125.795 82.1176C125.795 82.9806 126.302 83.5207 126.974 83.5207ZM132.194 83.8567L131.285 80.9978L130.382 83.8567H129.915L128.9 80.3852H129.355L130.158 83.2045L131.061 80.3852H131.515L132.411 83.2111L133.215 80.3852H133.676L132.655 83.8567H132.194Z" fill="#767676"/>
<rect x="11.778" y="96.9731" width="310.073" height="183.973" rx="4.46994" fill="#FAFAFA"/>
<rect x="11.778" y="96.9731" width="310.073" height="183.973" rx="4.46994" stroke="#F1F1F1" stroke-width="0.47052"/>
<path d="M26.6956 112.022C26.6956 112.885 26.0632 113.379 25.0817 113.379H23.3492V108.65H24.9895C25.9446 108.65 26.5177 109.091 26.5177 109.888C26.5177 110.336 26.2476 110.718 25.7931 110.916C26.3794 111.08 26.6956 111.482 26.6956 112.022ZM24.9433 109.229H24.0145V110.652H24.9433C25.5164 110.652 25.826 110.382 25.826 109.941C25.826 109.499 25.5164 109.229 24.9433 109.229ZM25.0356 111.232H24.0145V112.8H25.0356C25.6548 112.8 26.0039 112.503 26.0039 112.003C26.0039 111.522 25.6548 111.232 25.0356 111.232ZM28.1432 111.594V113.379H27.4779V109.888H28.0971V110.626C28.3408 110.145 28.8678 109.842 29.4409 109.842V110.534C28.69 110.494 28.1432 110.824 28.1432 111.594ZM31.4169 113.445C30.4289 113.445 29.7043 112.668 29.7043 111.634C29.7043 110.6 30.4289 109.822 31.4169 109.822C32.405 109.822 33.1296 110.6 33.1296 111.634C33.1296 112.668 32.405 113.445 31.4169 113.445ZM31.4169 112.859C31.99 112.859 32.4446 112.398 32.4446 111.634C32.4446 110.87 31.99 110.415 31.4169 110.415C30.8439 110.415 30.3959 110.87 30.3959 111.634C30.3959 112.398 30.8439 112.859 31.4169 112.859ZM35.9224 113.379V112.839C35.705 113.228 35.3164 113.445 34.8026 113.445C34.078 113.445 33.6037 113.03 33.6037 112.391C33.6037 111.706 34.1504 111.351 35.1912 111.351C35.3954 111.351 35.5601 111.357 35.8433 111.39V111.133C35.8433 110.632 35.5733 110.349 35.1122 110.349C34.6247 110.349 34.3283 110.639 34.3085 111.127H33.7025C33.7354 110.343 34.2953 109.822 35.1122 109.822C35.9751 109.822 36.4757 110.31 36.4757 111.14V113.379H35.9224ZM34.236 112.372C34.236 112.734 34.5061 112.971 34.9343 112.971C35.4942 112.971 35.8433 112.622 35.8433 112.088V111.805C35.5864 111.772 35.402 111.766 35.2307 111.766C34.5654 111.766 34.236 111.963 34.236 112.372ZM37.1149 111.634C37.1149 110.573 37.721 109.822 38.663 109.822C39.1307 109.822 39.5391 110.059 39.7828 110.488V108.65H40.4481V113.379H39.8289V112.754C39.5786 113.195 39.157 113.445 38.663 113.445C37.721 113.445 37.1149 112.681 37.1149 111.634ZM37.8066 111.634C37.8066 112.411 38.215 112.852 38.7947 112.852C39.3612 112.852 39.7828 112.391 39.7828 111.621C39.7828 110.837 39.348 110.409 38.7947 110.409C38.215 110.409 37.8066 110.843 37.8066 111.634ZM42.7497 113.452C41.7945 113.452 41.1226 112.701 41.1226 111.634C41.1226 110.58 41.8077 109.822 42.7497 109.822C43.6126 109.822 44.2384 110.395 44.3636 111.304H43.6653C43.5929 110.744 43.2437 110.409 42.7563 110.409C42.1832 110.409 41.8077 110.896 41.8077 111.634C41.8077 112.378 42.1832 112.859 42.7563 112.859C43.2503 112.859 43.5929 112.53 43.6719 111.963H44.3636C44.245 112.885 43.6258 113.452 42.7497 113.452ZM47.1478 113.379V112.839C46.9304 113.228 46.5418 113.445 46.0279 113.445C45.3033 113.445 44.8291 113.03 44.8291 112.391C44.8291 111.706 45.3758 111.351 46.4166 111.351C46.6208 111.351 46.7855 111.357 47.0687 111.39V111.133C47.0687 110.632 46.7987 110.349 46.3376 110.349C45.8501 110.349 45.5537 110.639 45.5339 111.127H44.9279C44.9608 110.343 45.5207 109.822 46.3376 109.822C47.2005 109.822 47.7011 110.31 47.7011 111.14V113.379H47.1478ZM45.4614 112.372C45.4614 112.734 45.7315 112.971 46.1597 112.971C46.7196 112.971 47.0687 112.622 47.0687 112.088V111.805C46.8118 111.772 46.6274 111.766 46.4561 111.766C45.7908 111.766 45.4614 111.963 45.4614 112.372ZM51.3573 112.339C51.3573 113.024 50.8237 113.445 49.8949 113.445C48.9727 113.445 48.426 112.991 48.3601 112.24H48.9991C49.0254 112.675 49.3745 112.945 49.9081 112.945C50.3758 112.945 50.6854 112.78 50.6854 112.451C50.6854 112.161 50.5076 112.036 50.0728 111.95L49.5063 111.845C48.8607 111.719 48.4984 111.39 48.4984 110.863C48.4984 110.25 49.032 109.822 49.8422 109.822C50.6788 109.822 51.2453 110.27 51.3046 110.988H50.6657C50.6261 110.567 50.3165 110.323 49.8488 110.323C49.4272 110.323 49.144 110.501 49.144 110.804C49.144 111.087 49.3218 111.219 49.7434 111.298L50.3363 111.41C51.028 111.535 51.3573 111.838 51.3573 112.339ZM54.0083 112.734V113.32C53.8041 113.412 53.6262 113.445 53.4154 113.445C52.7699 113.445 52.3219 113.096 52.3219 112.325V110.455H51.5512V109.888H52.3219V108.854H52.9873V109.888H54.0412V110.455H52.9873V112.174C52.9873 112.655 53.2178 112.826 53.5735 112.826C53.7316 112.826 53.87 112.8 54.0083 112.734ZM56.7181 111.41V113.379H56.0528V109.888H56.672V110.468C56.9092 110.079 57.3044 109.822 57.7853 109.822C58.5033 109.822 58.9776 110.283 58.9776 111.12V113.379H58.3122V111.344C58.3122 110.744 58.0488 110.409 57.5547 110.409C57.1002 110.409 56.7181 110.791 56.7181 111.41ZM61.9756 113.379V112.839C61.7582 113.228 61.3696 113.445 60.8558 113.445C60.1312 113.445 59.6569 113.03 59.6569 112.391C59.6569 111.706 60.2036 111.351 61.2444 111.351C61.4486 111.351 61.6133 111.357 61.8966 111.39V111.133C61.8966 110.632 61.6265 110.349 61.1654 110.349C60.6779 110.349 60.3815 110.639 60.3617 111.127H59.7557C59.7886 110.343 60.3485 109.822 61.1654 109.822C62.0283 109.822 62.5289 110.31 62.5289 111.14V113.379H61.9756ZM60.2893 112.372C60.2893 112.734 60.5593 112.971 60.9875 112.971C61.5474 112.971 61.8966 112.622 61.8966 112.088V111.805C61.6397 111.772 61.4552 111.766 61.2839 111.766C60.6186 111.766 60.2893 111.963 60.2893 112.372ZM64.0838 113.379H63.4185V109.888H64.0377V110.468C64.2748 110.066 64.6503 109.822 65.1312 109.822C65.645 109.822 66.0336 110.086 66.1917 110.547C66.4354 110.099 66.8373 109.822 67.3708 109.822C68.0889 109.822 68.55 110.29 68.55 111.12V113.379H67.8846V111.331C67.8846 110.751 67.6277 110.409 67.1403 110.409C66.6858 110.409 66.3169 110.791 66.3169 111.377V113.379H65.6516V111.331C65.6516 110.751 65.3947 110.409 64.9072 110.409C64.4461 110.409 64.0838 110.791 64.0838 111.377V113.379ZM70.8757 113.445C69.8678 113.445 69.1893 112.714 69.1893 111.614C69.1893 110.58 69.8942 109.822 70.8559 109.822C71.8967 109.822 72.5884 110.665 72.4698 111.798H69.8678C69.9205 112.51 70.2762 112.925 70.8625 112.925C71.3566 112.925 71.6991 112.655 71.8111 112.2H72.4698C72.2985 112.978 71.6991 113.445 70.8757 113.445ZM70.8428 110.323C70.3092 110.323 69.9469 110.705 69.8744 111.357H71.765C71.732 110.712 71.3829 110.323 70.8428 110.323Z" fill="#1A1A1A"/>
<rect x="23.0707" y="119.438" width="286.547" height="20.9399" rx="3.5289" fill="white"/>
<rect x="23.0707" y="119.438" width="286.547" height="20.9399" rx="3.5289" stroke="#D0D5DD" stroke-width="0.47052"/>
<path d="M31.5532 132.983C30.439 132.983 29.7012 132.148 29.7012 130.89C29.7012 129.731 30.4691 128.865 31.5231 128.865C32.6523 128.865 33.3901 129.776 33.2998 131.048H30.2282C30.2734 131.99 30.7703 132.569 31.5457 132.569C32.2082 132.569 32.6674 132.2 32.7954 131.568H33.3148C33.1342 132.449 32.4641 132.983 31.5532 132.983ZM31.5156 129.272C30.8004 129.272 30.296 129.821 30.2282 130.687H32.7502C32.705 129.799 32.2458 129.272 31.5156 129.272ZM34.6977 130.597V132.908H34.1707V128.941H34.6601V129.686C34.916 129.196 35.3978 128.865 35.97 128.865C36.7981 128.865 37.3326 129.392 37.3326 130.333V132.908H36.8056V130.514C36.8056 129.754 36.4593 129.324 35.8119 129.324C35.1946 129.324 34.6977 129.859 34.6977 130.597ZM40.475 132.404V132.87C40.2717 132.953 40.0986 132.983 39.9028 132.983C39.2479 132.983 38.7435 132.644 38.7435 131.786V129.385H37.81V128.941H38.7435V127.766H39.2704V128.941H40.5126V129.385H39.2704V131.673C39.2704 132.291 39.5716 132.501 40.0082 132.501C40.1738 132.501 40.3094 132.471 40.475 132.404ZM42.7428 132.983C41.6286 132.983 40.8908 132.148 40.8908 130.89C40.8908 129.731 41.6587 128.865 42.7127 128.865C43.8419 128.865 44.5797 129.776 44.4893 131.048H41.4178C41.463 131.99 41.9598 132.569 42.7352 132.569C43.3977 132.569 43.857 132.2 43.9849 131.568H44.5044C44.3237 132.449 43.6537 132.983 42.7428 132.983ZM42.7051 129.272C41.9899 129.272 41.4855 129.821 41.4178 130.687H43.9398C43.8946 129.799 43.4354 129.272 42.7051 129.272ZM45.8873 130.785V132.908H45.3603V128.941H45.8496V129.844C46.1206 129.257 46.7078 128.88 47.3628 128.88V129.43C46.5272 129.4 45.8873 129.919 45.8873 130.785ZM53.2164 130.92C53.2164 132.14 52.5314 132.983 51.4699 132.983C50.8601 132.983 50.3481 132.652 50.0696 132.072V132.908H49.5802V127.503H50.1072V129.776C50.3632 129.196 50.8676 128.865 51.4699 128.865C52.5314 128.865 53.2164 129.701 53.2164 130.92ZM52.6819 130.92C52.6819 129.912 52.1625 129.324 51.387 129.324C50.6417 129.324 50.0997 129.904 50.0997 130.905C50.0997 131.899 50.6267 132.524 51.387 132.524C52.1625 132.524 52.6819 131.929 52.6819 130.92ZM54.5919 130.785V132.908H54.0649V128.941H54.5542V129.844C54.8253 129.257 55.4125 128.88 56.0674 128.88V129.43C55.2318 129.4 54.5919 129.919 54.5919 130.785ZM58.2927 132.983C57.2011 132.983 56.4106 132.117 56.4106 130.92C56.4106 129.731 57.2011 128.873 58.2927 128.873C59.3918 128.873 60.1823 129.731 60.1823 130.92C60.1823 132.117 59.3918 132.983 58.2927 132.983ZM58.2927 132.524C59.0681 132.524 59.6478 131.907 59.6478 130.92C59.6478 129.949 59.0681 129.332 58.2927 129.332C57.5248 129.332 56.9451 129.949 56.9451 130.92C56.9451 131.907 57.5248 132.524 58.2927 132.524ZM63.4736 132.908V132.185C63.2403 132.682 62.7585 132.983 62.1411 132.983C61.3205 132.983 60.786 132.524 60.786 131.809C60.786 131.033 61.4034 130.627 62.6079 130.627C62.8488 130.627 63.0295 130.642 63.421 130.672V130.341C63.421 129.678 63.0671 129.287 62.4649 129.287C61.8174 129.287 61.4109 129.686 61.4034 130.333H60.9215C60.9441 129.452 61.5539 128.865 62.4573 128.865C63.3833 128.865 63.9253 129.407 63.9253 130.326V132.908H63.4736ZM61.2904 131.794C61.2904 132.276 61.6593 132.599 62.2164 132.599C62.9542 132.599 63.421 132.117 63.421 131.372V131.018C63.0822 130.988 62.8488 130.981 62.6305 130.981C61.7271 130.981 61.2904 131.244 61.2904 131.794ZM64.7403 130.92C64.7403 129.701 65.4178 128.865 66.4869 128.865C67.0816 128.865 67.586 129.204 67.8495 129.769V127.503H68.3765V132.908H67.8871V132.072C67.6086 132.652 67.0967 132.983 66.4869 132.983C65.4178 132.983 64.7403 132.14 64.7403 130.92ZM65.2748 130.92C65.2748 131.929 65.7867 132.524 66.5621 132.524C67.33 132.524 67.857 131.899 67.857 130.905C67.857 129.904 67.315 129.324 66.5621 129.324C65.7867 129.324 65.2748 129.912 65.2748 130.92ZM71.0016 132.991C69.9552 132.991 69.2249 132.14 69.2249 130.92C69.2249 129.716 69.9627 128.865 71.0016 128.865C71.9276 128.865 72.5901 129.483 72.7482 130.476H72.2137C72.0932 129.754 71.6415 129.324 71.0016 129.324C70.2638 129.324 69.7594 129.972 69.7594 130.92C69.7594 131.884 70.2638 132.532 71.0016 132.532C71.6491 132.532 72.0932 132.11 72.2137 131.372H72.7482C72.6051 132.381 71.9351 132.991 71.0016 132.991ZM76.038 132.908V132.185C75.8046 132.682 75.3228 132.983 74.7055 132.983C73.8849 132.983 73.3504 132.524 73.3504 131.809C73.3504 131.033 73.9677 130.627 75.1722 130.627C75.4132 130.627 75.5938 130.642 75.9853 130.672V130.341C75.9853 129.678 75.6315 129.287 75.0292 129.287C74.3818 129.287 73.9752 129.686 73.9677 130.333H73.4859C73.5085 129.452 74.1183 128.865 75.0217 128.865C75.9477 128.865 76.4897 129.407 76.4897 130.326V132.908H76.038ZM73.8548 131.794C73.8548 132.276 74.2237 132.599 74.7808 132.599C75.5186 132.599 75.9853 132.117 75.9853 131.372V131.018C75.6465 130.988 75.4132 130.981 75.1948 130.981C74.2914 130.981 73.8548 131.244 73.8548 131.794ZM80.5644 131.801C80.5644 132.532 79.9772 132.983 78.9985 132.983C78.0123 132.983 77.41 132.486 77.3348 131.666H77.8392C77.8768 132.23 78.321 132.584 78.9985 132.584C79.646 132.584 80.0374 132.336 80.0374 131.884C80.0374 131.493 79.8116 131.312 79.2093 131.192L78.6372 131.079C77.8843 130.936 77.4853 130.567 77.4853 129.994C77.4853 129.332 78.0725 128.865 78.9383 128.865C79.8492 128.865 80.4515 129.355 80.5117 130.145H80.0148C79.9621 129.595 79.5631 129.272 78.9383 129.272C78.3812 129.272 77.9972 129.535 77.9972 129.949C77.9972 130.341 78.2382 130.529 78.8254 130.642L79.4201 130.755C80.2106 130.905 80.5644 131.237 80.5644 131.801ZM83.4908 132.404V132.87C83.2875 132.953 83.1144 132.983 82.9187 132.983C82.2637 132.983 81.7593 132.644 81.7593 131.786V129.385H80.8258V128.941H81.7593V127.766H82.2863V128.941H83.5284V129.385H82.2863V131.673C82.2863 132.291 82.5874 132.501 83.0241 132.501C83.1897 132.501 83.3252 132.471 83.4908 132.404ZM86.4255 130.597V132.908H85.8985V128.941H86.3879V129.686C86.6438 129.196 87.1256 128.865 87.6978 128.865C88.5259 128.865 89.0604 129.392 89.0604 130.333V132.908H88.5334V130.514C88.5334 129.754 88.1871 129.324 87.5397 129.324C86.9224 129.324 86.4255 129.859 86.4255 130.597ZM92.6091 132.908V132.185C92.3758 132.682 91.8939 132.983 91.2766 132.983C90.456 132.983 89.9215 132.524 89.9215 131.809C89.9215 131.033 90.5388 130.627 91.7434 130.627C91.9843 130.627 92.165 130.642 92.5564 130.672V130.341C92.5564 129.678 92.2026 129.287 91.6003 129.287C90.9529 129.287 90.5464 129.686 90.5388 130.333H90.057C90.0796 129.452 90.6894 128.865 91.5928 128.865C92.5188 128.865 93.0608 129.407 93.0608 130.326V132.908H92.6091ZM90.4259 131.794C90.4259 132.276 90.7948 132.599 91.3519 132.599C92.0897 132.599 92.5564 132.117 92.5564 131.372V131.018C92.2177 130.988 91.9843 130.981 91.766 130.981C90.8626 130.981 90.4259 131.244 90.4259 131.794ZM94.6964 132.908H94.1694V128.941H94.6587V129.686C94.9222 129.174 95.389 128.865 95.9536 128.865C96.5709 128.865 97.0301 129.204 97.1958 129.784C97.4442 129.227 97.9411 128.865 98.5659 128.865C99.3865 128.865 99.8984 129.407 99.8984 130.333V132.908H99.379V130.506C99.379 129.754 99.0327 129.324 98.3928 129.324C97.7905 129.324 97.3012 129.851 97.3012 130.582V132.908H96.7742V130.506C96.7742 129.754 96.4279 129.324 95.788 129.324C95.1782 129.324 94.6964 129.851 94.6964 130.582V132.908ZM102.565 132.983C101.451 132.983 100.713 132.148 100.713 130.89C100.713 129.731 101.481 128.865 102.535 128.865C103.664 128.865 104.402 129.776 104.312 131.048H101.24C101.285 131.99 101.782 132.569 102.557 132.569C103.22 132.569 103.679 132.2 103.807 131.568H104.327C104.146 132.449 103.476 132.983 102.565 132.983ZM102.527 129.272C101.812 129.272 101.308 129.821 101.24 130.687H103.762C103.717 129.799 103.258 129.272 102.527 129.272Z" fill="#A3A3A3"/>
<path d="M24.8445 156.082H23.3492V151.353H24.8445C26.353 151.353 27.2225 152.314 27.2225 153.698C27.2225 155.061 26.3201 156.082 24.8445 156.082ZM24.0738 151.978V155.456H24.8116C25.8985 155.456 26.4848 154.785 26.4848 153.698C26.4848 152.631 25.9051 151.978 24.8116 151.978H24.0738ZM29.3642 156.148C28.3564 156.148 27.6779 155.417 27.6779 154.317C27.6779 153.283 28.3827 152.525 29.3445 152.525C30.3853 152.525 31.0769 153.368 30.9584 154.501H28.3564C28.4091 155.213 28.7648 155.628 29.3511 155.628C29.8451 155.628 30.1876 155.358 30.2996 154.903H30.9584C30.7871 155.68 30.1876 156.148 29.3642 156.148ZM29.3313 153.026C28.7977 153.026 28.4354 153.408 28.363 154.06H30.2535C30.2206 153.414 29.8715 153.026 29.3313 153.026ZM34.4324 155.041C34.4324 155.727 33.8988 156.148 32.97 156.148C32.0478 156.148 31.501 155.694 31.4352 154.943H32.0741C32.1005 155.377 32.4496 155.648 32.9832 155.648C33.4509 155.648 33.7605 155.483 33.7605 155.153C33.7605 154.864 33.5826 154.738 33.1479 154.653L32.5814 154.547C31.9358 154.422 31.5735 154.093 31.5735 153.566C31.5735 152.953 32.1071 152.525 32.9173 152.525C33.7539 152.525 34.3204 152.973 34.3797 153.691H33.7407C33.7012 153.27 33.3916 153.026 32.9239 153.026C32.5023 153.026 32.2191 153.204 32.2191 153.507C32.2191 153.79 32.3969 153.922 32.8185 154.001L33.4113 154.113C34.103 154.238 34.4324 154.541 34.4324 155.041ZM36.5355 156.155C35.5804 156.155 34.9085 155.404 34.9085 154.337C34.9085 153.283 35.5935 152.525 36.5355 152.525C37.3985 152.525 38.0242 153.098 38.1494 154.007H37.4512C37.3787 153.447 37.0296 153.111 36.5421 153.111C35.969 153.111 35.5935 153.599 35.5935 154.337C35.5935 155.081 35.969 155.562 36.5421 155.562C37.0362 155.562 37.3787 155.233 37.4577 154.666H38.1494C38.0308 155.588 37.4116 156.155 36.5355 156.155ZM39.4844 154.297V156.082H38.8191V152.591H39.4383V153.329C39.682 152.848 40.209 152.545 40.7821 152.545V153.237C40.0312 153.197 39.4844 153.526 39.4844 154.297ZM42.1189 151.781C42.1189 152.031 41.9212 152.222 41.638 152.222C41.3547 152.222 41.1505 152.031 41.1505 151.781C41.1505 151.524 41.3547 151.339 41.638 151.339C41.9212 151.339 42.1189 151.524 42.1189 151.781ZM41.9739 156.082H41.3086V152.591H41.9739V156.082ZM46.2307 154.337C46.2307 155.391 45.6247 156.148 44.6893 156.148C44.215 156.148 43.8132 155.911 43.5629 155.489V157.354H42.8975V152.591H43.5168V153.23C43.7671 152.782 44.1952 152.525 44.6893 152.525C45.6181 152.525 46.2307 153.283 46.2307 154.337ZM45.539 154.337C45.539 153.553 45.124 153.111 44.551 153.111C43.9976 153.111 43.5629 153.553 43.5629 154.337C43.5629 155.107 43.991 155.555 44.551 155.555C45.124 155.555 45.539 155.121 45.539 154.337ZM48.8234 155.437V156.023C48.6192 156.115 48.4413 156.148 48.2305 156.148C47.585 156.148 47.137 155.799 47.137 155.028V153.158H46.3663V152.591H47.137V151.557H47.8023V152.591H48.8563V153.158H47.8023V154.877C47.8023 155.358 48.0329 155.529 48.3886 155.529C48.5467 155.529 48.685 155.503 48.8234 155.437ZM50.3015 151.781C50.3015 152.031 50.1039 152.222 49.8206 152.222C49.5374 152.222 49.3332 152.031 49.3332 151.781C49.3332 151.524 49.5374 151.339 49.8206 151.339C50.1039 151.339 50.3015 151.524 50.3015 151.781ZM50.1566 156.082H49.4913V152.591H50.1566V156.082ZM52.5426 156.148C51.5545 156.148 50.8299 155.371 50.8299 154.337C50.8299 153.302 51.5545 152.525 52.5426 152.525C53.5307 152.525 54.2553 153.302 54.2553 154.337C54.2553 155.371 53.5307 156.148 52.5426 156.148ZM52.5426 155.562C53.1157 155.562 53.5702 155.101 53.5702 154.337C53.5702 153.573 53.1157 153.118 52.5426 153.118C51.9695 153.118 51.5215 153.573 51.5215 154.337C51.5215 155.101 51.9695 155.562 52.5426 155.562ZM55.5988 154.113V156.082H54.9335V152.591H55.5527V153.171C55.7898 152.782 56.1851 152.525 56.6659 152.525C57.384 152.525 57.8582 152.986 57.8582 153.823V156.082H57.1929V154.047C57.1929 153.447 56.9294 153.111 56.4354 153.111C55.9809 153.111 55.5988 153.493 55.5988 154.113Z" fill="#1A1A1A"/>
<rect x="23.0707" y="162.141" width="286.547" height="38.1121" rx="3.5289" fill="white"/>
<rect x="23.0707" y="162.141" width="286.547" height="38.1121" rx="3.5289" stroke="#D0D5DD" stroke-width="0.47052"/>
<path d="M31.5683 175.611H30.0325V170.205H31.5683C33.2998 170.205 34.2559 171.304 34.2559 172.885C34.2559 174.444 33.2622 175.611 31.5683 175.611ZM30.5971 170.695V175.121H31.5532C32.9234 175.121 33.6838 174.225 33.6838 172.885C33.6838 171.553 32.9385 170.695 31.5532 170.695H30.5971ZM36.6849 175.686C35.5707 175.686 34.8329 174.85 34.8329 173.593C34.8329 172.434 35.6008 171.568 36.6547 171.568C37.784 171.568 38.5218 172.479 38.4314 173.751H35.3599C35.405 174.692 35.9019 175.272 36.6773 175.272C37.3398 175.272 37.799 174.903 37.927 174.271H38.4465C38.2658 175.151 37.5958 175.686 36.6849 175.686ZM36.6472 171.974C35.932 171.974 35.4276 172.524 35.3599 173.39H37.8819C37.8367 172.501 37.3775 171.974 36.6472 171.974ZM42.2685 174.504C42.2685 175.234 41.6813 175.686 40.7026 175.686C39.7164 175.686 39.1141 175.189 39.0389 174.368H39.5433C39.5809 174.933 40.0251 175.287 40.7026 175.287C41.3501 175.287 41.7415 175.038 41.7415 174.587C41.7415 174.195 41.5157 174.015 40.9134 173.894L40.3413 173.781C39.5884 173.638 39.1894 173.269 39.1894 172.697C39.1894 172.035 39.7766 171.568 40.6424 171.568C41.5533 171.568 42.1556 172.057 42.2158 172.848H41.7189C41.6662 172.298 41.2672 171.974 40.6424 171.974C40.0853 171.974 39.7014 172.238 39.7014 172.652C39.7014 173.043 39.9423 173.232 40.5295 173.345L41.1242 173.457C41.9147 173.608 42.2685 173.939 42.2685 174.504ZM44.6672 175.693C43.6208 175.693 42.8905 174.843 42.8905 173.623C42.8905 172.419 43.6283 171.568 44.6672 171.568C45.5932 171.568 46.2557 172.185 46.4138 173.179H45.8793C45.7588 172.456 45.3071 172.027 44.6672 172.027C43.9295 172.027 43.4251 172.675 43.4251 173.623C43.4251 174.587 43.9295 175.234 44.6672 175.234C45.3147 175.234 45.7588 174.813 45.8793 174.075H46.4138C46.2708 175.084 45.6007 175.693 44.6672 175.693ZM47.7914 173.488V175.611H47.2644V171.643H47.7538V172.547C48.0248 171.959 48.612 171.583 49.267 171.583V172.133C48.4313 172.102 47.7914 172.622 47.7914 173.488ZM50.5962 170.725C50.5962 170.958 50.423 171.124 50.1671 171.124C49.9186 171.124 49.7455 170.958 49.7455 170.725C49.7455 170.499 49.9186 170.333 50.1671 170.333C50.423 170.333 50.5962 170.499 50.5962 170.725ZM50.4381 175.611H49.9111V171.643H50.4381V175.611ZM55.2162 173.623C55.2162 174.843 54.5311 175.686 53.4696 175.686C52.8598 175.686 52.3479 175.355 52.0693 174.775V175.611H51.58V170.205H52.107V172.479C52.3629 171.899 52.8673 171.568 53.4696 171.568C54.5311 171.568 55.2162 172.404 55.2162 173.623ZM54.6817 173.623C54.6817 172.614 54.1622 172.027 53.3868 172.027C52.6415 172.027 52.0994 172.607 52.0994 173.608C52.0994 174.602 52.6264 175.227 53.3868 175.227C54.1622 175.227 54.6817 174.632 54.6817 173.623ZM57.623 175.686C56.5088 175.686 55.771 174.85 55.771 173.593C55.771 172.434 56.5389 171.568 57.5929 171.568C58.7221 171.568 59.4599 172.479 59.3696 173.751H56.298C56.3432 174.692 56.8401 175.272 57.6155 175.272C58.278 175.272 58.7372 174.903 58.8652 174.271H59.3846C59.2039 175.151 58.5339 175.686 57.623 175.686ZM57.5854 171.974C56.8702 171.974 56.3658 172.524 56.298 173.39H58.82C58.7748 172.501 58.3156 171.974 57.5854 171.974ZM64.8703 171.643L62.8377 177.064H62.273L62.8527 175.558L61.2793 171.643H61.8439L63.1237 174.926L64.3358 171.643H64.8703ZM66.9532 175.686C65.8616 175.686 65.0712 174.82 65.0712 173.623C65.0712 172.434 65.8616 171.575 66.9532 171.575C68.0524 171.575 68.8428 172.434 68.8428 173.623C68.8428 174.82 68.0524 175.686 66.9532 175.686ZM66.9532 175.227C67.7287 175.227 68.3083 174.609 68.3083 173.623C68.3083 172.652 67.7287 172.035 66.9532 172.035C66.1853 172.035 65.6057 172.652 65.6057 173.623C65.6057 174.609 66.1853 175.227 66.9532 175.227ZM72.2321 174.007V171.643H72.7515V175.611H72.2622V174.895C72.0589 175.355 71.5771 175.686 70.9974 175.686C70.1919 175.686 69.6574 175.227 69.6574 174.225V171.643H70.1844V174.112C70.1844 174.918 70.5834 175.227 71.1404 175.227C71.7728 175.227 72.2321 174.715 72.2321 174.007ZM74.4199 173.488V175.611H73.8929V171.643H74.3823V172.547C74.6533 171.959 75.2405 171.583 75.8955 171.583V172.133C75.0598 172.102 74.4199 172.622 74.4199 173.488ZM81.7491 173.623C81.7491 174.843 81.064 175.686 80.0025 175.686C79.3927 175.686 78.8808 175.355 78.6022 174.775V175.611H78.1129V170.205H78.6399V172.479C78.8959 171.899 79.4003 171.568 80.0025 171.568C81.064 171.568 81.7491 172.404 81.7491 173.623ZM81.2146 173.623C81.2146 172.614 80.6951 172.027 79.9197 172.027C79.1744 172.027 78.6324 172.607 78.6324 173.608C78.6324 174.602 79.1593 175.227 79.9197 175.227C80.6951 175.227 81.2146 174.632 81.2146 173.623ZM83.1245 173.488V175.611H82.5976V171.643H83.0869V172.547C83.3579 171.959 83.9451 171.583 84.6001 171.583V172.133C83.7644 172.102 83.1245 172.622 83.1245 173.488ZM86.8254 175.686C85.7337 175.686 84.9433 174.82 84.9433 173.623C84.9433 172.434 85.7337 171.575 86.8254 171.575C87.9245 171.575 88.715 172.434 88.715 173.623C88.715 174.82 87.9245 175.686 86.8254 175.686ZM86.8254 175.227C87.6008 175.227 88.1805 174.609 88.1805 173.623C88.1805 172.652 87.6008 172.035 86.8254 172.035C86.0575 172.035 85.4778 172.652 85.4778 173.623C85.4778 174.609 86.0575 175.227 86.8254 175.227ZM92.0063 175.611V174.888C91.7729 175.385 91.2911 175.686 90.6738 175.686C89.8532 175.686 89.3187 175.227 89.3187 174.511C89.3187 173.736 89.936 173.33 91.1406 173.33C91.3815 173.33 91.5621 173.345 91.9536 173.375V173.043C91.9536 172.381 91.5998 171.989 90.9975 171.989C90.3501 171.989 89.9435 172.388 89.936 173.036H89.4542C89.4768 172.155 90.0866 171.568 90.99 171.568C91.916 171.568 92.458 172.11 92.458 173.028V175.611H92.0063ZM89.8231 174.496C89.8231 174.978 90.192 175.302 90.7491 175.302C91.4869 175.302 91.9536 174.82 91.9536 174.075V173.721C91.6148 173.691 91.3815 173.683 91.1631 173.683C90.2597 173.683 89.8231 173.947 89.8231 174.496ZM93.2729 173.623C93.2729 172.404 93.9505 171.568 95.0195 171.568C95.6143 171.568 96.1187 171.907 96.3821 172.471V170.205H96.9091V175.611H96.4198V174.775C96.1412 175.355 95.6293 175.686 95.0195 175.686C93.9505 175.686 93.2729 174.843 93.2729 173.623ZM93.8075 173.623C93.8075 174.632 94.3194 175.227 95.0948 175.227C95.8627 175.227 96.3897 174.602 96.3897 173.608C96.3897 172.607 95.8476 172.027 95.0948 172.027C94.3194 172.027 93.8075 172.614 93.8075 173.623ZM99.5343 175.693C98.4878 175.693 97.7576 174.843 97.7576 173.623C97.7576 172.419 98.4954 171.568 99.5343 171.568C100.46 171.568 101.123 172.185 101.281 173.179H100.746C100.626 172.456 100.174 172.027 99.5343 172.027C98.7965 172.027 98.2921 172.675 98.2921 173.623C98.2921 174.587 98.7965 175.234 99.5343 175.234C100.182 175.234 100.626 174.813 100.746 174.075H101.281C101.138 175.084 100.468 175.693 99.5343 175.693ZM104.571 175.611V174.888C104.337 175.385 103.855 175.686 103.238 175.686C102.418 175.686 101.883 175.227 101.883 174.511C101.883 173.736 102.5 173.33 103.705 173.33C103.946 173.33 104.126 173.345 104.518 173.375V173.043C104.518 172.381 104.164 171.989 103.562 171.989C102.914 171.989 102.508 172.388 102.5 173.036H102.019C102.041 172.155 102.651 171.568 103.554 171.568C104.48 171.568 105.022 172.11 105.022 173.028V175.611H104.571ZM102.387 174.496C102.387 174.978 102.756 175.302 103.313 175.302C104.051 175.302 104.518 174.82 104.518 174.075V173.721C104.179 173.691 103.946 173.683 103.727 173.683C102.824 173.683 102.387 173.947 102.387 174.496ZM109.097 174.504C109.097 175.234 108.51 175.686 107.531 175.686C106.545 175.686 105.943 175.189 105.867 174.368H106.372C106.409 174.933 106.854 175.287 107.531 175.287C108.179 175.287 108.57 175.038 108.57 174.587C108.57 174.195 108.344 174.015 107.742 173.894L107.17 173.781C106.417 173.638 106.018 173.269 106.018 172.697C106.018 172.035 106.605 171.568 107.471 171.568C108.382 171.568 108.984 172.057 109.044 172.848H108.547C108.495 172.298 108.096 171.974 107.471 171.974C106.914 171.974 106.53 172.238 106.53 172.652C106.53 173.043 106.771 173.232 107.358 173.345L107.953 173.457C108.743 173.608 109.097 173.939 109.097 174.504ZM112.023 175.106V175.573C111.82 175.656 111.647 175.686 111.451 175.686C110.796 175.686 110.292 175.347 110.292 174.489V172.087H109.358V171.643H110.292V170.469H110.819V171.643H112.061V172.087H110.819V174.376C110.819 174.993 111.12 175.204 111.557 175.204C111.722 175.204 111.858 175.174 112.023 175.106ZM113.828 170.792C113.828 171.312 113.399 171.831 112.721 171.809V171.5C113.113 171.5 113.392 171.259 113.437 170.936C113.376 170.966 113.316 170.973 113.256 170.973C113.023 170.973 112.849 170.8 112.849 170.574C112.849 170.326 113.038 170.16 113.301 170.16C113.647 170.16 113.828 170.431 113.828 170.792ZM117.449 174.504C117.449 175.234 116.862 175.686 115.883 175.686C114.897 175.686 114.294 175.189 114.219 174.368H114.724C114.761 174.933 115.205 175.287 115.883 175.287C116.53 175.287 116.922 175.038 116.922 174.587C116.922 174.195 116.696 174.015 116.094 173.894L115.522 173.781C114.769 173.638 114.37 173.269 114.37 172.697C114.37 172.035 114.957 171.568 115.823 171.568C116.734 171.568 117.336 172.057 117.396 172.848H116.899C116.847 172.298 116.448 171.974 115.823 171.974C115.266 171.974 114.882 172.238 114.882 172.652C114.882 173.043 115.123 173.232 115.71 173.345L116.304 173.457C117.095 173.608 117.449 173.939 117.449 174.504ZM123.574 173.623C123.574 174.85 122.889 175.686 121.835 175.686C121.24 175.686 120.736 175.362 120.465 174.798V177.064H119.938V171.643H120.427V172.501C120.698 171.914 121.225 171.568 121.835 171.568C122.889 171.568 123.574 172.411 123.574 173.623ZM123.039 173.623C123.039 172.622 122.52 172.027 121.745 172.027C121.007 172.027 120.457 172.614 120.457 173.623C120.457 174.609 120.992 175.227 121.745 175.227C122.52 175.227 123.039 174.639 123.039 173.623ZM126.959 174.007V171.643H127.479V175.611H126.99V174.895C126.786 175.355 126.304 175.686 125.725 175.686C124.919 175.686 124.385 175.227 124.385 174.225V171.643H124.912V174.112C124.912 174.918 125.311 175.227 125.868 175.227C126.5 175.227 126.959 174.715 126.959 174.007ZM129.147 173.488V175.611H128.62V171.643H129.11V172.547C129.381 171.959 129.968 171.583 130.623 171.583V172.133C129.787 172.102 129.147 172.622 129.147 173.488ZM134.903 173.623C134.903 174.85 134.218 175.686 133.164 175.686C132.569 175.686 132.065 175.362 131.794 174.798V177.064H131.267V171.643H131.756V172.501C132.027 171.914 132.554 171.568 133.164 171.568C134.218 171.568 134.903 172.411 134.903 173.623ZM134.369 173.623C134.369 172.622 133.849 172.027 133.074 172.027C132.336 172.027 131.786 172.614 131.786 173.623C131.786 174.609 132.321 175.227 133.074 175.227C133.849 175.227 134.369 174.639 134.369 173.623ZM137.34 175.686C136.248 175.686 135.458 174.82 135.458 173.623C135.458 172.434 136.248 171.575 137.34 171.575C138.439 171.575 139.23 172.434 139.23 173.623C139.23 174.82 138.439 175.686 137.34 175.686ZM137.34 175.227C138.116 175.227 138.695 174.609 138.695 173.623C138.695 172.652 138.116 172.035 137.34 172.035C136.572 172.035 135.993 172.652 135.993 173.623C135.993 174.609 136.572 175.227 137.34 175.227ZM143.048 174.504C143.048 175.234 142.461 175.686 141.482 175.686C140.496 175.686 139.894 175.189 139.818 174.368H140.323C140.36 174.933 140.805 175.287 141.482 175.287C142.13 175.287 142.521 175.038 142.521 174.587C142.521 174.195 142.295 174.015 141.693 173.894L141.121 173.781C140.368 173.638 139.969 173.269 139.969 172.697C139.969 172.035 140.556 171.568 141.422 171.568C142.333 171.568 142.935 172.057 142.995 172.848H142.498C142.446 172.298 142.047 171.974 141.422 171.974C140.865 171.974 140.481 172.238 140.481 172.652C140.481 173.043 140.722 173.232 141.309 173.345L141.904 173.457C142.694 173.608 143.048 173.939 143.048 174.504ZM145.522 175.686C144.408 175.686 143.67 174.85 143.67 173.593C143.67 172.434 144.438 171.568 145.492 171.568C146.621 171.568 147.359 172.479 147.269 173.751H144.197C144.242 174.692 144.739 175.272 145.514 175.272C146.177 175.272 146.636 174.903 146.764 174.271H147.284C147.103 175.151 146.433 175.686 145.522 175.686ZM145.484 171.974C144.769 171.974 144.265 172.524 144.197 173.39H146.719C146.674 172.501 146.215 171.974 145.484 171.974Z" fill="#919191"/>
</svg>
